%TF.GenerationSoftware,KiCad,Pcbnew,8.0.8*%
%TF.CreationDate,2025-01-23T19:06:30+01:00*%
%TF.ProjectId,Digitaler_Wuerfel,44696769-7461-46c6-9572-5f5775657266,rev?*%
%TF.SameCoordinates,Original*%
%TF.FileFunction,Soldermask,Bot*%
%TF.FilePolarity,Negative*%
%FSLAX46Y46*%
G04 Gerber Fmt 4.6, Leading zero omitted, Abs format (unit mm)*
G04 Created by KiCad (PCBNEW 8.0.8) date 2025-01-23 19:06:30*
%MOMM*%
%LPD*%
G01*
G04 APERTURE LIST*
G04 Aperture macros list*
%AMRoundRect*
0 Rectangle with rounded corners*
0 $1 Rounding radius*
0 $2 $3 $4 $5 $6 $7 $8 $9 X,Y pos of 4 corners*
0 Add a 4 corners polygon primitive as box body*
4,1,4,$2,$3,$4,$5,$6,$7,$8,$9,$2,$3,0*
0 Add four circle primitives for the rounded corners*
1,1,$1+$1,$2,$3*
1,1,$1+$1,$4,$5*
1,1,$1+$1,$6,$7*
1,1,$1+$1,$8,$9*
0 Add four rect primitives between the rounded corners*
20,1,$1+$1,$2,$3,$4,$5,0*
20,1,$1+$1,$4,$5,$6,$7,0*
20,1,$1+$1,$6,$7,$8,$9,0*
20,1,$1+$1,$8,$9,$2,$3,0*%
G04 Aperture macros list end*
%ADD10C,3.200000*%
%ADD11C,0.800000*%
%ADD12C,6.400000*%
%ADD13O,3.000000X2.500000*%
%ADD14C,2.000000*%
%ADD15R,1.600000X1.600000*%
%ADD16O,1.600000X1.600000*%
%ADD17R,1.524000X2.524000*%
%ADD18O,1.524000X2.524000*%
%ADD19C,1.600000*%
%ADD20R,1.050000X1.500000*%
%ADD21O,1.050000X1.500000*%
%ADD22R,1.700000X1.700000*%
%ADD23O,1.700000X1.700000*%
%ADD24C,2.600000*%
%ADD25R,3.000000X3.000000*%
%ADD26C,3.000000*%
%ADD27RoundRect,0.250000X-0.450000X0.350000X-0.450000X-0.350000X0.450000X-0.350000X0.450000X0.350000X0*%
%ADD28RoundRect,0.250000X0.450000X-0.350000X0.450000X0.350000X-0.450000X0.350000X-0.450000X-0.350000X0*%
G04 APERTURE END LIST*
D10*
%TO.C,REF\u002A\u002A*%
X143500000Y-26500000D03*
%TD*%
%TO.C,REF\u002A\u002A*%
X75300000Y-114000000D03*
%TD*%
D11*
%TO.C,REF\u002A\u002A*%
X141100000Y-114000000D03*
X141802944Y-112302944D03*
X141802944Y-115697056D03*
X143500000Y-111600000D03*
D12*
X143500000Y-114000000D03*
D11*
X143500000Y-116400000D03*
X145197056Y-112302944D03*
X145197056Y-115697056D03*
X145900000Y-114000000D03*
%TD*%
D13*
%TO.C,SW2*%
X139750000Y-76000000D03*
X127250000Y-76000000D03*
X139750000Y-71000000D03*
X127250000Y-71000000D03*
%TD*%
D14*
%TO.C,SW3*%
X115000000Y-54000000D03*
X121500000Y-54000000D03*
X115000000Y-58500000D03*
X121500000Y-58500000D03*
%TD*%
D15*
%TO.C,U2*%
X102795000Y-30905000D03*
D16*
X100255000Y-30905000D03*
X97715000Y-30905000D03*
X95175000Y-30905000D03*
X92635000Y-30905000D03*
X90095000Y-30905000D03*
X87555000Y-30905000D03*
X85015000Y-30905000D03*
X85015000Y-38525000D03*
X87555000Y-38525000D03*
X90095000Y-38525000D03*
X92635000Y-38525000D03*
X95175000Y-38525000D03*
X97715000Y-38525000D03*
X100255000Y-38525000D03*
X102795000Y-38525000D03*
%TD*%
D17*
%TO.C,AFF1*%
X115922500Y-47500000D03*
D18*
X118462500Y-47500000D03*
X121002500Y-47500000D03*
X123542500Y-47500000D03*
X126082500Y-47500000D03*
X126082500Y-32260000D03*
X123542500Y-32260000D03*
X121002500Y-32260000D03*
X118462500Y-32260000D03*
X115922500Y-32260000D03*
%TD*%
D13*
%TO.C,SW1*%
X139750000Y-61000000D03*
X127250000Y-61000000D03*
X139750000Y-56000000D03*
X127250000Y-56000000D03*
%TD*%
D15*
%TO.C,SW4*%
X113500000Y-109500000D03*
D19*
X113500000Y-107000000D03*
X113500000Y-104500000D03*
X116700000Y-109500000D03*
X116700000Y-107000000D03*
X116700000Y-104500000D03*
%TD*%
D15*
%TO.C,U3*%
X102875000Y-47700000D03*
D16*
X100335000Y-47700000D03*
X97795000Y-47700000D03*
X95255000Y-47700000D03*
X92715000Y-47700000D03*
X90175000Y-47700000D03*
X87635000Y-47700000D03*
X85095000Y-47700000D03*
X85095000Y-55320000D03*
X87635000Y-55320000D03*
X90175000Y-55320000D03*
X92715000Y-55320000D03*
X95255000Y-55320000D03*
X97795000Y-55320000D03*
X100335000Y-55320000D03*
X102875000Y-55320000D03*
%TD*%
D20*
%TO.C,Q1*%
X114476000Y-78484000D03*
D21*
X115746000Y-78484000D03*
X117016000Y-78484000D03*
%TD*%
D17*
%TO.C,AFF2*%
X130342500Y-47500000D03*
D18*
X132882500Y-47500000D03*
X135422500Y-47500000D03*
X137962500Y-47500000D03*
X140502500Y-47500000D03*
X140502500Y-32260000D03*
X137962500Y-32260000D03*
X135422500Y-32260000D03*
X132882500Y-32260000D03*
X130342500Y-32260000D03*
%TD*%
D22*
%TO.C,J1*%
X116775000Y-94525000D03*
D23*
X114235000Y-94525000D03*
X116775000Y-91985000D03*
X114235000Y-91985000D03*
X116775000Y-89445000D03*
X114235000Y-89445000D03*
%TD*%
D24*
%TO.C,BT1*%
X85750000Y-70600000D03*
X107950000Y-85350000D03*
X85750000Y-98600000D03*
D25*
X103200000Y-109500000D03*
D26*
X90500000Y-109500000D03*
%TD*%
D24*
%TO.C,J2*%
X131000000Y-89000000D03*
D22*
X128460000Y-83000000D03*
D23*
X131000000Y-83000000D03*
X133540000Y-83000000D03*
%TD*%
D27*
%TO.C,R21*%
X126002500Y-42500000D03*
X126002500Y-44500000D03*
%TD*%
D28*
%TO.C,R20*%
X130502500Y-37000000D03*
X130502500Y-35000000D03*
%TD*%
%TO.C,R10*%
X140502500Y-37000000D03*
X140502500Y-35000000D03*
%TD*%
%TO.C,R7*%
X123502500Y-37000000D03*
X123502500Y-35000000D03*
%TD*%
D27*
%TO.C,R15*%
X116002500Y-42500000D03*
X116002500Y-44500000D03*
%TD*%
%TO.C,R22*%
X140502500Y-42500000D03*
X140502500Y-44500000D03*
%TD*%
D28*
%TO.C,R19*%
X116002500Y-37000000D03*
X116002500Y-35000000D03*
%TD*%
%TO.C,R17*%
X118502500Y-37000000D03*
X118502500Y-35000000D03*
%TD*%
D27*
%TO.C,R11*%
X123502500Y-42500000D03*
X123502500Y-44500000D03*
%TD*%
D28*
%TO.C,R9*%
X126002500Y-37000000D03*
X126002500Y-35000000D03*
%TD*%
D27*
%TO.C,R13*%
X118502500Y-42500000D03*
X118502500Y-44500000D03*
%TD*%
%TO.C,R16*%
X130502500Y-42500000D03*
X130502500Y-44500000D03*
%TD*%
%TO.C,R12*%
X138002500Y-42500000D03*
X138002500Y-44500000D03*
%TD*%
D28*
%TO.C,R18*%
X133002500Y-37000000D03*
X133002500Y-35000000D03*
%TD*%
D27*
%TO.C,R14*%
X133002500Y-42500000D03*
X133002500Y-44500000D03*
%TD*%
D28*
%TO.C,R8*%
X138002500Y-37000000D03*
X138002500Y-35000000D03*
%TD*%
M02*
