%TF.GenerationSoftware,KiCad,Pcbnew,8.0.8*%
%TF.CreationDate,2025-01-23T19:06:30+01:00*%
%TF.ProjectId,Digitaler_Wuerfel,44696769-7461-46c6-9572-5f5775657266,rev?*%
%TF.SameCoordinates,Original*%
%TF.FileFunction,Legend,Bot*%
%TF.FilePolarity,Positive*%
%FSLAX46Y46*%
G04 Gerber Fmt 4.6, Leading zero omitted, Abs format (unit mm)*
G04 Created by KiCad (PCBNEW 8.0.8) date 2025-01-23 19:06:30*
%MOMM*%
%LPD*%
G01*
G04 APERTURE LIST*
%ADD10C,0.100000*%
%ADD11C,0.150000*%
%ADD12C,0.120000*%
G04 APERTURE END LIST*
D10*
X78737524Y-110196115D02*
X79737524Y-110196115D01*
X79356572Y-110196115D02*
X79404191Y-110100877D01*
X79404191Y-110100877D02*
X79404191Y-109910401D01*
X79404191Y-109910401D02*
X79356572Y-109815163D01*
X79356572Y-109815163D02*
X79308953Y-109767544D01*
X79308953Y-109767544D02*
X79213715Y-109719925D01*
X79213715Y-109719925D02*
X78928001Y-109719925D01*
X78928001Y-109719925D02*
X78832763Y-109767544D01*
X78832763Y-109767544D02*
X78785144Y-109815163D01*
X78785144Y-109815163D02*
X78737524Y-109910401D01*
X78737524Y-109910401D02*
X78737524Y-110100877D01*
X78737524Y-110100877D02*
X78785144Y-110196115D01*
X79404191Y-109386591D02*
X78737524Y-109148496D01*
X79404191Y-108910401D02*
X78737524Y-109148496D01*
X78737524Y-109148496D02*
X78499429Y-109243734D01*
X78499429Y-109243734D02*
X78451810Y-109291353D01*
X78451810Y-109291353D02*
X78404191Y-109386591D01*
X79737524Y-107481829D02*
X79023239Y-107481829D01*
X79023239Y-107481829D02*
X78880382Y-107529448D01*
X78880382Y-107529448D02*
X78785144Y-107624686D01*
X78785144Y-107624686D02*
X78737524Y-107767543D01*
X78737524Y-107767543D02*
X78737524Y-107862781D01*
X78737524Y-106577067D02*
X79261334Y-106577067D01*
X79261334Y-106577067D02*
X79356572Y-106624686D01*
X79356572Y-106624686D02*
X79404191Y-106719924D01*
X79404191Y-106719924D02*
X79404191Y-106910400D01*
X79404191Y-106910400D02*
X79356572Y-107005638D01*
X78785144Y-106577067D02*
X78737524Y-106672305D01*
X78737524Y-106672305D02*
X78737524Y-106910400D01*
X78737524Y-106910400D02*
X78785144Y-107005638D01*
X78785144Y-107005638D02*
X78880382Y-107053257D01*
X78880382Y-107053257D02*
X78975620Y-107053257D01*
X78975620Y-107053257D02*
X79070858Y-107005638D01*
X79070858Y-107005638D02*
X79118477Y-106910400D01*
X79118477Y-106910400D02*
X79118477Y-106672305D01*
X79118477Y-106672305D02*
X79166096Y-106577067D01*
X79404191Y-106100876D02*
X78737524Y-106100876D01*
X79308953Y-106100876D02*
X79356572Y-106053257D01*
X79356572Y-106053257D02*
X79404191Y-105958019D01*
X79404191Y-105958019D02*
X79404191Y-105815162D01*
X79404191Y-105815162D02*
X79356572Y-105719924D01*
X79356572Y-105719924D02*
X79261334Y-105672305D01*
X79261334Y-105672305D02*
X78737524Y-105672305D01*
X79737524Y-104529447D02*
X78737524Y-104291352D01*
X78737524Y-104291352D02*
X79451810Y-104100876D01*
X79451810Y-104100876D02*
X78737524Y-103910400D01*
X78737524Y-103910400D02*
X79737524Y-103672305D01*
X78737524Y-103291352D02*
X79404191Y-103291352D01*
X79737524Y-103291352D02*
X79689905Y-103338971D01*
X79689905Y-103338971D02*
X79642286Y-103291352D01*
X79642286Y-103291352D02*
X79689905Y-103243733D01*
X79689905Y-103243733D02*
X79737524Y-103291352D01*
X79737524Y-103291352D02*
X79642286Y-103291352D01*
X78785144Y-102434210D02*
X78737524Y-102529448D01*
X78737524Y-102529448D02*
X78737524Y-102719924D01*
X78737524Y-102719924D02*
X78785144Y-102815162D01*
X78785144Y-102815162D02*
X78880382Y-102862781D01*
X78880382Y-102862781D02*
X79261334Y-102862781D01*
X79261334Y-102862781D02*
X79356572Y-102815162D01*
X79356572Y-102815162D02*
X79404191Y-102719924D01*
X79404191Y-102719924D02*
X79404191Y-102529448D01*
X79404191Y-102529448D02*
X79356572Y-102434210D01*
X79356572Y-102434210D02*
X79261334Y-102386591D01*
X79261334Y-102386591D02*
X79166096Y-102386591D01*
X79166096Y-102386591D02*
X79070858Y-102862781D01*
X78737524Y-101815162D02*
X78785144Y-101910400D01*
X78785144Y-101910400D02*
X78880382Y-101958019D01*
X78880382Y-101958019D02*
X79737524Y-101958019D01*
X79404191Y-101434209D02*
X78404191Y-101434209D01*
X79356572Y-101434209D02*
X79404191Y-101338971D01*
X79404191Y-101338971D02*
X79404191Y-101148495D01*
X79404191Y-101148495D02*
X79356572Y-101053257D01*
X79356572Y-101053257D02*
X79308953Y-101005638D01*
X79308953Y-101005638D02*
X79213715Y-100958019D01*
X79213715Y-100958019D02*
X78928001Y-100958019D01*
X78928001Y-100958019D02*
X78832763Y-101005638D01*
X78832763Y-101005638D02*
X78785144Y-101053257D01*
X78785144Y-101053257D02*
X78737524Y-101148495D01*
X78737524Y-101148495D02*
X78737524Y-101338971D01*
X78737524Y-101338971D02*
X78785144Y-101434209D01*
X79404191Y-100100876D02*
X78737524Y-100100876D01*
X79404191Y-100529447D02*
X78880382Y-100529447D01*
X78880382Y-100529447D02*
X78785144Y-100481828D01*
X78785144Y-100481828D02*
X78737524Y-100386590D01*
X78737524Y-100386590D02*
X78737524Y-100243733D01*
X78737524Y-100243733D02*
X78785144Y-100148495D01*
X78785144Y-100148495D02*
X78832763Y-100100876D01*
X79737524Y-100481828D02*
X79689905Y-100434209D01*
X79689905Y-100434209D02*
X79642286Y-100481828D01*
X79642286Y-100481828D02*
X79689905Y-100529447D01*
X79689905Y-100529447D02*
X79737524Y-100481828D01*
X79737524Y-100481828D02*
X79642286Y-100481828D01*
X79737524Y-100100876D02*
X79689905Y-100053257D01*
X79689905Y-100053257D02*
X79642286Y-100100876D01*
X79642286Y-100100876D02*
X79689905Y-100148495D01*
X79689905Y-100148495D02*
X79737524Y-100100876D01*
X79737524Y-100100876D02*
X79642286Y-100100876D01*
X79404191Y-99767542D02*
X79404191Y-99386590D01*
X79737524Y-99624685D02*
X78880382Y-99624685D01*
X78880382Y-99624685D02*
X78785144Y-99577066D01*
X78785144Y-99577066D02*
X78737524Y-99481828D01*
X78737524Y-99481828D02*
X78737524Y-99386590D01*
X79404191Y-99148494D02*
X79404191Y-98624685D01*
X79404191Y-98624685D02*
X78737524Y-99148494D01*
X78737524Y-99148494D02*
X78737524Y-98624685D01*
X77127580Y-110196115D02*
X78127580Y-110196115D01*
X77127580Y-109767544D02*
X77651390Y-109767544D01*
X77651390Y-109767544D02*
X77746628Y-109815163D01*
X77746628Y-109815163D02*
X77794247Y-109910401D01*
X77794247Y-109910401D02*
X77794247Y-110053258D01*
X77794247Y-110053258D02*
X77746628Y-110148496D01*
X77746628Y-110148496D02*
X77699009Y-110196115D01*
X77794247Y-109434210D02*
X77794247Y-109053258D01*
X78127580Y-109291353D02*
X77270438Y-109291353D01*
X77270438Y-109291353D02*
X77175200Y-109243734D01*
X77175200Y-109243734D02*
X77127580Y-109148496D01*
X77127580Y-109148496D02*
X77127580Y-109053258D01*
X77794247Y-108862781D02*
X77794247Y-108481829D01*
X78127580Y-108719924D02*
X77270438Y-108719924D01*
X77270438Y-108719924D02*
X77175200Y-108672305D01*
X77175200Y-108672305D02*
X77127580Y-108577067D01*
X77127580Y-108577067D02*
X77127580Y-108481829D01*
X77794247Y-108148495D02*
X76794247Y-108148495D01*
X77746628Y-108148495D02*
X77794247Y-108053257D01*
X77794247Y-108053257D02*
X77794247Y-107862781D01*
X77794247Y-107862781D02*
X77746628Y-107767543D01*
X77746628Y-107767543D02*
X77699009Y-107719924D01*
X77699009Y-107719924D02*
X77603771Y-107672305D01*
X77603771Y-107672305D02*
X77318057Y-107672305D01*
X77318057Y-107672305D02*
X77222819Y-107719924D01*
X77222819Y-107719924D02*
X77175200Y-107767543D01*
X77175200Y-107767543D02*
X77127580Y-107862781D01*
X77127580Y-107862781D02*
X77127580Y-108053257D01*
X77127580Y-108053257D02*
X77175200Y-108148495D01*
X77175200Y-107291352D02*
X77127580Y-107196114D01*
X77127580Y-107196114D02*
X77127580Y-107005638D01*
X77127580Y-107005638D02*
X77175200Y-106910400D01*
X77175200Y-106910400D02*
X77270438Y-106862781D01*
X77270438Y-106862781D02*
X77318057Y-106862781D01*
X77318057Y-106862781D02*
X77413295Y-106910400D01*
X77413295Y-106910400D02*
X77460914Y-107005638D01*
X77460914Y-107005638D02*
X77460914Y-107148495D01*
X77460914Y-107148495D02*
X77508533Y-107243733D01*
X77508533Y-107243733D02*
X77603771Y-107291352D01*
X77603771Y-107291352D02*
X77651390Y-107291352D01*
X77651390Y-107291352D02*
X77746628Y-107243733D01*
X77746628Y-107243733D02*
X77794247Y-107148495D01*
X77794247Y-107148495D02*
X77794247Y-107005638D01*
X77794247Y-107005638D02*
X77746628Y-106910400D01*
X77222819Y-106434209D02*
X77175200Y-106386590D01*
X77175200Y-106386590D02*
X77127580Y-106434209D01*
X77127580Y-106434209D02*
X77175200Y-106481828D01*
X77175200Y-106481828D02*
X77222819Y-106434209D01*
X77222819Y-106434209D02*
X77127580Y-106434209D01*
X77746628Y-106434209D02*
X77699009Y-106386590D01*
X77699009Y-106386590D02*
X77651390Y-106434209D01*
X77651390Y-106434209D02*
X77699009Y-106481828D01*
X77699009Y-106481828D02*
X77746628Y-106434209D01*
X77746628Y-106434209D02*
X77651390Y-106434209D01*
X78175200Y-105243734D02*
X76889485Y-106100876D01*
X78175200Y-104196115D02*
X76889485Y-105053257D01*
X77794247Y-103434210D02*
X76984723Y-103434210D01*
X76984723Y-103434210D02*
X76889485Y-103481829D01*
X76889485Y-103481829D02*
X76841866Y-103529448D01*
X76841866Y-103529448D02*
X76794247Y-103624686D01*
X76794247Y-103624686D02*
X76794247Y-103767543D01*
X76794247Y-103767543D02*
X76841866Y-103862781D01*
X77175200Y-103434210D02*
X77127580Y-103529448D01*
X77127580Y-103529448D02*
X77127580Y-103719924D01*
X77127580Y-103719924D02*
X77175200Y-103815162D01*
X77175200Y-103815162D02*
X77222819Y-103862781D01*
X77222819Y-103862781D02*
X77318057Y-103910400D01*
X77318057Y-103910400D02*
X77603771Y-103910400D01*
X77603771Y-103910400D02*
X77699009Y-103862781D01*
X77699009Y-103862781D02*
X77746628Y-103815162D01*
X77746628Y-103815162D02*
X77794247Y-103719924D01*
X77794247Y-103719924D02*
X77794247Y-103529448D01*
X77794247Y-103529448D02*
X77746628Y-103434210D01*
X77127580Y-102958019D02*
X77794247Y-102958019D01*
X78127580Y-102958019D02*
X78079961Y-103005638D01*
X78079961Y-103005638D02*
X78032342Y-102958019D01*
X78032342Y-102958019D02*
X78079961Y-102910400D01*
X78079961Y-102910400D02*
X78127580Y-102958019D01*
X78127580Y-102958019D02*
X78032342Y-102958019D01*
X77794247Y-102624686D02*
X77794247Y-102243734D01*
X78127580Y-102481829D02*
X77270438Y-102481829D01*
X77270438Y-102481829D02*
X77175200Y-102434210D01*
X77175200Y-102434210D02*
X77127580Y-102338972D01*
X77127580Y-102338972D02*
X77127580Y-102243734D01*
X77127580Y-101910400D02*
X78127580Y-101910400D01*
X77127580Y-101481829D02*
X77651390Y-101481829D01*
X77651390Y-101481829D02*
X77746628Y-101529448D01*
X77746628Y-101529448D02*
X77794247Y-101624686D01*
X77794247Y-101624686D02*
X77794247Y-101767543D01*
X77794247Y-101767543D02*
X77746628Y-101862781D01*
X77746628Y-101862781D02*
X77699009Y-101910400D01*
X77794247Y-100577067D02*
X77127580Y-100577067D01*
X77794247Y-101005638D02*
X77270438Y-101005638D01*
X77270438Y-101005638D02*
X77175200Y-100958019D01*
X77175200Y-100958019D02*
X77127580Y-100862781D01*
X77127580Y-100862781D02*
X77127580Y-100719924D01*
X77127580Y-100719924D02*
X77175200Y-100624686D01*
X77175200Y-100624686D02*
X77222819Y-100577067D01*
X77127580Y-100100876D02*
X78127580Y-100100876D01*
X77746628Y-100100876D02*
X77794247Y-100005638D01*
X77794247Y-100005638D02*
X77794247Y-99815162D01*
X77794247Y-99815162D02*
X77746628Y-99719924D01*
X77746628Y-99719924D02*
X77699009Y-99672305D01*
X77699009Y-99672305D02*
X77603771Y-99624686D01*
X77603771Y-99624686D02*
X77318057Y-99624686D01*
X77318057Y-99624686D02*
X77222819Y-99672305D01*
X77222819Y-99672305D02*
X77175200Y-99719924D01*
X77175200Y-99719924D02*
X77127580Y-99815162D01*
X77127580Y-99815162D02*
X77127580Y-100005638D01*
X77127580Y-100005638D02*
X77175200Y-100100876D01*
X77222819Y-99196114D02*
X77175200Y-99148495D01*
X77175200Y-99148495D02*
X77127580Y-99196114D01*
X77127580Y-99196114D02*
X77175200Y-99243733D01*
X77175200Y-99243733D02*
X77222819Y-99196114D01*
X77222819Y-99196114D02*
X77127580Y-99196114D01*
X77175200Y-98291353D02*
X77127580Y-98386591D01*
X77127580Y-98386591D02*
X77127580Y-98577067D01*
X77127580Y-98577067D02*
X77175200Y-98672305D01*
X77175200Y-98672305D02*
X77222819Y-98719924D01*
X77222819Y-98719924D02*
X77318057Y-98767543D01*
X77318057Y-98767543D02*
X77603771Y-98767543D01*
X77603771Y-98767543D02*
X77699009Y-98719924D01*
X77699009Y-98719924D02*
X77746628Y-98672305D01*
X77746628Y-98672305D02*
X77794247Y-98577067D01*
X77794247Y-98577067D02*
X77794247Y-98386591D01*
X77794247Y-98386591D02*
X77746628Y-98291353D01*
X77127580Y-97719924D02*
X77175200Y-97815162D01*
X77175200Y-97815162D02*
X77222819Y-97862781D01*
X77222819Y-97862781D02*
X77318057Y-97910400D01*
X77318057Y-97910400D02*
X77603771Y-97910400D01*
X77603771Y-97910400D02*
X77699009Y-97862781D01*
X77699009Y-97862781D02*
X77746628Y-97815162D01*
X77746628Y-97815162D02*
X77794247Y-97719924D01*
X77794247Y-97719924D02*
X77794247Y-97577067D01*
X77794247Y-97577067D02*
X77746628Y-97481829D01*
X77746628Y-97481829D02*
X77699009Y-97434210D01*
X77699009Y-97434210D02*
X77603771Y-97386591D01*
X77603771Y-97386591D02*
X77318057Y-97386591D01*
X77318057Y-97386591D02*
X77222819Y-97434210D01*
X77222819Y-97434210D02*
X77175200Y-97481829D01*
X77175200Y-97481829D02*
X77127580Y-97577067D01*
X77127580Y-97577067D02*
X77127580Y-97719924D01*
X77127580Y-96958019D02*
X77794247Y-96958019D01*
X77699009Y-96958019D02*
X77746628Y-96910400D01*
X77746628Y-96910400D02*
X77794247Y-96815162D01*
X77794247Y-96815162D02*
X77794247Y-96672305D01*
X77794247Y-96672305D02*
X77746628Y-96577067D01*
X77746628Y-96577067D02*
X77651390Y-96529448D01*
X77651390Y-96529448D02*
X77127580Y-96529448D01*
X77651390Y-96529448D02*
X77746628Y-96481829D01*
X77746628Y-96481829D02*
X77794247Y-96386591D01*
X77794247Y-96386591D02*
X77794247Y-96243734D01*
X77794247Y-96243734D02*
X77746628Y-96148495D01*
X77746628Y-96148495D02*
X77651390Y-96100876D01*
X77651390Y-96100876D02*
X77127580Y-96100876D01*
X78175200Y-94910401D02*
X76889485Y-95767543D01*
X77794247Y-94577067D02*
X76937104Y-94577067D01*
X76937104Y-94577067D02*
X76841866Y-94624686D01*
X76841866Y-94624686D02*
X76794247Y-94719924D01*
X76794247Y-94719924D02*
X76794247Y-94767543D01*
X78127580Y-94577067D02*
X78079961Y-94624686D01*
X78079961Y-94624686D02*
X78032342Y-94577067D01*
X78032342Y-94577067D02*
X78079961Y-94529448D01*
X78079961Y-94529448D02*
X78127580Y-94577067D01*
X78127580Y-94577067D02*
X78032342Y-94577067D01*
X77127580Y-93672306D02*
X77651390Y-93672306D01*
X77651390Y-93672306D02*
X77746628Y-93719925D01*
X77746628Y-93719925D02*
X77794247Y-93815163D01*
X77794247Y-93815163D02*
X77794247Y-94005639D01*
X77794247Y-94005639D02*
X77746628Y-94100877D01*
X77175200Y-93672306D02*
X77127580Y-93767544D01*
X77127580Y-93767544D02*
X77127580Y-94005639D01*
X77127580Y-94005639D02*
X77175200Y-94100877D01*
X77175200Y-94100877D02*
X77270438Y-94148496D01*
X77270438Y-94148496D02*
X77365676Y-94148496D01*
X77365676Y-94148496D02*
X77460914Y-94100877D01*
X77460914Y-94100877D02*
X77508533Y-94005639D01*
X77508533Y-94005639D02*
X77508533Y-93767544D01*
X77508533Y-93767544D02*
X77556152Y-93672306D01*
X77794247Y-93196115D02*
X77127580Y-93196115D01*
X77699009Y-93196115D02*
X77746628Y-93148496D01*
X77746628Y-93148496D02*
X77794247Y-93053258D01*
X77794247Y-93053258D02*
X77794247Y-92910401D01*
X77794247Y-92910401D02*
X77746628Y-92815163D01*
X77746628Y-92815163D02*
X77651390Y-92767544D01*
X77651390Y-92767544D02*
X77127580Y-92767544D01*
X78127580Y-92386591D02*
X77127580Y-92148496D01*
X77127580Y-92148496D02*
X77841866Y-91958020D01*
X77841866Y-91958020D02*
X77127580Y-91767544D01*
X77127580Y-91767544D02*
X78127580Y-91529449D01*
X77127580Y-91148496D02*
X77794247Y-91148496D01*
X78127580Y-91148496D02*
X78079961Y-91196115D01*
X78079961Y-91196115D02*
X78032342Y-91148496D01*
X78032342Y-91148496D02*
X78079961Y-91100877D01*
X78079961Y-91100877D02*
X78127580Y-91148496D01*
X78127580Y-91148496D02*
X78032342Y-91148496D01*
X77175200Y-90291354D02*
X77127580Y-90386592D01*
X77127580Y-90386592D02*
X77127580Y-90577068D01*
X77127580Y-90577068D02*
X77175200Y-90672306D01*
X77175200Y-90672306D02*
X77270438Y-90719925D01*
X77270438Y-90719925D02*
X77651390Y-90719925D01*
X77651390Y-90719925D02*
X77746628Y-90672306D01*
X77746628Y-90672306D02*
X77794247Y-90577068D01*
X77794247Y-90577068D02*
X77794247Y-90386592D01*
X77794247Y-90386592D02*
X77746628Y-90291354D01*
X77746628Y-90291354D02*
X77651390Y-90243735D01*
X77651390Y-90243735D02*
X77556152Y-90243735D01*
X77556152Y-90243735D02*
X77460914Y-90719925D01*
X77127580Y-89767544D02*
X77127580Y-89577068D01*
X77127580Y-89577068D02*
X77175200Y-89481830D01*
X77175200Y-89481830D02*
X77222819Y-89434211D01*
X77222819Y-89434211D02*
X77365676Y-89338973D01*
X77365676Y-89338973D02*
X77556152Y-89291354D01*
X77556152Y-89291354D02*
X77937104Y-89291354D01*
X77937104Y-89291354D02*
X78032342Y-89338973D01*
X78032342Y-89338973D02*
X78079961Y-89386592D01*
X78079961Y-89386592D02*
X78127580Y-89481830D01*
X78127580Y-89481830D02*
X78127580Y-89672306D01*
X78127580Y-89672306D02*
X78079961Y-89767544D01*
X78079961Y-89767544D02*
X78032342Y-89815163D01*
X78032342Y-89815163D02*
X77937104Y-89862782D01*
X77937104Y-89862782D02*
X77699009Y-89862782D01*
X77699009Y-89862782D02*
X77603771Y-89815163D01*
X77603771Y-89815163D02*
X77556152Y-89767544D01*
X77556152Y-89767544D02*
X77508533Y-89672306D01*
X77508533Y-89672306D02*
X77508533Y-89481830D01*
X77508533Y-89481830D02*
X77556152Y-89386592D01*
X77556152Y-89386592D02*
X77603771Y-89338973D01*
X77603771Y-89338973D02*
X77699009Y-89291354D01*
X78127580Y-88434211D02*
X78127580Y-88624687D01*
X78127580Y-88624687D02*
X78079961Y-88719925D01*
X78079961Y-88719925D02*
X78032342Y-88767544D01*
X78032342Y-88767544D02*
X77889485Y-88862782D01*
X77889485Y-88862782D02*
X77699009Y-88910401D01*
X77699009Y-88910401D02*
X77318057Y-88910401D01*
X77318057Y-88910401D02*
X77222819Y-88862782D01*
X77222819Y-88862782D02*
X77175200Y-88815163D01*
X77175200Y-88815163D02*
X77127580Y-88719925D01*
X77127580Y-88719925D02*
X77127580Y-88529449D01*
X77127580Y-88529449D02*
X77175200Y-88434211D01*
X77175200Y-88434211D02*
X77222819Y-88386592D01*
X77222819Y-88386592D02*
X77318057Y-88338973D01*
X77318057Y-88338973D02*
X77556152Y-88338973D01*
X77556152Y-88338973D02*
X77651390Y-88386592D01*
X77651390Y-88386592D02*
X77699009Y-88434211D01*
X77699009Y-88434211D02*
X77746628Y-88529449D01*
X77746628Y-88529449D02*
X77746628Y-88719925D01*
X77746628Y-88719925D02*
X77699009Y-88815163D01*
X77699009Y-88815163D02*
X77651390Y-88862782D01*
X77651390Y-88862782D02*
X77556152Y-88910401D01*
X78175200Y-87196116D02*
X76889485Y-88053258D01*
X77175200Y-86910401D02*
X77127580Y-86767544D01*
X77127580Y-86767544D02*
X77127580Y-86529449D01*
X77127580Y-86529449D02*
X77175200Y-86434211D01*
X77175200Y-86434211D02*
X77222819Y-86386592D01*
X77222819Y-86386592D02*
X77318057Y-86338973D01*
X77318057Y-86338973D02*
X77413295Y-86338973D01*
X77413295Y-86338973D02*
X77508533Y-86386592D01*
X77508533Y-86386592D02*
X77556152Y-86434211D01*
X77556152Y-86434211D02*
X77603771Y-86529449D01*
X77603771Y-86529449D02*
X77651390Y-86719925D01*
X77651390Y-86719925D02*
X77699009Y-86815163D01*
X77699009Y-86815163D02*
X77746628Y-86862782D01*
X77746628Y-86862782D02*
X77841866Y-86910401D01*
X77841866Y-86910401D02*
X77937104Y-86910401D01*
X77937104Y-86910401D02*
X78032342Y-86862782D01*
X78032342Y-86862782D02*
X78079961Y-86815163D01*
X78079961Y-86815163D02*
X78127580Y-86719925D01*
X78127580Y-86719925D02*
X78127580Y-86481830D01*
X78127580Y-86481830D02*
X78079961Y-86338973D01*
X77175200Y-85481830D02*
X77127580Y-85577068D01*
X77127580Y-85577068D02*
X77127580Y-85767544D01*
X77127580Y-85767544D02*
X77175200Y-85862782D01*
X77175200Y-85862782D02*
X77222819Y-85910401D01*
X77222819Y-85910401D02*
X77318057Y-85958020D01*
X77318057Y-85958020D02*
X77603771Y-85958020D01*
X77603771Y-85958020D02*
X77699009Y-85910401D01*
X77699009Y-85910401D02*
X77746628Y-85862782D01*
X77746628Y-85862782D02*
X77794247Y-85767544D01*
X77794247Y-85767544D02*
X77794247Y-85577068D01*
X77794247Y-85577068D02*
X77746628Y-85481830D01*
X77127580Y-85053258D02*
X78127580Y-85053258D01*
X77127580Y-84624687D02*
X77651390Y-84624687D01*
X77651390Y-84624687D02*
X77746628Y-84672306D01*
X77746628Y-84672306D02*
X77794247Y-84767544D01*
X77794247Y-84767544D02*
X77794247Y-84910401D01*
X77794247Y-84910401D02*
X77746628Y-85005639D01*
X77746628Y-85005639D02*
X77699009Y-85053258D01*
X77794247Y-83719925D02*
X77127580Y-83719925D01*
X77794247Y-84148496D02*
X77270438Y-84148496D01*
X77270438Y-84148496D02*
X77175200Y-84100877D01*
X77175200Y-84100877D02*
X77127580Y-84005639D01*
X77127580Y-84005639D02*
X77127580Y-83862782D01*
X77127580Y-83862782D02*
X77175200Y-83767544D01*
X77175200Y-83767544D02*
X77222819Y-83719925D01*
X77175200Y-82862782D02*
X77127580Y-82958020D01*
X77127580Y-82958020D02*
X77127580Y-83148496D01*
X77127580Y-83148496D02*
X77175200Y-83243734D01*
X77175200Y-83243734D02*
X77270438Y-83291353D01*
X77270438Y-83291353D02*
X77651390Y-83291353D01*
X77651390Y-83291353D02*
X77746628Y-83243734D01*
X77746628Y-83243734D02*
X77794247Y-83148496D01*
X77794247Y-83148496D02*
X77794247Y-82958020D01*
X77794247Y-82958020D02*
X77746628Y-82862782D01*
X77746628Y-82862782D02*
X77651390Y-82815163D01*
X77651390Y-82815163D02*
X77556152Y-82815163D01*
X77556152Y-82815163D02*
X77460914Y-83291353D01*
X77794247Y-82529448D02*
X77794247Y-82148496D01*
X78127580Y-82386591D02*
X77270438Y-82386591D01*
X77270438Y-82386591D02*
X77175200Y-82338972D01*
X77175200Y-82338972D02*
X77127580Y-82243734D01*
X77127580Y-82243734D02*
X77127580Y-82148496D01*
X77794247Y-81958019D02*
X77794247Y-81577067D01*
X78127580Y-81815162D02*
X77270438Y-81815162D01*
X77270438Y-81815162D02*
X77175200Y-81767543D01*
X77175200Y-81767543D02*
X77127580Y-81672305D01*
X77127580Y-81672305D02*
X77127580Y-81577067D01*
X77175200Y-80862781D02*
X77127580Y-80958019D01*
X77127580Y-80958019D02*
X77127580Y-81148495D01*
X77127580Y-81148495D02*
X77175200Y-81243733D01*
X77175200Y-81243733D02*
X77270438Y-81291352D01*
X77270438Y-81291352D02*
X77651390Y-81291352D01*
X77651390Y-81291352D02*
X77746628Y-81243733D01*
X77746628Y-81243733D02*
X77794247Y-81148495D01*
X77794247Y-81148495D02*
X77794247Y-80958019D01*
X77794247Y-80958019D02*
X77746628Y-80862781D01*
X77746628Y-80862781D02*
X77651390Y-80815162D01*
X77651390Y-80815162D02*
X77556152Y-80815162D01*
X77556152Y-80815162D02*
X77460914Y-81291352D01*
X77127580Y-80243733D02*
X77175200Y-80338971D01*
X77175200Y-80338971D02*
X77270438Y-80386590D01*
X77270438Y-80386590D02*
X78127580Y-80386590D01*
X77127580Y-79862780D02*
X78127580Y-79862780D01*
X78127580Y-79862780D02*
X78127580Y-79624685D01*
X78127580Y-79624685D02*
X78079961Y-79481828D01*
X78079961Y-79481828D02*
X77984723Y-79386590D01*
X77984723Y-79386590D02*
X77889485Y-79338971D01*
X77889485Y-79338971D02*
X77699009Y-79291352D01*
X77699009Y-79291352D02*
X77556152Y-79291352D01*
X77556152Y-79291352D02*
X77365676Y-79338971D01*
X77365676Y-79338971D02*
X77270438Y-79386590D01*
X77270438Y-79386590D02*
X77175200Y-79481828D01*
X77175200Y-79481828D02*
X77127580Y-79624685D01*
X77127580Y-79624685D02*
X77127580Y-79862780D01*
X77127580Y-78862780D02*
X77794247Y-78862780D01*
X78127580Y-78862780D02*
X78079961Y-78910399D01*
X78079961Y-78910399D02*
X78032342Y-78862780D01*
X78032342Y-78862780D02*
X78079961Y-78815161D01*
X78079961Y-78815161D02*
X78127580Y-78862780D01*
X78127580Y-78862780D02*
X78032342Y-78862780D01*
X77175200Y-77958019D02*
X77127580Y-78053257D01*
X77127580Y-78053257D02*
X77127580Y-78243733D01*
X77127580Y-78243733D02*
X77175200Y-78338971D01*
X77175200Y-78338971D02*
X77222819Y-78386590D01*
X77222819Y-78386590D02*
X77318057Y-78434209D01*
X77318057Y-78434209D02*
X77603771Y-78434209D01*
X77603771Y-78434209D02*
X77699009Y-78386590D01*
X77699009Y-78386590D02*
X77746628Y-78338971D01*
X77746628Y-78338971D02*
X77794247Y-78243733D01*
X77794247Y-78243733D02*
X77794247Y-78053257D01*
X77794247Y-78053257D02*
X77746628Y-77958019D01*
X77175200Y-77148495D02*
X77127580Y-77243733D01*
X77127580Y-77243733D02*
X77127580Y-77434209D01*
X77127580Y-77434209D02*
X77175200Y-77529447D01*
X77175200Y-77529447D02*
X77270438Y-77577066D01*
X77270438Y-77577066D02*
X77651390Y-77577066D01*
X77651390Y-77577066D02*
X77746628Y-77529447D01*
X77746628Y-77529447D02*
X77794247Y-77434209D01*
X77794247Y-77434209D02*
X77794247Y-77243733D01*
X77794247Y-77243733D02*
X77746628Y-77148495D01*
X77746628Y-77148495D02*
X77651390Y-77100876D01*
X77651390Y-77100876D02*
X77556152Y-77100876D01*
X77556152Y-77100876D02*
X77460914Y-77577066D01*
X77222819Y-76672304D02*
X77175200Y-76624685D01*
X77175200Y-76624685D02*
X77127580Y-76672304D01*
X77127580Y-76672304D02*
X77175200Y-76719923D01*
X77175200Y-76719923D02*
X77222819Y-76672304D01*
X77222819Y-76672304D02*
X77127580Y-76672304D01*
X77794247Y-75767543D02*
X76984723Y-75767543D01*
X76984723Y-75767543D02*
X76889485Y-75815162D01*
X76889485Y-75815162D02*
X76841866Y-75862781D01*
X76841866Y-75862781D02*
X76794247Y-75958019D01*
X76794247Y-75958019D02*
X76794247Y-76100876D01*
X76794247Y-76100876D02*
X76841866Y-76196114D01*
X77175200Y-75767543D02*
X77127580Y-75862781D01*
X77127580Y-75862781D02*
X77127580Y-76053257D01*
X77127580Y-76053257D02*
X77175200Y-76148495D01*
X77175200Y-76148495D02*
X77222819Y-76196114D01*
X77222819Y-76196114D02*
X77318057Y-76243733D01*
X77318057Y-76243733D02*
X77603771Y-76243733D01*
X77603771Y-76243733D02*
X77699009Y-76196114D01*
X77699009Y-76196114D02*
X77746628Y-76148495D01*
X77746628Y-76148495D02*
X77794247Y-76053257D01*
X77794247Y-76053257D02*
X77794247Y-75862781D01*
X77794247Y-75862781D02*
X77746628Y-75767543D01*
X77127580Y-75291352D02*
X77794247Y-75291352D01*
X78127580Y-75291352D02*
X78079961Y-75338971D01*
X78079961Y-75338971D02*
X78032342Y-75291352D01*
X78032342Y-75291352D02*
X78079961Y-75243733D01*
X78079961Y-75243733D02*
X78127580Y-75291352D01*
X78127580Y-75291352D02*
X78032342Y-75291352D01*
X77794247Y-74958019D02*
X77794247Y-74577067D01*
X78127580Y-74815162D02*
X77270438Y-74815162D01*
X77270438Y-74815162D02*
X77175200Y-74767543D01*
X77175200Y-74767543D02*
X77127580Y-74672305D01*
X77127580Y-74672305D02*
X77127580Y-74577067D01*
D11*
X125584819Y-82666666D02*
X126299104Y-82666666D01*
X126299104Y-82666666D02*
X126441961Y-82619047D01*
X126441961Y-82619047D02*
X126537200Y-82523809D01*
X126537200Y-82523809D02*
X126584819Y-82380952D01*
X126584819Y-82380952D02*
X126584819Y-82285714D01*
X125680057Y-83095238D02*
X125632438Y-83142857D01*
X125632438Y-83142857D02*
X125584819Y-83238095D01*
X125584819Y-83238095D02*
X125584819Y-83476190D01*
X125584819Y-83476190D02*
X125632438Y-83571428D01*
X125632438Y-83571428D02*
X125680057Y-83619047D01*
X125680057Y-83619047D02*
X125775295Y-83666666D01*
X125775295Y-83666666D02*
X125870533Y-83666666D01*
X125870533Y-83666666D02*
X126013390Y-83619047D01*
X126013390Y-83619047D02*
X126584819Y-83047619D01*
X126584819Y-83047619D02*
X126584819Y-83666666D01*
X127957319Y-42857142D02*
X127481128Y-42523809D01*
X127957319Y-42285714D02*
X126957319Y-42285714D01*
X126957319Y-42285714D02*
X126957319Y-42666666D01*
X126957319Y-42666666D02*
X127004938Y-42761904D01*
X127004938Y-42761904D02*
X127052557Y-42809523D01*
X127052557Y-42809523D02*
X127147795Y-42857142D01*
X127147795Y-42857142D02*
X127290652Y-42857142D01*
X127290652Y-42857142D02*
X127385890Y-42809523D01*
X127385890Y-42809523D02*
X127433509Y-42761904D01*
X127433509Y-42761904D02*
X127481128Y-42666666D01*
X127481128Y-42666666D02*
X127481128Y-42285714D01*
X127052557Y-43238095D02*
X127004938Y-43285714D01*
X127004938Y-43285714D02*
X126957319Y-43380952D01*
X126957319Y-43380952D02*
X126957319Y-43619047D01*
X126957319Y-43619047D02*
X127004938Y-43714285D01*
X127004938Y-43714285D02*
X127052557Y-43761904D01*
X127052557Y-43761904D02*
X127147795Y-43809523D01*
X127147795Y-43809523D02*
X127243033Y-43809523D01*
X127243033Y-43809523D02*
X127385890Y-43761904D01*
X127385890Y-43761904D02*
X127957319Y-43190476D01*
X127957319Y-43190476D02*
X127957319Y-43809523D01*
X127957319Y-44761904D02*
X127957319Y-44190476D01*
X127957319Y-44476190D02*
X126957319Y-44476190D01*
X126957319Y-44476190D02*
X127100176Y-44380952D01*
X127100176Y-44380952D02*
X127195414Y-44285714D01*
X127195414Y-44285714D02*
X127243033Y-44190476D01*
X129465269Y-35357142D02*
X128989078Y-35023809D01*
X129465269Y-34785714D02*
X128465269Y-34785714D01*
X128465269Y-34785714D02*
X128465269Y-35166666D01*
X128465269Y-35166666D02*
X128512888Y-35261904D01*
X128512888Y-35261904D02*
X128560507Y-35309523D01*
X128560507Y-35309523D02*
X128655745Y-35357142D01*
X128655745Y-35357142D02*
X128798602Y-35357142D01*
X128798602Y-35357142D02*
X128893840Y-35309523D01*
X128893840Y-35309523D02*
X128941459Y-35261904D01*
X128941459Y-35261904D02*
X128989078Y-35166666D01*
X128989078Y-35166666D02*
X128989078Y-34785714D01*
X128560507Y-35738095D02*
X128512888Y-35785714D01*
X128512888Y-35785714D02*
X128465269Y-35880952D01*
X128465269Y-35880952D02*
X128465269Y-36119047D01*
X128465269Y-36119047D02*
X128512888Y-36214285D01*
X128512888Y-36214285D02*
X128560507Y-36261904D01*
X128560507Y-36261904D02*
X128655745Y-36309523D01*
X128655745Y-36309523D02*
X128750983Y-36309523D01*
X128750983Y-36309523D02*
X128893840Y-36261904D01*
X128893840Y-36261904D02*
X129465269Y-35690476D01*
X129465269Y-35690476D02*
X129465269Y-36309523D01*
X128465269Y-36928571D02*
X128465269Y-37023809D01*
X128465269Y-37023809D02*
X128512888Y-37119047D01*
X128512888Y-37119047D02*
X128560507Y-37166666D01*
X128560507Y-37166666D02*
X128655745Y-37214285D01*
X128655745Y-37214285D02*
X128846221Y-37261904D01*
X128846221Y-37261904D02*
X129084316Y-37261904D01*
X129084316Y-37261904D02*
X129274792Y-37214285D01*
X129274792Y-37214285D02*
X129370030Y-37166666D01*
X129370030Y-37166666D02*
X129417650Y-37119047D01*
X129417650Y-37119047D02*
X129465269Y-37023809D01*
X129465269Y-37023809D02*
X129465269Y-36928571D01*
X129465269Y-36928571D02*
X129417650Y-36833333D01*
X129417650Y-36833333D02*
X129370030Y-36785714D01*
X129370030Y-36785714D02*
X129274792Y-36738095D01*
X129274792Y-36738095D02*
X129084316Y-36690476D01*
X129084316Y-36690476D02*
X128846221Y-36690476D01*
X128846221Y-36690476D02*
X128655745Y-36738095D01*
X128655745Y-36738095D02*
X128560507Y-36785714D01*
X128560507Y-36785714D02*
X128512888Y-36833333D01*
X128512888Y-36833333D02*
X128465269Y-36928571D01*
X142465269Y-35357142D02*
X141989078Y-35023809D01*
X142465269Y-34785714D02*
X141465269Y-34785714D01*
X141465269Y-34785714D02*
X141465269Y-35166666D01*
X141465269Y-35166666D02*
X141512888Y-35261904D01*
X141512888Y-35261904D02*
X141560507Y-35309523D01*
X141560507Y-35309523D02*
X141655745Y-35357142D01*
X141655745Y-35357142D02*
X141798602Y-35357142D01*
X141798602Y-35357142D02*
X141893840Y-35309523D01*
X141893840Y-35309523D02*
X141941459Y-35261904D01*
X141941459Y-35261904D02*
X141989078Y-35166666D01*
X141989078Y-35166666D02*
X141989078Y-34785714D01*
X142465269Y-36309523D02*
X142465269Y-35738095D01*
X142465269Y-36023809D02*
X141465269Y-36023809D01*
X141465269Y-36023809D02*
X141608126Y-35928571D01*
X141608126Y-35928571D02*
X141703364Y-35833333D01*
X141703364Y-35833333D02*
X141750983Y-35738095D01*
X141465269Y-36928571D02*
X141465269Y-37023809D01*
X141465269Y-37023809D02*
X141512888Y-37119047D01*
X141512888Y-37119047D02*
X141560507Y-37166666D01*
X141560507Y-37166666D02*
X141655745Y-37214285D01*
X141655745Y-37214285D02*
X141846221Y-37261904D01*
X141846221Y-37261904D02*
X142084316Y-37261904D01*
X142084316Y-37261904D02*
X142274792Y-37214285D01*
X142274792Y-37214285D02*
X142370030Y-37166666D01*
X142370030Y-37166666D02*
X142417650Y-37119047D01*
X142417650Y-37119047D02*
X142465269Y-37023809D01*
X142465269Y-37023809D02*
X142465269Y-36928571D01*
X142465269Y-36928571D02*
X142417650Y-36833333D01*
X142417650Y-36833333D02*
X142370030Y-36785714D01*
X142370030Y-36785714D02*
X142274792Y-36738095D01*
X142274792Y-36738095D02*
X142084316Y-36690476D01*
X142084316Y-36690476D02*
X141846221Y-36690476D01*
X141846221Y-36690476D02*
X141655745Y-36738095D01*
X141655745Y-36738095D02*
X141560507Y-36785714D01*
X141560507Y-36785714D02*
X141512888Y-36833333D01*
X141512888Y-36833333D02*
X141465269Y-36928571D01*
X122457319Y-35833333D02*
X121981128Y-35500000D01*
X122457319Y-35261905D02*
X121457319Y-35261905D01*
X121457319Y-35261905D02*
X121457319Y-35642857D01*
X121457319Y-35642857D02*
X121504938Y-35738095D01*
X121504938Y-35738095D02*
X121552557Y-35785714D01*
X121552557Y-35785714D02*
X121647795Y-35833333D01*
X121647795Y-35833333D02*
X121790652Y-35833333D01*
X121790652Y-35833333D02*
X121885890Y-35785714D01*
X121885890Y-35785714D02*
X121933509Y-35738095D01*
X121933509Y-35738095D02*
X121981128Y-35642857D01*
X121981128Y-35642857D02*
X121981128Y-35261905D01*
X121457319Y-36166667D02*
X121457319Y-36833333D01*
X121457319Y-36833333D02*
X122457319Y-36404762D01*
X114957319Y-42857142D02*
X114481128Y-42523809D01*
X114957319Y-42285714D02*
X113957319Y-42285714D01*
X113957319Y-42285714D02*
X113957319Y-42666666D01*
X113957319Y-42666666D02*
X114004938Y-42761904D01*
X114004938Y-42761904D02*
X114052557Y-42809523D01*
X114052557Y-42809523D02*
X114147795Y-42857142D01*
X114147795Y-42857142D02*
X114290652Y-42857142D01*
X114290652Y-42857142D02*
X114385890Y-42809523D01*
X114385890Y-42809523D02*
X114433509Y-42761904D01*
X114433509Y-42761904D02*
X114481128Y-42666666D01*
X114481128Y-42666666D02*
X114481128Y-42285714D01*
X114957319Y-43809523D02*
X114957319Y-43238095D01*
X114957319Y-43523809D02*
X113957319Y-43523809D01*
X113957319Y-43523809D02*
X114100176Y-43428571D01*
X114100176Y-43428571D02*
X114195414Y-43333333D01*
X114195414Y-43333333D02*
X114243033Y-43238095D01*
X113957319Y-44714285D02*
X113957319Y-44238095D01*
X113957319Y-44238095D02*
X114433509Y-44190476D01*
X114433509Y-44190476D02*
X114385890Y-44238095D01*
X114385890Y-44238095D02*
X114338271Y-44333333D01*
X114338271Y-44333333D02*
X114338271Y-44571428D01*
X114338271Y-44571428D02*
X114385890Y-44666666D01*
X114385890Y-44666666D02*
X114433509Y-44714285D01*
X114433509Y-44714285D02*
X114528747Y-44761904D01*
X114528747Y-44761904D02*
X114766842Y-44761904D01*
X114766842Y-44761904D02*
X114862080Y-44714285D01*
X114862080Y-44714285D02*
X114909700Y-44666666D01*
X114909700Y-44666666D02*
X114957319Y-44571428D01*
X114957319Y-44571428D02*
X114957319Y-44333333D01*
X114957319Y-44333333D02*
X114909700Y-44238095D01*
X114909700Y-44238095D02*
X114862080Y-44190476D01*
X142457319Y-42857142D02*
X141981128Y-42523809D01*
X142457319Y-42285714D02*
X141457319Y-42285714D01*
X141457319Y-42285714D02*
X141457319Y-42666666D01*
X141457319Y-42666666D02*
X141504938Y-42761904D01*
X141504938Y-42761904D02*
X141552557Y-42809523D01*
X141552557Y-42809523D02*
X141647795Y-42857142D01*
X141647795Y-42857142D02*
X141790652Y-42857142D01*
X141790652Y-42857142D02*
X141885890Y-42809523D01*
X141885890Y-42809523D02*
X141933509Y-42761904D01*
X141933509Y-42761904D02*
X141981128Y-42666666D01*
X141981128Y-42666666D02*
X141981128Y-42285714D01*
X141552557Y-43238095D02*
X141504938Y-43285714D01*
X141504938Y-43285714D02*
X141457319Y-43380952D01*
X141457319Y-43380952D02*
X141457319Y-43619047D01*
X141457319Y-43619047D02*
X141504938Y-43714285D01*
X141504938Y-43714285D02*
X141552557Y-43761904D01*
X141552557Y-43761904D02*
X141647795Y-43809523D01*
X141647795Y-43809523D02*
X141743033Y-43809523D01*
X141743033Y-43809523D02*
X141885890Y-43761904D01*
X141885890Y-43761904D02*
X142457319Y-43190476D01*
X142457319Y-43190476D02*
X142457319Y-43809523D01*
X141552557Y-44190476D02*
X141504938Y-44238095D01*
X141504938Y-44238095D02*
X141457319Y-44333333D01*
X141457319Y-44333333D02*
X141457319Y-44571428D01*
X141457319Y-44571428D02*
X141504938Y-44666666D01*
X141504938Y-44666666D02*
X141552557Y-44714285D01*
X141552557Y-44714285D02*
X141647795Y-44761904D01*
X141647795Y-44761904D02*
X141743033Y-44761904D01*
X141743033Y-44761904D02*
X141885890Y-44714285D01*
X141885890Y-44714285D02*
X142457319Y-44142857D01*
X142457319Y-44142857D02*
X142457319Y-44761904D01*
X114957319Y-35357142D02*
X114481128Y-35023809D01*
X114957319Y-34785714D02*
X113957319Y-34785714D01*
X113957319Y-34785714D02*
X113957319Y-35166666D01*
X113957319Y-35166666D02*
X114004938Y-35261904D01*
X114004938Y-35261904D02*
X114052557Y-35309523D01*
X114052557Y-35309523D02*
X114147795Y-35357142D01*
X114147795Y-35357142D02*
X114290652Y-35357142D01*
X114290652Y-35357142D02*
X114385890Y-35309523D01*
X114385890Y-35309523D02*
X114433509Y-35261904D01*
X114433509Y-35261904D02*
X114481128Y-35166666D01*
X114481128Y-35166666D02*
X114481128Y-34785714D01*
X114957319Y-36309523D02*
X114957319Y-35738095D01*
X114957319Y-36023809D02*
X113957319Y-36023809D01*
X113957319Y-36023809D02*
X114100176Y-35928571D01*
X114100176Y-35928571D02*
X114195414Y-35833333D01*
X114195414Y-35833333D02*
X114243033Y-35738095D01*
X114957319Y-36785714D02*
X114957319Y-36976190D01*
X114957319Y-36976190D02*
X114909700Y-37071428D01*
X114909700Y-37071428D02*
X114862080Y-37119047D01*
X114862080Y-37119047D02*
X114719223Y-37214285D01*
X114719223Y-37214285D02*
X114528747Y-37261904D01*
X114528747Y-37261904D02*
X114147795Y-37261904D01*
X114147795Y-37261904D02*
X114052557Y-37214285D01*
X114052557Y-37214285D02*
X114004938Y-37166666D01*
X114004938Y-37166666D02*
X113957319Y-37071428D01*
X113957319Y-37071428D02*
X113957319Y-36880952D01*
X113957319Y-36880952D02*
X114004938Y-36785714D01*
X114004938Y-36785714D02*
X114052557Y-36738095D01*
X114052557Y-36738095D02*
X114147795Y-36690476D01*
X114147795Y-36690476D02*
X114385890Y-36690476D01*
X114385890Y-36690476D02*
X114481128Y-36738095D01*
X114481128Y-36738095D02*
X114528747Y-36785714D01*
X114528747Y-36785714D02*
X114576366Y-36880952D01*
X114576366Y-36880952D02*
X114576366Y-37071428D01*
X114576366Y-37071428D02*
X114528747Y-37166666D01*
X114528747Y-37166666D02*
X114481128Y-37214285D01*
X114481128Y-37214285D02*
X114385890Y-37261904D01*
X120457319Y-35357142D02*
X119981128Y-35023809D01*
X120457319Y-34785714D02*
X119457319Y-34785714D01*
X119457319Y-34785714D02*
X119457319Y-35166666D01*
X119457319Y-35166666D02*
X119504938Y-35261904D01*
X119504938Y-35261904D02*
X119552557Y-35309523D01*
X119552557Y-35309523D02*
X119647795Y-35357142D01*
X119647795Y-35357142D02*
X119790652Y-35357142D01*
X119790652Y-35357142D02*
X119885890Y-35309523D01*
X119885890Y-35309523D02*
X119933509Y-35261904D01*
X119933509Y-35261904D02*
X119981128Y-35166666D01*
X119981128Y-35166666D02*
X119981128Y-34785714D01*
X120457319Y-36309523D02*
X120457319Y-35738095D01*
X120457319Y-36023809D02*
X119457319Y-36023809D01*
X119457319Y-36023809D02*
X119600176Y-35928571D01*
X119600176Y-35928571D02*
X119695414Y-35833333D01*
X119695414Y-35833333D02*
X119743033Y-35738095D01*
X119457319Y-36642857D02*
X119457319Y-37309523D01*
X119457319Y-37309523D02*
X120457319Y-36880952D01*
X122457319Y-42857142D02*
X121981128Y-42523809D01*
X122457319Y-42285714D02*
X121457319Y-42285714D01*
X121457319Y-42285714D02*
X121457319Y-42666666D01*
X121457319Y-42666666D02*
X121504938Y-42761904D01*
X121504938Y-42761904D02*
X121552557Y-42809523D01*
X121552557Y-42809523D02*
X121647795Y-42857142D01*
X121647795Y-42857142D02*
X121790652Y-42857142D01*
X121790652Y-42857142D02*
X121885890Y-42809523D01*
X121885890Y-42809523D02*
X121933509Y-42761904D01*
X121933509Y-42761904D02*
X121981128Y-42666666D01*
X121981128Y-42666666D02*
X121981128Y-42285714D01*
X122457319Y-43809523D02*
X122457319Y-43238095D01*
X122457319Y-43523809D02*
X121457319Y-43523809D01*
X121457319Y-43523809D02*
X121600176Y-43428571D01*
X121600176Y-43428571D02*
X121695414Y-43333333D01*
X121695414Y-43333333D02*
X121743033Y-43238095D01*
X122457319Y-44761904D02*
X122457319Y-44190476D01*
X122457319Y-44476190D02*
X121457319Y-44476190D01*
X121457319Y-44476190D02*
X121600176Y-44380952D01*
X121600176Y-44380952D02*
X121695414Y-44285714D01*
X121695414Y-44285714D02*
X121743033Y-44190476D01*
X127957319Y-35833333D02*
X127481128Y-35500000D01*
X127957319Y-35261905D02*
X126957319Y-35261905D01*
X126957319Y-35261905D02*
X126957319Y-35642857D01*
X126957319Y-35642857D02*
X127004938Y-35738095D01*
X127004938Y-35738095D02*
X127052557Y-35785714D01*
X127052557Y-35785714D02*
X127147795Y-35833333D01*
X127147795Y-35833333D02*
X127290652Y-35833333D01*
X127290652Y-35833333D02*
X127385890Y-35785714D01*
X127385890Y-35785714D02*
X127433509Y-35738095D01*
X127433509Y-35738095D02*
X127481128Y-35642857D01*
X127481128Y-35642857D02*
X127481128Y-35261905D01*
X127957319Y-36309524D02*
X127957319Y-36500000D01*
X127957319Y-36500000D02*
X127909700Y-36595238D01*
X127909700Y-36595238D02*
X127862080Y-36642857D01*
X127862080Y-36642857D02*
X127719223Y-36738095D01*
X127719223Y-36738095D02*
X127528747Y-36785714D01*
X127528747Y-36785714D02*
X127147795Y-36785714D01*
X127147795Y-36785714D02*
X127052557Y-36738095D01*
X127052557Y-36738095D02*
X127004938Y-36690476D01*
X127004938Y-36690476D02*
X126957319Y-36595238D01*
X126957319Y-36595238D02*
X126957319Y-36404762D01*
X126957319Y-36404762D02*
X127004938Y-36309524D01*
X127004938Y-36309524D02*
X127052557Y-36261905D01*
X127052557Y-36261905D02*
X127147795Y-36214286D01*
X127147795Y-36214286D02*
X127385890Y-36214286D01*
X127385890Y-36214286D02*
X127481128Y-36261905D01*
X127481128Y-36261905D02*
X127528747Y-36309524D01*
X127528747Y-36309524D02*
X127576366Y-36404762D01*
X127576366Y-36404762D02*
X127576366Y-36595238D01*
X127576366Y-36595238D02*
X127528747Y-36690476D01*
X127528747Y-36690476D02*
X127481128Y-36738095D01*
X127481128Y-36738095D02*
X127385890Y-36785714D01*
X120457319Y-42857142D02*
X119981128Y-42523809D01*
X120457319Y-42285714D02*
X119457319Y-42285714D01*
X119457319Y-42285714D02*
X119457319Y-42666666D01*
X119457319Y-42666666D02*
X119504938Y-42761904D01*
X119504938Y-42761904D02*
X119552557Y-42809523D01*
X119552557Y-42809523D02*
X119647795Y-42857142D01*
X119647795Y-42857142D02*
X119790652Y-42857142D01*
X119790652Y-42857142D02*
X119885890Y-42809523D01*
X119885890Y-42809523D02*
X119933509Y-42761904D01*
X119933509Y-42761904D02*
X119981128Y-42666666D01*
X119981128Y-42666666D02*
X119981128Y-42285714D01*
X120457319Y-43809523D02*
X120457319Y-43238095D01*
X120457319Y-43523809D02*
X119457319Y-43523809D01*
X119457319Y-43523809D02*
X119600176Y-43428571D01*
X119600176Y-43428571D02*
X119695414Y-43333333D01*
X119695414Y-43333333D02*
X119743033Y-43238095D01*
X119457319Y-44142857D02*
X119457319Y-44761904D01*
X119457319Y-44761904D02*
X119838271Y-44428571D01*
X119838271Y-44428571D02*
X119838271Y-44571428D01*
X119838271Y-44571428D02*
X119885890Y-44666666D01*
X119885890Y-44666666D02*
X119933509Y-44714285D01*
X119933509Y-44714285D02*
X120028747Y-44761904D01*
X120028747Y-44761904D02*
X120266842Y-44761904D01*
X120266842Y-44761904D02*
X120362080Y-44714285D01*
X120362080Y-44714285D02*
X120409700Y-44666666D01*
X120409700Y-44666666D02*
X120457319Y-44571428D01*
X120457319Y-44571428D02*
X120457319Y-44285714D01*
X120457319Y-44285714D02*
X120409700Y-44190476D01*
X120409700Y-44190476D02*
X120362080Y-44142857D01*
X129457319Y-42857142D02*
X128981128Y-42523809D01*
X129457319Y-42285714D02*
X128457319Y-42285714D01*
X128457319Y-42285714D02*
X128457319Y-42666666D01*
X128457319Y-42666666D02*
X128504938Y-42761904D01*
X128504938Y-42761904D02*
X128552557Y-42809523D01*
X128552557Y-42809523D02*
X128647795Y-42857142D01*
X128647795Y-42857142D02*
X128790652Y-42857142D01*
X128790652Y-42857142D02*
X128885890Y-42809523D01*
X128885890Y-42809523D02*
X128933509Y-42761904D01*
X128933509Y-42761904D02*
X128981128Y-42666666D01*
X128981128Y-42666666D02*
X128981128Y-42285714D01*
X129457319Y-43809523D02*
X129457319Y-43238095D01*
X129457319Y-43523809D02*
X128457319Y-43523809D01*
X128457319Y-43523809D02*
X128600176Y-43428571D01*
X128600176Y-43428571D02*
X128695414Y-43333333D01*
X128695414Y-43333333D02*
X128743033Y-43238095D01*
X128457319Y-44666666D02*
X128457319Y-44476190D01*
X128457319Y-44476190D02*
X128504938Y-44380952D01*
X128504938Y-44380952D02*
X128552557Y-44333333D01*
X128552557Y-44333333D02*
X128695414Y-44238095D01*
X128695414Y-44238095D02*
X128885890Y-44190476D01*
X128885890Y-44190476D02*
X129266842Y-44190476D01*
X129266842Y-44190476D02*
X129362080Y-44238095D01*
X129362080Y-44238095D02*
X129409700Y-44285714D01*
X129409700Y-44285714D02*
X129457319Y-44380952D01*
X129457319Y-44380952D02*
X129457319Y-44571428D01*
X129457319Y-44571428D02*
X129409700Y-44666666D01*
X129409700Y-44666666D02*
X129362080Y-44714285D01*
X129362080Y-44714285D02*
X129266842Y-44761904D01*
X129266842Y-44761904D02*
X129028747Y-44761904D01*
X129028747Y-44761904D02*
X128933509Y-44714285D01*
X128933509Y-44714285D02*
X128885890Y-44666666D01*
X128885890Y-44666666D02*
X128838271Y-44571428D01*
X128838271Y-44571428D02*
X128838271Y-44380952D01*
X128838271Y-44380952D02*
X128885890Y-44285714D01*
X128885890Y-44285714D02*
X128933509Y-44238095D01*
X128933509Y-44238095D02*
X129028747Y-44190476D01*
X136957319Y-42857142D02*
X136481128Y-42523809D01*
X136957319Y-42285714D02*
X135957319Y-42285714D01*
X135957319Y-42285714D02*
X135957319Y-42666666D01*
X135957319Y-42666666D02*
X136004938Y-42761904D01*
X136004938Y-42761904D02*
X136052557Y-42809523D01*
X136052557Y-42809523D02*
X136147795Y-42857142D01*
X136147795Y-42857142D02*
X136290652Y-42857142D01*
X136290652Y-42857142D02*
X136385890Y-42809523D01*
X136385890Y-42809523D02*
X136433509Y-42761904D01*
X136433509Y-42761904D02*
X136481128Y-42666666D01*
X136481128Y-42666666D02*
X136481128Y-42285714D01*
X136957319Y-43809523D02*
X136957319Y-43238095D01*
X136957319Y-43523809D02*
X135957319Y-43523809D01*
X135957319Y-43523809D02*
X136100176Y-43428571D01*
X136100176Y-43428571D02*
X136195414Y-43333333D01*
X136195414Y-43333333D02*
X136243033Y-43238095D01*
X136052557Y-44190476D02*
X136004938Y-44238095D01*
X136004938Y-44238095D02*
X135957319Y-44333333D01*
X135957319Y-44333333D02*
X135957319Y-44571428D01*
X135957319Y-44571428D02*
X136004938Y-44666666D01*
X136004938Y-44666666D02*
X136052557Y-44714285D01*
X136052557Y-44714285D02*
X136147795Y-44761904D01*
X136147795Y-44761904D02*
X136243033Y-44761904D01*
X136243033Y-44761904D02*
X136385890Y-44714285D01*
X136385890Y-44714285D02*
X136957319Y-44142857D01*
X136957319Y-44142857D02*
X136957319Y-44761904D01*
X134965269Y-35357142D02*
X134489078Y-35023809D01*
X134965269Y-34785714D02*
X133965269Y-34785714D01*
X133965269Y-34785714D02*
X133965269Y-35166666D01*
X133965269Y-35166666D02*
X134012888Y-35261904D01*
X134012888Y-35261904D02*
X134060507Y-35309523D01*
X134060507Y-35309523D02*
X134155745Y-35357142D01*
X134155745Y-35357142D02*
X134298602Y-35357142D01*
X134298602Y-35357142D02*
X134393840Y-35309523D01*
X134393840Y-35309523D02*
X134441459Y-35261904D01*
X134441459Y-35261904D02*
X134489078Y-35166666D01*
X134489078Y-35166666D02*
X134489078Y-34785714D01*
X134965269Y-36309523D02*
X134965269Y-35738095D01*
X134965269Y-36023809D02*
X133965269Y-36023809D01*
X133965269Y-36023809D02*
X134108126Y-35928571D01*
X134108126Y-35928571D02*
X134203364Y-35833333D01*
X134203364Y-35833333D02*
X134250983Y-35738095D01*
X134393840Y-36880952D02*
X134346221Y-36785714D01*
X134346221Y-36785714D02*
X134298602Y-36738095D01*
X134298602Y-36738095D02*
X134203364Y-36690476D01*
X134203364Y-36690476D02*
X134155745Y-36690476D01*
X134155745Y-36690476D02*
X134060507Y-36738095D01*
X134060507Y-36738095D02*
X134012888Y-36785714D01*
X134012888Y-36785714D02*
X133965269Y-36880952D01*
X133965269Y-36880952D02*
X133965269Y-37071428D01*
X133965269Y-37071428D02*
X134012888Y-37166666D01*
X134012888Y-37166666D02*
X134060507Y-37214285D01*
X134060507Y-37214285D02*
X134155745Y-37261904D01*
X134155745Y-37261904D02*
X134203364Y-37261904D01*
X134203364Y-37261904D02*
X134298602Y-37214285D01*
X134298602Y-37214285D02*
X134346221Y-37166666D01*
X134346221Y-37166666D02*
X134393840Y-37071428D01*
X134393840Y-37071428D02*
X134393840Y-36880952D01*
X134393840Y-36880952D02*
X134441459Y-36785714D01*
X134441459Y-36785714D02*
X134489078Y-36738095D01*
X134489078Y-36738095D02*
X134584316Y-36690476D01*
X134584316Y-36690476D02*
X134774792Y-36690476D01*
X134774792Y-36690476D02*
X134870030Y-36738095D01*
X134870030Y-36738095D02*
X134917650Y-36785714D01*
X134917650Y-36785714D02*
X134965269Y-36880952D01*
X134965269Y-36880952D02*
X134965269Y-37071428D01*
X134965269Y-37071428D02*
X134917650Y-37166666D01*
X134917650Y-37166666D02*
X134870030Y-37214285D01*
X134870030Y-37214285D02*
X134774792Y-37261904D01*
X134774792Y-37261904D02*
X134584316Y-37261904D01*
X134584316Y-37261904D02*
X134489078Y-37214285D01*
X134489078Y-37214285D02*
X134441459Y-37166666D01*
X134441459Y-37166666D02*
X134393840Y-37071428D01*
X134957319Y-42857142D02*
X134481128Y-42523809D01*
X134957319Y-42285714D02*
X133957319Y-42285714D01*
X133957319Y-42285714D02*
X133957319Y-42666666D01*
X133957319Y-42666666D02*
X134004938Y-42761904D01*
X134004938Y-42761904D02*
X134052557Y-42809523D01*
X134052557Y-42809523D02*
X134147795Y-42857142D01*
X134147795Y-42857142D02*
X134290652Y-42857142D01*
X134290652Y-42857142D02*
X134385890Y-42809523D01*
X134385890Y-42809523D02*
X134433509Y-42761904D01*
X134433509Y-42761904D02*
X134481128Y-42666666D01*
X134481128Y-42666666D02*
X134481128Y-42285714D01*
X134957319Y-43809523D02*
X134957319Y-43238095D01*
X134957319Y-43523809D02*
X133957319Y-43523809D01*
X133957319Y-43523809D02*
X134100176Y-43428571D01*
X134100176Y-43428571D02*
X134195414Y-43333333D01*
X134195414Y-43333333D02*
X134243033Y-43238095D01*
X134290652Y-44666666D02*
X134957319Y-44666666D01*
X133909700Y-44428571D02*
X134623985Y-44190476D01*
X134623985Y-44190476D02*
X134623985Y-44809523D01*
X136965269Y-35833333D02*
X136489078Y-35500000D01*
X136965269Y-35261905D02*
X135965269Y-35261905D01*
X135965269Y-35261905D02*
X135965269Y-35642857D01*
X135965269Y-35642857D02*
X136012888Y-35738095D01*
X136012888Y-35738095D02*
X136060507Y-35785714D01*
X136060507Y-35785714D02*
X136155745Y-35833333D01*
X136155745Y-35833333D02*
X136298602Y-35833333D01*
X136298602Y-35833333D02*
X136393840Y-35785714D01*
X136393840Y-35785714D02*
X136441459Y-35738095D01*
X136441459Y-35738095D02*
X136489078Y-35642857D01*
X136489078Y-35642857D02*
X136489078Y-35261905D01*
X136393840Y-36404762D02*
X136346221Y-36309524D01*
X136346221Y-36309524D02*
X136298602Y-36261905D01*
X136298602Y-36261905D02*
X136203364Y-36214286D01*
X136203364Y-36214286D02*
X136155745Y-36214286D01*
X136155745Y-36214286D02*
X136060507Y-36261905D01*
X136060507Y-36261905D02*
X136012888Y-36309524D01*
X136012888Y-36309524D02*
X135965269Y-36404762D01*
X135965269Y-36404762D02*
X135965269Y-36595238D01*
X135965269Y-36595238D02*
X136012888Y-36690476D01*
X136012888Y-36690476D02*
X136060507Y-36738095D01*
X136060507Y-36738095D02*
X136155745Y-36785714D01*
X136155745Y-36785714D02*
X136203364Y-36785714D01*
X136203364Y-36785714D02*
X136298602Y-36738095D01*
X136298602Y-36738095D02*
X136346221Y-36690476D01*
X136346221Y-36690476D02*
X136393840Y-36595238D01*
X136393840Y-36595238D02*
X136393840Y-36404762D01*
X136393840Y-36404762D02*
X136441459Y-36309524D01*
X136441459Y-36309524D02*
X136489078Y-36261905D01*
X136489078Y-36261905D02*
X136584316Y-36214286D01*
X136584316Y-36214286D02*
X136774792Y-36214286D01*
X136774792Y-36214286D02*
X136870030Y-36261905D01*
X136870030Y-36261905D02*
X136917650Y-36309524D01*
X136917650Y-36309524D02*
X136965269Y-36404762D01*
X136965269Y-36404762D02*
X136965269Y-36595238D01*
X136965269Y-36595238D02*
X136917650Y-36690476D01*
X136917650Y-36690476D02*
X136870030Y-36738095D01*
X136870030Y-36738095D02*
X136774792Y-36785714D01*
X136774792Y-36785714D02*
X136584316Y-36785714D01*
X136584316Y-36785714D02*
X136489078Y-36738095D01*
X136489078Y-36738095D02*
X136441459Y-36690476D01*
X136441459Y-36690476D02*
X136393840Y-36595238D01*
D12*
%TO.C,BT1*%
X81750000Y-58100000D02*
X111950000Y-58100000D01*
X81750000Y-112600000D02*
X81750000Y-58100000D01*
X111950000Y-58100000D02*
X111950000Y-112600000D01*
X111950000Y-112600000D02*
X81750000Y-112600000D01*
%TO.C,J2*%
X127130000Y-81670000D02*
X128460000Y-81670000D01*
X127130000Y-83000000D02*
X127130000Y-81670000D01*
X129730000Y-84330000D02*
X129730000Y-81670000D01*
X134870000Y-81670000D02*
X129730000Y-81670000D01*
X134870000Y-84330000D02*
X129730000Y-84330000D01*
X134870000Y-84330000D02*
X134870000Y-81670000D01*
%TO.C,R21*%
X125267500Y-43727064D02*
X125267500Y-43272936D01*
X126737500Y-43727064D02*
X126737500Y-43272936D01*
%TO.C,R20*%
X129767500Y-35772936D02*
X129767500Y-36227064D01*
X131237500Y-35772936D02*
X131237500Y-36227064D01*
%TO.C,R10*%
X139767500Y-35772936D02*
X139767500Y-36227064D01*
X141237500Y-35772936D02*
X141237500Y-36227064D01*
%TO.C,R7*%
X122767500Y-35772936D02*
X122767500Y-36227064D01*
X124237500Y-35772936D02*
X124237500Y-36227064D01*
%TO.C,R15*%
X115267500Y-43727064D02*
X115267500Y-43272936D01*
X116737500Y-43727064D02*
X116737500Y-43272936D01*
%TO.C,R22*%
X139767500Y-43727064D02*
X139767500Y-43272936D01*
X141237500Y-43727064D02*
X141237500Y-43272936D01*
%TO.C,R19*%
X115267500Y-35772936D02*
X115267500Y-36227064D01*
X116737500Y-35772936D02*
X116737500Y-36227064D01*
%TO.C,R17*%
X117767500Y-35772936D02*
X117767500Y-36227064D01*
X119237500Y-35772936D02*
X119237500Y-36227064D01*
%TO.C,R11*%
X122767500Y-43727064D02*
X122767500Y-43272936D01*
X124237500Y-43727064D02*
X124237500Y-43272936D01*
%TO.C,R9*%
X125267500Y-35772936D02*
X125267500Y-36227064D01*
X126737500Y-35772936D02*
X126737500Y-36227064D01*
%TO.C,R13*%
X117767500Y-43727064D02*
X117767500Y-43272936D01*
X119237500Y-43727064D02*
X119237500Y-43272936D01*
%TO.C,R16*%
X129767500Y-43727064D02*
X129767500Y-43272936D01*
X131237500Y-43727064D02*
X131237500Y-43272936D01*
%TO.C,R12*%
X137267500Y-43727064D02*
X137267500Y-43272936D01*
X138737500Y-43727064D02*
X138737500Y-43272936D01*
%TO.C,R18*%
X132267500Y-35772936D02*
X132267500Y-36227064D01*
X133737500Y-35772936D02*
X133737500Y-36227064D01*
%TO.C,R14*%
X132267500Y-43727064D02*
X132267500Y-43272936D01*
X133737500Y-43727064D02*
X133737500Y-43272936D01*
%TO.C,R8*%
X137267500Y-35772936D02*
X137267500Y-36227064D01*
X138737500Y-35772936D02*
X138737500Y-36227064D01*
%TD*%
M02*
