%TF.GenerationSoftware,KiCad,Pcbnew,8.0.8*%
%TF.CreationDate,2025-01-23T19:06:39+01:00*%
%TF.ProjectId,Digitaler_Wuerfel,44696769-7461-46c6-9572-5f5775657266,rev?*%
%TF.SameCoordinates,Original*%
%TF.FileFunction,Drillmap*%
%TF.FilePolarity,Positive*%
%FSLAX45Y45*%
G04 Gerber Fmt 4.5, Leading zero omitted, Abs format (unit mm)*
G04 Created by KiCad (PCBNEW 8.0.8) date 2025-01-23 19:06:39*
%MOMM*%
%LPD*%
G01*
G04 APERTURE LIST*
%ADD10C,0.050000*%
%ADD11C,0.200000*%
%ADD12C,0.100000*%
%ADD13C,0.110000*%
%ADD14C,0.120000*%
%ADD15C,0.240000*%
%ADD16C,0.320000*%
G04 APERTURE END LIST*
D10*
X7509619Y-3109619D02*
X7509619Y-4840381D01*
X7050000Y-5300000D02*
X7509619Y-4840381D01*
X7050000Y-2150000D02*
X7050000Y-2650000D01*
X7550000Y-2150000D02*
X7050000Y-2150000D01*
X7050000Y-11500000D02*
X7050000Y-5300000D01*
X14400000Y-2150000D02*
G75*
G02*
X14900000Y-2650000I0J-500000D01*
G01*
X14900000Y-11500000D02*
G75*
G02*
X14400000Y-12000000I-500000J0D01*
G01*
X7550000Y-12000000D02*
G75*
G02*
X7050000Y-11500000I0J500000D01*
G01*
X14900000Y-2650000D02*
X14900000Y-11500000D01*
X7550000Y-2150000D02*
X14400000Y-2150000D01*
X14400000Y-12000000D02*
X7550000Y-12000000D01*
X7050000Y-2650000D02*
X7509619Y-3109619D01*
D11*
D12*
X8035000Y-3985000D02*
X8065000Y-4015000D01*
X8065000Y-3985000D02*
X8035000Y-4015000D01*
X8035000Y-4935000D02*
X8065000Y-4965000D01*
X8065000Y-4935000D02*
X8035000Y-4965000D01*
X8085000Y-8435000D02*
X8115000Y-8465000D01*
X8115000Y-8435000D02*
X8085000Y-8465000D01*
X8360000Y-8035000D02*
X8390000Y-8065000D01*
X8390000Y-8035000D02*
X8360000Y-8065000D01*
X8483531Y-8201616D02*
X8513531Y-8231616D01*
X8513531Y-8201616D02*
X8483531Y-8231616D01*
X8485000Y-8290000D02*
X8515000Y-8320000D01*
X8515000Y-8290000D02*
X8485000Y-8320000D01*
X8585000Y-5135000D02*
X8615000Y-5165000D01*
X8615000Y-5135000D02*
X8585000Y-5165000D01*
X8585000Y-8685000D02*
X8615000Y-8715000D01*
X8615000Y-8685000D02*
X8585000Y-8715000D01*
X8585000Y-8985000D02*
X8615000Y-9015000D01*
X8615000Y-8985000D02*
X8585000Y-9015000D01*
X8585000Y-9085000D02*
X8615000Y-9115000D01*
X8615000Y-9085000D02*
X8585000Y-9115000D01*
X8660000Y-8610000D02*
X8690000Y-8640000D01*
X8690000Y-8610000D02*
X8660000Y-8640000D01*
X8735000Y-3385000D02*
X8765000Y-3415000D01*
X8765000Y-3385000D02*
X8735000Y-3415000D01*
X8785000Y-9685000D02*
X8815000Y-9715000D01*
X8815000Y-9685000D02*
X8785000Y-9715000D01*
X8825000Y-8145000D02*
X8855000Y-8175000D01*
X8855000Y-8145000D02*
X8825000Y-8175000D01*
X8885000Y-4335000D02*
X8915000Y-4365000D01*
X8915000Y-4335000D02*
X8885000Y-4365000D01*
X8885000Y-8385000D02*
X8915000Y-8415000D01*
X8915000Y-8385000D02*
X8885000Y-8415000D01*
X8985000Y-8635000D02*
X9015000Y-8665000D01*
X9015000Y-8635000D02*
X8985000Y-8665000D01*
X8985000Y-10185000D02*
X9015000Y-10215000D01*
X9015000Y-10185000D02*
X8985000Y-10215000D01*
X8995000Y-7335000D02*
X9025000Y-7365000D01*
X9025000Y-7335000D02*
X8995000Y-7365000D01*
X9185000Y-8835000D02*
X9215000Y-8865000D01*
X9215000Y-8835000D02*
X9185000Y-8865000D01*
X9335000Y-5735000D02*
X9365000Y-5765000D01*
X9365000Y-5735000D02*
X9335000Y-5765000D01*
X9535000Y-8885000D02*
X9565000Y-8915000D01*
X9565000Y-8885000D02*
X9535000Y-8915000D01*
X9535000Y-10035000D02*
X9565000Y-10065000D01*
X9565000Y-10035000D02*
X9535000Y-10065000D01*
X9735000Y-5135000D02*
X9765000Y-5165000D01*
X9765000Y-5135000D02*
X9735000Y-5165000D01*
X9785000Y-3585000D02*
X9815000Y-3615000D01*
X9815000Y-3585000D02*
X9785000Y-3615000D01*
X9835000Y-4085000D02*
X9865000Y-4115000D01*
X9865000Y-4085000D02*
X9835000Y-4115000D01*
X10485000Y-9785000D02*
X10515000Y-9815000D01*
X10515000Y-9785000D02*
X10485000Y-9815000D01*
X10535000Y-6685000D02*
X10565000Y-6715000D01*
X10565000Y-6685000D02*
X10535000Y-6715000D01*
X10585000Y-3835000D02*
X10615000Y-3865000D01*
X10615000Y-3835000D02*
X10585000Y-3865000D01*
X10685000Y-3685000D02*
X10715000Y-3715000D01*
X10715000Y-3685000D02*
X10685000Y-3715000D01*
X10685000Y-4119853D02*
X10715000Y-4149853D01*
X10715000Y-4119853D02*
X10685000Y-4149853D01*
X10685000Y-8235000D02*
X10715000Y-8265000D01*
X10715000Y-8235000D02*
X10685000Y-8265000D01*
X10885000Y-3685000D02*
X10915000Y-3715000D01*
X10915000Y-3685000D02*
X10885000Y-3715000D01*
X10985000Y-7835000D02*
X11015000Y-7865000D01*
X11015000Y-7835000D02*
X10985000Y-7865000D01*
X11035000Y-3685000D02*
X11065000Y-3715000D01*
X11065000Y-3685000D02*
X11035000Y-3715000D01*
X11035000Y-4835000D02*
X11065000Y-4865000D01*
X11065000Y-4835000D02*
X11035000Y-4865000D01*
X11035000Y-8085000D02*
X11065000Y-8115000D01*
X11065000Y-8085000D02*
X11035000Y-8115000D01*
X11085000Y-6335000D02*
X11115000Y-6365000D01*
X11115000Y-6335000D02*
X11085000Y-6365000D01*
X11135000Y-8885000D02*
X11165000Y-8915000D01*
X11165000Y-8885000D02*
X11135000Y-8915000D01*
X11235000Y-7485000D02*
X11265000Y-7515000D01*
X11265000Y-7485000D02*
X11235000Y-7515000D01*
X11335000Y-6285000D02*
X11365000Y-6315000D01*
X11365000Y-6285000D02*
X11335000Y-6315000D01*
X11335000Y-8335000D02*
X11365000Y-8365000D01*
X11365000Y-8335000D02*
X11335000Y-8365000D01*
X11535000Y-10035000D02*
X11565000Y-10065000D01*
X11565000Y-10035000D02*
X11535000Y-10065000D01*
X11585000Y-8685000D02*
X11615000Y-8715000D01*
X11615000Y-8685000D02*
X11585000Y-8715000D01*
X11585000Y-9685000D02*
X11615000Y-9715000D01*
X11615000Y-9685000D02*
X11585000Y-9715000D01*
X11635000Y-8335000D02*
X11665000Y-8365000D01*
X11665000Y-8335000D02*
X11635000Y-8365000D01*
X11777500Y-8785000D02*
X11807500Y-8815000D01*
X11807500Y-8785000D02*
X11777500Y-8815000D01*
X11835000Y-5635000D02*
X11865000Y-5665000D01*
X11865000Y-5635000D02*
X11835000Y-5665000D01*
X11835000Y-6635000D02*
X11865000Y-6665000D01*
X11865000Y-6635000D02*
X11835000Y-6665000D01*
X11985000Y-9035000D02*
X12015000Y-9065000D01*
X12015000Y-9035000D02*
X11985000Y-9065000D01*
X12035000Y-6385000D02*
X12065000Y-6415000D01*
X12065000Y-6385000D02*
X12035000Y-6415000D01*
X12035000Y-10935000D02*
X12065000Y-10965000D01*
X12065000Y-10935000D02*
X12035000Y-10965000D01*
X12085000Y-6985000D02*
X12115000Y-7015000D01*
X12115000Y-6985000D02*
X12085000Y-7015000D01*
X12085000Y-8535000D02*
X12115000Y-8565000D01*
X12115000Y-8535000D02*
X12085000Y-8565000D01*
X12885000Y-3685000D02*
X12915000Y-3715000D01*
X12915000Y-3685000D02*
X12885000Y-3715000D01*
X12885000Y-4235000D02*
X12915000Y-4265000D01*
X12915000Y-4235000D02*
X12885000Y-4265000D01*
X13085000Y-2835000D02*
X13115000Y-2865000D01*
X13115000Y-2835000D02*
X13085000Y-2865000D01*
X13085000Y-3835000D02*
X13115000Y-3865000D01*
X13115000Y-3835000D02*
X13085000Y-3865000D01*
X13185000Y-4335000D02*
X13215000Y-4365000D01*
X13215000Y-4335000D02*
X13185000Y-4365000D01*
X13335000Y-5735000D02*
X13365000Y-5765000D01*
X13365000Y-5735000D02*
X13335000Y-5765000D01*
X13385000Y-7335000D02*
X13415000Y-7365000D01*
X13415000Y-7335000D02*
X13385000Y-7365000D01*
X13435000Y-3885000D02*
X13465000Y-3915000D01*
X13465000Y-3885000D02*
X13435000Y-3915000D01*
X13585000Y-3585000D02*
X13615000Y-3615000D01*
X13615000Y-3585000D02*
X13585000Y-3615000D01*
X13685000Y-8285000D02*
X13715000Y-8315000D01*
X13715000Y-8285000D02*
X13685000Y-8315000D01*
X13785000Y-3835000D02*
X13815000Y-3865000D01*
X13815000Y-3835000D02*
X13785000Y-3865000D01*
X14035000Y-4035000D02*
X14065000Y-4065000D01*
X14065000Y-4035000D02*
X14035000Y-4065000D01*
X14135000Y-11400000D02*
G75*
G02*
X14085000Y-11400000I-25000J0D01*
G01*
X14085000Y-11400000D02*
G75*
G02*
X14135000Y-11400000I25000J0D01*
G01*
X14205294Y-11230294D02*
G75*
G02*
X14155294Y-11230294I-25000J0D01*
G01*
X14155294Y-11230294D02*
G75*
G02*
X14205294Y-11230294I25000J0D01*
G01*
X14205294Y-11569706D02*
G75*
G02*
X14155294Y-11569706I-25000J0D01*
G01*
X14155294Y-11569706D02*
G75*
G02*
X14205294Y-11569706I25000J0D01*
G01*
X14375000Y-11160000D02*
G75*
G02*
X14325000Y-11160000I-25000J0D01*
G01*
X14325000Y-11160000D02*
G75*
G02*
X14375000Y-11160000I25000J0D01*
G01*
X14375000Y-11640000D02*
G75*
G02*
X14325000Y-11640000I-25000J0D01*
G01*
X14325000Y-11640000D02*
G75*
G02*
X14375000Y-11640000I25000J0D01*
G01*
X14544706Y-11230294D02*
G75*
G02*
X14494706Y-11230294I-25000J0D01*
G01*
X14494706Y-11230294D02*
G75*
G02*
X14544706Y-11230294I25000J0D01*
G01*
X14544706Y-11569706D02*
G75*
G02*
X14494706Y-11569706I-25000J0D01*
G01*
X14494706Y-11569706D02*
G75*
G02*
X14544706Y-11569706I25000J0D01*
G01*
X14615000Y-11400000D02*
G75*
G02*
X14565000Y-11400000I-25000J0D01*
G01*
X14565000Y-11400000D02*
G75*
G02*
X14615000Y-11400000I25000J0D01*
G01*
X11447600Y-7810900D02*
X11447600Y-7885900D01*
X11410100Y-7848400D02*
X11485100Y-7848400D01*
X11574600Y-7810900D02*
X11574600Y-7885900D01*
X11537100Y-7848400D02*
X11612100Y-7848400D01*
X11701600Y-7810900D02*
X11701600Y-7885900D01*
X11664100Y-7848400D02*
X11739100Y-7848400D01*
X8529785Y-3118784D02*
X8529785Y-3062215D01*
X8473216Y-3062215D01*
X8473216Y-3118784D01*
X8529785Y-3118784D01*
X8529785Y-3880784D02*
X8529785Y-3824215D01*
X8473216Y-3824215D01*
X8473216Y-3880784D01*
X8529785Y-3880784D01*
X8537785Y-4798285D02*
X8537785Y-4741716D01*
X8481216Y-4741716D01*
X8481216Y-4798285D01*
X8537785Y-4798285D01*
X8537785Y-5560285D02*
X8537785Y-5503716D01*
X8481216Y-5503716D01*
X8481216Y-5560285D01*
X8537785Y-5560285D01*
X8783785Y-3118784D02*
X8783785Y-3062215D01*
X8727216Y-3062215D01*
X8727216Y-3118784D01*
X8783785Y-3118784D01*
X8783785Y-3880784D02*
X8783785Y-3824215D01*
X8727216Y-3824215D01*
X8727216Y-3880784D01*
X8783785Y-3880784D01*
X8791785Y-4798285D02*
X8791785Y-4741716D01*
X8735216Y-4741716D01*
X8735216Y-4798285D01*
X8791785Y-4798285D01*
X8791785Y-5560285D02*
X8791785Y-5503716D01*
X8735216Y-5503716D01*
X8735216Y-5560285D01*
X8791785Y-5560285D01*
X9037785Y-3118784D02*
X9037785Y-3062215D01*
X8981216Y-3062215D01*
X8981216Y-3118784D01*
X9037785Y-3118784D01*
X9037785Y-3880784D02*
X9037785Y-3824215D01*
X8981216Y-3824215D01*
X8981216Y-3880784D01*
X9037785Y-3880784D01*
X9045785Y-4798285D02*
X9045785Y-4741716D01*
X8989216Y-4741716D01*
X8989216Y-4798285D01*
X9045785Y-4798285D01*
X9045785Y-5560285D02*
X9045785Y-5503716D01*
X8989216Y-5503716D01*
X8989216Y-5560285D01*
X9045785Y-5560285D01*
X9291785Y-3118784D02*
X9291785Y-3062215D01*
X9235216Y-3062215D01*
X9235216Y-3118784D01*
X9291785Y-3118784D01*
X9291785Y-3880784D02*
X9291785Y-3824215D01*
X9235216Y-3824215D01*
X9235216Y-3880784D01*
X9291785Y-3880784D01*
X9299785Y-4798285D02*
X9299785Y-4741716D01*
X9243216Y-4741716D01*
X9243216Y-4798285D01*
X9299785Y-4798285D01*
X9299785Y-5560285D02*
X9299785Y-5503716D01*
X9243216Y-5503716D01*
X9243216Y-5560285D01*
X9299785Y-5560285D01*
X9545785Y-3118784D02*
X9545785Y-3062215D01*
X9489216Y-3062215D01*
X9489216Y-3118784D01*
X9545785Y-3118784D01*
X9545785Y-3880784D02*
X9545785Y-3824215D01*
X9489216Y-3824215D01*
X9489216Y-3880784D01*
X9545785Y-3880784D01*
X9553785Y-4798285D02*
X9553785Y-4741716D01*
X9497216Y-4741716D01*
X9497216Y-4798285D01*
X9553785Y-4798285D01*
X9553785Y-5560285D02*
X9553785Y-5503716D01*
X9497216Y-5503716D01*
X9497216Y-5560285D01*
X9553785Y-5560285D01*
X9799785Y-3118784D02*
X9799785Y-3062215D01*
X9743216Y-3062215D01*
X9743216Y-3118784D01*
X9799785Y-3118784D01*
X9799785Y-3880784D02*
X9799785Y-3824215D01*
X9743216Y-3824215D01*
X9743216Y-3880784D01*
X9799785Y-3880784D01*
X9807785Y-4798285D02*
X9807785Y-4741716D01*
X9751216Y-4741716D01*
X9751216Y-4798285D01*
X9807785Y-4798285D01*
X9807785Y-5560285D02*
X9807785Y-5503716D01*
X9751216Y-5503716D01*
X9751216Y-5560285D01*
X9807785Y-5560285D01*
X10053785Y-3118784D02*
X10053785Y-3062215D01*
X9997216Y-3062215D01*
X9997216Y-3118784D01*
X10053785Y-3118784D01*
X10053785Y-3880784D02*
X10053785Y-3824215D01*
X9997216Y-3824215D01*
X9997216Y-3880784D01*
X10053785Y-3880784D01*
X10061785Y-4798285D02*
X10061785Y-4741716D01*
X10005216Y-4741716D01*
X10005216Y-4798285D01*
X10061785Y-4798285D01*
X10061785Y-5560285D02*
X10061785Y-5503716D01*
X10005216Y-5503716D01*
X10005216Y-5560285D01*
X10061785Y-5560285D01*
X10307785Y-3118784D02*
X10307785Y-3062215D01*
X10251216Y-3062215D01*
X10251216Y-3118784D01*
X10307785Y-3118784D01*
X10307785Y-3880784D02*
X10307785Y-3824215D01*
X10251216Y-3824215D01*
X10251216Y-3880784D01*
X10307785Y-3880784D01*
X10315785Y-4798285D02*
X10315785Y-4741716D01*
X10259216Y-4741716D01*
X10259216Y-4798285D01*
X10315785Y-4798285D01*
X10315785Y-5560285D02*
X10315785Y-5503716D01*
X10259216Y-5503716D01*
X10259216Y-5560285D01*
X10315785Y-5560285D01*
X11378284Y-10478285D02*
X11378284Y-10421716D01*
X11321715Y-10421716D01*
X11321715Y-10478285D01*
X11378284Y-10478285D01*
X11378284Y-10728285D02*
X11378284Y-10671716D01*
X11321715Y-10671716D01*
X11321715Y-10728285D01*
X11378284Y-10728285D01*
X11378284Y-10978285D02*
X11378284Y-10921716D01*
X11321715Y-10921716D01*
X11321715Y-10978285D01*
X11378284Y-10978285D01*
X11620534Y-3254284D02*
X11620534Y-3197715D01*
X11563965Y-3197715D01*
X11563965Y-3254284D01*
X11620534Y-3254284D01*
X11620534Y-4778285D02*
X11620534Y-4721716D01*
X11563965Y-4721716D01*
X11563965Y-4778285D01*
X11620534Y-4778285D01*
X11698284Y-10478285D02*
X11698284Y-10421716D01*
X11641715Y-10421716D01*
X11641715Y-10478285D01*
X11698284Y-10478285D01*
X11698284Y-10728285D02*
X11698284Y-10671716D01*
X11641715Y-10671716D01*
X11641715Y-10728285D01*
X11698284Y-10728285D01*
X11698284Y-10978285D02*
X11698284Y-10921716D01*
X11641715Y-10921716D01*
X11641715Y-10978285D01*
X11698284Y-10978285D01*
X11874534Y-3254284D02*
X11874534Y-3197715D01*
X11817965Y-3197715D01*
X11817965Y-3254284D01*
X11874534Y-3254284D01*
X11874534Y-4778285D02*
X11874534Y-4721716D01*
X11817965Y-4721716D01*
X11817965Y-4778285D01*
X11874534Y-4778285D01*
X12128534Y-3254284D02*
X12128534Y-3197715D01*
X12071965Y-3197715D01*
X12071965Y-3254284D01*
X12128534Y-3254284D01*
X12128534Y-4778285D02*
X12128534Y-4721716D01*
X12071965Y-4721716D01*
X12071965Y-4778285D01*
X12128534Y-4778285D01*
X12382534Y-3254284D02*
X12382534Y-3197715D01*
X12325965Y-3197715D01*
X12325965Y-3254284D01*
X12382534Y-3254284D01*
X12382534Y-4778285D02*
X12382534Y-4721716D01*
X12325965Y-4721716D01*
X12325965Y-4778285D01*
X12382534Y-4778285D01*
X12636534Y-3254284D02*
X12636534Y-3197715D01*
X12579965Y-3197715D01*
X12579965Y-3254284D01*
X12636534Y-3254284D01*
X12636534Y-4778285D02*
X12636534Y-4721716D01*
X12579965Y-4721716D01*
X12579965Y-4778285D01*
X12636534Y-4778285D01*
X13062534Y-3254284D02*
X13062534Y-3197715D01*
X13005965Y-3197715D01*
X13005965Y-3254284D01*
X13062534Y-3254284D01*
X13062534Y-4778285D02*
X13062534Y-4721716D01*
X13005965Y-4721716D01*
X13005965Y-4778285D01*
X13062534Y-4778285D01*
X13316534Y-3254284D02*
X13316534Y-3197715D01*
X13259965Y-3197715D01*
X13259965Y-3254284D01*
X13316534Y-3254284D01*
X13316534Y-4778285D02*
X13316534Y-4721716D01*
X13259965Y-4721716D01*
X13259965Y-4778285D01*
X13316534Y-4778285D01*
X13570534Y-3254284D02*
X13570534Y-3197715D01*
X13513965Y-3197715D01*
X13513965Y-3254284D01*
X13570534Y-3254284D01*
X13570534Y-4778285D02*
X13570534Y-4721716D01*
X13513965Y-4721716D01*
X13513965Y-4778285D01*
X13570534Y-4778285D01*
X13824534Y-3254284D02*
X13824534Y-3197715D01*
X13767965Y-3197715D01*
X13767965Y-3254284D01*
X13824534Y-3254284D01*
X13824534Y-4778285D02*
X13824534Y-4721716D01*
X13767965Y-4721716D01*
X13767965Y-4778285D01*
X13824534Y-4778285D01*
X14078534Y-3254284D02*
X14078534Y-3197715D01*
X14021965Y-3197715D01*
X14021965Y-3254284D01*
X14078534Y-3254284D01*
X14078534Y-4778285D02*
X14078534Y-4721716D01*
X14021965Y-4721716D01*
X14021965Y-4778285D01*
X14078534Y-4778285D01*
X11423500Y-8994500D02*
X11473500Y-8944500D01*
X11423500Y-8894500D01*
X11373500Y-8944500D01*
X11423500Y-8994500D01*
X11423500Y-9248500D02*
X11473500Y-9198500D01*
X11423500Y-9148500D01*
X11373500Y-9198500D01*
X11423500Y-9248500D01*
X11423500Y-9502500D02*
X11473500Y-9452500D01*
X11423500Y-9402500D01*
X11373500Y-9452500D01*
X11423500Y-9502500D01*
X11677500Y-8994500D02*
X11727500Y-8944500D01*
X11677500Y-8894500D01*
X11627500Y-8944500D01*
X11677500Y-8994500D01*
X11677500Y-9248500D02*
X11727500Y-9198500D01*
X11677500Y-9148500D01*
X11627500Y-9198500D01*
X11677500Y-9248500D01*
X11677500Y-9502500D02*
X11727500Y-9452500D01*
X11677500Y-9402500D01*
X11627500Y-9452500D01*
X11677500Y-9502500D01*
X12846000Y-8350000D02*
X12896000Y-8300000D01*
X12846000Y-8250000D01*
X12796000Y-8300000D01*
X12846000Y-8350000D01*
X13100000Y-8350000D02*
X13150000Y-8300000D01*
X13100000Y-8250000D01*
X13050000Y-8300000D01*
X13100000Y-8350000D01*
X13354000Y-8350000D02*
X13404000Y-8300000D01*
X13354000Y-8250000D01*
X13304000Y-8300000D01*
X13354000Y-8350000D01*
D13*
X11445000Y-5345000D02*
X11555000Y-5455000D01*
X11555000Y-5345000D02*
X11445000Y-5455000D01*
X11555000Y-5400000D02*
G75*
G02*
X11445000Y-5400000I-55000J0D01*
G01*
X11445000Y-5400000D02*
G75*
G02*
X11555000Y-5400000I55000J0D01*
G01*
X11445000Y-5795000D02*
X11555000Y-5905000D01*
X11555000Y-5795000D02*
X11445000Y-5905000D01*
X11555000Y-5850000D02*
G75*
G02*
X11445000Y-5850000I-55000J0D01*
G01*
X11445000Y-5850000D02*
G75*
G02*
X11555000Y-5850000I55000J0D01*
G01*
X12095000Y-5345000D02*
X12205000Y-5455000D01*
X12205000Y-5345000D02*
X12095000Y-5455000D01*
X12205000Y-5400000D02*
G75*
G02*
X12095000Y-5400000I-55000J0D01*
G01*
X12095000Y-5400000D02*
G75*
G02*
X12205000Y-5400000I55000J0D01*
G01*
X12095000Y-5795000D02*
X12205000Y-5905000D01*
X12205000Y-5795000D02*
X12095000Y-5905000D01*
X12205000Y-5850000D02*
G75*
G02*
X12095000Y-5850000I-55000J0D01*
G01*
X12095000Y-5850000D02*
G75*
G02*
X12205000Y-5850000I55000J0D01*
G01*
D14*
X12665000Y-5540000D02*
X12785000Y-5660000D01*
X12785000Y-5540000D02*
X12665000Y-5660000D01*
X12725000Y-5540000D02*
X12725000Y-5660000D01*
X12665000Y-5600000D02*
X12785000Y-5600000D01*
X12665000Y-6040000D02*
X12785000Y-6160000D01*
X12785000Y-6040000D02*
X12665000Y-6160000D01*
X12725000Y-6040000D02*
X12725000Y-6160000D01*
X12665000Y-6100000D02*
X12785000Y-6100000D01*
X12665000Y-7040000D02*
X12785000Y-7160000D01*
X12785000Y-7040000D02*
X12665000Y-7160000D01*
X12725000Y-7040000D02*
X12725000Y-7160000D01*
X12665000Y-7100000D02*
X12785000Y-7100000D01*
X12665000Y-7540000D02*
X12785000Y-7660000D01*
X12785000Y-7540000D02*
X12665000Y-7660000D01*
X12725000Y-7540000D02*
X12725000Y-7660000D01*
X12665000Y-7600000D02*
X12785000Y-7600000D01*
X13915000Y-5540000D02*
X14035000Y-5660000D01*
X14035000Y-5540000D02*
X13915000Y-5660000D01*
X13975000Y-5540000D02*
X13975000Y-5660000D01*
X13915000Y-5600000D02*
X14035000Y-5600000D01*
X13915000Y-6040000D02*
X14035000Y-6160000D01*
X14035000Y-6040000D02*
X13915000Y-6160000D01*
X13975000Y-6040000D02*
X13975000Y-6160000D01*
X13915000Y-6100000D02*
X14035000Y-6100000D01*
X13915000Y-7040000D02*
X14035000Y-7160000D01*
X14035000Y-7040000D02*
X13915000Y-7160000D01*
X13975000Y-7040000D02*
X13975000Y-7160000D01*
X13915000Y-7100000D02*
X14035000Y-7100000D01*
X13915000Y-7540000D02*
X14035000Y-7660000D01*
X14035000Y-7540000D02*
X13915000Y-7660000D01*
X13975000Y-7540000D02*
X13975000Y-7660000D01*
X13915000Y-7600000D02*
X14035000Y-7600000D01*
D15*
X8930000Y-10830000D02*
X9170000Y-11070000D01*
X9170000Y-10830000D02*
X8930000Y-11070000D01*
X9134854Y-11034854D02*
X9134854Y-10865146D01*
X8965146Y-10865146D01*
X8965146Y-11034854D01*
X9134854Y-11034854D01*
X10200000Y-10830000D02*
X10440000Y-11070000D01*
X10440000Y-10830000D02*
X10200000Y-11070000D01*
X10404854Y-11034854D02*
X10404854Y-10865146D01*
X10235146Y-10865146D01*
X10235146Y-11034854D01*
X10404854Y-11034854D01*
D16*
X14190000Y-11240000D02*
X14510000Y-11560000D01*
X14510000Y-11240000D02*
X14190000Y-11560000D01*
X14350000Y-11560000D02*
X14510000Y-11400000D01*
X14350000Y-11240000D01*
X14190000Y-11400000D01*
X14350000Y-11560000D01*
D11*
X7308277Y-12313984D02*
X7308277Y-12113984D01*
X7308277Y-12113984D02*
X7355896Y-12113984D01*
X7355896Y-12113984D02*
X7384467Y-12123508D01*
X7384467Y-12123508D02*
X7403515Y-12142555D01*
X7403515Y-12142555D02*
X7413039Y-12161603D01*
X7413039Y-12161603D02*
X7422562Y-12199698D01*
X7422562Y-12199698D02*
X7422562Y-12228269D01*
X7422562Y-12228269D02*
X7413039Y-12266365D01*
X7413039Y-12266365D02*
X7403515Y-12285412D01*
X7403515Y-12285412D02*
X7384467Y-12304460D01*
X7384467Y-12304460D02*
X7355896Y-12313984D01*
X7355896Y-12313984D02*
X7308277Y-12313984D01*
X7508277Y-12313984D02*
X7508277Y-12180650D01*
X7508277Y-12218746D02*
X7517801Y-12199698D01*
X7517801Y-12199698D02*
X7527324Y-12190174D01*
X7527324Y-12190174D02*
X7546372Y-12180650D01*
X7546372Y-12180650D02*
X7565420Y-12180650D01*
X7632086Y-12313984D02*
X7632086Y-12180650D01*
X7632086Y-12113984D02*
X7622562Y-12123508D01*
X7622562Y-12123508D02*
X7632086Y-12133031D01*
X7632086Y-12133031D02*
X7641610Y-12123508D01*
X7641610Y-12123508D02*
X7632086Y-12113984D01*
X7632086Y-12113984D02*
X7632086Y-12133031D01*
X7755896Y-12313984D02*
X7736848Y-12304460D01*
X7736848Y-12304460D02*
X7727324Y-12285412D01*
X7727324Y-12285412D02*
X7727324Y-12113984D01*
X7860658Y-12313984D02*
X7841610Y-12304460D01*
X7841610Y-12304460D02*
X7832086Y-12285412D01*
X7832086Y-12285412D02*
X7832086Y-12113984D01*
X8089229Y-12313984D02*
X8089229Y-12113984D01*
X8089229Y-12113984D02*
X8155896Y-12256841D01*
X8155896Y-12256841D02*
X8222562Y-12113984D01*
X8222562Y-12113984D02*
X8222562Y-12313984D01*
X8403515Y-12313984D02*
X8403515Y-12209222D01*
X8403515Y-12209222D02*
X8393991Y-12190174D01*
X8393991Y-12190174D02*
X8374943Y-12180650D01*
X8374943Y-12180650D02*
X8336848Y-12180650D01*
X8336848Y-12180650D02*
X8317801Y-12190174D01*
X8403515Y-12304460D02*
X8384467Y-12313984D01*
X8384467Y-12313984D02*
X8336848Y-12313984D01*
X8336848Y-12313984D02*
X8317801Y-12304460D01*
X8317801Y-12304460D02*
X8308277Y-12285412D01*
X8308277Y-12285412D02*
X8308277Y-12266365D01*
X8308277Y-12266365D02*
X8317801Y-12247317D01*
X8317801Y-12247317D02*
X8336848Y-12237793D01*
X8336848Y-12237793D02*
X8384467Y-12237793D01*
X8384467Y-12237793D02*
X8403515Y-12228269D01*
X8498753Y-12180650D02*
X8498753Y-12380650D01*
X8498753Y-12190174D02*
X8517801Y-12180650D01*
X8517801Y-12180650D02*
X8555896Y-12180650D01*
X8555896Y-12180650D02*
X8574944Y-12190174D01*
X8574944Y-12190174D02*
X8584467Y-12199698D01*
X8584467Y-12199698D02*
X8593991Y-12218746D01*
X8593991Y-12218746D02*
X8593991Y-12275888D01*
X8593991Y-12275888D02*
X8584467Y-12294936D01*
X8584467Y-12294936D02*
X8574944Y-12304460D01*
X8574944Y-12304460D02*
X8555896Y-12313984D01*
X8555896Y-12313984D02*
X8517801Y-12313984D01*
X8517801Y-12313984D02*
X8498753Y-12304460D01*
X8679705Y-12294936D02*
X8689229Y-12304460D01*
X8689229Y-12304460D02*
X8679705Y-12313984D01*
X8679705Y-12313984D02*
X8670182Y-12304460D01*
X8670182Y-12304460D02*
X8679705Y-12294936D01*
X8679705Y-12294936D02*
X8679705Y-12313984D01*
X8679705Y-12190174D02*
X8689229Y-12199698D01*
X8689229Y-12199698D02*
X8679705Y-12209222D01*
X8679705Y-12209222D02*
X8670182Y-12199698D01*
X8670182Y-12199698D02*
X8679705Y-12190174D01*
X8679705Y-12190174D02*
X8679705Y-12209222D01*
D12*
X7017500Y-12627500D02*
X7047500Y-12657500D01*
X7047500Y-12627500D02*
X7017500Y-12657500D01*
D11*
X7346372Y-12533984D02*
X7365420Y-12533984D01*
X7365420Y-12533984D02*
X7384467Y-12543508D01*
X7384467Y-12543508D02*
X7393991Y-12553031D01*
X7393991Y-12553031D02*
X7403515Y-12572079D01*
X7403515Y-12572079D02*
X7413039Y-12610174D01*
X7413039Y-12610174D02*
X7413039Y-12657793D01*
X7413039Y-12657793D02*
X7403515Y-12695888D01*
X7403515Y-12695888D02*
X7393991Y-12714936D01*
X7393991Y-12714936D02*
X7384467Y-12724460D01*
X7384467Y-12724460D02*
X7365420Y-12733984D01*
X7365420Y-12733984D02*
X7346372Y-12733984D01*
X7346372Y-12733984D02*
X7327324Y-12724460D01*
X7327324Y-12724460D02*
X7317801Y-12714936D01*
X7317801Y-12714936D02*
X7308277Y-12695888D01*
X7308277Y-12695888D02*
X7298753Y-12657793D01*
X7298753Y-12657793D02*
X7298753Y-12610174D01*
X7298753Y-12610174D02*
X7308277Y-12572079D01*
X7308277Y-12572079D02*
X7317801Y-12553031D01*
X7317801Y-12553031D02*
X7327324Y-12543508D01*
X7327324Y-12543508D02*
X7346372Y-12533984D01*
X7498753Y-12714936D02*
X7508277Y-12724460D01*
X7508277Y-12724460D02*
X7498753Y-12733984D01*
X7498753Y-12733984D02*
X7489229Y-12724460D01*
X7489229Y-12724460D02*
X7498753Y-12714936D01*
X7498753Y-12714936D02*
X7498753Y-12733984D01*
X7574943Y-12533984D02*
X7698753Y-12533984D01*
X7698753Y-12533984D02*
X7632086Y-12610174D01*
X7632086Y-12610174D02*
X7660658Y-12610174D01*
X7660658Y-12610174D02*
X7679705Y-12619698D01*
X7679705Y-12619698D02*
X7689229Y-12629222D01*
X7689229Y-12629222D02*
X7698753Y-12648269D01*
X7698753Y-12648269D02*
X7698753Y-12695888D01*
X7698753Y-12695888D02*
X7689229Y-12714936D01*
X7689229Y-12714936D02*
X7679705Y-12724460D01*
X7679705Y-12724460D02*
X7660658Y-12733984D01*
X7660658Y-12733984D02*
X7603515Y-12733984D01*
X7603515Y-12733984D02*
X7584467Y-12724460D01*
X7584467Y-12724460D02*
X7574943Y-12714936D01*
X7822562Y-12533984D02*
X7841610Y-12533984D01*
X7841610Y-12533984D02*
X7860658Y-12543508D01*
X7860658Y-12543508D02*
X7870182Y-12553031D01*
X7870182Y-12553031D02*
X7879705Y-12572079D01*
X7879705Y-12572079D02*
X7889229Y-12610174D01*
X7889229Y-12610174D02*
X7889229Y-12657793D01*
X7889229Y-12657793D02*
X7879705Y-12695888D01*
X7879705Y-12695888D02*
X7870182Y-12714936D01*
X7870182Y-12714936D02*
X7860658Y-12724460D01*
X7860658Y-12724460D02*
X7841610Y-12733984D01*
X7841610Y-12733984D02*
X7822562Y-12733984D01*
X7822562Y-12733984D02*
X7803515Y-12724460D01*
X7803515Y-12724460D02*
X7793991Y-12714936D01*
X7793991Y-12714936D02*
X7784467Y-12695888D01*
X7784467Y-12695888D02*
X7774943Y-12657793D01*
X7774943Y-12657793D02*
X7774943Y-12610174D01*
X7774943Y-12610174D02*
X7784467Y-12572079D01*
X7784467Y-12572079D02*
X7793991Y-12553031D01*
X7793991Y-12553031D02*
X7803515Y-12543508D01*
X7803515Y-12543508D02*
X7822562Y-12533984D01*
X8013039Y-12533984D02*
X8032086Y-12533984D01*
X8032086Y-12533984D02*
X8051134Y-12543508D01*
X8051134Y-12543508D02*
X8060658Y-12553031D01*
X8060658Y-12553031D02*
X8070182Y-12572079D01*
X8070182Y-12572079D02*
X8079705Y-12610174D01*
X8079705Y-12610174D02*
X8079705Y-12657793D01*
X8079705Y-12657793D02*
X8070182Y-12695888D01*
X8070182Y-12695888D02*
X8060658Y-12714936D01*
X8060658Y-12714936D02*
X8051134Y-12724460D01*
X8051134Y-12724460D02*
X8032086Y-12733984D01*
X8032086Y-12733984D02*
X8013039Y-12733984D01*
X8013039Y-12733984D02*
X7993991Y-12724460D01*
X7993991Y-12724460D02*
X7984467Y-12714936D01*
X7984467Y-12714936D02*
X7974943Y-12695888D01*
X7974943Y-12695888D02*
X7965420Y-12657793D01*
X7965420Y-12657793D02*
X7965420Y-12610174D01*
X7965420Y-12610174D02*
X7974943Y-12572079D01*
X7974943Y-12572079D02*
X7984467Y-12553031D01*
X7984467Y-12553031D02*
X7993991Y-12543508D01*
X7993991Y-12543508D02*
X8013039Y-12533984D01*
X8165420Y-12733984D02*
X8165420Y-12600650D01*
X8165420Y-12619698D02*
X8174943Y-12610174D01*
X8174943Y-12610174D02*
X8193991Y-12600650D01*
X8193991Y-12600650D02*
X8222563Y-12600650D01*
X8222563Y-12600650D02*
X8241610Y-12610174D01*
X8241610Y-12610174D02*
X8251134Y-12629222D01*
X8251134Y-12629222D02*
X8251134Y-12733984D01*
X8251134Y-12629222D02*
X8260658Y-12610174D01*
X8260658Y-12610174D02*
X8279705Y-12600650D01*
X8279705Y-12600650D02*
X8308277Y-12600650D01*
X8308277Y-12600650D02*
X8327324Y-12610174D01*
X8327324Y-12610174D02*
X8336848Y-12629222D01*
X8336848Y-12629222D02*
X8336848Y-12733984D01*
X8432086Y-12733984D02*
X8432086Y-12600650D01*
X8432086Y-12619698D02*
X8441610Y-12610174D01*
X8441610Y-12610174D02*
X8460658Y-12600650D01*
X8460658Y-12600650D02*
X8489229Y-12600650D01*
X8489229Y-12600650D02*
X8508277Y-12610174D01*
X8508277Y-12610174D02*
X8517801Y-12629222D01*
X8517801Y-12629222D02*
X8517801Y-12733984D01*
X8517801Y-12629222D02*
X8527325Y-12610174D01*
X8527325Y-12610174D02*
X8546372Y-12600650D01*
X8546372Y-12600650D02*
X8574944Y-12600650D01*
X8574944Y-12600650D02*
X8593991Y-12610174D01*
X8593991Y-12610174D02*
X8603515Y-12629222D01*
X8603515Y-12629222D02*
X8603515Y-12733984D01*
X8993991Y-12524460D02*
X8822563Y-12781603D01*
X9251134Y-12533984D02*
X9270182Y-12533984D01*
X9270182Y-12533984D02*
X9289229Y-12543508D01*
X9289229Y-12543508D02*
X9298753Y-12553031D01*
X9298753Y-12553031D02*
X9308277Y-12572079D01*
X9308277Y-12572079D02*
X9317801Y-12610174D01*
X9317801Y-12610174D02*
X9317801Y-12657793D01*
X9317801Y-12657793D02*
X9308277Y-12695888D01*
X9308277Y-12695888D02*
X9298753Y-12714936D01*
X9298753Y-12714936D02*
X9289229Y-12724460D01*
X9289229Y-12724460D02*
X9270182Y-12733984D01*
X9270182Y-12733984D02*
X9251134Y-12733984D01*
X9251134Y-12733984D02*
X9232087Y-12724460D01*
X9232087Y-12724460D02*
X9222563Y-12714936D01*
X9222563Y-12714936D02*
X9213039Y-12695888D01*
X9213039Y-12695888D02*
X9203515Y-12657793D01*
X9203515Y-12657793D02*
X9203515Y-12610174D01*
X9203515Y-12610174D02*
X9213039Y-12572079D01*
X9213039Y-12572079D02*
X9222563Y-12553031D01*
X9222563Y-12553031D02*
X9232087Y-12543508D01*
X9232087Y-12543508D02*
X9251134Y-12533984D01*
X9403515Y-12714936D02*
X9413039Y-12724460D01*
X9413039Y-12724460D02*
X9403515Y-12733984D01*
X9403515Y-12733984D02*
X9393991Y-12724460D01*
X9393991Y-12724460D02*
X9403515Y-12714936D01*
X9403515Y-12714936D02*
X9403515Y-12733984D01*
X9536848Y-12533984D02*
X9555896Y-12533984D01*
X9555896Y-12533984D02*
X9574944Y-12543508D01*
X9574944Y-12543508D02*
X9584468Y-12553031D01*
X9584468Y-12553031D02*
X9593991Y-12572079D01*
X9593991Y-12572079D02*
X9603515Y-12610174D01*
X9603515Y-12610174D02*
X9603515Y-12657793D01*
X9603515Y-12657793D02*
X9593991Y-12695888D01*
X9593991Y-12695888D02*
X9584468Y-12714936D01*
X9584468Y-12714936D02*
X9574944Y-12724460D01*
X9574944Y-12724460D02*
X9555896Y-12733984D01*
X9555896Y-12733984D02*
X9536848Y-12733984D01*
X9536848Y-12733984D02*
X9517801Y-12724460D01*
X9517801Y-12724460D02*
X9508277Y-12714936D01*
X9508277Y-12714936D02*
X9498753Y-12695888D01*
X9498753Y-12695888D02*
X9489229Y-12657793D01*
X9489229Y-12657793D02*
X9489229Y-12610174D01*
X9489229Y-12610174D02*
X9498753Y-12572079D01*
X9498753Y-12572079D02*
X9508277Y-12553031D01*
X9508277Y-12553031D02*
X9517801Y-12543508D01*
X9517801Y-12543508D02*
X9536848Y-12533984D01*
X9793991Y-12733984D02*
X9679706Y-12733984D01*
X9736848Y-12733984D02*
X9736848Y-12533984D01*
X9736848Y-12533984D02*
X9717801Y-12562555D01*
X9717801Y-12562555D02*
X9698753Y-12581603D01*
X9698753Y-12581603D02*
X9679706Y-12591127D01*
X9984468Y-12733984D02*
X9870182Y-12733984D01*
X9927325Y-12733984D02*
X9927325Y-12533984D01*
X9927325Y-12533984D02*
X9908277Y-12562555D01*
X9908277Y-12562555D02*
X9889229Y-12581603D01*
X9889229Y-12581603D02*
X9870182Y-12591127D01*
X10098753Y-12619698D02*
X10079706Y-12610174D01*
X10079706Y-12610174D02*
X10070182Y-12600650D01*
X10070182Y-12600650D02*
X10060658Y-12581603D01*
X10060658Y-12581603D02*
X10060658Y-12572079D01*
X10060658Y-12572079D02*
X10070182Y-12553031D01*
X10070182Y-12553031D02*
X10079706Y-12543508D01*
X10079706Y-12543508D02*
X10098753Y-12533984D01*
X10098753Y-12533984D02*
X10136849Y-12533984D01*
X10136849Y-12533984D02*
X10155896Y-12543508D01*
X10155896Y-12543508D02*
X10165420Y-12553031D01*
X10165420Y-12553031D02*
X10174944Y-12572079D01*
X10174944Y-12572079D02*
X10174944Y-12581603D01*
X10174944Y-12581603D02*
X10165420Y-12600650D01*
X10165420Y-12600650D02*
X10155896Y-12610174D01*
X10155896Y-12610174D02*
X10136849Y-12619698D01*
X10136849Y-12619698D02*
X10098753Y-12619698D01*
X10098753Y-12619698D02*
X10079706Y-12629222D01*
X10079706Y-12629222D02*
X10070182Y-12638746D01*
X10070182Y-12638746D02*
X10060658Y-12657793D01*
X10060658Y-12657793D02*
X10060658Y-12695888D01*
X10060658Y-12695888D02*
X10070182Y-12714936D01*
X10070182Y-12714936D02*
X10079706Y-12724460D01*
X10079706Y-12724460D02*
X10098753Y-12733984D01*
X10098753Y-12733984D02*
X10136849Y-12733984D01*
X10136849Y-12733984D02*
X10155896Y-12724460D01*
X10155896Y-12724460D02*
X10165420Y-12714936D01*
X10165420Y-12714936D02*
X10174944Y-12695888D01*
X10174944Y-12695888D02*
X10174944Y-12657793D01*
X10174944Y-12657793D02*
X10165420Y-12638746D01*
X10165420Y-12638746D02*
X10155896Y-12629222D01*
X10155896Y-12629222D02*
X10136849Y-12619698D01*
X10251134Y-12533984D02*
X10251134Y-12572079D01*
X10327325Y-12533984D02*
X10327325Y-12572079D01*
X10622563Y-12810174D02*
X10613039Y-12800650D01*
X10613039Y-12800650D02*
X10593991Y-12772079D01*
X10593991Y-12772079D02*
X10584468Y-12753031D01*
X10584468Y-12753031D02*
X10574944Y-12724460D01*
X10574944Y-12724460D02*
X10565420Y-12676841D01*
X10565420Y-12676841D02*
X10565420Y-12638746D01*
X10565420Y-12638746D02*
X10574944Y-12591127D01*
X10574944Y-12591127D02*
X10584468Y-12562555D01*
X10584468Y-12562555D02*
X10593991Y-12543508D01*
X10593991Y-12543508D02*
X10613039Y-12514936D01*
X10613039Y-12514936D02*
X10622563Y-12505412D01*
X10784468Y-12533984D02*
X10746372Y-12533984D01*
X10746372Y-12533984D02*
X10727325Y-12543508D01*
X10727325Y-12543508D02*
X10717801Y-12553031D01*
X10717801Y-12553031D02*
X10698753Y-12581603D01*
X10698753Y-12581603D02*
X10689230Y-12619698D01*
X10689230Y-12619698D02*
X10689230Y-12695888D01*
X10689230Y-12695888D02*
X10698753Y-12714936D01*
X10698753Y-12714936D02*
X10708277Y-12724460D01*
X10708277Y-12724460D02*
X10727325Y-12733984D01*
X10727325Y-12733984D02*
X10765420Y-12733984D01*
X10765420Y-12733984D02*
X10784468Y-12724460D01*
X10784468Y-12724460D02*
X10793991Y-12714936D01*
X10793991Y-12714936D02*
X10803515Y-12695888D01*
X10803515Y-12695888D02*
X10803515Y-12648269D01*
X10803515Y-12648269D02*
X10793991Y-12629222D01*
X10793991Y-12629222D02*
X10784468Y-12619698D01*
X10784468Y-12619698D02*
X10765420Y-12610174D01*
X10765420Y-12610174D02*
X10727325Y-12610174D01*
X10727325Y-12610174D02*
X10708277Y-12619698D01*
X10708277Y-12619698D02*
X10698753Y-12629222D01*
X10698753Y-12629222D02*
X10689230Y-12648269D01*
X10974944Y-12533984D02*
X10936849Y-12533984D01*
X10936849Y-12533984D02*
X10917801Y-12543508D01*
X10917801Y-12543508D02*
X10908277Y-12553031D01*
X10908277Y-12553031D02*
X10889230Y-12581603D01*
X10889230Y-12581603D02*
X10879706Y-12619698D01*
X10879706Y-12619698D02*
X10879706Y-12695888D01*
X10879706Y-12695888D02*
X10889230Y-12714936D01*
X10889230Y-12714936D02*
X10898753Y-12724460D01*
X10898753Y-12724460D02*
X10917801Y-12733984D01*
X10917801Y-12733984D02*
X10955896Y-12733984D01*
X10955896Y-12733984D02*
X10974944Y-12724460D01*
X10974944Y-12724460D02*
X10984468Y-12714936D01*
X10984468Y-12714936D02*
X10993991Y-12695888D01*
X10993991Y-12695888D02*
X10993991Y-12648269D01*
X10993991Y-12648269D02*
X10984468Y-12629222D01*
X10984468Y-12629222D02*
X10974944Y-12619698D01*
X10974944Y-12619698D02*
X10955896Y-12610174D01*
X10955896Y-12610174D02*
X10917801Y-12610174D01*
X10917801Y-12610174D02*
X10898753Y-12619698D01*
X10898753Y-12619698D02*
X10889230Y-12629222D01*
X10889230Y-12629222D02*
X10879706Y-12648269D01*
X11232087Y-12733984D02*
X11232087Y-12533984D01*
X11317801Y-12733984D02*
X11317801Y-12629222D01*
X11317801Y-12629222D02*
X11308277Y-12610174D01*
X11308277Y-12610174D02*
X11289230Y-12600650D01*
X11289230Y-12600650D02*
X11260658Y-12600650D01*
X11260658Y-12600650D02*
X11241610Y-12610174D01*
X11241610Y-12610174D02*
X11232087Y-12619698D01*
X11441610Y-12733984D02*
X11422563Y-12724460D01*
X11422563Y-12724460D02*
X11413039Y-12714936D01*
X11413039Y-12714936D02*
X11403515Y-12695888D01*
X11403515Y-12695888D02*
X11403515Y-12638746D01*
X11403515Y-12638746D02*
X11413039Y-12619698D01*
X11413039Y-12619698D02*
X11422563Y-12610174D01*
X11422563Y-12610174D02*
X11441610Y-12600650D01*
X11441610Y-12600650D02*
X11470182Y-12600650D01*
X11470182Y-12600650D02*
X11489230Y-12610174D01*
X11489230Y-12610174D02*
X11498753Y-12619698D01*
X11498753Y-12619698D02*
X11508277Y-12638746D01*
X11508277Y-12638746D02*
X11508277Y-12695888D01*
X11508277Y-12695888D02*
X11498753Y-12714936D01*
X11498753Y-12714936D02*
X11489230Y-12724460D01*
X11489230Y-12724460D02*
X11470182Y-12733984D01*
X11470182Y-12733984D02*
X11441610Y-12733984D01*
X11622563Y-12733984D02*
X11603515Y-12724460D01*
X11603515Y-12724460D02*
X11593991Y-12705412D01*
X11593991Y-12705412D02*
X11593991Y-12533984D01*
X11774944Y-12724460D02*
X11755896Y-12733984D01*
X11755896Y-12733984D02*
X11717801Y-12733984D01*
X11717801Y-12733984D02*
X11698753Y-12724460D01*
X11698753Y-12724460D02*
X11689230Y-12705412D01*
X11689230Y-12705412D02*
X11689230Y-12629222D01*
X11689230Y-12629222D02*
X11698753Y-12610174D01*
X11698753Y-12610174D02*
X11717801Y-12600650D01*
X11717801Y-12600650D02*
X11755896Y-12600650D01*
X11755896Y-12600650D02*
X11774944Y-12610174D01*
X11774944Y-12610174D02*
X11784468Y-12629222D01*
X11784468Y-12629222D02*
X11784468Y-12648269D01*
X11784468Y-12648269D02*
X11689230Y-12667317D01*
X11860658Y-12724460D02*
X11879706Y-12733984D01*
X11879706Y-12733984D02*
X11917801Y-12733984D01*
X11917801Y-12733984D02*
X11936849Y-12724460D01*
X11936849Y-12724460D02*
X11946372Y-12705412D01*
X11946372Y-12705412D02*
X11946372Y-12695888D01*
X11946372Y-12695888D02*
X11936849Y-12676841D01*
X11936849Y-12676841D02*
X11917801Y-12667317D01*
X11917801Y-12667317D02*
X11889230Y-12667317D01*
X11889230Y-12667317D02*
X11870182Y-12657793D01*
X11870182Y-12657793D02*
X11860658Y-12638746D01*
X11860658Y-12638746D02*
X11860658Y-12629222D01*
X11860658Y-12629222D02*
X11870182Y-12610174D01*
X11870182Y-12610174D02*
X11889230Y-12600650D01*
X11889230Y-12600650D02*
X11917801Y-12600650D01*
X11917801Y-12600650D02*
X11936849Y-12610174D01*
X12013039Y-12810174D02*
X12022563Y-12800650D01*
X12022563Y-12800650D02*
X12041611Y-12772079D01*
X12041611Y-12772079D02*
X12051134Y-12753031D01*
X12051134Y-12753031D02*
X12060658Y-12724460D01*
X12060658Y-12724460D02*
X12070182Y-12676841D01*
X12070182Y-12676841D02*
X12070182Y-12638746D01*
X12070182Y-12638746D02*
X12060658Y-12591127D01*
X12060658Y-12591127D02*
X12051134Y-12562555D01*
X12051134Y-12562555D02*
X12041611Y-12543508D01*
X12041611Y-12543508D02*
X12022563Y-12514936D01*
X12022563Y-12514936D02*
X12013039Y-12505412D01*
D12*
X7047500Y-12906500D02*
G75*
G02*
X6997500Y-12906500I-25000J0D01*
G01*
X6997500Y-12906500D02*
G75*
G02*
X7047500Y-12906500I25000J0D01*
G01*
D11*
X7346372Y-12797984D02*
X7365420Y-12797984D01*
X7365420Y-12797984D02*
X7384467Y-12807508D01*
X7384467Y-12807508D02*
X7393991Y-12817031D01*
X7393991Y-12817031D02*
X7403515Y-12836079D01*
X7403515Y-12836079D02*
X7413039Y-12874174D01*
X7413039Y-12874174D02*
X7413039Y-12921793D01*
X7413039Y-12921793D02*
X7403515Y-12959888D01*
X7403515Y-12959888D02*
X7393991Y-12978936D01*
X7393991Y-12978936D02*
X7384467Y-12988460D01*
X7384467Y-12988460D02*
X7365420Y-12997984D01*
X7365420Y-12997984D02*
X7346372Y-12997984D01*
X7346372Y-12997984D02*
X7327324Y-12988460D01*
X7327324Y-12988460D02*
X7317801Y-12978936D01*
X7317801Y-12978936D02*
X7308277Y-12959888D01*
X7308277Y-12959888D02*
X7298753Y-12921793D01*
X7298753Y-12921793D02*
X7298753Y-12874174D01*
X7298753Y-12874174D02*
X7308277Y-12836079D01*
X7308277Y-12836079D02*
X7317801Y-12817031D01*
X7317801Y-12817031D02*
X7327324Y-12807508D01*
X7327324Y-12807508D02*
X7346372Y-12797984D01*
X7498753Y-12978936D02*
X7508277Y-12988460D01*
X7508277Y-12988460D02*
X7498753Y-12997984D01*
X7498753Y-12997984D02*
X7489229Y-12988460D01*
X7489229Y-12988460D02*
X7498753Y-12978936D01*
X7498753Y-12978936D02*
X7498753Y-12997984D01*
X7689229Y-12797984D02*
X7593991Y-12797984D01*
X7593991Y-12797984D02*
X7584467Y-12893222D01*
X7584467Y-12893222D02*
X7593991Y-12883698D01*
X7593991Y-12883698D02*
X7613039Y-12874174D01*
X7613039Y-12874174D02*
X7660658Y-12874174D01*
X7660658Y-12874174D02*
X7679705Y-12883698D01*
X7679705Y-12883698D02*
X7689229Y-12893222D01*
X7689229Y-12893222D02*
X7698753Y-12912269D01*
X7698753Y-12912269D02*
X7698753Y-12959888D01*
X7698753Y-12959888D02*
X7689229Y-12978936D01*
X7689229Y-12978936D02*
X7679705Y-12988460D01*
X7679705Y-12988460D02*
X7660658Y-12997984D01*
X7660658Y-12997984D02*
X7613039Y-12997984D01*
X7613039Y-12997984D02*
X7593991Y-12988460D01*
X7593991Y-12988460D02*
X7584467Y-12978936D01*
X7822562Y-12797984D02*
X7841610Y-12797984D01*
X7841610Y-12797984D02*
X7860658Y-12807508D01*
X7860658Y-12807508D02*
X7870182Y-12817031D01*
X7870182Y-12817031D02*
X7879705Y-12836079D01*
X7879705Y-12836079D02*
X7889229Y-12874174D01*
X7889229Y-12874174D02*
X7889229Y-12921793D01*
X7889229Y-12921793D02*
X7879705Y-12959888D01*
X7879705Y-12959888D02*
X7870182Y-12978936D01*
X7870182Y-12978936D02*
X7860658Y-12988460D01*
X7860658Y-12988460D02*
X7841610Y-12997984D01*
X7841610Y-12997984D02*
X7822562Y-12997984D01*
X7822562Y-12997984D02*
X7803515Y-12988460D01*
X7803515Y-12988460D02*
X7793991Y-12978936D01*
X7793991Y-12978936D02*
X7784467Y-12959888D01*
X7784467Y-12959888D02*
X7774943Y-12921793D01*
X7774943Y-12921793D02*
X7774943Y-12874174D01*
X7774943Y-12874174D02*
X7784467Y-12836079D01*
X7784467Y-12836079D02*
X7793991Y-12817031D01*
X7793991Y-12817031D02*
X7803515Y-12807508D01*
X7803515Y-12807508D02*
X7822562Y-12797984D01*
X8013039Y-12797984D02*
X8032086Y-12797984D01*
X8032086Y-12797984D02*
X8051134Y-12807508D01*
X8051134Y-12807508D02*
X8060658Y-12817031D01*
X8060658Y-12817031D02*
X8070182Y-12836079D01*
X8070182Y-12836079D02*
X8079705Y-12874174D01*
X8079705Y-12874174D02*
X8079705Y-12921793D01*
X8079705Y-12921793D02*
X8070182Y-12959888D01*
X8070182Y-12959888D02*
X8060658Y-12978936D01*
X8060658Y-12978936D02*
X8051134Y-12988460D01*
X8051134Y-12988460D02*
X8032086Y-12997984D01*
X8032086Y-12997984D02*
X8013039Y-12997984D01*
X8013039Y-12997984D02*
X7993991Y-12988460D01*
X7993991Y-12988460D02*
X7984467Y-12978936D01*
X7984467Y-12978936D02*
X7974943Y-12959888D01*
X7974943Y-12959888D02*
X7965420Y-12921793D01*
X7965420Y-12921793D02*
X7965420Y-12874174D01*
X7965420Y-12874174D02*
X7974943Y-12836079D01*
X7974943Y-12836079D02*
X7984467Y-12817031D01*
X7984467Y-12817031D02*
X7993991Y-12807508D01*
X7993991Y-12807508D02*
X8013039Y-12797984D01*
X8165420Y-12997984D02*
X8165420Y-12864650D01*
X8165420Y-12883698D02*
X8174943Y-12874174D01*
X8174943Y-12874174D02*
X8193991Y-12864650D01*
X8193991Y-12864650D02*
X8222563Y-12864650D01*
X8222563Y-12864650D02*
X8241610Y-12874174D01*
X8241610Y-12874174D02*
X8251134Y-12893222D01*
X8251134Y-12893222D02*
X8251134Y-12997984D01*
X8251134Y-12893222D02*
X8260658Y-12874174D01*
X8260658Y-12874174D02*
X8279705Y-12864650D01*
X8279705Y-12864650D02*
X8308277Y-12864650D01*
X8308277Y-12864650D02*
X8327324Y-12874174D01*
X8327324Y-12874174D02*
X8336848Y-12893222D01*
X8336848Y-12893222D02*
X8336848Y-12997984D01*
X8432086Y-12997984D02*
X8432086Y-12864650D01*
X8432086Y-12883698D02*
X8441610Y-12874174D01*
X8441610Y-12874174D02*
X8460658Y-12864650D01*
X8460658Y-12864650D02*
X8489229Y-12864650D01*
X8489229Y-12864650D02*
X8508277Y-12874174D01*
X8508277Y-12874174D02*
X8517801Y-12893222D01*
X8517801Y-12893222D02*
X8517801Y-12997984D01*
X8517801Y-12893222D02*
X8527325Y-12874174D01*
X8527325Y-12874174D02*
X8546372Y-12864650D01*
X8546372Y-12864650D02*
X8574944Y-12864650D01*
X8574944Y-12864650D02*
X8593991Y-12874174D01*
X8593991Y-12874174D02*
X8603515Y-12893222D01*
X8603515Y-12893222D02*
X8603515Y-12997984D01*
X8993991Y-12788460D02*
X8822563Y-13045603D01*
X9251134Y-12797984D02*
X9270182Y-12797984D01*
X9270182Y-12797984D02*
X9289229Y-12807508D01*
X9289229Y-12807508D02*
X9298753Y-12817031D01*
X9298753Y-12817031D02*
X9308277Y-12836079D01*
X9308277Y-12836079D02*
X9317801Y-12874174D01*
X9317801Y-12874174D02*
X9317801Y-12921793D01*
X9317801Y-12921793D02*
X9308277Y-12959888D01*
X9308277Y-12959888D02*
X9298753Y-12978936D01*
X9298753Y-12978936D02*
X9289229Y-12988460D01*
X9289229Y-12988460D02*
X9270182Y-12997984D01*
X9270182Y-12997984D02*
X9251134Y-12997984D01*
X9251134Y-12997984D02*
X9232087Y-12988460D01*
X9232087Y-12988460D02*
X9222563Y-12978936D01*
X9222563Y-12978936D02*
X9213039Y-12959888D01*
X9213039Y-12959888D02*
X9203515Y-12921793D01*
X9203515Y-12921793D02*
X9203515Y-12874174D01*
X9203515Y-12874174D02*
X9213039Y-12836079D01*
X9213039Y-12836079D02*
X9222563Y-12817031D01*
X9222563Y-12817031D02*
X9232087Y-12807508D01*
X9232087Y-12807508D02*
X9251134Y-12797984D01*
X9403515Y-12978936D02*
X9413039Y-12988460D01*
X9413039Y-12988460D02*
X9403515Y-12997984D01*
X9403515Y-12997984D02*
X9393991Y-12988460D01*
X9393991Y-12988460D02*
X9403515Y-12978936D01*
X9403515Y-12978936D02*
X9403515Y-12997984D01*
X9536848Y-12797984D02*
X9555896Y-12797984D01*
X9555896Y-12797984D02*
X9574944Y-12807508D01*
X9574944Y-12807508D02*
X9584468Y-12817031D01*
X9584468Y-12817031D02*
X9593991Y-12836079D01*
X9593991Y-12836079D02*
X9603515Y-12874174D01*
X9603515Y-12874174D02*
X9603515Y-12921793D01*
X9603515Y-12921793D02*
X9593991Y-12959888D01*
X9593991Y-12959888D02*
X9584468Y-12978936D01*
X9584468Y-12978936D02*
X9574944Y-12988460D01*
X9574944Y-12988460D02*
X9555896Y-12997984D01*
X9555896Y-12997984D02*
X9536848Y-12997984D01*
X9536848Y-12997984D02*
X9517801Y-12988460D01*
X9517801Y-12988460D02*
X9508277Y-12978936D01*
X9508277Y-12978936D02*
X9498753Y-12959888D01*
X9498753Y-12959888D02*
X9489229Y-12921793D01*
X9489229Y-12921793D02*
X9489229Y-12874174D01*
X9489229Y-12874174D02*
X9498753Y-12836079D01*
X9498753Y-12836079D02*
X9508277Y-12817031D01*
X9508277Y-12817031D02*
X9517801Y-12807508D01*
X9517801Y-12807508D02*
X9536848Y-12797984D01*
X9793991Y-12997984D02*
X9679706Y-12997984D01*
X9736848Y-12997984D02*
X9736848Y-12797984D01*
X9736848Y-12797984D02*
X9717801Y-12826555D01*
X9717801Y-12826555D02*
X9698753Y-12845603D01*
X9698753Y-12845603D02*
X9679706Y-12855127D01*
X9889229Y-12997984D02*
X9927325Y-12997984D01*
X9927325Y-12997984D02*
X9946372Y-12988460D01*
X9946372Y-12988460D02*
X9955896Y-12978936D01*
X9955896Y-12978936D02*
X9974944Y-12950365D01*
X9974944Y-12950365D02*
X9984468Y-12912269D01*
X9984468Y-12912269D02*
X9984468Y-12836079D01*
X9984468Y-12836079D02*
X9974944Y-12817031D01*
X9974944Y-12817031D02*
X9965420Y-12807508D01*
X9965420Y-12807508D02*
X9946372Y-12797984D01*
X9946372Y-12797984D02*
X9908277Y-12797984D01*
X9908277Y-12797984D02*
X9889229Y-12807508D01*
X9889229Y-12807508D02*
X9879706Y-12817031D01*
X9879706Y-12817031D02*
X9870182Y-12836079D01*
X9870182Y-12836079D02*
X9870182Y-12883698D01*
X9870182Y-12883698D02*
X9879706Y-12902746D01*
X9879706Y-12902746D02*
X9889229Y-12912269D01*
X9889229Y-12912269D02*
X9908277Y-12921793D01*
X9908277Y-12921793D02*
X9946372Y-12921793D01*
X9946372Y-12921793D02*
X9965420Y-12912269D01*
X9965420Y-12912269D02*
X9974944Y-12902746D01*
X9974944Y-12902746D02*
X9984468Y-12883698D01*
X10051134Y-12797984D02*
X10184468Y-12797984D01*
X10184468Y-12797984D02*
X10098753Y-12997984D01*
X10251134Y-12797984D02*
X10251134Y-12836079D01*
X10327325Y-12797984D02*
X10327325Y-12836079D01*
X10622563Y-13074174D02*
X10613039Y-13064650D01*
X10613039Y-13064650D02*
X10593991Y-13036079D01*
X10593991Y-13036079D02*
X10584468Y-13017031D01*
X10584468Y-13017031D02*
X10574944Y-12988460D01*
X10574944Y-12988460D02*
X10565420Y-12940841D01*
X10565420Y-12940841D02*
X10565420Y-12902746D01*
X10565420Y-12902746D02*
X10574944Y-12855127D01*
X10574944Y-12855127D02*
X10584468Y-12826555D01*
X10584468Y-12826555D02*
X10593991Y-12807508D01*
X10593991Y-12807508D02*
X10613039Y-12778936D01*
X10613039Y-12778936D02*
X10622563Y-12769412D01*
X10727325Y-12883698D02*
X10708277Y-12874174D01*
X10708277Y-12874174D02*
X10698753Y-12864650D01*
X10698753Y-12864650D02*
X10689230Y-12845603D01*
X10689230Y-12845603D02*
X10689230Y-12836079D01*
X10689230Y-12836079D02*
X10698753Y-12817031D01*
X10698753Y-12817031D02*
X10708277Y-12807508D01*
X10708277Y-12807508D02*
X10727325Y-12797984D01*
X10727325Y-12797984D02*
X10765420Y-12797984D01*
X10765420Y-12797984D02*
X10784468Y-12807508D01*
X10784468Y-12807508D02*
X10793991Y-12817031D01*
X10793991Y-12817031D02*
X10803515Y-12836079D01*
X10803515Y-12836079D02*
X10803515Y-12845603D01*
X10803515Y-12845603D02*
X10793991Y-12864650D01*
X10793991Y-12864650D02*
X10784468Y-12874174D01*
X10784468Y-12874174D02*
X10765420Y-12883698D01*
X10765420Y-12883698D02*
X10727325Y-12883698D01*
X10727325Y-12883698D02*
X10708277Y-12893222D01*
X10708277Y-12893222D02*
X10698753Y-12902746D01*
X10698753Y-12902746D02*
X10689230Y-12921793D01*
X10689230Y-12921793D02*
X10689230Y-12959888D01*
X10689230Y-12959888D02*
X10698753Y-12978936D01*
X10698753Y-12978936D02*
X10708277Y-12988460D01*
X10708277Y-12988460D02*
X10727325Y-12997984D01*
X10727325Y-12997984D02*
X10765420Y-12997984D01*
X10765420Y-12997984D02*
X10784468Y-12988460D01*
X10784468Y-12988460D02*
X10793991Y-12978936D01*
X10793991Y-12978936D02*
X10803515Y-12959888D01*
X10803515Y-12959888D02*
X10803515Y-12921793D01*
X10803515Y-12921793D02*
X10793991Y-12902746D01*
X10793991Y-12902746D02*
X10784468Y-12893222D01*
X10784468Y-12893222D02*
X10765420Y-12883698D01*
X11041611Y-12997984D02*
X11041611Y-12797984D01*
X11127325Y-12997984D02*
X11127325Y-12893222D01*
X11127325Y-12893222D02*
X11117801Y-12874174D01*
X11117801Y-12874174D02*
X11098753Y-12864650D01*
X11098753Y-12864650D02*
X11070182Y-12864650D01*
X11070182Y-12864650D02*
X11051134Y-12874174D01*
X11051134Y-12874174D02*
X11041611Y-12883698D01*
X11251134Y-12997984D02*
X11232087Y-12988460D01*
X11232087Y-12988460D02*
X11222563Y-12978936D01*
X11222563Y-12978936D02*
X11213039Y-12959888D01*
X11213039Y-12959888D02*
X11213039Y-12902746D01*
X11213039Y-12902746D02*
X11222563Y-12883698D01*
X11222563Y-12883698D02*
X11232087Y-12874174D01*
X11232087Y-12874174D02*
X11251134Y-12864650D01*
X11251134Y-12864650D02*
X11279706Y-12864650D01*
X11279706Y-12864650D02*
X11298753Y-12874174D01*
X11298753Y-12874174D02*
X11308277Y-12883698D01*
X11308277Y-12883698D02*
X11317801Y-12902746D01*
X11317801Y-12902746D02*
X11317801Y-12959888D01*
X11317801Y-12959888D02*
X11308277Y-12978936D01*
X11308277Y-12978936D02*
X11298753Y-12988460D01*
X11298753Y-12988460D02*
X11279706Y-12997984D01*
X11279706Y-12997984D02*
X11251134Y-12997984D01*
X11432087Y-12997984D02*
X11413039Y-12988460D01*
X11413039Y-12988460D02*
X11403515Y-12969412D01*
X11403515Y-12969412D02*
X11403515Y-12797984D01*
X11584468Y-12988460D02*
X11565420Y-12997984D01*
X11565420Y-12997984D02*
X11527325Y-12997984D01*
X11527325Y-12997984D02*
X11508277Y-12988460D01*
X11508277Y-12988460D02*
X11498753Y-12969412D01*
X11498753Y-12969412D02*
X11498753Y-12893222D01*
X11498753Y-12893222D02*
X11508277Y-12874174D01*
X11508277Y-12874174D02*
X11527325Y-12864650D01*
X11527325Y-12864650D02*
X11565420Y-12864650D01*
X11565420Y-12864650D02*
X11584468Y-12874174D01*
X11584468Y-12874174D02*
X11593991Y-12893222D01*
X11593991Y-12893222D02*
X11593991Y-12912269D01*
X11593991Y-12912269D02*
X11498753Y-12931317D01*
X11670182Y-12988460D02*
X11689230Y-12997984D01*
X11689230Y-12997984D02*
X11727325Y-12997984D01*
X11727325Y-12997984D02*
X11746372Y-12988460D01*
X11746372Y-12988460D02*
X11755896Y-12969412D01*
X11755896Y-12969412D02*
X11755896Y-12959888D01*
X11755896Y-12959888D02*
X11746372Y-12940841D01*
X11746372Y-12940841D02*
X11727325Y-12931317D01*
X11727325Y-12931317D02*
X11698753Y-12931317D01*
X11698753Y-12931317D02*
X11679706Y-12921793D01*
X11679706Y-12921793D02*
X11670182Y-12902746D01*
X11670182Y-12902746D02*
X11670182Y-12893222D01*
X11670182Y-12893222D02*
X11679706Y-12874174D01*
X11679706Y-12874174D02*
X11698753Y-12864650D01*
X11698753Y-12864650D02*
X11727325Y-12864650D01*
X11727325Y-12864650D02*
X11746372Y-12874174D01*
X11822563Y-13074174D02*
X11832087Y-13064650D01*
X11832087Y-13064650D02*
X11851134Y-13036079D01*
X11851134Y-13036079D02*
X11860658Y-13017031D01*
X11860658Y-13017031D02*
X11870182Y-12988460D01*
X11870182Y-12988460D02*
X11879706Y-12940841D01*
X11879706Y-12940841D02*
X11879706Y-12902746D01*
X11879706Y-12902746D02*
X11870182Y-12855127D01*
X11870182Y-12855127D02*
X11860658Y-12826555D01*
X11860658Y-12826555D02*
X11851134Y-12807508D01*
X11851134Y-12807508D02*
X11832087Y-12778936D01*
X11832087Y-12778936D02*
X11822563Y-12769412D01*
D12*
X7010000Y-13133000D02*
X7010000Y-13208000D01*
X6972500Y-13170500D02*
X7047500Y-13170500D01*
D11*
X7346372Y-13061984D02*
X7365420Y-13061984D01*
X7365420Y-13061984D02*
X7384467Y-13071508D01*
X7384467Y-13071508D02*
X7393991Y-13081031D01*
X7393991Y-13081031D02*
X7403515Y-13100079D01*
X7403515Y-13100079D02*
X7413039Y-13138174D01*
X7413039Y-13138174D02*
X7413039Y-13185793D01*
X7413039Y-13185793D02*
X7403515Y-13223888D01*
X7403515Y-13223888D02*
X7393991Y-13242936D01*
X7393991Y-13242936D02*
X7384467Y-13252460D01*
X7384467Y-13252460D02*
X7365420Y-13261984D01*
X7365420Y-13261984D02*
X7346372Y-13261984D01*
X7346372Y-13261984D02*
X7327324Y-13252460D01*
X7327324Y-13252460D02*
X7317801Y-13242936D01*
X7317801Y-13242936D02*
X7308277Y-13223888D01*
X7308277Y-13223888D02*
X7298753Y-13185793D01*
X7298753Y-13185793D02*
X7298753Y-13138174D01*
X7298753Y-13138174D02*
X7308277Y-13100079D01*
X7308277Y-13100079D02*
X7317801Y-13081031D01*
X7317801Y-13081031D02*
X7327324Y-13071508D01*
X7327324Y-13071508D02*
X7346372Y-13061984D01*
X7498753Y-13242936D02*
X7508277Y-13252460D01*
X7508277Y-13252460D02*
X7498753Y-13261984D01*
X7498753Y-13261984D02*
X7489229Y-13252460D01*
X7489229Y-13252460D02*
X7498753Y-13242936D01*
X7498753Y-13242936D02*
X7498753Y-13261984D01*
X7574943Y-13061984D02*
X7708277Y-13061984D01*
X7708277Y-13061984D02*
X7622562Y-13261984D01*
X7879705Y-13061984D02*
X7784467Y-13061984D01*
X7784467Y-13061984D02*
X7774943Y-13157222D01*
X7774943Y-13157222D02*
X7784467Y-13147698D01*
X7784467Y-13147698D02*
X7803515Y-13138174D01*
X7803515Y-13138174D02*
X7851134Y-13138174D01*
X7851134Y-13138174D02*
X7870182Y-13147698D01*
X7870182Y-13147698D02*
X7879705Y-13157222D01*
X7879705Y-13157222D02*
X7889229Y-13176269D01*
X7889229Y-13176269D02*
X7889229Y-13223888D01*
X7889229Y-13223888D02*
X7879705Y-13242936D01*
X7879705Y-13242936D02*
X7870182Y-13252460D01*
X7870182Y-13252460D02*
X7851134Y-13261984D01*
X7851134Y-13261984D02*
X7803515Y-13261984D01*
X7803515Y-13261984D02*
X7784467Y-13252460D01*
X7784467Y-13252460D02*
X7774943Y-13242936D01*
X8013039Y-13061984D02*
X8032086Y-13061984D01*
X8032086Y-13061984D02*
X8051134Y-13071508D01*
X8051134Y-13071508D02*
X8060658Y-13081031D01*
X8060658Y-13081031D02*
X8070182Y-13100079D01*
X8070182Y-13100079D02*
X8079705Y-13138174D01*
X8079705Y-13138174D02*
X8079705Y-13185793D01*
X8079705Y-13185793D02*
X8070182Y-13223888D01*
X8070182Y-13223888D02*
X8060658Y-13242936D01*
X8060658Y-13242936D02*
X8051134Y-13252460D01*
X8051134Y-13252460D02*
X8032086Y-13261984D01*
X8032086Y-13261984D02*
X8013039Y-13261984D01*
X8013039Y-13261984D02*
X7993991Y-13252460D01*
X7993991Y-13252460D02*
X7984467Y-13242936D01*
X7984467Y-13242936D02*
X7974943Y-13223888D01*
X7974943Y-13223888D02*
X7965420Y-13185793D01*
X7965420Y-13185793D02*
X7965420Y-13138174D01*
X7965420Y-13138174D02*
X7974943Y-13100079D01*
X7974943Y-13100079D02*
X7984467Y-13081031D01*
X7984467Y-13081031D02*
X7993991Y-13071508D01*
X7993991Y-13071508D02*
X8013039Y-13061984D01*
X8165420Y-13261984D02*
X8165420Y-13128650D01*
X8165420Y-13147698D02*
X8174943Y-13138174D01*
X8174943Y-13138174D02*
X8193991Y-13128650D01*
X8193991Y-13128650D02*
X8222563Y-13128650D01*
X8222563Y-13128650D02*
X8241610Y-13138174D01*
X8241610Y-13138174D02*
X8251134Y-13157222D01*
X8251134Y-13157222D02*
X8251134Y-13261984D01*
X8251134Y-13157222D02*
X8260658Y-13138174D01*
X8260658Y-13138174D02*
X8279705Y-13128650D01*
X8279705Y-13128650D02*
X8308277Y-13128650D01*
X8308277Y-13128650D02*
X8327324Y-13138174D01*
X8327324Y-13138174D02*
X8336848Y-13157222D01*
X8336848Y-13157222D02*
X8336848Y-13261984D01*
X8432086Y-13261984D02*
X8432086Y-13128650D01*
X8432086Y-13147698D02*
X8441610Y-13138174D01*
X8441610Y-13138174D02*
X8460658Y-13128650D01*
X8460658Y-13128650D02*
X8489229Y-13128650D01*
X8489229Y-13128650D02*
X8508277Y-13138174D01*
X8508277Y-13138174D02*
X8517801Y-13157222D01*
X8517801Y-13157222D02*
X8517801Y-13261984D01*
X8517801Y-13157222D02*
X8527325Y-13138174D01*
X8527325Y-13138174D02*
X8546372Y-13128650D01*
X8546372Y-13128650D02*
X8574944Y-13128650D01*
X8574944Y-13128650D02*
X8593991Y-13138174D01*
X8593991Y-13138174D02*
X8603515Y-13157222D01*
X8603515Y-13157222D02*
X8603515Y-13261984D01*
X8993991Y-13052460D02*
X8822563Y-13309603D01*
X9251134Y-13061984D02*
X9270182Y-13061984D01*
X9270182Y-13061984D02*
X9289229Y-13071508D01*
X9289229Y-13071508D02*
X9298753Y-13081031D01*
X9298753Y-13081031D02*
X9308277Y-13100079D01*
X9308277Y-13100079D02*
X9317801Y-13138174D01*
X9317801Y-13138174D02*
X9317801Y-13185793D01*
X9317801Y-13185793D02*
X9308277Y-13223888D01*
X9308277Y-13223888D02*
X9298753Y-13242936D01*
X9298753Y-13242936D02*
X9289229Y-13252460D01*
X9289229Y-13252460D02*
X9270182Y-13261984D01*
X9270182Y-13261984D02*
X9251134Y-13261984D01*
X9251134Y-13261984D02*
X9232087Y-13252460D01*
X9232087Y-13252460D02*
X9222563Y-13242936D01*
X9222563Y-13242936D02*
X9213039Y-13223888D01*
X9213039Y-13223888D02*
X9203515Y-13185793D01*
X9203515Y-13185793D02*
X9203515Y-13138174D01*
X9203515Y-13138174D02*
X9213039Y-13100079D01*
X9213039Y-13100079D02*
X9222563Y-13081031D01*
X9222563Y-13081031D02*
X9232087Y-13071508D01*
X9232087Y-13071508D02*
X9251134Y-13061984D01*
X9403515Y-13242936D02*
X9413039Y-13252460D01*
X9413039Y-13252460D02*
X9403515Y-13261984D01*
X9403515Y-13261984D02*
X9393991Y-13252460D01*
X9393991Y-13252460D02*
X9403515Y-13242936D01*
X9403515Y-13242936D02*
X9403515Y-13261984D01*
X9536848Y-13061984D02*
X9555896Y-13061984D01*
X9555896Y-13061984D02*
X9574944Y-13071508D01*
X9574944Y-13071508D02*
X9584468Y-13081031D01*
X9584468Y-13081031D02*
X9593991Y-13100079D01*
X9593991Y-13100079D02*
X9603515Y-13138174D01*
X9603515Y-13138174D02*
X9603515Y-13185793D01*
X9603515Y-13185793D02*
X9593991Y-13223888D01*
X9593991Y-13223888D02*
X9584468Y-13242936D01*
X9584468Y-13242936D02*
X9574944Y-13252460D01*
X9574944Y-13252460D02*
X9555896Y-13261984D01*
X9555896Y-13261984D02*
X9536848Y-13261984D01*
X9536848Y-13261984D02*
X9517801Y-13252460D01*
X9517801Y-13252460D02*
X9508277Y-13242936D01*
X9508277Y-13242936D02*
X9498753Y-13223888D01*
X9498753Y-13223888D02*
X9489229Y-13185793D01*
X9489229Y-13185793D02*
X9489229Y-13138174D01*
X9489229Y-13138174D02*
X9498753Y-13100079D01*
X9498753Y-13100079D02*
X9508277Y-13081031D01*
X9508277Y-13081031D02*
X9517801Y-13071508D01*
X9517801Y-13071508D02*
X9536848Y-13061984D01*
X9679706Y-13081031D02*
X9689229Y-13071508D01*
X9689229Y-13071508D02*
X9708277Y-13061984D01*
X9708277Y-13061984D02*
X9755896Y-13061984D01*
X9755896Y-13061984D02*
X9774944Y-13071508D01*
X9774944Y-13071508D02*
X9784468Y-13081031D01*
X9784468Y-13081031D02*
X9793991Y-13100079D01*
X9793991Y-13100079D02*
X9793991Y-13119127D01*
X9793991Y-13119127D02*
X9784468Y-13147698D01*
X9784468Y-13147698D02*
X9670182Y-13261984D01*
X9670182Y-13261984D02*
X9793991Y-13261984D01*
X9889229Y-13261984D02*
X9927325Y-13261984D01*
X9927325Y-13261984D02*
X9946372Y-13252460D01*
X9946372Y-13252460D02*
X9955896Y-13242936D01*
X9955896Y-13242936D02*
X9974944Y-13214365D01*
X9974944Y-13214365D02*
X9984468Y-13176269D01*
X9984468Y-13176269D02*
X9984468Y-13100079D01*
X9984468Y-13100079D02*
X9974944Y-13081031D01*
X9974944Y-13081031D02*
X9965420Y-13071508D01*
X9965420Y-13071508D02*
X9946372Y-13061984D01*
X9946372Y-13061984D02*
X9908277Y-13061984D01*
X9908277Y-13061984D02*
X9889229Y-13071508D01*
X9889229Y-13071508D02*
X9879706Y-13081031D01*
X9879706Y-13081031D02*
X9870182Y-13100079D01*
X9870182Y-13100079D02*
X9870182Y-13147698D01*
X9870182Y-13147698D02*
X9879706Y-13166746D01*
X9879706Y-13166746D02*
X9889229Y-13176269D01*
X9889229Y-13176269D02*
X9908277Y-13185793D01*
X9908277Y-13185793D02*
X9946372Y-13185793D01*
X9946372Y-13185793D02*
X9965420Y-13176269D01*
X9965420Y-13176269D02*
X9974944Y-13166746D01*
X9974944Y-13166746D02*
X9984468Y-13147698D01*
X10165420Y-13061984D02*
X10070182Y-13061984D01*
X10070182Y-13061984D02*
X10060658Y-13157222D01*
X10060658Y-13157222D02*
X10070182Y-13147698D01*
X10070182Y-13147698D02*
X10089229Y-13138174D01*
X10089229Y-13138174D02*
X10136849Y-13138174D01*
X10136849Y-13138174D02*
X10155896Y-13147698D01*
X10155896Y-13147698D02*
X10165420Y-13157222D01*
X10165420Y-13157222D02*
X10174944Y-13176269D01*
X10174944Y-13176269D02*
X10174944Y-13223888D01*
X10174944Y-13223888D02*
X10165420Y-13242936D01*
X10165420Y-13242936D02*
X10155896Y-13252460D01*
X10155896Y-13252460D02*
X10136849Y-13261984D01*
X10136849Y-13261984D02*
X10089229Y-13261984D01*
X10089229Y-13261984D02*
X10070182Y-13252460D01*
X10070182Y-13252460D02*
X10060658Y-13242936D01*
X10251134Y-13061984D02*
X10251134Y-13100079D01*
X10327325Y-13061984D02*
X10327325Y-13100079D01*
X10622563Y-13338174D02*
X10613039Y-13328650D01*
X10613039Y-13328650D02*
X10593991Y-13300079D01*
X10593991Y-13300079D02*
X10584468Y-13281031D01*
X10584468Y-13281031D02*
X10574944Y-13252460D01*
X10574944Y-13252460D02*
X10565420Y-13204841D01*
X10565420Y-13204841D02*
X10565420Y-13166746D01*
X10565420Y-13166746D02*
X10574944Y-13119127D01*
X10574944Y-13119127D02*
X10584468Y-13090555D01*
X10584468Y-13090555D02*
X10593991Y-13071508D01*
X10593991Y-13071508D02*
X10613039Y-13042936D01*
X10613039Y-13042936D02*
X10622563Y-13033412D01*
X10679706Y-13061984D02*
X10803515Y-13061984D01*
X10803515Y-13061984D02*
X10736849Y-13138174D01*
X10736849Y-13138174D02*
X10765420Y-13138174D01*
X10765420Y-13138174D02*
X10784468Y-13147698D01*
X10784468Y-13147698D02*
X10793991Y-13157222D01*
X10793991Y-13157222D02*
X10803515Y-13176269D01*
X10803515Y-13176269D02*
X10803515Y-13223888D01*
X10803515Y-13223888D02*
X10793991Y-13242936D01*
X10793991Y-13242936D02*
X10784468Y-13252460D01*
X10784468Y-13252460D02*
X10765420Y-13261984D01*
X10765420Y-13261984D02*
X10708277Y-13261984D01*
X10708277Y-13261984D02*
X10689230Y-13252460D01*
X10689230Y-13252460D02*
X10679706Y-13242936D01*
X11041611Y-13261984D02*
X11041611Y-13061984D01*
X11127325Y-13261984D02*
X11127325Y-13157222D01*
X11127325Y-13157222D02*
X11117801Y-13138174D01*
X11117801Y-13138174D02*
X11098753Y-13128650D01*
X11098753Y-13128650D02*
X11070182Y-13128650D01*
X11070182Y-13128650D02*
X11051134Y-13138174D01*
X11051134Y-13138174D02*
X11041611Y-13147698D01*
X11251134Y-13261984D02*
X11232087Y-13252460D01*
X11232087Y-13252460D02*
X11222563Y-13242936D01*
X11222563Y-13242936D02*
X11213039Y-13223888D01*
X11213039Y-13223888D02*
X11213039Y-13166746D01*
X11213039Y-13166746D02*
X11222563Y-13147698D01*
X11222563Y-13147698D02*
X11232087Y-13138174D01*
X11232087Y-13138174D02*
X11251134Y-13128650D01*
X11251134Y-13128650D02*
X11279706Y-13128650D01*
X11279706Y-13128650D02*
X11298753Y-13138174D01*
X11298753Y-13138174D02*
X11308277Y-13147698D01*
X11308277Y-13147698D02*
X11317801Y-13166746D01*
X11317801Y-13166746D02*
X11317801Y-13223888D01*
X11317801Y-13223888D02*
X11308277Y-13242936D01*
X11308277Y-13242936D02*
X11298753Y-13252460D01*
X11298753Y-13252460D02*
X11279706Y-13261984D01*
X11279706Y-13261984D02*
X11251134Y-13261984D01*
X11432087Y-13261984D02*
X11413039Y-13252460D01*
X11413039Y-13252460D02*
X11403515Y-13233412D01*
X11403515Y-13233412D02*
X11403515Y-13061984D01*
X11584468Y-13252460D02*
X11565420Y-13261984D01*
X11565420Y-13261984D02*
X11527325Y-13261984D01*
X11527325Y-13261984D02*
X11508277Y-13252460D01*
X11508277Y-13252460D02*
X11498753Y-13233412D01*
X11498753Y-13233412D02*
X11498753Y-13157222D01*
X11498753Y-13157222D02*
X11508277Y-13138174D01*
X11508277Y-13138174D02*
X11527325Y-13128650D01*
X11527325Y-13128650D02*
X11565420Y-13128650D01*
X11565420Y-13128650D02*
X11584468Y-13138174D01*
X11584468Y-13138174D02*
X11593991Y-13157222D01*
X11593991Y-13157222D02*
X11593991Y-13176269D01*
X11593991Y-13176269D02*
X11498753Y-13195317D01*
X11670182Y-13252460D02*
X11689230Y-13261984D01*
X11689230Y-13261984D02*
X11727325Y-13261984D01*
X11727325Y-13261984D02*
X11746372Y-13252460D01*
X11746372Y-13252460D02*
X11755896Y-13233412D01*
X11755896Y-13233412D02*
X11755896Y-13223888D01*
X11755896Y-13223888D02*
X11746372Y-13204841D01*
X11746372Y-13204841D02*
X11727325Y-13195317D01*
X11727325Y-13195317D02*
X11698753Y-13195317D01*
X11698753Y-13195317D02*
X11679706Y-13185793D01*
X11679706Y-13185793D02*
X11670182Y-13166746D01*
X11670182Y-13166746D02*
X11670182Y-13157222D01*
X11670182Y-13157222D02*
X11679706Y-13138174D01*
X11679706Y-13138174D02*
X11698753Y-13128650D01*
X11698753Y-13128650D02*
X11727325Y-13128650D01*
X11727325Y-13128650D02*
X11746372Y-13138174D01*
X11822563Y-13338174D02*
X11832087Y-13328650D01*
X11832087Y-13328650D02*
X11851134Y-13300079D01*
X11851134Y-13300079D02*
X11860658Y-13281031D01*
X11860658Y-13281031D02*
X11870182Y-13252460D01*
X11870182Y-13252460D02*
X11879706Y-13204841D01*
X11879706Y-13204841D02*
X11879706Y-13166746D01*
X11879706Y-13166746D02*
X11870182Y-13119127D01*
X11870182Y-13119127D02*
X11860658Y-13090555D01*
X11860658Y-13090555D02*
X11851134Y-13071508D01*
X11851134Y-13071508D02*
X11832087Y-13042936D01*
X11832087Y-13042936D02*
X11822563Y-13033412D01*
D12*
X7035784Y-13462784D02*
X7035784Y-13406215D01*
X6979215Y-13406215D01*
X6979215Y-13462784D01*
X7035784Y-13462784D01*
D11*
X7346372Y-13325984D02*
X7365420Y-13325984D01*
X7365420Y-13325984D02*
X7384467Y-13335508D01*
X7384467Y-13335508D02*
X7393991Y-13345031D01*
X7393991Y-13345031D02*
X7403515Y-13364079D01*
X7403515Y-13364079D02*
X7413039Y-13402174D01*
X7413039Y-13402174D02*
X7413039Y-13449793D01*
X7413039Y-13449793D02*
X7403515Y-13487888D01*
X7403515Y-13487888D02*
X7393991Y-13506936D01*
X7393991Y-13506936D02*
X7384467Y-13516460D01*
X7384467Y-13516460D02*
X7365420Y-13525984D01*
X7365420Y-13525984D02*
X7346372Y-13525984D01*
X7346372Y-13525984D02*
X7327324Y-13516460D01*
X7327324Y-13516460D02*
X7317801Y-13506936D01*
X7317801Y-13506936D02*
X7308277Y-13487888D01*
X7308277Y-13487888D02*
X7298753Y-13449793D01*
X7298753Y-13449793D02*
X7298753Y-13402174D01*
X7298753Y-13402174D02*
X7308277Y-13364079D01*
X7308277Y-13364079D02*
X7317801Y-13345031D01*
X7317801Y-13345031D02*
X7327324Y-13335508D01*
X7327324Y-13335508D02*
X7346372Y-13325984D01*
X7498753Y-13506936D02*
X7508277Y-13516460D01*
X7508277Y-13516460D02*
X7498753Y-13525984D01*
X7498753Y-13525984D02*
X7489229Y-13516460D01*
X7489229Y-13516460D02*
X7498753Y-13506936D01*
X7498753Y-13506936D02*
X7498753Y-13525984D01*
X7622562Y-13411698D02*
X7603515Y-13402174D01*
X7603515Y-13402174D02*
X7593991Y-13392650D01*
X7593991Y-13392650D02*
X7584467Y-13373603D01*
X7584467Y-13373603D02*
X7584467Y-13364079D01*
X7584467Y-13364079D02*
X7593991Y-13345031D01*
X7593991Y-13345031D02*
X7603515Y-13335508D01*
X7603515Y-13335508D02*
X7622562Y-13325984D01*
X7622562Y-13325984D02*
X7660658Y-13325984D01*
X7660658Y-13325984D02*
X7679705Y-13335508D01*
X7679705Y-13335508D02*
X7689229Y-13345031D01*
X7689229Y-13345031D02*
X7698753Y-13364079D01*
X7698753Y-13364079D02*
X7698753Y-13373603D01*
X7698753Y-13373603D02*
X7689229Y-13392650D01*
X7689229Y-13392650D02*
X7679705Y-13402174D01*
X7679705Y-13402174D02*
X7660658Y-13411698D01*
X7660658Y-13411698D02*
X7622562Y-13411698D01*
X7622562Y-13411698D02*
X7603515Y-13421222D01*
X7603515Y-13421222D02*
X7593991Y-13430746D01*
X7593991Y-13430746D02*
X7584467Y-13449793D01*
X7584467Y-13449793D02*
X7584467Y-13487888D01*
X7584467Y-13487888D02*
X7593991Y-13506936D01*
X7593991Y-13506936D02*
X7603515Y-13516460D01*
X7603515Y-13516460D02*
X7622562Y-13525984D01*
X7622562Y-13525984D02*
X7660658Y-13525984D01*
X7660658Y-13525984D02*
X7679705Y-13516460D01*
X7679705Y-13516460D02*
X7689229Y-13506936D01*
X7689229Y-13506936D02*
X7698753Y-13487888D01*
X7698753Y-13487888D02*
X7698753Y-13449793D01*
X7698753Y-13449793D02*
X7689229Y-13430746D01*
X7689229Y-13430746D02*
X7679705Y-13421222D01*
X7679705Y-13421222D02*
X7660658Y-13411698D01*
X7822562Y-13325984D02*
X7841610Y-13325984D01*
X7841610Y-13325984D02*
X7860658Y-13335508D01*
X7860658Y-13335508D02*
X7870182Y-13345031D01*
X7870182Y-13345031D02*
X7879705Y-13364079D01*
X7879705Y-13364079D02*
X7889229Y-13402174D01*
X7889229Y-13402174D02*
X7889229Y-13449793D01*
X7889229Y-13449793D02*
X7879705Y-13487888D01*
X7879705Y-13487888D02*
X7870182Y-13506936D01*
X7870182Y-13506936D02*
X7860658Y-13516460D01*
X7860658Y-13516460D02*
X7841610Y-13525984D01*
X7841610Y-13525984D02*
X7822562Y-13525984D01*
X7822562Y-13525984D02*
X7803515Y-13516460D01*
X7803515Y-13516460D02*
X7793991Y-13506936D01*
X7793991Y-13506936D02*
X7784467Y-13487888D01*
X7784467Y-13487888D02*
X7774943Y-13449793D01*
X7774943Y-13449793D02*
X7774943Y-13402174D01*
X7774943Y-13402174D02*
X7784467Y-13364079D01*
X7784467Y-13364079D02*
X7793991Y-13345031D01*
X7793991Y-13345031D02*
X7803515Y-13335508D01*
X7803515Y-13335508D02*
X7822562Y-13325984D01*
X8013039Y-13325984D02*
X8032086Y-13325984D01*
X8032086Y-13325984D02*
X8051134Y-13335508D01*
X8051134Y-13335508D02*
X8060658Y-13345031D01*
X8060658Y-13345031D02*
X8070182Y-13364079D01*
X8070182Y-13364079D02*
X8079705Y-13402174D01*
X8079705Y-13402174D02*
X8079705Y-13449793D01*
X8079705Y-13449793D02*
X8070182Y-13487888D01*
X8070182Y-13487888D02*
X8060658Y-13506936D01*
X8060658Y-13506936D02*
X8051134Y-13516460D01*
X8051134Y-13516460D02*
X8032086Y-13525984D01*
X8032086Y-13525984D02*
X8013039Y-13525984D01*
X8013039Y-13525984D02*
X7993991Y-13516460D01*
X7993991Y-13516460D02*
X7984467Y-13506936D01*
X7984467Y-13506936D02*
X7974943Y-13487888D01*
X7974943Y-13487888D02*
X7965420Y-13449793D01*
X7965420Y-13449793D02*
X7965420Y-13402174D01*
X7965420Y-13402174D02*
X7974943Y-13364079D01*
X7974943Y-13364079D02*
X7984467Y-13345031D01*
X7984467Y-13345031D02*
X7993991Y-13335508D01*
X7993991Y-13335508D02*
X8013039Y-13325984D01*
X8165420Y-13525984D02*
X8165420Y-13392650D01*
X8165420Y-13411698D02*
X8174943Y-13402174D01*
X8174943Y-13402174D02*
X8193991Y-13392650D01*
X8193991Y-13392650D02*
X8222563Y-13392650D01*
X8222563Y-13392650D02*
X8241610Y-13402174D01*
X8241610Y-13402174D02*
X8251134Y-13421222D01*
X8251134Y-13421222D02*
X8251134Y-13525984D01*
X8251134Y-13421222D02*
X8260658Y-13402174D01*
X8260658Y-13402174D02*
X8279705Y-13392650D01*
X8279705Y-13392650D02*
X8308277Y-13392650D01*
X8308277Y-13392650D02*
X8327324Y-13402174D01*
X8327324Y-13402174D02*
X8336848Y-13421222D01*
X8336848Y-13421222D02*
X8336848Y-13525984D01*
X8432086Y-13525984D02*
X8432086Y-13392650D01*
X8432086Y-13411698D02*
X8441610Y-13402174D01*
X8441610Y-13402174D02*
X8460658Y-13392650D01*
X8460658Y-13392650D02*
X8489229Y-13392650D01*
X8489229Y-13392650D02*
X8508277Y-13402174D01*
X8508277Y-13402174D02*
X8517801Y-13421222D01*
X8517801Y-13421222D02*
X8517801Y-13525984D01*
X8517801Y-13421222D02*
X8527325Y-13402174D01*
X8527325Y-13402174D02*
X8546372Y-13392650D01*
X8546372Y-13392650D02*
X8574944Y-13392650D01*
X8574944Y-13392650D02*
X8593991Y-13402174D01*
X8593991Y-13402174D02*
X8603515Y-13421222D01*
X8603515Y-13421222D02*
X8603515Y-13525984D01*
X8993991Y-13316460D02*
X8822563Y-13573603D01*
X9251134Y-13325984D02*
X9270182Y-13325984D01*
X9270182Y-13325984D02*
X9289229Y-13335508D01*
X9289229Y-13335508D02*
X9298753Y-13345031D01*
X9298753Y-13345031D02*
X9308277Y-13364079D01*
X9308277Y-13364079D02*
X9317801Y-13402174D01*
X9317801Y-13402174D02*
X9317801Y-13449793D01*
X9317801Y-13449793D02*
X9308277Y-13487888D01*
X9308277Y-13487888D02*
X9298753Y-13506936D01*
X9298753Y-13506936D02*
X9289229Y-13516460D01*
X9289229Y-13516460D02*
X9270182Y-13525984D01*
X9270182Y-13525984D02*
X9251134Y-13525984D01*
X9251134Y-13525984D02*
X9232087Y-13516460D01*
X9232087Y-13516460D02*
X9222563Y-13506936D01*
X9222563Y-13506936D02*
X9213039Y-13487888D01*
X9213039Y-13487888D02*
X9203515Y-13449793D01*
X9203515Y-13449793D02*
X9203515Y-13402174D01*
X9203515Y-13402174D02*
X9213039Y-13364079D01*
X9213039Y-13364079D02*
X9222563Y-13345031D01*
X9222563Y-13345031D02*
X9232087Y-13335508D01*
X9232087Y-13335508D02*
X9251134Y-13325984D01*
X9403515Y-13506936D02*
X9413039Y-13516460D01*
X9413039Y-13516460D02*
X9403515Y-13525984D01*
X9403515Y-13525984D02*
X9393991Y-13516460D01*
X9393991Y-13516460D02*
X9403515Y-13506936D01*
X9403515Y-13506936D02*
X9403515Y-13525984D01*
X9536848Y-13325984D02*
X9555896Y-13325984D01*
X9555896Y-13325984D02*
X9574944Y-13335508D01*
X9574944Y-13335508D02*
X9584468Y-13345031D01*
X9584468Y-13345031D02*
X9593991Y-13364079D01*
X9593991Y-13364079D02*
X9603515Y-13402174D01*
X9603515Y-13402174D02*
X9603515Y-13449793D01*
X9603515Y-13449793D02*
X9593991Y-13487888D01*
X9593991Y-13487888D02*
X9584468Y-13506936D01*
X9584468Y-13506936D02*
X9574944Y-13516460D01*
X9574944Y-13516460D02*
X9555896Y-13525984D01*
X9555896Y-13525984D02*
X9536848Y-13525984D01*
X9536848Y-13525984D02*
X9517801Y-13516460D01*
X9517801Y-13516460D02*
X9508277Y-13506936D01*
X9508277Y-13506936D02*
X9498753Y-13487888D01*
X9498753Y-13487888D02*
X9489229Y-13449793D01*
X9489229Y-13449793D02*
X9489229Y-13402174D01*
X9489229Y-13402174D02*
X9498753Y-13364079D01*
X9498753Y-13364079D02*
X9508277Y-13345031D01*
X9508277Y-13345031D02*
X9517801Y-13335508D01*
X9517801Y-13335508D02*
X9536848Y-13325984D01*
X9670182Y-13325984D02*
X9793991Y-13325984D01*
X9793991Y-13325984D02*
X9727325Y-13402174D01*
X9727325Y-13402174D02*
X9755896Y-13402174D01*
X9755896Y-13402174D02*
X9774944Y-13411698D01*
X9774944Y-13411698D02*
X9784468Y-13421222D01*
X9784468Y-13421222D02*
X9793991Y-13440269D01*
X9793991Y-13440269D02*
X9793991Y-13487888D01*
X9793991Y-13487888D02*
X9784468Y-13506936D01*
X9784468Y-13506936D02*
X9774944Y-13516460D01*
X9774944Y-13516460D02*
X9755896Y-13525984D01*
X9755896Y-13525984D02*
X9698753Y-13525984D01*
X9698753Y-13525984D02*
X9679706Y-13516460D01*
X9679706Y-13516460D02*
X9670182Y-13506936D01*
X9984468Y-13525984D02*
X9870182Y-13525984D01*
X9927325Y-13525984D02*
X9927325Y-13325984D01*
X9927325Y-13325984D02*
X9908277Y-13354555D01*
X9908277Y-13354555D02*
X9889229Y-13373603D01*
X9889229Y-13373603D02*
X9870182Y-13383127D01*
X10165420Y-13325984D02*
X10070182Y-13325984D01*
X10070182Y-13325984D02*
X10060658Y-13421222D01*
X10060658Y-13421222D02*
X10070182Y-13411698D01*
X10070182Y-13411698D02*
X10089229Y-13402174D01*
X10089229Y-13402174D02*
X10136849Y-13402174D01*
X10136849Y-13402174D02*
X10155896Y-13411698D01*
X10155896Y-13411698D02*
X10165420Y-13421222D01*
X10165420Y-13421222D02*
X10174944Y-13440269D01*
X10174944Y-13440269D02*
X10174944Y-13487888D01*
X10174944Y-13487888D02*
X10165420Y-13506936D01*
X10165420Y-13506936D02*
X10155896Y-13516460D01*
X10155896Y-13516460D02*
X10136849Y-13525984D01*
X10136849Y-13525984D02*
X10089229Y-13525984D01*
X10089229Y-13525984D02*
X10070182Y-13516460D01*
X10070182Y-13516460D02*
X10060658Y-13506936D01*
X10251134Y-13325984D02*
X10251134Y-13364079D01*
X10327325Y-13325984D02*
X10327325Y-13364079D01*
X10622563Y-13602174D02*
X10613039Y-13592650D01*
X10613039Y-13592650D02*
X10593991Y-13564079D01*
X10593991Y-13564079D02*
X10584468Y-13545031D01*
X10584468Y-13545031D02*
X10574944Y-13516460D01*
X10574944Y-13516460D02*
X10565420Y-13468841D01*
X10565420Y-13468841D02*
X10565420Y-13430746D01*
X10565420Y-13430746D02*
X10574944Y-13383127D01*
X10574944Y-13383127D02*
X10584468Y-13354555D01*
X10584468Y-13354555D02*
X10593991Y-13335508D01*
X10593991Y-13335508D02*
X10613039Y-13306936D01*
X10613039Y-13306936D02*
X10622563Y-13297412D01*
X10793991Y-13325984D02*
X10698753Y-13325984D01*
X10698753Y-13325984D02*
X10689230Y-13421222D01*
X10689230Y-13421222D02*
X10698753Y-13411698D01*
X10698753Y-13411698D02*
X10717801Y-13402174D01*
X10717801Y-13402174D02*
X10765420Y-13402174D01*
X10765420Y-13402174D02*
X10784468Y-13411698D01*
X10784468Y-13411698D02*
X10793991Y-13421222D01*
X10793991Y-13421222D02*
X10803515Y-13440269D01*
X10803515Y-13440269D02*
X10803515Y-13487888D01*
X10803515Y-13487888D02*
X10793991Y-13506936D01*
X10793991Y-13506936D02*
X10784468Y-13516460D01*
X10784468Y-13516460D02*
X10765420Y-13525984D01*
X10765420Y-13525984D02*
X10717801Y-13525984D01*
X10717801Y-13525984D02*
X10698753Y-13516460D01*
X10698753Y-13516460D02*
X10689230Y-13506936D01*
X10917801Y-13411698D02*
X10898753Y-13402174D01*
X10898753Y-13402174D02*
X10889230Y-13392650D01*
X10889230Y-13392650D02*
X10879706Y-13373603D01*
X10879706Y-13373603D02*
X10879706Y-13364079D01*
X10879706Y-13364079D02*
X10889230Y-13345031D01*
X10889230Y-13345031D02*
X10898753Y-13335508D01*
X10898753Y-13335508D02*
X10917801Y-13325984D01*
X10917801Y-13325984D02*
X10955896Y-13325984D01*
X10955896Y-13325984D02*
X10974944Y-13335508D01*
X10974944Y-13335508D02*
X10984468Y-13345031D01*
X10984468Y-13345031D02*
X10993991Y-13364079D01*
X10993991Y-13364079D02*
X10993991Y-13373603D01*
X10993991Y-13373603D02*
X10984468Y-13392650D01*
X10984468Y-13392650D02*
X10974944Y-13402174D01*
X10974944Y-13402174D02*
X10955896Y-13411698D01*
X10955896Y-13411698D02*
X10917801Y-13411698D01*
X10917801Y-13411698D02*
X10898753Y-13421222D01*
X10898753Y-13421222D02*
X10889230Y-13430746D01*
X10889230Y-13430746D02*
X10879706Y-13449793D01*
X10879706Y-13449793D02*
X10879706Y-13487888D01*
X10879706Y-13487888D02*
X10889230Y-13506936D01*
X10889230Y-13506936D02*
X10898753Y-13516460D01*
X10898753Y-13516460D02*
X10917801Y-13525984D01*
X10917801Y-13525984D02*
X10955896Y-13525984D01*
X10955896Y-13525984D02*
X10974944Y-13516460D01*
X10974944Y-13516460D02*
X10984468Y-13506936D01*
X10984468Y-13506936D02*
X10993991Y-13487888D01*
X10993991Y-13487888D02*
X10993991Y-13449793D01*
X10993991Y-13449793D02*
X10984468Y-13430746D01*
X10984468Y-13430746D02*
X10974944Y-13421222D01*
X10974944Y-13421222D02*
X10955896Y-13411698D01*
X11232087Y-13525984D02*
X11232087Y-13325984D01*
X11317801Y-13525984D02*
X11317801Y-13421222D01*
X11317801Y-13421222D02*
X11308277Y-13402174D01*
X11308277Y-13402174D02*
X11289230Y-13392650D01*
X11289230Y-13392650D02*
X11260658Y-13392650D01*
X11260658Y-13392650D02*
X11241610Y-13402174D01*
X11241610Y-13402174D02*
X11232087Y-13411698D01*
X11441610Y-13525984D02*
X11422563Y-13516460D01*
X11422563Y-13516460D02*
X11413039Y-13506936D01*
X11413039Y-13506936D02*
X11403515Y-13487888D01*
X11403515Y-13487888D02*
X11403515Y-13430746D01*
X11403515Y-13430746D02*
X11413039Y-13411698D01*
X11413039Y-13411698D02*
X11422563Y-13402174D01*
X11422563Y-13402174D02*
X11441610Y-13392650D01*
X11441610Y-13392650D02*
X11470182Y-13392650D01*
X11470182Y-13392650D02*
X11489230Y-13402174D01*
X11489230Y-13402174D02*
X11498753Y-13411698D01*
X11498753Y-13411698D02*
X11508277Y-13430746D01*
X11508277Y-13430746D02*
X11508277Y-13487888D01*
X11508277Y-13487888D02*
X11498753Y-13506936D01*
X11498753Y-13506936D02*
X11489230Y-13516460D01*
X11489230Y-13516460D02*
X11470182Y-13525984D01*
X11470182Y-13525984D02*
X11441610Y-13525984D01*
X11622563Y-13525984D02*
X11603515Y-13516460D01*
X11603515Y-13516460D02*
X11593991Y-13497412D01*
X11593991Y-13497412D02*
X11593991Y-13325984D01*
X11774944Y-13516460D02*
X11755896Y-13525984D01*
X11755896Y-13525984D02*
X11717801Y-13525984D01*
X11717801Y-13525984D02*
X11698753Y-13516460D01*
X11698753Y-13516460D02*
X11689230Y-13497412D01*
X11689230Y-13497412D02*
X11689230Y-13421222D01*
X11689230Y-13421222D02*
X11698753Y-13402174D01*
X11698753Y-13402174D02*
X11717801Y-13392650D01*
X11717801Y-13392650D02*
X11755896Y-13392650D01*
X11755896Y-13392650D02*
X11774944Y-13402174D01*
X11774944Y-13402174D02*
X11784468Y-13421222D01*
X11784468Y-13421222D02*
X11784468Y-13440269D01*
X11784468Y-13440269D02*
X11689230Y-13459317D01*
X11860658Y-13516460D02*
X11879706Y-13525984D01*
X11879706Y-13525984D02*
X11917801Y-13525984D01*
X11917801Y-13525984D02*
X11936849Y-13516460D01*
X11936849Y-13516460D02*
X11946372Y-13497412D01*
X11946372Y-13497412D02*
X11946372Y-13487888D01*
X11946372Y-13487888D02*
X11936849Y-13468841D01*
X11936849Y-13468841D02*
X11917801Y-13459317D01*
X11917801Y-13459317D02*
X11889230Y-13459317D01*
X11889230Y-13459317D02*
X11870182Y-13449793D01*
X11870182Y-13449793D02*
X11860658Y-13430746D01*
X11860658Y-13430746D02*
X11860658Y-13421222D01*
X11860658Y-13421222D02*
X11870182Y-13402174D01*
X11870182Y-13402174D02*
X11889230Y-13392650D01*
X11889230Y-13392650D02*
X11917801Y-13392650D01*
X11917801Y-13392650D02*
X11936849Y-13402174D01*
X12013039Y-13602174D02*
X12022563Y-13592650D01*
X12022563Y-13592650D02*
X12041611Y-13564079D01*
X12041611Y-13564079D02*
X12051134Y-13545031D01*
X12051134Y-13545031D02*
X12060658Y-13516460D01*
X12060658Y-13516460D02*
X12070182Y-13468841D01*
X12070182Y-13468841D02*
X12070182Y-13430746D01*
X12070182Y-13430746D02*
X12060658Y-13383127D01*
X12060658Y-13383127D02*
X12051134Y-13354555D01*
X12051134Y-13354555D02*
X12041611Y-13335508D01*
X12041611Y-13335508D02*
X12022563Y-13306936D01*
X12022563Y-13306936D02*
X12013039Y-13297412D01*
D12*
X6997500Y-13748500D02*
X7047500Y-13698500D01*
X6997500Y-13648500D01*
X6947500Y-13698500D01*
X6997500Y-13748500D01*
D11*
X7413039Y-13789984D02*
X7298753Y-13789984D01*
X7355896Y-13789984D02*
X7355896Y-13589984D01*
X7355896Y-13589984D02*
X7336848Y-13618555D01*
X7336848Y-13618555D02*
X7317801Y-13637603D01*
X7317801Y-13637603D02*
X7298753Y-13647127D01*
X7498753Y-13770936D02*
X7508277Y-13780460D01*
X7508277Y-13780460D02*
X7498753Y-13789984D01*
X7498753Y-13789984D02*
X7489229Y-13780460D01*
X7489229Y-13780460D02*
X7498753Y-13770936D01*
X7498753Y-13770936D02*
X7498753Y-13789984D01*
X7632086Y-13589984D02*
X7651134Y-13589984D01*
X7651134Y-13589984D02*
X7670182Y-13599508D01*
X7670182Y-13599508D02*
X7679705Y-13609031D01*
X7679705Y-13609031D02*
X7689229Y-13628079D01*
X7689229Y-13628079D02*
X7698753Y-13666174D01*
X7698753Y-13666174D02*
X7698753Y-13713793D01*
X7698753Y-13713793D02*
X7689229Y-13751888D01*
X7689229Y-13751888D02*
X7679705Y-13770936D01*
X7679705Y-13770936D02*
X7670182Y-13780460D01*
X7670182Y-13780460D02*
X7651134Y-13789984D01*
X7651134Y-13789984D02*
X7632086Y-13789984D01*
X7632086Y-13789984D02*
X7613039Y-13780460D01*
X7613039Y-13780460D02*
X7603515Y-13770936D01*
X7603515Y-13770936D02*
X7593991Y-13751888D01*
X7593991Y-13751888D02*
X7584467Y-13713793D01*
X7584467Y-13713793D02*
X7584467Y-13666174D01*
X7584467Y-13666174D02*
X7593991Y-13628079D01*
X7593991Y-13628079D02*
X7603515Y-13609031D01*
X7603515Y-13609031D02*
X7613039Y-13599508D01*
X7613039Y-13599508D02*
X7632086Y-13589984D01*
X7822562Y-13589984D02*
X7841610Y-13589984D01*
X7841610Y-13589984D02*
X7860658Y-13599508D01*
X7860658Y-13599508D02*
X7870182Y-13609031D01*
X7870182Y-13609031D02*
X7879705Y-13628079D01*
X7879705Y-13628079D02*
X7889229Y-13666174D01*
X7889229Y-13666174D02*
X7889229Y-13713793D01*
X7889229Y-13713793D02*
X7879705Y-13751888D01*
X7879705Y-13751888D02*
X7870182Y-13770936D01*
X7870182Y-13770936D02*
X7860658Y-13780460D01*
X7860658Y-13780460D02*
X7841610Y-13789984D01*
X7841610Y-13789984D02*
X7822562Y-13789984D01*
X7822562Y-13789984D02*
X7803515Y-13780460D01*
X7803515Y-13780460D02*
X7793991Y-13770936D01*
X7793991Y-13770936D02*
X7784467Y-13751888D01*
X7784467Y-13751888D02*
X7774943Y-13713793D01*
X7774943Y-13713793D02*
X7774943Y-13666174D01*
X7774943Y-13666174D02*
X7784467Y-13628079D01*
X7784467Y-13628079D02*
X7793991Y-13609031D01*
X7793991Y-13609031D02*
X7803515Y-13599508D01*
X7803515Y-13599508D02*
X7822562Y-13589984D01*
X8013039Y-13589984D02*
X8032086Y-13589984D01*
X8032086Y-13589984D02*
X8051134Y-13599508D01*
X8051134Y-13599508D02*
X8060658Y-13609031D01*
X8060658Y-13609031D02*
X8070182Y-13628079D01*
X8070182Y-13628079D02*
X8079705Y-13666174D01*
X8079705Y-13666174D02*
X8079705Y-13713793D01*
X8079705Y-13713793D02*
X8070182Y-13751888D01*
X8070182Y-13751888D02*
X8060658Y-13770936D01*
X8060658Y-13770936D02*
X8051134Y-13780460D01*
X8051134Y-13780460D02*
X8032086Y-13789984D01*
X8032086Y-13789984D02*
X8013039Y-13789984D01*
X8013039Y-13789984D02*
X7993991Y-13780460D01*
X7993991Y-13780460D02*
X7984467Y-13770936D01*
X7984467Y-13770936D02*
X7974943Y-13751888D01*
X7974943Y-13751888D02*
X7965420Y-13713793D01*
X7965420Y-13713793D02*
X7965420Y-13666174D01*
X7965420Y-13666174D02*
X7974943Y-13628079D01*
X7974943Y-13628079D02*
X7984467Y-13609031D01*
X7984467Y-13609031D02*
X7993991Y-13599508D01*
X7993991Y-13599508D02*
X8013039Y-13589984D01*
X8165420Y-13789984D02*
X8165420Y-13656650D01*
X8165420Y-13675698D02*
X8174943Y-13666174D01*
X8174943Y-13666174D02*
X8193991Y-13656650D01*
X8193991Y-13656650D02*
X8222563Y-13656650D01*
X8222563Y-13656650D02*
X8241610Y-13666174D01*
X8241610Y-13666174D02*
X8251134Y-13685222D01*
X8251134Y-13685222D02*
X8251134Y-13789984D01*
X8251134Y-13685222D02*
X8260658Y-13666174D01*
X8260658Y-13666174D02*
X8279705Y-13656650D01*
X8279705Y-13656650D02*
X8308277Y-13656650D01*
X8308277Y-13656650D02*
X8327324Y-13666174D01*
X8327324Y-13666174D02*
X8336848Y-13685222D01*
X8336848Y-13685222D02*
X8336848Y-13789984D01*
X8432086Y-13789984D02*
X8432086Y-13656650D01*
X8432086Y-13675698D02*
X8441610Y-13666174D01*
X8441610Y-13666174D02*
X8460658Y-13656650D01*
X8460658Y-13656650D02*
X8489229Y-13656650D01*
X8489229Y-13656650D02*
X8508277Y-13666174D01*
X8508277Y-13666174D02*
X8517801Y-13685222D01*
X8517801Y-13685222D02*
X8517801Y-13789984D01*
X8517801Y-13685222D02*
X8527325Y-13666174D01*
X8527325Y-13666174D02*
X8546372Y-13656650D01*
X8546372Y-13656650D02*
X8574944Y-13656650D01*
X8574944Y-13656650D02*
X8593991Y-13666174D01*
X8593991Y-13666174D02*
X8603515Y-13685222D01*
X8603515Y-13685222D02*
X8603515Y-13789984D01*
X8993991Y-13580460D02*
X8822563Y-13837603D01*
X9251134Y-13589984D02*
X9270182Y-13589984D01*
X9270182Y-13589984D02*
X9289229Y-13599508D01*
X9289229Y-13599508D02*
X9298753Y-13609031D01*
X9298753Y-13609031D02*
X9308277Y-13628079D01*
X9308277Y-13628079D02*
X9317801Y-13666174D01*
X9317801Y-13666174D02*
X9317801Y-13713793D01*
X9317801Y-13713793D02*
X9308277Y-13751888D01*
X9308277Y-13751888D02*
X9298753Y-13770936D01*
X9298753Y-13770936D02*
X9289229Y-13780460D01*
X9289229Y-13780460D02*
X9270182Y-13789984D01*
X9270182Y-13789984D02*
X9251134Y-13789984D01*
X9251134Y-13789984D02*
X9232087Y-13780460D01*
X9232087Y-13780460D02*
X9222563Y-13770936D01*
X9222563Y-13770936D02*
X9213039Y-13751888D01*
X9213039Y-13751888D02*
X9203515Y-13713793D01*
X9203515Y-13713793D02*
X9203515Y-13666174D01*
X9203515Y-13666174D02*
X9213039Y-13628079D01*
X9213039Y-13628079D02*
X9222563Y-13609031D01*
X9222563Y-13609031D02*
X9232087Y-13599508D01*
X9232087Y-13599508D02*
X9251134Y-13589984D01*
X9403515Y-13770936D02*
X9413039Y-13780460D01*
X9413039Y-13780460D02*
X9403515Y-13789984D01*
X9403515Y-13789984D02*
X9393991Y-13780460D01*
X9393991Y-13780460D02*
X9403515Y-13770936D01*
X9403515Y-13770936D02*
X9403515Y-13789984D01*
X9536848Y-13589984D02*
X9555896Y-13589984D01*
X9555896Y-13589984D02*
X9574944Y-13599508D01*
X9574944Y-13599508D02*
X9584468Y-13609031D01*
X9584468Y-13609031D02*
X9593991Y-13628079D01*
X9593991Y-13628079D02*
X9603515Y-13666174D01*
X9603515Y-13666174D02*
X9603515Y-13713793D01*
X9603515Y-13713793D02*
X9593991Y-13751888D01*
X9593991Y-13751888D02*
X9584468Y-13770936D01*
X9584468Y-13770936D02*
X9574944Y-13780460D01*
X9574944Y-13780460D02*
X9555896Y-13789984D01*
X9555896Y-13789984D02*
X9536848Y-13789984D01*
X9536848Y-13789984D02*
X9517801Y-13780460D01*
X9517801Y-13780460D02*
X9508277Y-13770936D01*
X9508277Y-13770936D02*
X9498753Y-13751888D01*
X9498753Y-13751888D02*
X9489229Y-13713793D01*
X9489229Y-13713793D02*
X9489229Y-13666174D01*
X9489229Y-13666174D02*
X9498753Y-13628079D01*
X9498753Y-13628079D02*
X9508277Y-13609031D01*
X9508277Y-13609031D02*
X9517801Y-13599508D01*
X9517801Y-13599508D02*
X9536848Y-13589984D01*
X9670182Y-13589984D02*
X9793991Y-13589984D01*
X9793991Y-13589984D02*
X9727325Y-13666174D01*
X9727325Y-13666174D02*
X9755896Y-13666174D01*
X9755896Y-13666174D02*
X9774944Y-13675698D01*
X9774944Y-13675698D02*
X9784468Y-13685222D01*
X9784468Y-13685222D02*
X9793991Y-13704269D01*
X9793991Y-13704269D02*
X9793991Y-13751888D01*
X9793991Y-13751888D02*
X9784468Y-13770936D01*
X9784468Y-13770936D02*
X9774944Y-13780460D01*
X9774944Y-13780460D02*
X9755896Y-13789984D01*
X9755896Y-13789984D02*
X9698753Y-13789984D01*
X9698753Y-13789984D02*
X9679706Y-13780460D01*
X9679706Y-13780460D02*
X9670182Y-13770936D01*
X9889229Y-13789984D02*
X9927325Y-13789984D01*
X9927325Y-13789984D02*
X9946372Y-13780460D01*
X9946372Y-13780460D02*
X9955896Y-13770936D01*
X9955896Y-13770936D02*
X9974944Y-13742365D01*
X9974944Y-13742365D02*
X9984468Y-13704269D01*
X9984468Y-13704269D02*
X9984468Y-13628079D01*
X9984468Y-13628079D02*
X9974944Y-13609031D01*
X9974944Y-13609031D02*
X9965420Y-13599508D01*
X9965420Y-13599508D02*
X9946372Y-13589984D01*
X9946372Y-13589984D02*
X9908277Y-13589984D01*
X9908277Y-13589984D02*
X9889229Y-13599508D01*
X9889229Y-13599508D02*
X9879706Y-13609031D01*
X9879706Y-13609031D02*
X9870182Y-13628079D01*
X9870182Y-13628079D02*
X9870182Y-13675698D01*
X9870182Y-13675698D02*
X9879706Y-13694746D01*
X9879706Y-13694746D02*
X9889229Y-13704269D01*
X9889229Y-13704269D02*
X9908277Y-13713793D01*
X9908277Y-13713793D02*
X9946372Y-13713793D01*
X9946372Y-13713793D02*
X9965420Y-13704269D01*
X9965420Y-13704269D02*
X9974944Y-13694746D01*
X9974944Y-13694746D02*
X9984468Y-13675698D01*
X10155896Y-13656650D02*
X10155896Y-13789984D01*
X10108277Y-13580460D02*
X10060658Y-13723317D01*
X10060658Y-13723317D02*
X10184468Y-13723317D01*
X10251134Y-13589984D02*
X10251134Y-13628079D01*
X10327325Y-13589984D02*
X10327325Y-13628079D01*
X10622563Y-13866174D02*
X10613039Y-13856650D01*
X10613039Y-13856650D02*
X10593991Y-13828079D01*
X10593991Y-13828079D02*
X10584468Y-13809031D01*
X10584468Y-13809031D02*
X10574944Y-13780460D01*
X10574944Y-13780460D02*
X10565420Y-13732841D01*
X10565420Y-13732841D02*
X10565420Y-13694746D01*
X10565420Y-13694746D02*
X10574944Y-13647127D01*
X10574944Y-13647127D02*
X10584468Y-13618555D01*
X10584468Y-13618555D02*
X10593991Y-13599508D01*
X10593991Y-13599508D02*
X10613039Y-13570936D01*
X10613039Y-13570936D02*
X10622563Y-13561412D01*
X10708277Y-13789984D02*
X10746372Y-13789984D01*
X10746372Y-13789984D02*
X10765420Y-13780460D01*
X10765420Y-13780460D02*
X10774944Y-13770936D01*
X10774944Y-13770936D02*
X10793991Y-13742365D01*
X10793991Y-13742365D02*
X10803515Y-13704269D01*
X10803515Y-13704269D02*
X10803515Y-13628079D01*
X10803515Y-13628079D02*
X10793991Y-13609031D01*
X10793991Y-13609031D02*
X10784468Y-13599508D01*
X10784468Y-13599508D02*
X10765420Y-13589984D01*
X10765420Y-13589984D02*
X10727325Y-13589984D01*
X10727325Y-13589984D02*
X10708277Y-13599508D01*
X10708277Y-13599508D02*
X10698753Y-13609031D01*
X10698753Y-13609031D02*
X10689230Y-13628079D01*
X10689230Y-13628079D02*
X10689230Y-13675698D01*
X10689230Y-13675698D02*
X10698753Y-13694746D01*
X10698753Y-13694746D02*
X10708277Y-13704269D01*
X10708277Y-13704269D02*
X10727325Y-13713793D01*
X10727325Y-13713793D02*
X10765420Y-13713793D01*
X10765420Y-13713793D02*
X10784468Y-13704269D01*
X10784468Y-13704269D02*
X10793991Y-13694746D01*
X10793991Y-13694746D02*
X10803515Y-13675698D01*
X11041611Y-13789984D02*
X11041611Y-13589984D01*
X11127325Y-13789984D02*
X11127325Y-13685222D01*
X11127325Y-13685222D02*
X11117801Y-13666174D01*
X11117801Y-13666174D02*
X11098753Y-13656650D01*
X11098753Y-13656650D02*
X11070182Y-13656650D01*
X11070182Y-13656650D02*
X11051134Y-13666174D01*
X11051134Y-13666174D02*
X11041611Y-13675698D01*
X11251134Y-13789984D02*
X11232087Y-13780460D01*
X11232087Y-13780460D02*
X11222563Y-13770936D01*
X11222563Y-13770936D02*
X11213039Y-13751888D01*
X11213039Y-13751888D02*
X11213039Y-13694746D01*
X11213039Y-13694746D02*
X11222563Y-13675698D01*
X11222563Y-13675698D02*
X11232087Y-13666174D01*
X11232087Y-13666174D02*
X11251134Y-13656650D01*
X11251134Y-13656650D02*
X11279706Y-13656650D01*
X11279706Y-13656650D02*
X11298753Y-13666174D01*
X11298753Y-13666174D02*
X11308277Y-13675698D01*
X11308277Y-13675698D02*
X11317801Y-13694746D01*
X11317801Y-13694746D02*
X11317801Y-13751888D01*
X11317801Y-13751888D02*
X11308277Y-13770936D01*
X11308277Y-13770936D02*
X11298753Y-13780460D01*
X11298753Y-13780460D02*
X11279706Y-13789984D01*
X11279706Y-13789984D02*
X11251134Y-13789984D01*
X11432087Y-13789984D02*
X11413039Y-13780460D01*
X11413039Y-13780460D02*
X11403515Y-13761412D01*
X11403515Y-13761412D02*
X11403515Y-13589984D01*
X11584468Y-13780460D02*
X11565420Y-13789984D01*
X11565420Y-13789984D02*
X11527325Y-13789984D01*
X11527325Y-13789984D02*
X11508277Y-13780460D01*
X11508277Y-13780460D02*
X11498753Y-13761412D01*
X11498753Y-13761412D02*
X11498753Y-13685222D01*
X11498753Y-13685222D02*
X11508277Y-13666174D01*
X11508277Y-13666174D02*
X11527325Y-13656650D01*
X11527325Y-13656650D02*
X11565420Y-13656650D01*
X11565420Y-13656650D02*
X11584468Y-13666174D01*
X11584468Y-13666174D02*
X11593991Y-13685222D01*
X11593991Y-13685222D02*
X11593991Y-13704269D01*
X11593991Y-13704269D02*
X11498753Y-13723317D01*
X11670182Y-13780460D02*
X11689230Y-13789984D01*
X11689230Y-13789984D02*
X11727325Y-13789984D01*
X11727325Y-13789984D02*
X11746372Y-13780460D01*
X11746372Y-13780460D02*
X11755896Y-13761412D01*
X11755896Y-13761412D02*
X11755896Y-13751888D01*
X11755896Y-13751888D02*
X11746372Y-13732841D01*
X11746372Y-13732841D02*
X11727325Y-13723317D01*
X11727325Y-13723317D02*
X11698753Y-13723317D01*
X11698753Y-13723317D02*
X11679706Y-13713793D01*
X11679706Y-13713793D02*
X11670182Y-13694746D01*
X11670182Y-13694746D02*
X11670182Y-13685222D01*
X11670182Y-13685222D02*
X11679706Y-13666174D01*
X11679706Y-13666174D02*
X11698753Y-13656650D01*
X11698753Y-13656650D02*
X11727325Y-13656650D01*
X11727325Y-13656650D02*
X11746372Y-13666174D01*
X11822563Y-13866174D02*
X11832087Y-13856650D01*
X11832087Y-13856650D02*
X11851134Y-13828079D01*
X11851134Y-13828079D02*
X11860658Y-13809031D01*
X11860658Y-13809031D02*
X11870182Y-13780460D01*
X11870182Y-13780460D02*
X11879706Y-13732841D01*
X11879706Y-13732841D02*
X11879706Y-13694746D01*
X11879706Y-13694746D02*
X11870182Y-13647127D01*
X11870182Y-13647127D02*
X11860658Y-13618555D01*
X11860658Y-13618555D02*
X11851134Y-13599508D01*
X11851134Y-13599508D02*
X11832087Y-13570936D01*
X11832087Y-13570936D02*
X11822563Y-13561412D01*
D13*
X6937500Y-13907500D02*
X7047500Y-14017500D01*
X7047500Y-13907500D02*
X6937500Y-14017500D01*
X7047500Y-13962500D02*
G75*
G02*
X6937500Y-13962500I-55000J0D01*
G01*
X6937500Y-13962500D02*
G75*
G02*
X7047500Y-13962500I55000J0D01*
G01*
D11*
X7413039Y-14053984D02*
X7298753Y-14053984D01*
X7355896Y-14053984D02*
X7355896Y-13853984D01*
X7355896Y-13853984D02*
X7336848Y-13882555D01*
X7336848Y-13882555D02*
X7317801Y-13901603D01*
X7317801Y-13901603D02*
X7298753Y-13911127D01*
X7498753Y-14034936D02*
X7508277Y-14044460D01*
X7508277Y-14044460D02*
X7498753Y-14053984D01*
X7498753Y-14053984D02*
X7489229Y-14044460D01*
X7489229Y-14044460D02*
X7498753Y-14034936D01*
X7498753Y-14034936D02*
X7498753Y-14053984D01*
X7698753Y-14053984D02*
X7584467Y-14053984D01*
X7641610Y-14053984D02*
X7641610Y-13853984D01*
X7641610Y-13853984D02*
X7622562Y-13882555D01*
X7622562Y-13882555D02*
X7603515Y-13901603D01*
X7603515Y-13901603D02*
X7584467Y-13911127D01*
X7822562Y-13853984D02*
X7841610Y-13853984D01*
X7841610Y-13853984D02*
X7860658Y-13863508D01*
X7860658Y-13863508D02*
X7870182Y-13873031D01*
X7870182Y-13873031D02*
X7879705Y-13892079D01*
X7879705Y-13892079D02*
X7889229Y-13930174D01*
X7889229Y-13930174D02*
X7889229Y-13977793D01*
X7889229Y-13977793D02*
X7879705Y-14015888D01*
X7879705Y-14015888D02*
X7870182Y-14034936D01*
X7870182Y-14034936D02*
X7860658Y-14044460D01*
X7860658Y-14044460D02*
X7841610Y-14053984D01*
X7841610Y-14053984D02*
X7822562Y-14053984D01*
X7822562Y-14053984D02*
X7803515Y-14044460D01*
X7803515Y-14044460D02*
X7793991Y-14034936D01*
X7793991Y-14034936D02*
X7784467Y-14015888D01*
X7784467Y-14015888D02*
X7774943Y-13977793D01*
X7774943Y-13977793D02*
X7774943Y-13930174D01*
X7774943Y-13930174D02*
X7784467Y-13892079D01*
X7784467Y-13892079D02*
X7793991Y-13873031D01*
X7793991Y-13873031D02*
X7803515Y-13863508D01*
X7803515Y-13863508D02*
X7822562Y-13853984D01*
X8013039Y-13853984D02*
X8032086Y-13853984D01*
X8032086Y-13853984D02*
X8051134Y-13863508D01*
X8051134Y-13863508D02*
X8060658Y-13873031D01*
X8060658Y-13873031D02*
X8070182Y-13892079D01*
X8070182Y-13892079D02*
X8079705Y-13930174D01*
X8079705Y-13930174D02*
X8079705Y-13977793D01*
X8079705Y-13977793D02*
X8070182Y-14015888D01*
X8070182Y-14015888D02*
X8060658Y-14034936D01*
X8060658Y-14034936D02*
X8051134Y-14044460D01*
X8051134Y-14044460D02*
X8032086Y-14053984D01*
X8032086Y-14053984D02*
X8013039Y-14053984D01*
X8013039Y-14053984D02*
X7993991Y-14044460D01*
X7993991Y-14044460D02*
X7984467Y-14034936D01*
X7984467Y-14034936D02*
X7974943Y-14015888D01*
X7974943Y-14015888D02*
X7965420Y-13977793D01*
X7965420Y-13977793D02*
X7965420Y-13930174D01*
X7965420Y-13930174D02*
X7974943Y-13892079D01*
X7974943Y-13892079D02*
X7984467Y-13873031D01*
X7984467Y-13873031D02*
X7993991Y-13863508D01*
X7993991Y-13863508D02*
X8013039Y-13853984D01*
X8165420Y-14053984D02*
X8165420Y-13920650D01*
X8165420Y-13939698D02*
X8174943Y-13930174D01*
X8174943Y-13930174D02*
X8193991Y-13920650D01*
X8193991Y-13920650D02*
X8222563Y-13920650D01*
X8222563Y-13920650D02*
X8241610Y-13930174D01*
X8241610Y-13930174D02*
X8251134Y-13949222D01*
X8251134Y-13949222D02*
X8251134Y-14053984D01*
X8251134Y-13949222D02*
X8260658Y-13930174D01*
X8260658Y-13930174D02*
X8279705Y-13920650D01*
X8279705Y-13920650D02*
X8308277Y-13920650D01*
X8308277Y-13920650D02*
X8327324Y-13930174D01*
X8327324Y-13930174D02*
X8336848Y-13949222D01*
X8336848Y-13949222D02*
X8336848Y-14053984D01*
X8432086Y-14053984D02*
X8432086Y-13920650D01*
X8432086Y-13939698D02*
X8441610Y-13930174D01*
X8441610Y-13930174D02*
X8460658Y-13920650D01*
X8460658Y-13920650D02*
X8489229Y-13920650D01*
X8489229Y-13920650D02*
X8508277Y-13930174D01*
X8508277Y-13930174D02*
X8517801Y-13949222D01*
X8517801Y-13949222D02*
X8517801Y-14053984D01*
X8517801Y-13949222D02*
X8527325Y-13930174D01*
X8527325Y-13930174D02*
X8546372Y-13920650D01*
X8546372Y-13920650D02*
X8574944Y-13920650D01*
X8574944Y-13920650D02*
X8593991Y-13930174D01*
X8593991Y-13930174D02*
X8603515Y-13949222D01*
X8603515Y-13949222D02*
X8603515Y-14053984D01*
X8993991Y-13844460D02*
X8822563Y-14101603D01*
X9251134Y-13853984D02*
X9270182Y-13853984D01*
X9270182Y-13853984D02*
X9289229Y-13863508D01*
X9289229Y-13863508D02*
X9298753Y-13873031D01*
X9298753Y-13873031D02*
X9308277Y-13892079D01*
X9308277Y-13892079D02*
X9317801Y-13930174D01*
X9317801Y-13930174D02*
X9317801Y-13977793D01*
X9317801Y-13977793D02*
X9308277Y-14015888D01*
X9308277Y-14015888D02*
X9298753Y-14034936D01*
X9298753Y-14034936D02*
X9289229Y-14044460D01*
X9289229Y-14044460D02*
X9270182Y-14053984D01*
X9270182Y-14053984D02*
X9251134Y-14053984D01*
X9251134Y-14053984D02*
X9232087Y-14044460D01*
X9232087Y-14044460D02*
X9222563Y-14034936D01*
X9222563Y-14034936D02*
X9213039Y-14015888D01*
X9213039Y-14015888D02*
X9203515Y-13977793D01*
X9203515Y-13977793D02*
X9203515Y-13930174D01*
X9203515Y-13930174D02*
X9213039Y-13892079D01*
X9213039Y-13892079D02*
X9222563Y-13873031D01*
X9222563Y-13873031D02*
X9232087Y-13863508D01*
X9232087Y-13863508D02*
X9251134Y-13853984D01*
X9403515Y-14034936D02*
X9413039Y-14044460D01*
X9413039Y-14044460D02*
X9403515Y-14053984D01*
X9403515Y-14053984D02*
X9393991Y-14044460D01*
X9393991Y-14044460D02*
X9403515Y-14034936D01*
X9403515Y-14034936D02*
X9403515Y-14053984D01*
X9536848Y-13853984D02*
X9555896Y-13853984D01*
X9555896Y-13853984D02*
X9574944Y-13863508D01*
X9574944Y-13863508D02*
X9584468Y-13873031D01*
X9584468Y-13873031D02*
X9593991Y-13892079D01*
X9593991Y-13892079D02*
X9603515Y-13930174D01*
X9603515Y-13930174D02*
X9603515Y-13977793D01*
X9603515Y-13977793D02*
X9593991Y-14015888D01*
X9593991Y-14015888D02*
X9584468Y-14034936D01*
X9584468Y-14034936D02*
X9574944Y-14044460D01*
X9574944Y-14044460D02*
X9555896Y-14053984D01*
X9555896Y-14053984D02*
X9536848Y-14053984D01*
X9536848Y-14053984D02*
X9517801Y-14044460D01*
X9517801Y-14044460D02*
X9508277Y-14034936D01*
X9508277Y-14034936D02*
X9498753Y-14015888D01*
X9498753Y-14015888D02*
X9489229Y-13977793D01*
X9489229Y-13977793D02*
X9489229Y-13930174D01*
X9489229Y-13930174D02*
X9498753Y-13892079D01*
X9498753Y-13892079D02*
X9508277Y-13873031D01*
X9508277Y-13873031D02*
X9517801Y-13863508D01*
X9517801Y-13863508D02*
X9536848Y-13853984D01*
X9774944Y-13920650D02*
X9774944Y-14053984D01*
X9727325Y-13844460D02*
X9679706Y-13987317D01*
X9679706Y-13987317D02*
X9803515Y-13987317D01*
X9860658Y-13853984D02*
X9984468Y-13853984D01*
X9984468Y-13853984D02*
X9917801Y-13930174D01*
X9917801Y-13930174D02*
X9946372Y-13930174D01*
X9946372Y-13930174D02*
X9965420Y-13939698D01*
X9965420Y-13939698D02*
X9974944Y-13949222D01*
X9974944Y-13949222D02*
X9984468Y-13968269D01*
X9984468Y-13968269D02*
X9984468Y-14015888D01*
X9984468Y-14015888D02*
X9974944Y-14034936D01*
X9974944Y-14034936D02*
X9965420Y-14044460D01*
X9965420Y-14044460D02*
X9946372Y-14053984D01*
X9946372Y-14053984D02*
X9889229Y-14053984D01*
X9889229Y-14053984D02*
X9870182Y-14044460D01*
X9870182Y-14044460D02*
X9860658Y-14034936D01*
X10051134Y-13853984D02*
X10174944Y-13853984D01*
X10174944Y-13853984D02*
X10108277Y-13930174D01*
X10108277Y-13930174D02*
X10136849Y-13930174D01*
X10136849Y-13930174D02*
X10155896Y-13939698D01*
X10155896Y-13939698D02*
X10165420Y-13949222D01*
X10165420Y-13949222D02*
X10174944Y-13968269D01*
X10174944Y-13968269D02*
X10174944Y-14015888D01*
X10174944Y-14015888D02*
X10165420Y-14034936D01*
X10165420Y-14034936D02*
X10155896Y-14044460D01*
X10155896Y-14044460D02*
X10136849Y-14053984D01*
X10136849Y-14053984D02*
X10079706Y-14053984D01*
X10079706Y-14053984D02*
X10060658Y-14044460D01*
X10060658Y-14044460D02*
X10051134Y-14034936D01*
X10251134Y-13853984D02*
X10251134Y-13892079D01*
X10327325Y-13853984D02*
X10327325Y-13892079D01*
X10622563Y-14130174D02*
X10613039Y-14120650D01*
X10613039Y-14120650D02*
X10593991Y-14092079D01*
X10593991Y-14092079D02*
X10584468Y-14073031D01*
X10584468Y-14073031D02*
X10574944Y-14044460D01*
X10574944Y-14044460D02*
X10565420Y-13996841D01*
X10565420Y-13996841D02*
X10565420Y-13958746D01*
X10565420Y-13958746D02*
X10574944Y-13911127D01*
X10574944Y-13911127D02*
X10584468Y-13882555D01*
X10584468Y-13882555D02*
X10593991Y-13863508D01*
X10593991Y-13863508D02*
X10613039Y-13834936D01*
X10613039Y-13834936D02*
X10622563Y-13825412D01*
X10784468Y-13920650D02*
X10784468Y-14053984D01*
X10736849Y-13844460D02*
X10689230Y-13987317D01*
X10689230Y-13987317D02*
X10813039Y-13987317D01*
X11041611Y-14053984D02*
X11041611Y-13853984D01*
X11127325Y-14053984D02*
X11127325Y-13949222D01*
X11127325Y-13949222D02*
X11117801Y-13930174D01*
X11117801Y-13930174D02*
X11098753Y-13920650D01*
X11098753Y-13920650D02*
X11070182Y-13920650D01*
X11070182Y-13920650D02*
X11051134Y-13930174D01*
X11051134Y-13930174D02*
X11041611Y-13939698D01*
X11251134Y-14053984D02*
X11232087Y-14044460D01*
X11232087Y-14044460D02*
X11222563Y-14034936D01*
X11222563Y-14034936D02*
X11213039Y-14015888D01*
X11213039Y-14015888D02*
X11213039Y-13958746D01*
X11213039Y-13958746D02*
X11222563Y-13939698D01*
X11222563Y-13939698D02*
X11232087Y-13930174D01*
X11232087Y-13930174D02*
X11251134Y-13920650D01*
X11251134Y-13920650D02*
X11279706Y-13920650D01*
X11279706Y-13920650D02*
X11298753Y-13930174D01*
X11298753Y-13930174D02*
X11308277Y-13939698D01*
X11308277Y-13939698D02*
X11317801Y-13958746D01*
X11317801Y-13958746D02*
X11317801Y-14015888D01*
X11317801Y-14015888D02*
X11308277Y-14034936D01*
X11308277Y-14034936D02*
X11298753Y-14044460D01*
X11298753Y-14044460D02*
X11279706Y-14053984D01*
X11279706Y-14053984D02*
X11251134Y-14053984D01*
X11432087Y-14053984D02*
X11413039Y-14044460D01*
X11413039Y-14044460D02*
X11403515Y-14025412D01*
X11403515Y-14025412D02*
X11403515Y-13853984D01*
X11584468Y-14044460D02*
X11565420Y-14053984D01*
X11565420Y-14053984D02*
X11527325Y-14053984D01*
X11527325Y-14053984D02*
X11508277Y-14044460D01*
X11508277Y-14044460D02*
X11498753Y-14025412D01*
X11498753Y-14025412D02*
X11498753Y-13949222D01*
X11498753Y-13949222D02*
X11508277Y-13930174D01*
X11508277Y-13930174D02*
X11527325Y-13920650D01*
X11527325Y-13920650D02*
X11565420Y-13920650D01*
X11565420Y-13920650D02*
X11584468Y-13930174D01*
X11584468Y-13930174D02*
X11593991Y-13949222D01*
X11593991Y-13949222D02*
X11593991Y-13968269D01*
X11593991Y-13968269D02*
X11498753Y-13987317D01*
X11670182Y-14044460D02*
X11689230Y-14053984D01*
X11689230Y-14053984D02*
X11727325Y-14053984D01*
X11727325Y-14053984D02*
X11746372Y-14044460D01*
X11746372Y-14044460D02*
X11755896Y-14025412D01*
X11755896Y-14025412D02*
X11755896Y-14015888D01*
X11755896Y-14015888D02*
X11746372Y-13996841D01*
X11746372Y-13996841D02*
X11727325Y-13987317D01*
X11727325Y-13987317D02*
X11698753Y-13987317D01*
X11698753Y-13987317D02*
X11679706Y-13977793D01*
X11679706Y-13977793D02*
X11670182Y-13958746D01*
X11670182Y-13958746D02*
X11670182Y-13949222D01*
X11670182Y-13949222D02*
X11679706Y-13930174D01*
X11679706Y-13930174D02*
X11698753Y-13920650D01*
X11698753Y-13920650D02*
X11727325Y-13920650D01*
X11727325Y-13920650D02*
X11746372Y-13930174D01*
X11822563Y-14130174D02*
X11832087Y-14120650D01*
X11832087Y-14120650D02*
X11851134Y-14092079D01*
X11851134Y-14092079D02*
X11860658Y-14073031D01*
X11860658Y-14073031D02*
X11870182Y-14044460D01*
X11870182Y-14044460D02*
X11879706Y-13996841D01*
X11879706Y-13996841D02*
X11879706Y-13958746D01*
X11879706Y-13958746D02*
X11870182Y-13911127D01*
X11870182Y-13911127D02*
X11860658Y-13882555D01*
X11860658Y-13882555D02*
X11851134Y-13863508D01*
X11851134Y-13863508D02*
X11832087Y-13834936D01*
X11832087Y-13834936D02*
X11822563Y-13825412D01*
D14*
X6927500Y-14166500D02*
X7047500Y-14286500D01*
X7047500Y-14166500D02*
X6927500Y-14286500D01*
X6987500Y-14166500D02*
X6987500Y-14286500D01*
X6927500Y-14226500D02*
X7047500Y-14226500D01*
D11*
X7413039Y-14317984D02*
X7298753Y-14317984D01*
X7355896Y-14317984D02*
X7355896Y-14117984D01*
X7355896Y-14117984D02*
X7336848Y-14146555D01*
X7336848Y-14146555D02*
X7317801Y-14165603D01*
X7317801Y-14165603D02*
X7298753Y-14175127D01*
X7498753Y-14298936D02*
X7508277Y-14308460D01*
X7508277Y-14308460D02*
X7498753Y-14317984D01*
X7498753Y-14317984D02*
X7489229Y-14308460D01*
X7489229Y-14308460D02*
X7498753Y-14298936D01*
X7498753Y-14298936D02*
X7498753Y-14317984D01*
X7584467Y-14137031D02*
X7593991Y-14127508D01*
X7593991Y-14127508D02*
X7613039Y-14117984D01*
X7613039Y-14117984D02*
X7660658Y-14117984D01*
X7660658Y-14117984D02*
X7679705Y-14127508D01*
X7679705Y-14127508D02*
X7689229Y-14137031D01*
X7689229Y-14137031D02*
X7698753Y-14156079D01*
X7698753Y-14156079D02*
X7698753Y-14175127D01*
X7698753Y-14175127D02*
X7689229Y-14203698D01*
X7689229Y-14203698D02*
X7574943Y-14317984D01*
X7574943Y-14317984D02*
X7698753Y-14317984D01*
X7822562Y-14117984D02*
X7841610Y-14117984D01*
X7841610Y-14117984D02*
X7860658Y-14127508D01*
X7860658Y-14127508D02*
X7870182Y-14137031D01*
X7870182Y-14137031D02*
X7879705Y-14156079D01*
X7879705Y-14156079D02*
X7889229Y-14194174D01*
X7889229Y-14194174D02*
X7889229Y-14241793D01*
X7889229Y-14241793D02*
X7879705Y-14279888D01*
X7879705Y-14279888D02*
X7870182Y-14298936D01*
X7870182Y-14298936D02*
X7860658Y-14308460D01*
X7860658Y-14308460D02*
X7841610Y-14317984D01*
X7841610Y-14317984D02*
X7822562Y-14317984D01*
X7822562Y-14317984D02*
X7803515Y-14308460D01*
X7803515Y-14308460D02*
X7793991Y-14298936D01*
X7793991Y-14298936D02*
X7784467Y-14279888D01*
X7784467Y-14279888D02*
X7774943Y-14241793D01*
X7774943Y-14241793D02*
X7774943Y-14194174D01*
X7774943Y-14194174D02*
X7784467Y-14156079D01*
X7784467Y-14156079D02*
X7793991Y-14137031D01*
X7793991Y-14137031D02*
X7803515Y-14127508D01*
X7803515Y-14127508D02*
X7822562Y-14117984D01*
X8013039Y-14117984D02*
X8032086Y-14117984D01*
X8032086Y-14117984D02*
X8051134Y-14127508D01*
X8051134Y-14127508D02*
X8060658Y-14137031D01*
X8060658Y-14137031D02*
X8070182Y-14156079D01*
X8070182Y-14156079D02*
X8079705Y-14194174D01*
X8079705Y-14194174D02*
X8079705Y-14241793D01*
X8079705Y-14241793D02*
X8070182Y-14279888D01*
X8070182Y-14279888D02*
X8060658Y-14298936D01*
X8060658Y-14298936D02*
X8051134Y-14308460D01*
X8051134Y-14308460D02*
X8032086Y-14317984D01*
X8032086Y-14317984D02*
X8013039Y-14317984D01*
X8013039Y-14317984D02*
X7993991Y-14308460D01*
X7993991Y-14308460D02*
X7984467Y-14298936D01*
X7984467Y-14298936D02*
X7974943Y-14279888D01*
X7974943Y-14279888D02*
X7965420Y-14241793D01*
X7965420Y-14241793D02*
X7965420Y-14194174D01*
X7965420Y-14194174D02*
X7974943Y-14156079D01*
X7974943Y-14156079D02*
X7984467Y-14137031D01*
X7984467Y-14137031D02*
X7993991Y-14127508D01*
X7993991Y-14127508D02*
X8013039Y-14117984D01*
X8165420Y-14317984D02*
X8165420Y-14184650D01*
X8165420Y-14203698D02*
X8174943Y-14194174D01*
X8174943Y-14194174D02*
X8193991Y-14184650D01*
X8193991Y-14184650D02*
X8222563Y-14184650D01*
X8222563Y-14184650D02*
X8241610Y-14194174D01*
X8241610Y-14194174D02*
X8251134Y-14213222D01*
X8251134Y-14213222D02*
X8251134Y-14317984D01*
X8251134Y-14213222D02*
X8260658Y-14194174D01*
X8260658Y-14194174D02*
X8279705Y-14184650D01*
X8279705Y-14184650D02*
X8308277Y-14184650D01*
X8308277Y-14184650D02*
X8327324Y-14194174D01*
X8327324Y-14194174D02*
X8336848Y-14213222D01*
X8336848Y-14213222D02*
X8336848Y-14317984D01*
X8432086Y-14317984D02*
X8432086Y-14184650D01*
X8432086Y-14203698D02*
X8441610Y-14194174D01*
X8441610Y-14194174D02*
X8460658Y-14184650D01*
X8460658Y-14184650D02*
X8489229Y-14184650D01*
X8489229Y-14184650D02*
X8508277Y-14194174D01*
X8508277Y-14194174D02*
X8517801Y-14213222D01*
X8517801Y-14213222D02*
X8517801Y-14317984D01*
X8517801Y-14213222D02*
X8527325Y-14194174D01*
X8527325Y-14194174D02*
X8546372Y-14184650D01*
X8546372Y-14184650D02*
X8574944Y-14184650D01*
X8574944Y-14184650D02*
X8593991Y-14194174D01*
X8593991Y-14194174D02*
X8603515Y-14213222D01*
X8603515Y-14213222D02*
X8603515Y-14317984D01*
X8993991Y-14108460D02*
X8822563Y-14365603D01*
X9251134Y-14117984D02*
X9270182Y-14117984D01*
X9270182Y-14117984D02*
X9289229Y-14127508D01*
X9289229Y-14127508D02*
X9298753Y-14137031D01*
X9298753Y-14137031D02*
X9308277Y-14156079D01*
X9308277Y-14156079D02*
X9317801Y-14194174D01*
X9317801Y-14194174D02*
X9317801Y-14241793D01*
X9317801Y-14241793D02*
X9308277Y-14279888D01*
X9308277Y-14279888D02*
X9298753Y-14298936D01*
X9298753Y-14298936D02*
X9289229Y-14308460D01*
X9289229Y-14308460D02*
X9270182Y-14317984D01*
X9270182Y-14317984D02*
X9251134Y-14317984D01*
X9251134Y-14317984D02*
X9232087Y-14308460D01*
X9232087Y-14308460D02*
X9222563Y-14298936D01*
X9222563Y-14298936D02*
X9213039Y-14279888D01*
X9213039Y-14279888D02*
X9203515Y-14241793D01*
X9203515Y-14241793D02*
X9203515Y-14194174D01*
X9203515Y-14194174D02*
X9213039Y-14156079D01*
X9213039Y-14156079D02*
X9222563Y-14137031D01*
X9222563Y-14137031D02*
X9232087Y-14127508D01*
X9232087Y-14127508D02*
X9251134Y-14117984D01*
X9403515Y-14298936D02*
X9413039Y-14308460D01*
X9413039Y-14308460D02*
X9403515Y-14317984D01*
X9403515Y-14317984D02*
X9393991Y-14308460D01*
X9393991Y-14308460D02*
X9403515Y-14298936D01*
X9403515Y-14298936D02*
X9403515Y-14317984D01*
X9536848Y-14117984D02*
X9555896Y-14117984D01*
X9555896Y-14117984D02*
X9574944Y-14127508D01*
X9574944Y-14127508D02*
X9584468Y-14137031D01*
X9584468Y-14137031D02*
X9593991Y-14156079D01*
X9593991Y-14156079D02*
X9603515Y-14194174D01*
X9603515Y-14194174D02*
X9603515Y-14241793D01*
X9603515Y-14241793D02*
X9593991Y-14279888D01*
X9593991Y-14279888D02*
X9584468Y-14298936D01*
X9584468Y-14298936D02*
X9574944Y-14308460D01*
X9574944Y-14308460D02*
X9555896Y-14317984D01*
X9555896Y-14317984D02*
X9536848Y-14317984D01*
X9536848Y-14317984D02*
X9517801Y-14308460D01*
X9517801Y-14308460D02*
X9508277Y-14298936D01*
X9508277Y-14298936D02*
X9498753Y-14279888D01*
X9498753Y-14279888D02*
X9489229Y-14241793D01*
X9489229Y-14241793D02*
X9489229Y-14194174D01*
X9489229Y-14194174D02*
X9498753Y-14156079D01*
X9498753Y-14156079D02*
X9508277Y-14137031D01*
X9508277Y-14137031D02*
X9517801Y-14127508D01*
X9517801Y-14127508D02*
X9536848Y-14117984D01*
X9774944Y-14184650D02*
X9774944Y-14317984D01*
X9727325Y-14108460D02*
X9679706Y-14251317D01*
X9679706Y-14251317D02*
X9803515Y-14251317D01*
X9860658Y-14117984D02*
X9993991Y-14117984D01*
X9993991Y-14117984D02*
X9908277Y-14317984D01*
X10060658Y-14137031D02*
X10070182Y-14127508D01*
X10070182Y-14127508D02*
X10089229Y-14117984D01*
X10089229Y-14117984D02*
X10136849Y-14117984D01*
X10136849Y-14117984D02*
X10155896Y-14127508D01*
X10155896Y-14127508D02*
X10165420Y-14137031D01*
X10165420Y-14137031D02*
X10174944Y-14156079D01*
X10174944Y-14156079D02*
X10174944Y-14175127D01*
X10174944Y-14175127D02*
X10165420Y-14203698D01*
X10165420Y-14203698D02*
X10051134Y-14317984D01*
X10051134Y-14317984D02*
X10174944Y-14317984D01*
X10251134Y-14117984D02*
X10251134Y-14156079D01*
X10327325Y-14117984D02*
X10327325Y-14156079D01*
X10622563Y-14394174D02*
X10613039Y-14384650D01*
X10613039Y-14384650D02*
X10593991Y-14356079D01*
X10593991Y-14356079D02*
X10584468Y-14337031D01*
X10584468Y-14337031D02*
X10574944Y-14308460D01*
X10574944Y-14308460D02*
X10565420Y-14260841D01*
X10565420Y-14260841D02*
X10565420Y-14222746D01*
X10565420Y-14222746D02*
X10574944Y-14175127D01*
X10574944Y-14175127D02*
X10584468Y-14146555D01*
X10584468Y-14146555D02*
X10593991Y-14127508D01*
X10593991Y-14127508D02*
X10613039Y-14098936D01*
X10613039Y-14098936D02*
X10622563Y-14089412D01*
X10727325Y-14203698D02*
X10708277Y-14194174D01*
X10708277Y-14194174D02*
X10698753Y-14184650D01*
X10698753Y-14184650D02*
X10689230Y-14165603D01*
X10689230Y-14165603D02*
X10689230Y-14156079D01*
X10689230Y-14156079D02*
X10698753Y-14137031D01*
X10698753Y-14137031D02*
X10708277Y-14127508D01*
X10708277Y-14127508D02*
X10727325Y-14117984D01*
X10727325Y-14117984D02*
X10765420Y-14117984D01*
X10765420Y-14117984D02*
X10784468Y-14127508D01*
X10784468Y-14127508D02*
X10793991Y-14137031D01*
X10793991Y-14137031D02*
X10803515Y-14156079D01*
X10803515Y-14156079D02*
X10803515Y-14165603D01*
X10803515Y-14165603D02*
X10793991Y-14184650D01*
X10793991Y-14184650D02*
X10784468Y-14194174D01*
X10784468Y-14194174D02*
X10765420Y-14203698D01*
X10765420Y-14203698D02*
X10727325Y-14203698D01*
X10727325Y-14203698D02*
X10708277Y-14213222D01*
X10708277Y-14213222D02*
X10698753Y-14222746D01*
X10698753Y-14222746D02*
X10689230Y-14241793D01*
X10689230Y-14241793D02*
X10689230Y-14279888D01*
X10689230Y-14279888D02*
X10698753Y-14298936D01*
X10698753Y-14298936D02*
X10708277Y-14308460D01*
X10708277Y-14308460D02*
X10727325Y-14317984D01*
X10727325Y-14317984D02*
X10765420Y-14317984D01*
X10765420Y-14317984D02*
X10784468Y-14308460D01*
X10784468Y-14308460D02*
X10793991Y-14298936D01*
X10793991Y-14298936D02*
X10803515Y-14279888D01*
X10803515Y-14279888D02*
X10803515Y-14241793D01*
X10803515Y-14241793D02*
X10793991Y-14222746D01*
X10793991Y-14222746D02*
X10784468Y-14213222D01*
X10784468Y-14213222D02*
X10765420Y-14203698D01*
X11041611Y-14317984D02*
X11041611Y-14117984D01*
X11127325Y-14317984D02*
X11127325Y-14213222D01*
X11127325Y-14213222D02*
X11117801Y-14194174D01*
X11117801Y-14194174D02*
X11098753Y-14184650D01*
X11098753Y-14184650D02*
X11070182Y-14184650D01*
X11070182Y-14184650D02*
X11051134Y-14194174D01*
X11051134Y-14194174D02*
X11041611Y-14203698D01*
X11251134Y-14317984D02*
X11232087Y-14308460D01*
X11232087Y-14308460D02*
X11222563Y-14298936D01*
X11222563Y-14298936D02*
X11213039Y-14279888D01*
X11213039Y-14279888D02*
X11213039Y-14222746D01*
X11213039Y-14222746D02*
X11222563Y-14203698D01*
X11222563Y-14203698D02*
X11232087Y-14194174D01*
X11232087Y-14194174D02*
X11251134Y-14184650D01*
X11251134Y-14184650D02*
X11279706Y-14184650D01*
X11279706Y-14184650D02*
X11298753Y-14194174D01*
X11298753Y-14194174D02*
X11308277Y-14203698D01*
X11308277Y-14203698D02*
X11317801Y-14222746D01*
X11317801Y-14222746D02*
X11317801Y-14279888D01*
X11317801Y-14279888D02*
X11308277Y-14298936D01*
X11308277Y-14298936D02*
X11298753Y-14308460D01*
X11298753Y-14308460D02*
X11279706Y-14317984D01*
X11279706Y-14317984D02*
X11251134Y-14317984D01*
X11432087Y-14317984D02*
X11413039Y-14308460D01*
X11413039Y-14308460D02*
X11403515Y-14289412D01*
X11403515Y-14289412D02*
X11403515Y-14117984D01*
X11584468Y-14308460D02*
X11565420Y-14317984D01*
X11565420Y-14317984D02*
X11527325Y-14317984D01*
X11527325Y-14317984D02*
X11508277Y-14308460D01*
X11508277Y-14308460D02*
X11498753Y-14289412D01*
X11498753Y-14289412D02*
X11498753Y-14213222D01*
X11498753Y-14213222D02*
X11508277Y-14194174D01*
X11508277Y-14194174D02*
X11527325Y-14184650D01*
X11527325Y-14184650D02*
X11565420Y-14184650D01*
X11565420Y-14184650D02*
X11584468Y-14194174D01*
X11584468Y-14194174D02*
X11593991Y-14213222D01*
X11593991Y-14213222D02*
X11593991Y-14232269D01*
X11593991Y-14232269D02*
X11498753Y-14251317D01*
X11670182Y-14308460D02*
X11689230Y-14317984D01*
X11689230Y-14317984D02*
X11727325Y-14317984D01*
X11727325Y-14317984D02*
X11746372Y-14308460D01*
X11746372Y-14308460D02*
X11755896Y-14289412D01*
X11755896Y-14289412D02*
X11755896Y-14279888D01*
X11755896Y-14279888D02*
X11746372Y-14260841D01*
X11746372Y-14260841D02*
X11727325Y-14251317D01*
X11727325Y-14251317D02*
X11698753Y-14251317D01*
X11698753Y-14251317D02*
X11679706Y-14241793D01*
X11679706Y-14241793D02*
X11670182Y-14222746D01*
X11670182Y-14222746D02*
X11670182Y-14213222D01*
X11670182Y-14213222D02*
X11679706Y-14194174D01*
X11679706Y-14194174D02*
X11698753Y-14184650D01*
X11698753Y-14184650D02*
X11727325Y-14184650D01*
X11727325Y-14184650D02*
X11746372Y-14194174D01*
X11822563Y-14394174D02*
X11832087Y-14384650D01*
X11832087Y-14384650D02*
X11851134Y-14356079D01*
X11851134Y-14356079D02*
X11860658Y-14337031D01*
X11860658Y-14337031D02*
X11870182Y-14308460D01*
X11870182Y-14308460D02*
X11879706Y-14260841D01*
X11879706Y-14260841D02*
X11879706Y-14222746D01*
X11879706Y-14222746D02*
X11870182Y-14175127D01*
X11870182Y-14175127D02*
X11860658Y-14146555D01*
X11860658Y-14146555D02*
X11851134Y-14127508D01*
X11851134Y-14127508D02*
X11832087Y-14098936D01*
X11832087Y-14098936D02*
X11822563Y-14089412D01*
X6847500Y-14390500D02*
X7047500Y-14590500D01*
X7047500Y-14390500D02*
X6847500Y-14590500D01*
X7018211Y-14561211D02*
X7018211Y-14419789D01*
X6876789Y-14419789D01*
X6876789Y-14561211D01*
X7018211Y-14561211D01*
X7298753Y-14401031D02*
X7308277Y-14391508D01*
X7308277Y-14391508D02*
X7327324Y-14381984D01*
X7327324Y-14381984D02*
X7374943Y-14381984D01*
X7374943Y-14381984D02*
X7393991Y-14391508D01*
X7393991Y-14391508D02*
X7403515Y-14401031D01*
X7403515Y-14401031D02*
X7413039Y-14420079D01*
X7413039Y-14420079D02*
X7413039Y-14439127D01*
X7413039Y-14439127D02*
X7403515Y-14467698D01*
X7403515Y-14467698D02*
X7289229Y-14581984D01*
X7289229Y-14581984D02*
X7413039Y-14581984D01*
X7498753Y-14562936D02*
X7508277Y-14572460D01*
X7508277Y-14572460D02*
X7498753Y-14581984D01*
X7498753Y-14581984D02*
X7489229Y-14572460D01*
X7489229Y-14572460D02*
X7498753Y-14562936D01*
X7498753Y-14562936D02*
X7498753Y-14581984D01*
X7679705Y-14448650D02*
X7679705Y-14581984D01*
X7632086Y-14372460D02*
X7584467Y-14515317D01*
X7584467Y-14515317D02*
X7708277Y-14515317D01*
X7822562Y-14381984D02*
X7841610Y-14381984D01*
X7841610Y-14381984D02*
X7860658Y-14391508D01*
X7860658Y-14391508D02*
X7870182Y-14401031D01*
X7870182Y-14401031D02*
X7879705Y-14420079D01*
X7879705Y-14420079D02*
X7889229Y-14458174D01*
X7889229Y-14458174D02*
X7889229Y-14505793D01*
X7889229Y-14505793D02*
X7879705Y-14543888D01*
X7879705Y-14543888D02*
X7870182Y-14562936D01*
X7870182Y-14562936D02*
X7860658Y-14572460D01*
X7860658Y-14572460D02*
X7841610Y-14581984D01*
X7841610Y-14581984D02*
X7822562Y-14581984D01*
X7822562Y-14581984D02*
X7803515Y-14572460D01*
X7803515Y-14572460D02*
X7793991Y-14562936D01*
X7793991Y-14562936D02*
X7784467Y-14543888D01*
X7784467Y-14543888D02*
X7774943Y-14505793D01*
X7774943Y-14505793D02*
X7774943Y-14458174D01*
X7774943Y-14458174D02*
X7784467Y-14420079D01*
X7784467Y-14420079D02*
X7793991Y-14401031D01*
X7793991Y-14401031D02*
X7803515Y-14391508D01*
X7803515Y-14391508D02*
X7822562Y-14381984D01*
X8013039Y-14381984D02*
X8032086Y-14381984D01*
X8032086Y-14381984D02*
X8051134Y-14391508D01*
X8051134Y-14391508D02*
X8060658Y-14401031D01*
X8060658Y-14401031D02*
X8070182Y-14420079D01*
X8070182Y-14420079D02*
X8079705Y-14458174D01*
X8079705Y-14458174D02*
X8079705Y-14505793D01*
X8079705Y-14505793D02*
X8070182Y-14543888D01*
X8070182Y-14543888D02*
X8060658Y-14562936D01*
X8060658Y-14562936D02*
X8051134Y-14572460D01*
X8051134Y-14572460D02*
X8032086Y-14581984D01*
X8032086Y-14581984D02*
X8013039Y-14581984D01*
X8013039Y-14581984D02*
X7993991Y-14572460D01*
X7993991Y-14572460D02*
X7984467Y-14562936D01*
X7984467Y-14562936D02*
X7974943Y-14543888D01*
X7974943Y-14543888D02*
X7965420Y-14505793D01*
X7965420Y-14505793D02*
X7965420Y-14458174D01*
X7965420Y-14458174D02*
X7974943Y-14420079D01*
X7974943Y-14420079D02*
X7984467Y-14401031D01*
X7984467Y-14401031D02*
X7993991Y-14391508D01*
X7993991Y-14391508D02*
X8013039Y-14381984D01*
X8165420Y-14581984D02*
X8165420Y-14448650D01*
X8165420Y-14467698D02*
X8174943Y-14458174D01*
X8174943Y-14458174D02*
X8193991Y-14448650D01*
X8193991Y-14448650D02*
X8222563Y-14448650D01*
X8222563Y-14448650D02*
X8241610Y-14458174D01*
X8241610Y-14458174D02*
X8251134Y-14477222D01*
X8251134Y-14477222D02*
X8251134Y-14581984D01*
X8251134Y-14477222D02*
X8260658Y-14458174D01*
X8260658Y-14458174D02*
X8279705Y-14448650D01*
X8279705Y-14448650D02*
X8308277Y-14448650D01*
X8308277Y-14448650D02*
X8327324Y-14458174D01*
X8327324Y-14458174D02*
X8336848Y-14477222D01*
X8336848Y-14477222D02*
X8336848Y-14581984D01*
X8432086Y-14581984D02*
X8432086Y-14448650D01*
X8432086Y-14467698D02*
X8441610Y-14458174D01*
X8441610Y-14458174D02*
X8460658Y-14448650D01*
X8460658Y-14448650D02*
X8489229Y-14448650D01*
X8489229Y-14448650D02*
X8508277Y-14458174D01*
X8508277Y-14458174D02*
X8517801Y-14477222D01*
X8517801Y-14477222D02*
X8517801Y-14581984D01*
X8517801Y-14477222D02*
X8527325Y-14458174D01*
X8527325Y-14458174D02*
X8546372Y-14448650D01*
X8546372Y-14448650D02*
X8574944Y-14448650D01*
X8574944Y-14448650D02*
X8593991Y-14458174D01*
X8593991Y-14458174D02*
X8603515Y-14477222D01*
X8603515Y-14477222D02*
X8603515Y-14581984D01*
X8993991Y-14372460D02*
X8822563Y-14629603D01*
X9251134Y-14381984D02*
X9270182Y-14381984D01*
X9270182Y-14381984D02*
X9289229Y-14391508D01*
X9289229Y-14391508D02*
X9298753Y-14401031D01*
X9298753Y-14401031D02*
X9308277Y-14420079D01*
X9308277Y-14420079D02*
X9317801Y-14458174D01*
X9317801Y-14458174D02*
X9317801Y-14505793D01*
X9317801Y-14505793D02*
X9308277Y-14543888D01*
X9308277Y-14543888D02*
X9298753Y-14562936D01*
X9298753Y-14562936D02*
X9289229Y-14572460D01*
X9289229Y-14572460D02*
X9270182Y-14581984D01*
X9270182Y-14581984D02*
X9251134Y-14581984D01*
X9251134Y-14581984D02*
X9232087Y-14572460D01*
X9232087Y-14572460D02*
X9222563Y-14562936D01*
X9222563Y-14562936D02*
X9213039Y-14543888D01*
X9213039Y-14543888D02*
X9203515Y-14505793D01*
X9203515Y-14505793D02*
X9203515Y-14458174D01*
X9203515Y-14458174D02*
X9213039Y-14420079D01*
X9213039Y-14420079D02*
X9222563Y-14401031D01*
X9222563Y-14401031D02*
X9232087Y-14391508D01*
X9232087Y-14391508D02*
X9251134Y-14381984D01*
X9403515Y-14562936D02*
X9413039Y-14572460D01*
X9413039Y-14572460D02*
X9403515Y-14581984D01*
X9403515Y-14581984D02*
X9393991Y-14572460D01*
X9393991Y-14572460D02*
X9403515Y-14562936D01*
X9403515Y-14562936D02*
X9403515Y-14581984D01*
X9536848Y-14381984D02*
X9555896Y-14381984D01*
X9555896Y-14381984D02*
X9574944Y-14391508D01*
X9574944Y-14391508D02*
X9584468Y-14401031D01*
X9584468Y-14401031D02*
X9593991Y-14420079D01*
X9593991Y-14420079D02*
X9603515Y-14458174D01*
X9603515Y-14458174D02*
X9603515Y-14505793D01*
X9603515Y-14505793D02*
X9593991Y-14543888D01*
X9593991Y-14543888D02*
X9584468Y-14562936D01*
X9584468Y-14562936D02*
X9574944Y-14572460D01*
X9574944Y-14572460D02*
X9555896Y-14581984D01*
X9555896Y-14581984D02*
X9536848Y-14581984D01*
X9536848Y-14581984D02*
X9517801Y-14572460D01*
X9517801Y-14572460D02*
X9508277Y-14562936D01*
X9508277Y-14562936D02*
X9498753Y-14543888D01*
X9498753Y-14543888D02*
X9489229Y-14505793D01*
X9489229Y-14505793D02*
X9489229Y-14458174D01*
X9489229Y-14458174D02*
X9498753Y-14420079D01*
X9498753Y-14420079D02*
X9508277Y-14401031D01*
X9508277Y-14401031D02*
X9517801Y-14391508D01*
X9517801Y-14391508D02*
X9536848Y-14381984D01*
X9698753Y-14581984D02*
X9736848Y-14581984D01*
X9736848Y-14581984D02*
X9755896Y-14572460D01*
X9755896Y-14572460D02*
X9765420Y-14562936D01*
X9765420Y-14562936D02*
X9784468Y-14534365D01*
X9784468Y-14534365D02*
X9793991Y-14496269D01*
X9793991Y-14496269D02*
X9793991Y-14420079D01*
X9793991Y-14420079D02*
X9784468Y-14401031D01*
X9784468Y-14401031D02*
X9774944Y-14391508D01*
X9774944Y-14391508D02*
X9755896Y-14381984D01*
X9755896Y-14381984D02*
X9717801Y-14381984D01*
X9717801Y-14381984D02*
X9698753Y-14391508D01*
X9698753Y-14391508D02*
X9689229Y-14401031D01*
X9689229Y-14401031D02*
X9679706Y-14420079D01*
X9679706Y-14420079D02*
X9679706Y-14467698D01*
X9679706Y-14467698D02*
X9689229Y-14486746D01*
X9689229Y-14486746D02*
X9698753Y-14496269D01*
X9698753Y-14496269D02*
X9717801Y-14505793D01*
X9717801Y-14505793D02*
X9755896Y-14505793D01*
X9755896Y-14505793D02*
X9774944Y-14496269D01*
X9774944Y-14496269D02*
X9784468Y-14486746D01*
X9784468Y-14486746D02*
X9793991Y-14467698D01*
X9965420Y-14448650D02*
X9965420Y-14581984D01*
X9917801Y-14372460D02*
X9870182Y-14515317D01*
X9870182Y-14515317D02*
X9993991Y-14515317D01*
X10165420Y-14381984D02*
X10070182Y-14381984D01*
X10070182Y-14381984D02*
X10060658Y-14477222D01*
X10060658Y-14477222D02*
X10070182Y-14467698D01*
X10070182Y-14467698D02*
X10089229Y-14458174D01*
X10089229Y-14458174D02*
X10136849Y-14458174D01*
X10136849Y-14458174D02*
X10155896Y-14467698D01*
X10155896Y-14467698D02*
X10165420Y-14477222D01*
X10165420Y-14477222D02*
X10174944Y-14496269D01*
X10174944Y-14496269D02*
X10174944Y-14543888D01*
X10174944Y-14543888D02*
X10165420Y-14562936D01*
X10165420Y-14562936D02*
X10155896Y-14572460D01*
X10155896Y-14572460D02*
X10136849Y-14581984D01*
X10136849Y-14581984D02*
X10089229Y-14581984D01*
X10089229Y-14581984D02*
X10070182Y-14572460D01*
X10070182Y-14572460D02*
X10060658Y-14562936D01*
X10251134Y-14381984D02*
X10251134Y-14420079D01*
X10327325Y-14381984D02*
X10327325Y-14420079D01*
X10622563Y-14658174D02*
X10613039Y-14648650D01*
X10613039Y-14648650D02*
X10593991Y-14620079D01*
X10593991Y-14620079D02*
X10584468Y-14601031D01*
X10584468Y-14601031D02*
X10574944Y-14572460D01*
X10574944Y-14572460D02*
X10565420Y-14524841D01*
X10565420Y-14524841D02*
X10565420Y-14486746D01*
X10565420Y-14486746D02*
X10574944Y-14439127D01*
X10574944Y-14439127D02*
X10584468Y-14410555D01*
X10584468Y-14410555D02*
X10593991Y-14391508D01*
X10593991Y-14391508D02*
X10613039Y-14362936D01*
X10613039Y-14362936D02*
X10622563Y-14353412D01*
X10689230Y-14401031D02*
X10698753Y-14391508D01*
X10698753Y-14391508D02*
X10717801Y-14381984D01*
X10717801Y-14381984D02*
X10765420Y-14381984D01*
X10765420Y-14381984D02*
X10784468Y-14391508D01*
X10784468Y-14391508D02*
X10793991Y-14401031D01*
X10793991Y-14401031D02*
X10803515Y-14420079D01*
X10803515Y-14420079D02*
X10803515Y-14439127D01*
X10803515Y-14439127D02*
X10793991Y-14467698D01*
X10793991Y-14467698D02*
X10679706Y-14581984D01*
X10679706Y-14581984D02*
X10803515Y-14581984D01*
X11041611Y-14581984D02*
X11041611Y-14381984D01*
X11127325Y-14581984D02*
X11127325Y-14477222D01*
X11127325Y-14477222D02*
X11117801Y-14458174D01*
X11117801Y-14458174D02*
X11098753Y-14448650D01*
X11098753Y-14448650D02*
X11070182Y-14448650D01*
X11070182Y-14448650D02*
X11051134Y-14458174D01*
X11051134Y-14458174D02*
X11041611Y-14467698D01*
X11251134Y-14581984D02*
X11232087Y-14572460D01*
X11232087Y-14572460D02*
X11222563Y-14562936D01*
X11222563Y-14562936D02*
X11213039Y-14543888D01*
X11213039Y-14543888D02*
X11213039Y-14486746D01*
X11213039Y-14486746D02*
X11222563Y-14467698D01*
X11222563Y-14467698D02*
X11232087Y-14458174D01*
X11232087Y-14458174D02*
X11251134Y-14448650D01*
X11251134Y-14448650D02*
X11279706Y-14448650D01*
X11279706Y-14448650D02*
X11298753Y-14458174D01*
X11298753Y-14458174D02*
X11308277Y-14467698D01*
X11308277Y-14467698D02*
X11317801Y-14486746D01*
X11317801Y-14486746D02*
X11317801Y-14543888D01*
X11317801Y-14543888D02*
X11308277Y-14562936D01*
X11308277Y-14562936D02*
X11298753Y-14572460D01*
X11298753Y-14572460D02*
X11279706Y-14581984D01*
X11279706Y-14581984D02*
X11251134Y-14581984D01*
X11432087Y-14581984D02*
X11413039Y-14572460D01*
X11413039Y-14572460D02*
X11403515Y-14553412D01*
X11403515Y-14553412D02*
X11403515Y-14381984D01*
X11584468Y-14572460D02*
X11565420Y-14581984D01*
X11565420Y-14581984D02*
X11527325Y-14581984D01*
X11527325Y-14581984D02*
X11508277Y-14572460D01*
X11508277Y-14572460D02*
X11498753Y-14553412D01*
X11498753Y-14553412D02*
X11498753Y-14477222D01*
X11498753Y-14477222D02*
X11508277Y-14458174D01*
X11508277Y-14458174D02*
X11527325Y-14448650D01*
X11527325Y-14448650D02*
X11565420Y-14448650D01*
X11565420Y-14448650D02*
X11584468Y-14458174D01*
X11584468Y-14458174D02*
X11593991Y-14477222D01*
X11593991Y-14477222D02*
X11593991Y-14496269D01*
X11593991Y-14496269D02*
X11498753Y-14515317D01*
X11670182Y-14572460D02*
X11689230Y-14581984D01*
X11689230Y-14581984D02*
X11727325Y-14581984D01*
X11727325Y-14581984D02*
X11746372Y-14572460D01*
X11746372Y-14572460D02*
X11755896Y-14553412D01*
X11755896Y-14553412D02*
X11755896Y-14543888D01*
X11755896Y-14543888D02*
X11746372Y-14524841D01*
X11746372Y-14524841D02*
X11727325Y-14515317D01*
X11727325Y-14515317D02*
X11698753Y-14515317D01*
X11698753Y-14515317D02*
X11679706Y-14505793D01*
X11679706Y-14505793D02*
X11670182Y-14486746D01*
X11670182Y-14486746D02*
X11670182Y-14477222D01*
X11670182Y-14477222D02*
X11679706Y-14458174D01*
X11679706Y-14458174D02*
X11698753Y-14448650D01*
X11698753Y-14448650D02*
X11727325Y-14448650D01*
X11727325Y-14448650D02*
X11746372Y-14458174D01*
X11822563Y-14658174D02*
X11832087Y-14648650D01*
X11832087Y-14648650D02*
X11851134Y-14620079D01*
X11851134Y-14620079D02*
X11860658Y-14601031D01*
X11860658Y-14601031D02*
X11870182Y-14572460D01*
X11870182Y-14572460D02*
X11879706Y-14524841D01*
X11879706Y-14524841D02*
X11879706Y-14486746D01*
X11879706Y-14486746D02*
X11870182Y-14439127D01*
X11870182Y-14439127D02*
X11860658Y-14410555D01*
X11860658Y-14410555D02*
X11851134Y-14391508D01*
X11851134Y-14391508D02*
X11832087Y-14362936D01*
X11832087Y-14362936D02*
X11822563Y-14353412D01*
X6847500Y-14710500D02*
X7047500Y-14910500D01*
X7047500Y-14710500D02*
X6847500Y-14910500D01*
X6947500Y-14910500D02*
X7047500Y-14810500D01*
X6947500Y-14710500D01*
X6847500Y-14810500D01*
X6947500Y-14910500D01*
X7289229Y-14701984D02*
X7413039Y-14701984D01*
X7413039Y-14701984D02*
X7346372Y-14778174D01*
X7346372Y-14778174D02*
X7374943Y-14778174D01*
X7374943Y-14778174D02*
X7393991Y-14787698D01*
X7393991Y-14787698D02*
X7403515Y-14797222D01*
X7403515Y-14797222D02*
X7413039Y-14816269D01*
X7413039Y-14816269D02*
X7413039Y-14863888D01*
X7413039Y-14863888D02*
X7403515Y-14882936D01*
X7403515Y-14882936D02*
X7393991Y-14892460D01*
X7393991Y-14892460D02*
X7374943Y-14901984D01*
X7374943Y-14901984D02*
X7317801Y-14901984D01*
X7317801Y-14901984D02*
X7298753Y-14892460D01*
X7298753Y-14892460D02*
X7289229Y-14882936D01*
X7498753Y-14882936D02*
X7508277Y-14892460D01*
X7508277Y-14892460D02*
X7498753Y-14901984D01*
X7498753Y-14901984D02*
X7489229Y-14892460D01*
X7489229Y-14892460D02*
X7498753Y-14882936D01*
X7498753Y-14882936D02*
X7498753Y-14901984D01*
X7584467Y-14721031D02*
X7593991Y-14711508D01*
X7593991Y-14711508D02*
X7613039Y-14701984D01*
X7613039Y-14701984D02*
X7660658Y-14701984D01*
X7660658Y-14701984D02*
X7679705Y-14711508D01*
X7679705Y-14711508D02*
X7689229Y-14721031D01*
X7689229Y-14721031D02*
X7698753Y-14740079D01*
X7698753Y-14740079D02*
X7698753Y-14759127D01*
X7698753Y-14759127D02*
X7689229Y-14787698D01*
X7689229Y-14787698D02*
X7574943Y-14901984D01*
X7574943Y-14901984D02*
X7698753Y-14901984D01*
X7822562Y-14701984D02*
X7841610Y-14701984D01*
X7841610Y-14701984D02*
X7860658Y-14711508D01*
X7860658Y-14711508D02*
X7870182Y-14721031D01*
X7870182Y-14721031D02*
X7879705Y-14740079D01*
X7879705Y-14740079D02*
X7889229Y-14778174D01*
X7889229Y-14778174D02*
X7889229Y-14825793D01*
X7889229Y-14825793D02*
X7879705Y-14863888D01*
X7879705Y-14863888D02*
X7870182Y-14882936D01*
X7870182Y-14882936D02*
X7860658Y-14892460D01*
X7860658Y-14892460D02*
X7841610Y-14901984D01*
X7841610Y-14901984D02*
X7822562Y-14901984D01*
X7822562Y-14901984D02*
X7803515Y-14892460D01*
X7803515Y-14892460D02*
X7793991Y-14882936D01*
X7793991Y-14882936D02*
X7784467Y-14863888D01*
X7784467Y-14863888D02*
X7774943Y-14825793D01*
X7774943Y-14825793D02*
X7774943Y-14778174D01*
X7774943Y-14778174D02*
X7784467Y-14740079D01*
X7784467Y-14740079D02*
X7793991Y-14721031D01*
X7793991Y-14721031D02*
X7803515Y-14711508D01*
X7803515Y-14711508D02*
X7822562Y-14701984D01*
X8013039Y-14701984D02*
X8032086Y-14701984D01*
X8032086Y-14701984D02*
X8051134Y-14711508D01*
X8051134Y-14711508D02*
X8060658Y-14721031D01*
X8060658Y-14721031D02*
X8070182Y-14740079D01*
X8070182Y-14740079D02*
X8079705Y-14778174D01*
X8079705Y-14778174D02*
X8079705Y-14825793D01*
X8079705Y-14825793D02*
X8070182Y-14863888D01*
X8070182Y-14863888D02*
X8060658Y-14882936D01*
X8060658Y-14882936D02*
X8051134Y-14892460D01*
X8051134Y-14892460D02*
X8032086Y-14901984D01*
X8032086Y-14901984D02*
X8013039Y-14901984D01*
X8013039Y-14901984D02*
X7993991Y-14892460D01*
X7993991Y-14892460D02*
X7984467Y-14882936D01*
X7984467Y-14882936D02*
X7974943Y-14863888D01*
X7974943Y-14863888D02*
X7965420Y-14825793D01*
X7965420Y-14825793D02*
X7965420Y-14778174D01*
X7965420Y-14778174D02*
X7974943Y-14740079D01*
X7974943Y-14740079D02*
X7984467Y-14721031D01*
X7984467Y-14721031D02*
X7993991Y-14711508D01*
X7993991Y-14711508D02*
X8013039Y-14701984D01*
X8165420Y-14901984D02*
X8165420Y-14768650D01*
X8165420Y-14787698D02*
X8174943Y-14778174D01*
X8174943Y-14778174D02*
X8193991Y-14768650D01*
X8193991Y-14768650D02*
X8222563Y-14768650D01*
X8222563Y-14768650D02*
X8241610Y-14778174D01*
X8241610Y-14778174D02*
X8251134Y-14797222D01*
X8251134Y-14797222D02*
X8251134Y-14901984D01*
X8251134Y-14797222D02*
X8260658Y-14778174D01*
X8260658Y-14778174D02*
X8279705Y-14768650D01*
X8279705Y-14768650D02*
X8308277Y-14768650D01*
X8308277Y-14768650D02*
X8327324Y-14778174D01*
X8327324Y-14778174D02*
X8336848Y-14797222D01*
X8336848Y-14797222D02*
X8336848Y-14901984D01*
X8432086Y-14901984D02*
X8432086Y-14768650D01*
X8432086Y-14787698D02*
X8441610Y-14778174D01*
X8441610Y-14778174D02*
X8460658Y-14768650D01*
X8460658Y-14768650D02*
X8489229Y-14768650D01*
X8489229Y-14768650D02*
X8508277Y-14778174D01*
X8508277Y-14778174D02*
X8517801Y-14797222D01*
X8517801Y-14797222D02*
X8517801Y-14901984D01*
X8517801Y-14797222D02*
X8527325Y-14778174D01*
X8527325Y-14778174D02*
X8546372Y-14768650D01*
X8546372Y-14768650D02*
X8574944Y-14768650D01*
X8574944Y-14768650D02*
X8593991Y-14778174D01*
X8593991Y-14778174D02*
X8603515Y-14797222D01*
X8603515Y-14797222D02*
X8603515Y-14901984D01*
X8993991Y-14692460D02*
X8822563Y-14949603D01*
X9251134Y-14701984D02*
X9270182Y-14701984D01*
X9270182Y-14701984D02*
X9289229Y-14711508D01*
X9289229Y-14711508D02*
X9298753Y-14721031D01*
X9298753Y-14721031D02*
X9308277Y-14740079D01*
X9308277Y-14740079D02*
X9317801Y-14778174D01*
X9317801Y-14778174D02*
X9317801Y-14825793D01*
X9317801Y-14825793D02*
X9308277Y-14863888D01*
X9308277Y-14863888D02*
X9298753Y-14882936D01*
X9298753Y-14882936D02*
X9289229Y-14892460D01*
X9289229Y-14892460D02*
X9270182Y-14901984D01*
X9270182Y-14901984D02*
X9251134Y-14901984D01*
X9251134Y-14901984D02*
X9232087Y-14892460D01*
X9232087Y-14892460D02*
X9222563Y-14882936D01*
X9222563Y-14882936D02*
X9213039Y-14863888D01*
X9213039Y-14863888D02*
X9203515Y-14825793D01*
X9203515Y-14825793D02*
X9203515Y-14778174D01*
X9203515Y-14778174D02*
X9213039Y-14740079D01*
X9213039Y-14740079D02*
X9222563Y-14721031D01*
X9222563Y-14721031D02*
X9232087Y-14711508D01*
X9232087Y-14711508D02*
X9251134Y-14701984D01*
X9403515Y-14882936D02*
X9413039Y-14892460D01*
X9413039Y-14892460D02*
X9403515Y-14901984D01*
X9403515Y-14901984D02*
X9393991Y-14892460D01*
X9393991Y-14892460D02*
X9403515Y-14882936D01*
X9403515Y-14882936D02*
X9403515Y-14901984D01*
X9603515Y-14901984D02*
X9489229Y-14901984D01*
X9546372Y-14901984D02*
X9546372Y-14701984D01*
X9546372Y-14701984D02*
X9527325Y-14730555D01*
X9527325Y-14730555D02*
X9508277Y-14749603D01*
X9508277Y-14749603D02*
X9489229Y-14759127D01*
X9679706Y-14721031D02*
X9689229Y-14711508D01*
X9689229Y-14711508D02*
X9708277Y-14701984D01*
X9708277Y-14701984D02*
X9755896Y-14701984D01*
X9755896Y-14701984D02*
X9774944Y-14711508D01*
X9774944Y-14711508D02*
X9784468Y-14721031D01*
X9784468Y-14721031D02*
X9793991Y-14740079D01*
X9793991Y-14740079D02*
X9793991Y-14759127D01*
X9793991Y-14759127D02*
X9784468Y-14787698D01*
X9784468Y-14787698D02*
X9670182Y-14901984D01*
X9670182Y-14901984D02*
X9793991Y-14901984D01*
X9965420Y-14701984D02*
X9927325Y-14701984D01*
X9927325Y-14701984D02*
X9908277Y-14711508D01*
X9908277Y-14711508D02*
X9898753Y-14721031D01*
X9898753Y-14721031D02*
X9879706Y-14749603D01*
X9879706Y-14749603D02*
X9870182Y-14787698D01*
X9870182Y-14787698D02*
X9870182Y-14863888D01*
X9870182Y-14863888D02*
X9879706Y-14882936D01*
X9879706Y-14882936D02*
X9889229Y-14892460D01*
X9889229Y-14892460D02*
X9908277Y-14901984D01*
X9908277Y-14901984D02*
X9946372Y-14901984D01*
X9946372Y-14901984D02*
X9965420Y-14892460D01*
X9965420Y-14892460D02*
X9974944Y-14882936D01*
X9974944Y-14882936D02*
X9984468Y-14863888D01*
X9984468Y-14863888D02*
X9984468Y-14816269D01*
X9984468Y-14816269D02*
X9974944Y-14797222D01*
X9974944Y-14797222D02*
X9965420Y-14787698D01*
X9965420Y-14787698D02*
X9946372Y-14778174D01*
X9946372Y-14778174D02*
X9908277Y-14778174D01*
X9908277Y-14778174D02*
X9889229Y-14787698D01*
X9889229Y-14787698D02*
X9879706Y-14797222D01*
X9879706Y-14797222D02*
X9870182Y-14816269D01*
X10108277Y-14701984D02*
X10127325Y-14701984D01*
X10127325Y-14701984D02*
X10146372Y-14711508D01*
X10146372Y-14711508D02*
X10155896Y-14721031D01*
X10155896Y-14721031D02*
X10165420Y-14740079D01*
X10165420Y-14740079D02*
X10174944Y-14778174D01*
X10174944Y-14778174D02*
X10174944Y-14825793D01*
X10174944Y-14825793D02*
X10165420Y-14863888D01*
X10165420Y-14863888D02*
X10155896Y-14882936D01*
X10155896Y-14882936D02*
X10146372Y-14892460D01*
X10146372Y-14892460D02*
X10127325Y-14901984D01*
X10127325Y-14901984D02*
X10108277Y-14901984D01*
X10108277Y-14901984D02*
X10089229Y-14892460D01*
X10089229Y-14892460D02*
X10079706Y-14882936D01*
X10079706Y-14882936D02*
X10070182Y-14863888D01*
X10070182Y-14863888D02*
X10060658Y-14825793D01*
X10060658Y-14825793D02*
X10060658Y-14778174D01*
X10060658Y-14778174D02*
X10070182Y-14740079D01*
X10070182Y-14740079D02*
X10079706Y-14721031D01*
X10079706Y-14721031D02*
X10089229Y-14711508D01*
X10089229Y-14711508D02*
X10108277Y-14701984D01*
X10251134Y-14701984D02*
X10251134Y-14740079D01*
X10327325Y-14701984D02*
X10327325Y-14740079D01*
X10622563Y-14978174D02*
X10613039Y-14968650D01*
X10613039Y-14968650D02*
X10593991Y-14940079D01*
X10593991Y-14940079D02*
X10584468Y-14921031D01*
X10584468Y-14921031D02*
X10574944Y-14892460D01*
X10574944Y-14892460D02*
X10565420Y-14844841D01*
X10565420Y-14844841D02*
X10565420Y-14806746D01*
X10565420Y-14806746D02*
X10574944Y-14759127D01*
X10574944Y-14759127D02*
X10584468Y-14730555D01*
X10584468Y-14730555D02*
X10593991Y-14711508D01*
X10593991Y-14711508D02*
X10613039Y-14682936D01*
X10613039Y-14682936D02*
X10622563Y-14673412D01*
X10803515Y-14901984D02*
X10689230Y-14901984D01*
X10746372Y-14901984D02*
X10746372Y-14701984D01*
X10746372Y-14701984D02*
X10727325Y-14730555D01*
X10727325Y-14730555D02*
X10708277Y-14749603D01*
X10708277Y-14749603D02*
X10689230Y-14759127D01*
X11041611Y-14901984D02*
X11041611Y-14701984D01*
X11127325Y-14901984D02*
X11127325Y-14797222D01*
X11127325Y-14797222D02*
X11117801Y-14778174D01*
X11117801Y-14778174D02*
X11098753Y-14768650D01*
X11098753Y-14768650D02*
X11070182Y-14768650D01*
X11070182Y-14768650D02*
X11051134Y-14778174D01*
X11051134Y-14778174D02*
X11041611Y-14787698D01*
X11251134Y-14901984D02*
X11232087Y-14892460D01*
X11232087Y-14892460D02*
X11222563Y-14882936D01*
X11222563Y-14882936D02*
X11213039Y-14863888D01*
X11213039Y-14863888D02*
X11213039Y-14806746D01*
X11213039Y-14806746D02*
X11222563Y-14787698D01*
X11222563Y-14787698D02*
X11232087Y-14778174D01*
X11232087Y-14778174D02*
X11251134Y-14768650D01*
X11251134Y-14768650D02*
X11279706Y-14768650D01*
X11279706Y-14768650D02*
X11298753Y-14778174D01*
X11298753Y-14778174D02*
X11308277Y-14787698D01*
X11308277Y-14787698D02*
X11317801Y-14806746D01*
X11317801Y-14806746D02*
X11317801Y-14863888D01*
X11317801Y-14863888D02*
X11308277Y-14882936D01*
X11308277Y-14882936D02*
X11298753Y-14892460D01*
X11298753Y-14892460D02*
X11279706Y-14901984D01*
X11279706Y-14901984D02*
X11251134Y-14901984D01*
X11432087Y-14901984D02*
X11413039Y-14892460D01*
X11413039Y-14892460D02*
X11403515Y-14873412D01*
X11403515Y-14873412D02*
X11403515Y-14701984D01*
X11584468Y-14892460D02*
X11565420Y-14901984D01*
X11565420Y-14901984D02*
X11527325Y-14901984D01*
X11527325Y-14901984D02*
X11508277Y-14892460D01*
X11508277Y-14892460D02*
X11498753Y-14873412D01*
X11498753Y-14873412D02*
X11498753Y-14797222D01*
X11498753Y-14797222D02*
X11508277Y-14778174D01*
X11508277Y-14778174D02*
X11527325Y-14768650D01*
X11527325Y-14768650D02*
X11565420Y-14768650D01*
X11565420Y-14768650D02*
X11584468Y-14778174D01*
X11584468Y-14778174D02*
X11593991Y-14797222D01*
X11593991Y-14797222D02*
X11593991Y-14816269D01*
X11593991Y-14816269D02*
X11498753Y-14835317D01*
X11660658Y-14978174D02*
X11670182Y-14968650D01*
X11670182Y-14968650D02*
X11689230Y-14940079D01*
X11689230Y-14940079D02*
X11698753Y-14921031D01*
X11698753Y-14921031D02*
X11708277Y-14892460D01*
X11708277Y-14892460D02*
X11717801Y-14844841D01*
X11717801Y-14844841D02*
X11717801Y-14806746D01*
X11717801Y-14806746D02*
X11708277Y-14759127D01*
X11708277Y-14759127D02*
X11698753Y-14730555D01*
X11698753Y-14730555D02*
X11689230Y-14711508D01*
X11689230Y-14711508D02*
X11670182Y-14682936D01*
X11670182Y-14682936D02*
X11660658Y-14673412D01*
M02*
