M48
; DRILL file {KiCad 8.0.8} date 2025-01-23T19:06:38+0100
; FORMAT={-:-/ absolute / inch / decimal}
; #@! TF.CreationDate,2025-01-23T19:06:38+01:00
; #@! TF.GenerationSoftware,Kicad,Pcbnew,8.0.8
; #@! TF.FileFunction,Plated,1,2,PTH
FMAT,2
INCH
; #@! TA.AperFunction,Plated,PTH,ViaDrill
T1C0.0118
; #@! TA.AperFunction,Plated,PTH,ComponentDrill
T2C0.0197
; #@! TA.AperFunction,Plated,PTH,ComponentDrill
T3C0.0295
; #@! TA.AperFunction,Plated,PTH,ComponentDrill
T4C0.0315
; #@! TA.AperFunction,Plated,PTH,ComponentDrill
T5C0.0394
; #@! TA.AperFunction,Plated,PTH,ComponentDrill
T6C0.0433
; #@! TA.AperFunction,Plated,PTH,ComponentDrill
T7C0.0472
; #@! TA.AperFunction,Plated,PTH,ComponentDrill
T8C0.0945
; #@! TA.AperFunction,Plated,PTH,ComponentDrill
T9C0.1260
%
G90
G05
T1
X3.1693Y-1.5748
X3.1693Y-1.9488
X3.189Y-3.3268
X3.2972Y-3.1693
X3.3459Y-3.2349
X3.3465Y-3.2697
X3.3858Y-2.0276
X3.3858Y-3.4252
X3.3858Y-3.5433
X3.3858Y-3.5827
X3.4154Y-3.3957
X3.4449Y-1.3386
X3.4646Y-3.8189
X3.4803Y-3.2126
X3.5039Y-1.7126
X3.5039Y-3.3071
X3.5433Y-3.4055
X3.5433Y-4.0157
X3.5472Y-2.8937
X3.622Y-3.4843
X3.6811Y-2.2638
X3.7598Y-3.5039
X3.7598Y-3.9567
X3.8386Y-2.0276
X3.8583Y-1.4173
X3.878Y-1.6142
X4.1339Y-3.8583
X4.1535Y-2.6378
X4.1732Y-1.5157
X4.2126Y-1.4567
X4.2126Y-1.6279
X4.2126Y-3.248
X4.2913Y-1.4567
X4.3307Y-3.0906
X4.3504Y-1.4567
X4.3504Y-1.9094
X4.3504Y-3.189
X4.3701Y-2.5
X4.3898Y-3.5039
X4.4291Y-2.9528
X4.4685Y-2.4803
X4.4685Y-3.2874
X4.5472Y-3.9567
X4.5669Y-3.4252
X4.5669Y-3.8189
X4.5866Y-3.2874
X4.6427Y-3.4646
X4.6654Y-2.2244
X4.6654Y-2.6181
X4.7244Y-3.563
X4.7441Y-2.5197
X4.7441Y-4.311
X4.7638Y-2.7559
X4.7638Y-3.3661
X5.0787Y-1.4567
X5.0787Y-1.6732
X5.1575Y-1.122
X5.1575Y-1.5157
X5.1969Y-1.7126
X5.2559Y-2.2638
X5.2756Y-2.8937
X5.2953Y-1.5354
X5.3543Y-1.4173
X5.3937Y-3.2677
X5.4331Y-1.5157
X5.5315Y-1.5945
T2
X5.5551Y-4.4882
X5.5828Y-4.4214
X5.5828Y-4.555
X5.6496Y-4.3937
X5.6496Y-4.5827
X5.7164Y-4.4214
X5.7164Y-4.555
X5.7441Y-4.4882
T3
X4.5069Y-3.0899
X4.5569Y-3.0899
X4.6069Y-3.0899
T4
X3.347Y-1.2167
X3.347Y-1.5167
X3.3502Y-1.878
X3.3502Y-2.178
X3.447Y-1.2167
X3.447Y-1.5167
X3.4502Y-1.878
X3.4502Y-2.178
X3.547Y-1.2167
X3.547Y-1.5167
X3.5502Y-1.878
X3.5502Y-2.178
X3.647Y-1.2167
X3.647Y-1.5167
X3.6502Y-1.878
X3.6502Y-2.178
X3.747Y-1.2167
X3.747Y-1.5167
X3.7502Y-1.878
X3.7502Y-2.178
X3.847Y-1.2167
X3.847Y-1.5167
X3.8502Y-1.878
X3.8502Y-2.178
X3.947Y-1.2167
X3.947Y-1.5167
X3.9502Y-1.878
X3.9502Y-2.178
X4.047Y-1.2167
X4.047Y-1.5167
X4.0502Y-1.878
X4.0502Y-2.178
X4.4685Y-4.1142
X4.4685Y-4.2126
X4.4685Y-4.311
X4.5639Y-1.2701
X4.5639Y-1.8701
X4.5945Y-4.1142
X4.5945Y-4.2126
X4.5945Y-4.311
X4.6639Y-1.2701
X4.6639Y-1.8701
X4.7639Y-1.2701
X4.7639Y-1.8701
X4.8639Y-1.2701
X4.8639Y-1.8701
X4.9639Y-1.2701
X4.9639Y-1.8701
X5.1316Y-1.2701
X5.1316Y-1.8701
X5.2316Y-1.2701
X5.2316Y-1.8701
X5.3316Y-1.2701
X5.3316Y-1.8701
X5.4316Y-1.2701
X5.4316Y-1.8701
X5.5316Y-1.2701
X5.5316Y-1.8701
T5
X4.4974Y-3.5215
X4.4974Y-3.6215
X4.4974Y-3.7215
X4.5974Y-3.5215
X4.5974Y-3.6215
X4.5974Y-3.7215
X5.0575Y-3.2677
X5.1575Y-3.2677
X5.2575Y-3.2677
T6
X4.5276Y-2.126
X4.5276Y-2.3031
X4.7835Y-2.126
X4.7835Y-2.3031
T7
X5.0098Y-2.2047
X5.0098Y-2.4016
X5.0098Y-2.7953
X5.0098Y-2.9921
X5.502Y-2.2047
X5.502Y-2.4016
X5.502Y-2.7953
X5.502Y-2.9921
T8
X3.563Y-4.311
X4.063Y-4.311
T9
X5.6496Y-4.4882
M30
