%TF.GenerationSoftware,KiCad,Pcbnew,8.0.8*%
%TF.CreationDate,2025-01-23T19:06:30+01:00*%
%TF.ProjectId,Digitaler_Wuerfel,44696769-7461-46c6-9572-5f5775657266,rev?*%
%TF.SameCoordinates,Original*%
%TF.FileFunction,Paste,Top*%
%TF.FilePolarity,Positive*%
%FSLAX46Y46*%
G04 Gerber Fmt 4.6, Leading zero omitted, Abs format (unit mm)*
G04 Created by KiCad (PCBNEW 8.0.8) date 2025-01-23 19:06:30*
%MOMM*%
%LPD*%
G01*
G04 APERTURE LIST*
G04 Aperture macros list*
%AMRoundRect*
0 Rectangle with rounded corners*
0 $1 Rounding radius*
0 $2 $3 $4 $5 $6 $7 $8 $9 X,Y pos of 4 corners*
0 Add a 4 corners polygon primitive as box body*
4,1,4,$2,$3,$4,$5,$6,$7,$8,$9,$2,$3,0*
0 Add four circle primitives for the rounded corners*
1,1,$1+$1,$2,$3*
1,1,$1+$1,$4,$5*
1,1,$1+$1,$6,$7*
1,1,$1+$1,$8,$9*
0 Add four rect primitives between the rounded corners*
20,1,$1+$1,$2,$3,$4,$5,0*
20,1,$1+$1,$4,$5,$6,$7,0*
20,1,$1+$1,$6,$7,$8,$9,0*
20,1,$1+$1,$8,$9,$2,$3,0*%
G04 Aperture macros list end*
%ADD10RoundRect,0.250000X0.475000X-0.337500X0.475000X0.337500X-0.475000X0.337500X-0.475000X-0.337500X0*%
%ADD11RoundRect,0.250000X-0.337500X-0.475000X0.337500X-0.475000X0.337500X0.475000X-0.337500X0.475000X0*%
%ADD12RoundRect,0.250000X-0.350000X-0.450000X0.350000X-0.450000X0.350000X0.450000X-0.350000X0.450000X0*%
%ADD13RoundRect,0.250001X-0.499999X-0.924999X0.499999X-0.924999X0.499999X0.924999X-0.499999X0.924999X0*%
%ADD14R,0.550000X1.600000*%
%ADD15R,1.600000X0.550000*%
%ADD16RoundRect,0.250000X0.450000X-0.350000X0.450000X0.350000X-0.450000X0.350000X-0.450000X-0.350000X0*%
%ADD17RoundRect,0.250000X0.337500X0.475000X-0.337500X0.475000X-0.337500X-0.475000X0.337500X-0.475000X0*%
%ADD18RoundRect,0.250000X-0.450000X0.350000X-0.450000X-0.350000X0.450000X-0.350000X0.450000X0.350000X0*%
%ADD19RoundRect,0.150000X0.150000X-0.512500X0.150000X0.512500X-0.150000X0.512500X-0.150000X-0.512500X0*%
%ADD20RoundRect,0.250000X-0.475000X0.337500X-0.475000X-0.337500X0.475000X-0.337500X0.475000X0.337500X0*%
%ADD21R,1.320800X0.889000*%
%ADD22R,1.320800X0.508000*%
%ADD23RoundRect,0.250000X-0.250000X-0.250000X0.250000X-0.250000X0.250000X0.250000X-0.250000X0.250000X0*%
G04 APERTURE END LIST*
D10*
%TO.C,C10*%
X89000000Y-78000000D03*
X89000000Y-75925000D03*
%TD*%
D11*
%TO.C,C9*%
X87925000Y-91500000D03*
X90000000Y-91500000D03*
%TD*%
D12*
%TO.C,R1*%
X112516000Y-81984000D03*
X114516000Y-81984000D03*
%TD*%
D13*
%TO.C,C8*%
X93750000Y-99000000D03*
X97000000Y-99000000D03*
%TD*%
D14*
%TO.C,U5*%
X90800000Y-80000000D03*
X90000000Y-80000000D03*
X89200000Y-80000000D03*
X88400000Y-80000000D03*
X87600000Y-80000000D03*
X86800000Y-80000000D03*
X86000000Y-80000000D03*
X85200000Y-80000000D03*
D15*
X83750000Y-81450000D03*
X83750000Y-82250000D03*
X83750000Y-83050000D03*
X83750000Y-83850000D03*
X83750000Y-84650000D03*
X83750000Y-85450000D03*
X83750000Y-86250000D03*
X83750000Y-87050000D03*
D14*
X85200000Y-88500000D03*
X86000000Y-88500000D03*
X86800000Y-88500000D03*
X87600000Y-88500000D03*
X88400000Y-88500000D03*
X89200000Y-88500000D03*
X90000000Y-88500000D03*
X90800000Y-88500000D03*
D15*
X92250000Y-87050000D03*
X92250000Y-86250000D03*
X92250000Y-85450000D03*
X92250000Y-84650000D03*
X92250000Y-83850000D03*
X92250000Y-83050000D03*
X92250000Y-82250000D03*
X92250000Y-81450000D03*
%TD*%
D16*
%TO.C,R2*%
X122500000Y-64000000D03*
X122500000Y-62000000D03*
%TD*%
%TO.C,R5*%
X108016000Y-79484000D03*
X108016000Y-77484000D03*
%TD*%
D17*
%TO.C,C7*%
X101575000Y-99000000D03*
X99500000Y-99000000D03*
%TD*%
%TO.C,C2*%
X113053500Y-64984000D03*
X110978500Y-64984000D03*
%TD*%
D16*
%TO.C,R3*%
X122500000Y-79000000D03*
X122500000Y-77000000D03*
%TD*%
D17*
%TO.C,C6*%
X96000000Y-107000000D03*
X93925000Y-107000000D03*
%TD*%
D10*
%TO.C,C1*%
X114516000Y-74559000D03*
X114516000Y-72484000D03*
%TD*%
D18*
%TO.C,R6*%
X111516000Y-77484000D03*
X111516000Y-79484000D03*
%TD*%
D17*
%TO.C,C4*%
X103135000Y-57820000D03*
X101060000Y-57820000D03*
%TD*%
D19*
%TO.C,U4*%
X94050000Y-104500000D03*
X95000000Y-104500000D03*
X95950000Y-104500000D03*
X95950000Y-102225000D03*
X94050000Y-102225000D03*
%TD*%
D20*
%TO.C,C5*%
X109516000Y-72484000D03*
X109516000Y-74559000D03*
%TD*%
D18*
%TO.C,R4*%
X110500000Y-54000000D03*
X110500000Y-56000000D03*
%TD*%
D21*
%TO.C,U1*%
X114516000Y-69213500D03*
D22*
X114516000Y-67484000D03*
X112484000Y-67483999D03*
X112484000Y-69404001D03*
%TD*%
D17*
%TO.C,C3*%
X103135000Y-40820000D03*
X101060000Y-40820000D03*
%TD*%
D23*
%TO.C,D1*%
X103750000Y-104500000D03*
X106250000Y-104500000D03*
%TD*%
M02*
