%TF.GenerationSoftware,KiCad,Pcbnew,8.0.8*%
%TF.CreationDate,2025-01-23T19:06:30+01:00*%
%TF.ProjectId,Digitaler_Wuerfel,44696769-7461-46c6-9572-5f5775657266,rev?*%
%TF.SameCoordinates,Original*%
%TF.FileFunction,Legend,Top*%
%TF.FilePolarity,Positive*%
%FSLAX46Y46*%
G04 Gerber Fmt 4.6, Leading zero omitted, Abs format (unit mm)*
G04 Created by KiCad (PCBNEW 8.0.8) date 2025-01-23 19:06:30*
%MOMM*%
%LPD*%
G01*
G04 APERTURE LIST*
%ADD10C,0.150000*%
%ADD11C,0.100000*%
%ADD12C,0.120000*%
%ADD13C,0.010000*%
%ADD14C,0.152400*%
G04 APERTURE END LIST*
D10*
X89809523Y-95954819D02*
X89333333Y-95954819D01*
X89333333Y-95954819D02*
X89285714Y-96431009D01*
X89285714Y-96431009D02*
X89333333Y-96383390D01*
X89333333Y-96383390D02*
X89428571Y-96335771D01*
X89428571Y-96335771D02*
X89666666Y-96335771D01*
X89666666Y-96335771D02*
X89761904Y-96383390D01*
X89761904Y-96383390D02*
X89809523Y-96431009D01*
X89809523Y-96431009D02*
X89857142Y-96526247D01*
X89857142Y-96526247D02*
X89857142Y-96764342D01*
X89857142Y-96764342D02*
X89809523Y-96859580D01*
X89809523Y-96859580D02*
X89761904Y-96907200D01*
X89761904Y-96907200D02*
X89666666Y-96954819D01*
X89666666Y-96954819D02*
X89428571Y-96954819D01*
X89428571Y-96954819D02*
X89333333Y-96907200D01*
X89333333Y-96907200D02*
X89285714Y-96859580D01*
X90142857Y-95954819D02*
X90476190Y-96954819D01*
X90476190Y-96954819D02*
X90809523Y-95954819D01*
X88238095Y-102502438D02*
X88142857Y-102454819D01*
X88142857Y-102454819D02*
X88000000Y-102454819D01*
X88000000Y-102454819D02*
X87857143Y-102502438D01*
X87857143Y-102502438D02*
X87761905Y-102597676D01*
X87761905Y-102597676D02*
X87714286Y-102692914D01*
X87714286Y-102692914D02*
X87666667Y-102883390D01*
X87666667Y-102883390D02*
X87666667Y-103026247D01*
X87666667Y-103026247D02*
X87714286Y-103216723D01*
X87714286Y-103216723D02*
X87761905Y-103311961D01*
X87761905Y-103311961D02*
X87857143Y-103407200D01*
X87857143Y-103407200D02*
X88000000Y-103454819D01*
X88000000Y-103454819D02*
X88095238Y-103454819D01*
X88095238Y-103454819D02*
X88238095Y-103407200D01*
X88238095Y-103407200D02*
X88285714Y-103359580D01*
X88285714Y-103359580D02*
X88285714Y-103026247D01*
X88285714Y-103026247D02*
X88095238Y-103026247D01*
X88714286Y-103454819D02*
X88714286Y-102454819D01*
X88714286Y-102454819D02*
X89285714Y-103454819D01*
X89285714Y-103454819D02*
X89285714Y-102454819D01*
X89761905Y-103454819D02*
X89761905Y-102454819D01*
X89761905Y-102454819D02*
X90000000Y-102454819D01*
X90000000Y-102454819D02*
X90142857Y-102502438D01*
X90142857Y-102502438D02*
X90238095Y-102597676D01*
X90238095Y-102597676D02*
X90285714Y-102692914D01*
X90285714Y-102692914D02*
X90333333Y-102883390D01*
X90333333Y-102883390D02*
X90333333Y-103026247D01*
X90333333Y-103026247D02*
X90285714Y-103216723D01*
X90285714Y-103216723D02*
X90238095Y-103311961D01*
X90238095Y-103311961D02*
X90142857Y-103407200D01*
X90142857Y-103407200D02*
X90000000Y-103454819D01*
X90000000Y-103454819D02*
X89761905Y-103454819D01*
X99428571Y-86431009D02*
X99761904Y-86431009D01*
X99904761Y-86954819D02*
X99428571Y-86954819D01*
X99428571Y-86954819D02*
X99428571Y-85954819D01*
X99428571Y-85954819D02*
X99904761Y-85954819D01*
X100333333Y-86954819D02*
X100333333Y-85954819D01*
X100333333Y-85954819D02*
X100904761Y-86954819D01*
X100904761Y-86954819D02*
X100904761Y-85954819D01*
X101142857Y-87050057D02*
X101904761Y-87050057D01*
X102714285Y-86954819D02*
X102380952Y-86478628D01*
X102142857Y-86954819D02*
X102142857Y-85954819D01*
X102142857Y-85954819D02*
X102523809Y-85954819D01*
X102523809Y-85954819D02*
X102619047Y-86002438D01*
X102619047Y-86002438D02*
X102666666Y-86050057D01*
X102666666Y-86050057D02*
X102714285Y-86145295D01*
X102714285Y-86145295D02*
X102714285Y-86288152D01*
X102714285Y-86288152D02*
X102666666Y-86383390D01*
X102666666Y-86383390D02*
X102619047Y-86431009D01*
X102619047Y-86431009D02*
X102523809Y-86478628D01*
X102523809Y-86478628D02*
X102142857Y-86478628D01*
X103095238Y-86669104D02*
X103571428Y-86669104D01*
X103000000Y-86954819D02*
X103333333Y-85954819D01*
X103333333Y-85954819D02*
X103666666Y-86954819D01*
X104000000Y-86954819D02*
X104000000Y-85954819D01*
X104000000Y-85954819D02*
X104571428Y-86954819D01*
X104571428Y-86954819D02*
X104571428Y-85954819D01*
X105047619Y-86954819D02*
X105047619Y-85954819D01*
X105047619Y-85954819D02*
X105285714Y-85954819D01*
X105285714Y-85954819D02*
X105428571Y-86002438D01*
X105428571Y-86002438D02*
X105523809Y-86097676D01*
X105523809Y-86097676D02*
X105571428Y-86192914D01*
X105571428Y-86192914D02*
X105619047Y-86383390D01*
X105619047Y-86383390D02*
X105619047Y-86526247D01*
X105619047Y-86526247D02*
X105571428Y-86716723D01*
X105571428Y-86716723D02*
X105523809Y-86811961D01*
X105523809Y-86811961D02*
X105428571Y-86907200D01*
X105428571Y-86907200D02*
X105285714Y-86954819D01*
X105285714Y-86954819D02*
X105047619Y-86954819D01*
X129309523Y-66359580D02*
X129261904Y-66407200D01*
X129261904Y-66407200D02*
X129119047Y-66454819D01*
X129119047Y-66454819D02*
X129023809Y-66454819D01*
X129023809Y-66454819D02*
X128880952Y-66407200D01*
X128880952Y-66407200D02*
X128785714Y-66311961D01*
X128785714Y-66311961D02*
X128738095Y-66216723D01*
X128738095Y-66216723D02*
X128690476Y-66026247D01*
X128690476Y-66026247D02*
X128690476Y-65883390D01*
X128690476Y-65883390D02*
X128738095Y-65692914D01*
X128738095Y-65692914D02*
X128785714Y-65597676D01*
X128785714Y-65597676D02*
X128880952Y-65502438D01*
X128880952Y-65502438D02*
X129023809Y-65454819D01*
X129023809Y-65454819D02*
X129119047Y-65454819D01*
X129119047Y-65454819D02*
X129261904Y-65502438D01*
X129261904Y-65502438D02*
X129309523Y-65550057D01*
X129738095Y-66454819D02*
X129738095Y-65454819D01*
X129738095Y-65931009D02*
X130309523Y-65931009D01*
X130309523Y-66454819D02*
X130309523Y-65454819D01*
X130738095Y-66169104D02*
X131214285Y-66169104D01*
X130642857Y-66454819D02*
X130976190Y-65454819D01*
X130976190Y-65454819D02*
X131309523Y-66454819D01*
X131642857Y-66454819D02*
X131642857Y-65454819D01*
X131642857Y-65454819D02*
X132214285Y-66454819D01*
X132214285Y-66454819D02*
X132214285Y-65454819D01*
X133214285Y-65502438D02*
X133119047Y-65454819D01*
X133119047Y-65454819D02*
X132976190Y-65454819D01*
X132976190Y-65454819D02*
X132833333Y-65502438D01*
X132833333Y-65502438D02*
X132738095Y-65597676D01*
X132738095Y-65597676D02*
X132690476Y-65692914D01*
X132690476Y-65692914D02*
X132642857Y-65883390D01*
X132642857Y-65883390D02*
X132642857Y-66026247D01*
X132642857Y-66026247D02*
X132690476Y-66216723D01*
X132690476Y-66216723D02*
X132738095Y-66311961D01*
X132738095Y-66311961D02*
X132833333Y-66407200D01*
X132833333Y-66407200D02*
X132976190Y-66454819D01*
X132976190Y-66454819D02*
X133071428Y-66454819D01*
X133071428Y-66454819D02*
X133214285Y-66407200D01*
X133214285Y-66407200D02*
X133261904Y-66359580D01*
X133261904Y-66359580D02*
X133261904Y-66026247D01*
X133261904Y-66026247D02*
X133071428Y-66026247D01*
X133690476Y-65931009D02*
X134023809Y-65931009D01*
X134166666Y-66454819D02*
X133690476Y-66454819D01*
X133690476Y-66454819D02*
X133690476Y-65454819D01*
X133690476Y-65454819D02*
X134166666Y-65454819D01*
X135357143Y-66454819D02*
X135357143Y-65454819D01*
X135357143Y-65454819D02*
X135595238Y-65454819D01*
X135595238Y-65454819D02*
X135738095Y-65502438D01*
X135738095Y-65502438D02*
X135833333Y-65597676D01*
X135833333Y-65597676D02*
X135880952Y-65692914D01*
X135880952Y-65692914D02*
X135928571Y-65883390D01*
X135928571Y-65883390D02*
X135928571Y-66026247D01*
X135928571Y-66026247D02*
X135880952Y-66216723D01*
X135880952Y-66216723D02*
X135833333Y-66311961D01*
X135833333Y-66311961D02*
X135738095Y-66407200D01*
X135738095Y-66407200D02*
X135595238Y-66454819D01*
X135595238Y-66454819D02*
X135357143Y-66454819D01*
X136357143Y-66454819D02*
X136357143Y-65454819D01*
X137404761Y-66359580D02*
X137357142Y-66407200D01*
X137357142Y-66407200D02*
X137214285Y-66454819D01*
X137214285Y-66454819D02*
X137119047Y-66454819D01*
X137119047Y-66454819D02*
X136976190Y-66407200D01*
X136976190Y-66407200D02*
X136880952Y-66311961D01*
X136880952Y-66311961D02*
X136833333Y-66216723D01*
X136833333Y-66216723D02*
X136785714Y-66026247D01*
X136785714Y-66026247D02*
X136785714Y-65883390D01*
X136785714Y-65883390D02*
X136833333Y-65692914D01*
X136833333Y-65692914D02*
X136880952Y-65597676D01*
X136880952Y-65597676D02*
X136976190Y-65502438D01*
X136976190Y-65502438D02*
X137119047Y-65454819D01*
X137119047Y-65454819D02*
X137214285Y-65454819D01*
X137214285Y-65454819D02*
X137357142Y-65502438D01*
X137357142Y-65502438D02*
X137404761Y-65550057D01*
X137833333Y-65931009D02*
X138166666Y-65931009D01*
X138309523Y-66454819D02*
X137833333Y-66454819D01*
X137833333Y-66454819D02*
X137833333Y-65454819D01*
X137833333Y-65454819D02*
X138309523Y-65454819D01*
X129404761Y-81149847D02*
X128928571Y-81149847D01*
X128928571Y-81149847D02*
X128928571Y-80149847D01*
X129690476Y-80864132D02*
X130166666Y-80864132D01*
X129595238Y-81149847D02*
X129928571Y-80149847D01*
X129928571Y-80149847D02*
X130261904Y-81149847D01*
X130547619Y-81102228D02*
X130690476Y-81149847D01*
X130690476Y-81149847D02*
X130928571Y-81149847D01*
X130928571Y-81149847D02*
X131023809Y-81102228D01*
X131023809Y-81102228D02*
X131071428Y-81054608D01*
X131071428Y-81054608D02*
X131119047Y-80959370D01*
X131119047Y-80959370D02*
X131119047Y-80864132D01*
X131119047Y-80864132D02*
X131071428Y-80768894D01*
X131071428Y-80768894D02*
X131023809Y-80721275D01*
X131023809Y-80721275D02*
X130928571Y-80673656D01*
X130928571Y-80673656D02*
X130738095Y-80626037D01*
X130738095Y-80626037D02*
X130642857Y-80578418D01*
X130642857Y-80578418D02*
X130595238Y-80530799D01*
X130595238Y-80530799D02*
X130547619Y-80435561D01*
X130547619Y-80435561D02*
X130547619Y-80340323D01*
X130547619Y-80340323D02*
X130595238Y-80245085D01*
X130595238Y-80245085D02*
X130642857Y-80197466D01*
X130642857Y-80197466D02*
X130738095Y-80149847D01*
X130738095Y-80149847D02*
X130976190Y-80149847D01*
X130976190Y-80149847D02*
X131119047Y-80197466D01*
X131404762Y-80149847D02*
X131976190Y-80149847D01*
X131690476Y-81149847D02*
X131690476Y-80149847D01*
X133642857Y-81149847D02*
X133309524Y-80673656D01*
X133071429Y-81149847D02*
X133071429Y-80149847D01*
X133071429Y-80149847D02*
X133452381Y-80149847D01*
X133452381Y-80149847D02*
X133547619Y-80197466D01*
X133547619Y-80197466D02*
X133595238Y-80245085D01*
X133595238Y-80245085D02*
X133642857Y-80340323D01*
X133642857Y-80340323D02*
X133642857Y-80483180D01*
X133642857Y-80483180D02*
X133595238Y-80578418D01*
X133595238Y-80578418D02*
X133547619Y-80626037D01*
X133547619Y-80626037D02*
X133452381Y-80673656D01*
X133452381Y-80673656D02*
X133071429Y-80673656D01*
X134071429Y-80626037D02*
X134404762Y-80626037D01*
X134547619Y-81149847D02*
X134071429Y-81149847D01*
X134071429Y-81149847D02*
X134071429Y-80149847D01*
X134071429Y-80149847D02*
X134547619Y-80149847D01*
X134928572Y-81102228D02*
X135071429Y-81149847D01*
X135071429Y-81149847D02*
X135309524Y-81149847D01*
X135309524Y-81149847D02*
X135404762Y-81102228D01*
X135404762Y-81102228D02*
X135452381Y-81054608D01*
X135452381Y-81054608D02*
X135500000Y-80959370D01*
X135500000Y-80959370D02*
X135500000Y-80864132D01*
X135500000Y-80864132D02*
X135452381Y-80768894D01*
X135452381Y-80768894D02*
X135404762Y-80721275D01*
X135404762Y-80721275D02*
X135309524Y-80673656D01*
X135309524Y-80673656D02*
X135119048Y-80626037D01*
X135119048Y-80626037D02*
X135023810Y-80578418D01*
X135023810Y-80578418D02*
X134976191Y-80530799D01*
X134976191Y-80530799D02*
X134928572Y-80435561D01*
X134928572Y-80435561D02*
X134928572Y-80340323D01*
X134928572Y-80340323D02*
X134976191Y-80245085D01*
X134976191Y-80245085D02*
X135023810Y-80197466D01*
X135023810Y-80197466D02*
X135119048Y-80149847D01*
X135119048Y-80149847D02*
X135357143Y-80149847D01*
X135357143Y-80149847D02*
X135500000Y-80197466D01*
X135928572Y-80149847D02*
X135928572Y-80959370D01*
X135928572Y-80959370D02*
X135976191Y-81054608D01*
X135976191Y-81054608D02*
X136023810Y-81102228D01*
X136023810Y-81102228D02*
X136119048Y-81149847D01*
X136119048Y-81149847D02*
X136309524Y-81149847D01*
X136309524Y-81149847D02*
X136404762Y-81102228D01*
X136404762Y-81102228D02*
X136452381Y-81054608D01*
X136452381Y-81054608D02*
X136500000Y-80959370D01*
X136500000Y-80959370D02*
X136500000Y-80149847D01*
X137452381Y-81149847D02*
X136976191Y-81149847D01*
X136976191Y-81149847D02*
X136976191Y-80149847D01*
X137642858Y-80149847D02*
X138214286Y-80149847D01*
X137928572Y-81149847D02*
X137928572Y-80149847D01*
X113642857Y-62454819D02*
X113642857Y-61454819D01*
X114119047Y-62454819D02*
X114119047Y-61454819D01*
X114119047Y-61454819D02*
X114690475Y-62454819D01*
X114690475Y-62454819D02*
X114690475Y-61454819D01*
X115023809Y-61454819D02*
X115595237Y-61454819D01*
X115309523Y-62454819D02*
X115309523Y-61454819D01*
X115928571Y-61931009D02*
X116261904Y-61931009D01*
X116404761Y-62454819D02*
X115928571Y-62454819D01*
X115928571Y-62454819D02*
X115928571Y-61454819D01*
X115928571Y-61454819D02*
X116404761Y-61454819D01*
X117404761Y-62454819D02*
X117071428Y-61978628D01*
X116833333Y-62454819D02*
X116833333Y-61454819D01*
X116833333Y-61454819D02*
X117214285Y-61454819D01*
X117214285Y-61454819D02*
X117309523Y-61502438D01*
X117309523Y-61502438D02*
X117357142Y-61550057D01*
X117357142Y-61550057D02*
X117404761Y-61645295D01*
X117404761Y-61645295D02*
X117404761Y-61788152D01*
X117404761Y-61788152D02*
X117357142Y-61883390D01*
X117357142Y-61883390D02*
X117309523Y-61931009D01*
X117309523Y-61931009D02*
X117214285Y-61978628D01*
X117214285Y-61978628D02*
X116833333Y-61978628D01*
X97428571Y-74931009D02*
X97761904Y-74931009D01*
X97904761Y-75454819D02*
X97428571Y-75454819D01*
X97428571Y-75454819D02*
X97428571Y-74454819D01*
X97428571Y-74454819D02*
X97904761Y-74454819D01*
X98333333Y-75454819D02*
X98333333Y-74454819D01*
X98333333Y-74454819D02*
X98904761Y-75454819D01*
X98904761Y-75454819D02*
X98904761Y-74454819D01*
X99238095Y-74454819D02*
X99809523Y-74454819D01*
X99523809Y-75454819D02*
X99523809Y-74454819D01*
X100714285Y-75454819D02*
X100380952Y-74978628D01*
X100142857Y-75454819D02*
X100142857Y-74454819D01*
X100142857Y-74454819D02*
X100523809Y-74454819D01*
X100523809Y-74454819D02*
X100619047Y-74502438D01*
X100619047Y-74502438D02*
X100666666Y-74550057D01*
X100666666Y-74550057D02*
X100714285Y-74645295D01*
X100714285Y-74645295D02*
X100714285Y-74788152D01*
X100714285Y-74788152D02*
X100666666Y-74883390D01*
X100666666Y-74883390D02*
X100619047Y-74931009D01*
X100619047Y-74931009D02*
X100523809Y-74978628D01*
X100523809Y-74978628D02*
X100142857Y-74978628D01*
X101333333Y-74454819D02*
X101523809Y-74454819D01*
X101523809Y-74454819D02*
X101619047Y-74502438D01*
X101619047Y-74502438D02*
X101714285Y-74597676D01*
X101714285Y-74597676D02*
X101761904Y-74788152D01*
X101761904Y-74788152D02*
X101761904Y-75121485D01*
X101761904Y-75121485D02*
X101714285Y-75311961D01*
X101714285Y-75311961D02*
X101619047Y-75407200D01*
X101619047Y-75407200D02*
X101523809Y-75454819D01*
X101523809Y-75454819D02*
X101333333Y-75454819D01*
X101333333Y-75454819D02*
X101238095Y-75407200D01*
X101238095Y-75407200D02*
X101142857Y-75311961D01*
X101142857Y-75311961D02*
X101095238Y-75121485D01*
X101095238Y-75121485D02*
X101095238Y-74788152D01*
X101095238Y-74788152D02*
X101142857Y-74597676D01*
X101142857Y-74597676D02*
X101238095Y-74502438D01*
X101238095Y-74502438D02*
X101333333Y-74454819D01*
X102190476Y-75454819D02*
X102190476Y-74454819D01*
X102190476Y-74454819D02*
X102571428Y-74454819D01*
X102571428Y-74454819D02*
X102666666Y-74502438D01*
X102666666Y-74502438D02*
X102714285Y-74550057D01*
X102714285Y-74550057D02*
X102761904Y-74645295D01*
X102761904Y-74645295D02*
X102761904Y-74788152D01*
X102761904Y-74788152D02*
X102714285Y-74883390D01*
X102714285Y-74883390D02*
X102666666Y-74931009D01*
X102666666Y-74931009D02*
X102571428Y-74978628D01*
X102571428Y-74978628D02*
X102190476Y-74978628D01*
X103380952Y-74978628D02*
X103380952Y-75454819D01*
X103047619Y-74454819D02*
X103380952Y-74978628D01*
X103380952Y-74978628D02*
X103714285Y-74454819D01*
X120309523Y-73454819D02*
X119976190Y-72978628D01*
X119738095Y-73454819D02*
X119738095Y-72454819D01*
X119738095Y-72454819D02*
X120119047Y-72454819D01*
X120119047Y-72454819D02*
X120214285Y-72502438D01*
X120214285Y-72502438D02*
X120261904Y-72550057D01*
X120261904Y-72550057D02*
X120309523Y-72645295D01*
X120309523Y-72645295D02*
X120309523Y-72788152D01*
X120309523Y-72788152D02*
X120261904Y-72883390D01*
X120261904Y-72883390D02*
X120214285Y-72931009D01*
X120214285Y-72931009D02*
X120119047Y-72978628D01*
X120119047Y-72978628D02*
X119738095Y-72978628D01*
X120690476Y-73169104D02*
X121166666Y-73169104D01*
X120595238Y-73454819D02*
X120928571Y-72454819D01*
X120928571Y-72454819D02*
X121261904Y-73454819D01*
X121500000Y-72454819D02*
X121738095Y-73454819D01*
X121738095Y-73454819D02*
X121928571Y-72740533D01*
X121928571Y-72740533D02*
X122119047Y-73454819D01*
X122119047Y-73454819D02*
X122357143Y-72454819D01*
D11*
G36*
X127079030Y-96633272D02*
G01*
X127079030Y-97909821D01*
X126853895Y-97935753D01*
X126627513Y-98015472D01*
X126592220Y-98047731D01*
X126486454Y-98260043D01*
X126482600Y-98317657D01*
X126544101Y-98549658D01*
X126601650Y-98660663D01*
X126705377Y-98837471D01*
X126827080Y-99075866D01*
X126914010Y-99310136D01*
X126966168Y-99540280D01*
X126983554Y-99766299D01*
X126967061Y-100005017D01*
X126906129Y-100265713D01*
X126800301Y-100507233D01*
X126649575Y-100729575D01*
X126514425Y-100876649D01*
X126331208Y-101030873D01*
X126099020Y-101170471D01*
X125846977Y-101266639D01*
X125615138Y-101314501D01*
X125368713Y-101330455D01*
X125125714Y-101304100D01*
X124884703Y-101225034D01*
X124725134Y-101143039D01*
X124725134Y-99827592D01*
X124938330Y-99948647D01*
X125066962Y-99972574D01*
X125297917Y-99916217D01*
X125360462Y-99872383D01*
X125475456Y-99666078D01*
X125478334Y-99620138D01*
X125396605Y-99389674D01*
X125288560Y-99188728D01*
X125170984Y-98957756D01*
X125082285Y-98726897D01*
X125022465Y-98496151D01*
X124989461Y-98232579D01*
X124986809Y-98133777D01*
X125008637Y-97863766D01*
X125074122Y-97610676D01*
X125183262Y-97374507D01*
X125336059Y-97155259D01*
X125442972Y-97037572D01*
X125620249Y-96881346D01*
X125842785Y-96739934D01*
X126082242Y-96642518D01*
X126338619Y-96589095D01*
X126532106Y-96577872D01*
X126773706Y-96588476D01*
X127011696Y-96620288D01*
X127079030Y-96633272D01*
G37*
G36*
X129465930Y-98237504D02*
G01*
X129465930Y-99444510D01*
X129091098Y-99444510D01*
X129091098Y-101179580D01*
X127745005Y-101179580D01*
X127745005Y-96653310D01*
X129091098Y-96653310D01*
X129091098Y-98237504D01*
X129465930Y-98237504D01*
G37*
G36*
X131040694Y-96653310D02*
G01*
X131040694Y-101179580D01*
X129694601Y-101179580D01*
X129694601Y-96653310D01*
X131040694Y-96653310D01*
G37*
G36*
X133564325Y-98916445D02*
G01*
X133564325Y-100123450D01*
X133175349Y-100123450D01*
X133175349Y-101179580D01*
X131830434Y-101179580D01*
X131830434Y-98297619D01*
X131841542Y-98051614D01*
X131884197Y-97779883D01*
X131958843Y-97533761D01*
X132065480Y-97313250D01*
X132204108Y-97118347D01*
X132285419Y-97030499D01*
X132469450Y-96876677D01*
X132679423Y-96754680D01*
X132915336Y-96664508D01*
X133177191Y-96606161D01*
X133415219Y-96581850D01*
X133566683Y-96577872D01*
X133805189Y-96587858D01*
X134064653Y-96626203D01*
X134294945Y-96693307D01*
X134526747Y-96807943D01*
X134718841Y-96961723D01*
X134743041Y-96986887D01*
X134891850Y-97187095D01*
X135004109Y-97429831D01*
X135071240Y-97671739D01*
X135111519Y-97944893D01*
X135124572Y-98196389D01*
X135124945Y-98249292D01*
X135124945Y-101179580D01*
X133778852Y-101179580D01*
X133778852Y-98341231D01*
X133751440Y-98101509D01*
X133715201Y-98024157D01*
X133490066Y-97935753D01*
X133264171Y-98024847D01*
X133180267Y-98246197D01*
X133175349Y-98341231D01*
X133175349Y-98916445D01*
X133564325Y-98916445D01*
G37*
G36*
X139849239Y-96653310D02*
G01*
X138656378Y-98696025D01*
X139843345Y-101179580D01*
X138331053Y-101179580D01*
X137306749Y-98668914D01*
X138466605Y-96653310D01*
X139849239Y-96653310D01*
G37*
G36*
X137266672Y-96653310D02*
G01*
X137266672Y-101179580D01*
X135920579Y-101179580D01*
X135920579Y-96653310D01*
X137266672Y-96653310D01*
G37*
G36*
X142691123Y-98388380D02*
G01*
X142691123Y-99369072D01*
X141812980Y-99369072D01*
X141578857Y-99415097D01*
X141558377Y-99429186D01*
X141484118Y-99633104D01*
X141559556Y-99846452D01*
X141802131Y-99895899D01*
X141871916Y-99897137D01*
X142777169Y-99897137D01*
X142777169Y-101179580D01*
X141719861Y-101179580D01*
X141452412Y-101167023D01*
X141209661Y-101129355D01*
X140957667Y-101053670D01*
X140739289Y-100943804D01*
X140578864Y-100822429D01*
X140406624Y-100624036D01*
X140283596Y-100386009D01*
X140216315Y-100145223D01*
X140186711Y-99874092D01*
X140185173Y-99791052D01*
X140185173Y-98000583D01*
X140202997Y-97733867D01*
X140256467Y-97494789D01*
X140361225Y-97255399D01*
X140512543Y-97052108D01*
X140557647Y-97006925D01*
X140763333Y-96852218D01*
X141006738Y-96741714D01*
X141250659Y-96681282D01*
X141523458Y-96654691D01*
X141606705Y-96653310D01*
X142777169Y-96653310D01*
X142777169Y-97935753D01*
X141919064Y-97935753D01*
X141680558Y-97978168D01*
X141570164Y-98157352D01*
X141652674Y-98337695D01*
X141885366Y-98387143D01*
X141948532Y-98388380D01*
X142691123Y-98388380D01*
G37*
G36*
X145178214Y-96653310D02*
G01*
X145154640Y-99444510D01*
X143978281Y-99444510D01*
X143908737Y-96653310D01*
X145178214Y-96653310D01*
G37*
G36*
X144539350Y-99670823D02*
G01*
X144787740Y-99709924D01*
X145006172Y-99827229D01*
X145096883Y-99907745D01*
X145239820Y-100098034D01*
X145320223Y-100332612D01*
X145331447Y-100471171D01*
X145293124Y-100720310D01*
X145178154Y-100937155D01*
X145099240Y-101026346D01*
X144894814Y-101174402D01*
X144658874Y-101246978D01*
X144539350Y-101255017D01*
X144300052Y-101223855D01*
X144079346Y-101119764D01*
X143977102Y-101033419D01*
X143834389Y-100833138D01*
X143764432Y-100592395D01*
X143756682Y-100467635D01*
X143788839Y-100231873D01*
X143896252Y-100009012D01*
X143985353Y-99903030D01*
X144187100Y-99752685D01*
X144420751Y-99678987D01*
X144539350Y-99670823D01*
G37*
D10*
X85857142Y-77359580D02*
X85809523Y-77407200D01*
X85809523Y-77407200D02*
X85666666Y-77454819D01*
X85666666Y-77454819D02*
X85571428Y-77454819D01*
X85571428Y-77454819D02*
X85428571Y-77407200D01*
X85428571Y-77407200D02*
X85333333Y-77311961D01*
X85333333Y-77311961D02*
X85285714Y-77216723D01*
X85285714Y-77216723D02*
X85238095Y-77026247D01*
X85238095Y-77026247D02*
X85238095Y-76883390D01*
X85238095Y-76883390D02*
X85285714Y-76692914D01*
X85285714Y-76692914D02*
X85333333Y-76597676D01*
X85333333Y-76597676D02*
X85428571Y-76502438D01*
X85428571Y-76502438D02*
X85571428Y-76454819D01*
X85571428Y-76454819D02*
X85666666Y-76454819D01*
X85666666Y-76454819D02*
X85809523Y-76502438D01*
X85809523Y-76502438D02*
X85857142Y-76550057D01*
X86809523Y-77454819D02*
X86238095Y-77454819D01*
X86523809Y-77454819D02*
X86523809Y-76454819D01*
X86523809Y-76454819D02*
X86428571Y-76597676D01*
X86428571Y-76597676D02*
X86333333Y-76692914D01*
X86333333Y-76692914D02*
X86238095Y-76740533D01*
X87428571Y-76454819D02*
X87523809Y-76454819D01*
X87523809Y-76454819D02*
X87619047Y-76502438D01*
X87619047Y-76502438D02*
X87666666Y-76550057D01*
X87666666Y-76550057D02*
X87714285Y-76645295D01*
X87714285Y-76645295D02*
X87761904Y-76835771D01*
X87761904Y-76835771D02*
X87761904Y-77073866D01*
X87761904Y-77073866D02*
X87714285Y-77264342D01*
X87714285Y-77264342D02*
X87666666Y-77359580D01*
X87666666Y-77359580D02*
X87619047Y-77407200D01*
X87619047Y-77407200D02*
X87523809Y-77454819D01*
X87523809Y-77454819D02*
X87428571Y-77454819D01*
X87428571Y-77454819D02*
X87333333Y-77407200D01*
X87333333Y-77407200D02*
X87285714Y-77359580D01*
X87285714Y-77359580D02*
X87238095Y-77264342D01*
X87238095Y-77264342D02*
X87190476Y-77073866D01*
X87190476Y-77073866D02*
X87190476Y-76835771D01*
X87190476Y-76835771D02*
X87238095Y-76645295D01*
X87238095Y-76645295D02*
X87285714Y-76550057D01*
X87285714Y-76550057D02*
X87333333Y-76502438D01*
X87333333Y-76502438D02*
X87428571Y-76454819D01*
X88795833Y-93859580D02*
X88748214Y-93907200D01*
X88748214Y-93907200D02*
X88605357Y-93954819D01*
X88605357Y-93954819D02*
X88510119Y-93954819D01*
X88510119Y-93954819D02*
X88367262Y-93907200D01*
X88367262Y-93907200D02*
X88272024Y-93811961D01*
X88272024Y-93811961D02*
X88224405Y-93716723D01*
X88224405Y-93716723D02*
X88176786Y-93526247D01*
X88176786Y-93526247D02*
X88176786Y-93383390D01*
X88176786Y-93383390D02*
X88224405Y-93192914D01*
X88224405Y-93192914D02*
X88272024Y-93097676D01*
X88272024Y-93097676D02*
X88367262Y-93002438D01*
X88367262Y-93002438D02*
X88510119Y-92954819D01*
X88510119Y-92954819D02*
X88605357Y-92954819D01*
X88605357Y-92954819D02*
X88748214Y-93002438D01*
X88748214Y-93002438D02*
X88795833Y-93050057D01*
X89272024Y-93954819D02*
X89462500Y-93954819D01*
X89462500Y-93954819D02*
X89557738Y-93907200D01*
X89557738Y-93907200D02*
X89605357Y-93859580D01*
X89605357Y-93859580D02*
X89700595Y-93716723D01*
X89700595Y-93716723D02*
X89748214Y-93526247D01*
X89748214Y-93526247D02*
X89748214Y-93145295D01*
X89748214Y-93145295D02*
X89700595Y-93050057D01*
X89700595Y-93050057D02*
X89652976Y-93002438D01*
X89652976Y-93002438D02*
X89557738Y-92954819D01*
X89557738Y-92954819D02*
X89367262Y-92954819D01*
X89367262Y-92954819D02*
X89272024Y-93002438D01*
X89272024Y-93002438D02*
X89224405Y-93050057D01*
X89224405Y-93050057D02*
X89176786Y-93145295D01*
X89176786Y-93145295D02*
X89176786Y-93383390D01*
X89176786Y-93383390D02*
X89224405Y-93478628D01*
X89224405Y-93478628D02*
X89272024Y-93526247D01*
X89272024Y-93526247D02*
X89367262Y-93573866D01*
X89367262Y-93573866D02*
X89557738Y-93573866D01*
X89557738Y-93573866D02*
X89652976Y-93526247D01*
X89652976Y-93526247D02*
X89700595Y-93478628D01*
X89700595Y-93478628D02*
X89748214Y-93383390D01*
X110849333Y-82438819D02*
X110516000Y-81962628D01*
X110277905Y-82438819D02*
X110277905Y-81438819D01*
X110277905Y-81438819D02*
X110658857Y-81438819D01*
X110658857Y-81438819D02*
X110754095Y-81486438D01*
X110754095Y-81486438D02*
X110801714Y-81534057D01*
X110801714Y-81534057D02*
X110849333Y-81629295D01*
X110849333Y-81629295D02*
X110849333Y-81772152D01*
X110849333Y-81772152D02*
X110801714Y-81867390D01*
X110801714Y-81867390D02*
X110754095Y-81915009D01*
X110754095Y-81915009D02*
X110658857Y-81962628D01*
X110658857Y-81962628D02*
X110277905Y-81962628D01*
X111801714Y-82438819D02*
X111230286Y-82438819D01*
X111516000Y-82438819D02*
X111516000Y-81438819D01*
X111516000Y-81438819D02*
X111420762Y-81581676D01*
X111420762Y-81581676D02*
X111325524Y-81676914D01*
X111325524Y-81676914D02*
X111230286Y-81724533D01*
X95208333Y-97009580D02*
X95160714Y-97057200D01*
X95160714Y-97057200D02*
X95017857Y-97104819D01*
X95017857Y-97104819D02*
X94922619Y-97104819D01*
X94922619Y-97104819D02*
X94779762Y-97057200D01*
X94779762Y-97057200D02*
X94684524Y-96961961D01*
X94684524Y-96961961D02*
X94636905Y-96866723D01*
X94636905Y-96866723D02*
X94589286Y-96676247D01*
X94589286Y-96676247D02*
X94589286Y-96533390D01*
X94589286Y-96533390D02*
X94636905Y-96342914D01*
X94636905Y-96342914D02*
X94684524Y-96247676D01*
X94684524Y-96247676D02*
X94779762Y-96152438D01*
X94779762Y-96152438D02*
X94922619Y-96104819D01*
X94922619Y-96104819D02*
X95017857Y-96104819D01*
X95017857Y-96104819D02*
X95160714Y-96152438D01*
X95160714Y-96152438D02*
X95208333Y-96200057D01*
X95779762Y-96533390D02*
X95684524Y-96485771D01*
X95684524Y-96485771D02*
X95636905Y-96438152D01*
X95636905Y-96438152D02*
X95589286Y-96342914D01*
X95589286Y-96342914D02*
X95589286Y-96295295D01*
X95589286Y-96295295D02*
X95636905Y-96200057D01*
X95636905Y-96200057D02*
X95684524Y-96152438D01*
X95684524Y-96152438D02*
X95779762Y-96104819D01*
X95779762Y-96104819D02*
X95970238Y-96104819D01*
X95970238Y-96104819D02*
X96065476Y-96152438D01*
X96065476Y-96152438D02*
X96113095Y-96200057D01*
X96113095Y-96200057D02*
X96160714Y-96295295D01*
X96160714Y-96295295D02*
X96160714Y-96342914D01*
X96160714Y-96342914D02*
X96113095Y-96438152D01*
X96113095Y-96438152D02*
X96065476Y-96485771D01*
X96065476Y-96485771D02*
X95970238Y-96533390D01*
X95970238Y-96533390D02*
X95779762Y-96533390D01*
X95779762Y-96533390D02*
X95684524Y-96581009D01*
X95684524Y-96581009D02*
X95636905Y-96628628D01*
X95636905Y-96628628D02*
X95589286Y-96723866D01*
X95589286Y-96723866D02*
X95589286Y-96914342D01*
X95589286Y-96914342D02*
X95636905Y-97009580D01*
X95636905Y-97009580D02*
X95684524Y-97057200D01*
X95684524Y-97057200D02*
X95779762Y-97104819D01*
X95779762Y-97104819D02*
X95970238Y-97104819D01*
X95970238Y-97104819D02*
X96065476Y-97057200D01*
X96065476Y-97057200D02*
X96113095Y-97009580D01*
X96113095Y-97009580D02*
X96160714Y-96914342D01*
X96160714Y-96914342D02*
X96160714Y-96723866D01*
X96160714Y-96723866D02*
X96113095Y-96628628D01*
X96113095Y-96628628D02*
X96065476Y-96581009D01*
X96065476Y-96581009D02*
X95970238Y-96533390D01*
X87238095Y-90204819D02*
X87238095Y-91014342D01*
X87238095Y-91014342D02*
X87285714Y-91109580D01*
X87285714Y-91109580D02*
X87333333Y-91157200D01*
X87333333Y-91157200D02*
X87428571Y-91204819D01*
X87428571Y-91204819D02*
X87619047Y-91204819D01*
X87619047Y-91204819D02*
X87714285Y-91157200D01*
X87714285Y-91157200D02*
X87761904Y-91109580D01*
X87761904Y-91109580D02*
X87809523Y-91014342D01*
X87809523Y-91014342D02*
X87809523Y-90204819D01*
X88761904Y-90204819D02*
X88285714Y-90204819D01*
X88285714Y-90204819D02*
X88238095Y-90681009D01*
X88238095Y-90681009D02*
X88285714Y-90633390D01*
X88285714Y-90633390D02*
X88380952Y-90585771D01*
X88380952Y-90585771D02*
X88619047Y-90585771D01*
X88619047Y-90585771D02*
X88714285Y-90633390D01*
X88714285Y-90633390D02*
X88761904Y-90681009D01*
X88761904Y-90681009D02*
X88809523Y-90776247D01*
X88809523Y-90776247D02*
X88809523Y-91014342D01*
X88809523Y-91014342D02*
X88761904Y-91109580D01*
X88761904Y-91109580D02*
X88714285Y-91157200D01*
X88714285Y-91157200D02*
X88619047Y-91204819D01*
X88619047Y-91204819D02*
X88380952Y-91204819D01*
X88380952Y-91204819D02*
X88285714Y-91157200D01*
X88285714Y-91157200D02*
X88238095Y-91109580D01*
X120333333Y-63454819D02*
X120000000Y-62978628D01*
X119761905Y-63454819D02*
X119761905Y-62454819D01*
X119761905Y-62454819D02*
X120142857Y-62454819D01*
X120142857Y-62454819D02*
X120238095Y-62502438D01*
X120238095Y-62502438D02*
X120285714Y-62550057D01*
X120285714Y-62550057D02*
X120333333Y-62645295D01*
X120333333Y-62645295D02*
X120333333Y-62788152D01*
X120333333Y-62788152D02*
X120285714Y-62883390D01*
X120285714Y-62883390D02*
X120238095Y-62931009D01*
X120238095Y-62931009D02*
X120142857Y-62978628D01*
X120142857Y-62978628D02*
X119761905Y-62978628D01*
X120714286Y-62550057D02*
X120761905Y-62502438D01*
X120761905Y-62502438D02*
X120857143Y-62454819D01*
X120857143Y-62454819D02*
X121095238Y-62454819D01*
X121095238Y-62454819D02*
X121190476Y-62502438D01*
X121190476Y-62502438D02*
X121238095Y-62550057D01*
X121238095Y-62550057D02*
X121285714Y-62645295D01*
X121285714Y-62645295D02*
X121285714Y-62740533D01*
X121285714Y-62740533D02*
X121238095Y-62883390D01*
X121238095Y-62883390D02*
X120666667Y-63454819D01*
X120666667Y-63454819D02*
X121285714Y-63454819D01*
X106333333Y-80954819D02*
X106000000Y-80478628D01*
X105761905Y-80954819D02*
X105761905Y-79954819D01*
X105761905Y-79954819D02*
X106142857Y-79954819D01*
X106142857Y-79954819D02*
X106238095Y-80002438D01*
X106238095Y-80002438D02*
X106285714Y-80050057D01*
X106285714Y-80050057D02*
X106333333Y-80145295D01*
X106333333Y-80145295D02*
X106333333Y-80288152D01*
X106333333Y-80288152D02*
X106285714Y-80383390D01*
X106285714Y-80383390D02*
X106238095Y-80431009D01*
X106238095Y-80431009D02*
X106142857Y-80478628D01*
X106142857Y-80478628D02*
X105761905Y-80478628D01*
X107238095Y-79954819D02*
X106761905Y-79954819D01*
X106761905Y-79954819D02*
X106714286Y-80431009D01*
X106714286Y-80431009D02*
X106761905Y-80383390D01*
X106761905Y-80383390D02*
X106857143Y-80335771D01*
X106857143Y-80335771D02*
X107095238Y-80335771D01*
X107095238Y-80335771D02*
X107190476Y-80383390D01*
X107190476Y-80383390D02*
X107238095Y-80431009D01*
X107238095Y-80431009D02*
X107285714Y-80526247D01*
X107285714Y-80526247D02*
X107285714Y-80764342D01*
X107285714Y-80764342D02*
X107238095Y-80859580D01*
X107238095Y-80859580D02*
X107190476Y-80907200D01*
X107190476Y-80907200D02*
X107095238Y-80954819D01*
X107095238Y-80954819D02*
X106857143Y-80954819D01*
X106857143Y-80954819D02*
X106761905Y-80907200D01*
X106761905Y-80907200D02*
X106714286Y-80859580D01*
X100370833Y-101039580D02*
X100323214Y-101087200D01*
X100323214Y-101087200D02*
X100180357Y-101134819D01*
X100180357Y-101134819D02*
X100085119Y-101134819D01*
X100085119Y-101134819D02*
X99942262Y-101087200D01*
X99942262Y-101087200D02*
X99847024Y-100991961D01*
X99847024Y-100991961D02*
X99799405Y-100896723D01*
X99799405Y-100896723D02*
X99751786Y-100706247D01*
X99751786Y-100706247D02*
X99751786Y-100563390D01*
X99751786Y-100563390D02*
X99799405Y-100372914D01*
X99799405Y-100372914D02*
X99847024Y-100277676D01*
X99847024Y-100277676D02*
X99942262Y-100182438D01*
X99942262Y-100182438D02*
X100085119Y-100134819D01*
X100085119Y-100134819D02*
X100180357Y-100134819D01*
X100180357Y-100134819D02*
X100323214Y-100182438D01*
X100323214Y-100182438D02*
X100370833Y-100230057D01*
X100704167Y-100134819D02*
X101370833Y-100134819D01*
X101370833Y-100134819D02*
X100942262Y-101134819D01*
X111849333Y-63343580D02*
X111801714Y-63391200D01*
X111801714Y-63391200D02*
X111658857Y-63438819D01*
X111658857Y-63438819D02*
X111563619Y-63438819D01*
X111563619Y-63438819D02*
X111420762Y-63391200D01*
X111420762Y-63391200D02*
X111325524Y-63295961D01*
X111325524Y-63295961D02*
X111277905Y-63200723D01*
X111277905Y-63200723D02*
X111230286Y-63010247D01*
X111230286Y-63010247D02*
X111230286Y-62867390D01*
X111230286Y-62867390D02*
X111277905Y-62676914D01*
X111277905Y-62676914D02*
X111325524Y-62581676D01*
X111325524Y-62581676D02*
X111420762Y-62486438D01*
X111420762Y-62486438D02*
X111563619Y-62438819D01*
X111563619Y-62438819D02*
X111658857Y-62438819D01*
X111658857Y-62438819D02*
X111801714Y-62486438D01*
X111801714Y-62486438D02*
X111849333Y-62534057D01*
X112230286Y-62534057D02*
X112277905Y-62486438D01*
X112277905Y-62486438D02*
X112373143Y-62438819D01*
X112373143Y-62438819D02*
X112611238Y-62438819D01*
X112611238Y-62438819D02*
X112706476Y-62486438D01*
X112706476Y-62486438D02*
X112754095Y-62534057D01*
X112754095Y-62534057D02*
X112801714Y-62629295D01*
X112801714Y-62629295D02*
X112801714Y-62724533D01*
X112801714Y-62724533D02*
X112754095Y-62867390D01*
X112754095Y-62867390D02*
X112182667Y-63438819D01*
X112182667Y-63438819D02*
X112801714Y-63438819D01*
X120333333Y-78454819D02*
X120000000Y-77978628D01*
X119761905Y-78454819D02*
X119761905Y-77454819D01*
X119761905Y-77454819D02*
X120142857Y-77454819D01*
X120142857Y-77454819D02*
X120238095Y-77502438D01*
X120238095Y-77502438D02*
X120285714Y-77550057D01*
X120285714Y-77550057D02*
X120333333Y-77645295D01*
X120333333Y-77645295D02*
X120333333Y-77788152D01*
X120333333Y-77788152D02*
X120285714Y-77883390D01*
X120285714Y-77883390D02*
X120238095Y-77931009D01*
X120238095Y-77931009D02*
X120142857Y-77978628D01*
X120142857Y-77978628D02*
X119761905Y-77978628D01*
X120666667Y-77454819D02*
X121285714Y-77454819D01*
X121285714Y-77454819D02*
X120952381Y-77835771D01*
X120952381Y-77835771D02*
X121095238Y-77835771D01*
X121095238Y-77835771D02*
X121190476Y-77883390D01*
X121190476Y-77883390D02*
X121238095Y-77931009D01*
X121238095Y-77931009D02*
X121285714Y-78026247D01*
X121285714Y-78026247D02*
X121285714Y-78264342D01*
X121285714Y-78264342D02*
X121238095Y-78359580D01*
X121238095Y-78359580D02*
X121190476Y-78407200D01*
X121190476Y-78407200D02*
X121095238Y-78454819D01*
X121095238Y-78454819D02*
X120809524Y-78454819D01*
X120809524Y-78454819D02*
X120714286Y-78407200D01*
X120714286Y-78407200D02*
X120666667Y-78359580D01*
X116916667Y-52407200D02*
X117059524Y-52454819D01*
X117059524Y-52454819D02*
X117297619Y-52454819D01*
X117297619Y-52454819D02*
X117392857Y-52407200D01*
X117392857Y-52407200D02*
X117440476Y-52359580D01*
X117440476Y-52359580D02*
X117488095Y-52264342D01*
X117488095Y-52264342D02*
X117488095Y-52169104D01*
X117488095Y-52169104D02*
X117440476Y-52073866D01*
X117440476Y-52073866D02*
X117392857Y-52026247D01*
X117392857Y-52026247D02*
X117297619Y-51978628D01*
X117297619Y-51978628D02*
X117107143Y-51931009D01*
X117107143Y-51931009D02*
X117011905Y-51883390D01*
X117011905Y-51883390D02*
X116964286Y-51835771D01*
X116964286Y-51835771D02*
X116916667Y-51740533D01*
X116916667Y-51740533D02*
X116916667Y-51645295D01*
X116916667Y-51645295D02*
X116964286Y-51550057D01*
X116964286Y-51550057D02*
X117011905Y-51502438D01*
X117011905Y-51502438D02*
X117107143Y-51454819D01*
X117107143Y-51454819D02*
X117345238Y-51454819D01*
X117345238Y-51454819D02*
X117488095Y-51502438D01*
X117821429Y-51454819D02*
X118059524Y-52454819D01*
X118059524Y-52454819D02*
X118250000Y-51740533D01*
X118250000Y-51740533D02*
X118440476Y-52454819D01*
X118440476Y-52454819D02*
X118678572Y-51454819D01*
X118964286Y-51454819D02*
X119583333Y-51454819D01*
X119583333Y-51454819D02*
X119250000Y-51835771D01*
X119250000Y-51835771D02*
X119392857Y-51835771D01*
X119392857Y-51835771D02*
X119488095Y-51883390D01*
X119488095Y-51883390D02*
X119535714Y-51931009D01*
X119535714Y-51931009D02*
X119583333Y-52026247D01*
X119583333Y-52026247D02*
X119583333Y-52264342D01*
X119583333Y-52264342D02*
X119535714Y-52359580D01*
X119535714Y-52359580D02*
X119488095Y-52407200D01*
X119488095Y-52407200D02*
X119392857Y-52454819D01*
X119392857Y-52454819D02*
X119107143Y-52454819D01*
X119107143Y-52454819D02*
X119011905Y-52407200D01*
X119011905Y-52407200D02*
X118964286Y-52359580D01*
X94795833Y-109039580D02*
X94748214Y-109087200D01*
X94748214Y-109087200D02*
X94605357Y-109134819D01*
X94605357Y-109134819D02*
X94510119Y-109134819D01*
X94510119Y-109134819D02*
X94367262Y-109087200D01*
X94367262Y-109087200D02*
X94272024Y-108991961D01*
X94272024Y-108991961D02*
X94224405Y-108896723D01*
X94224405Y-108896723D02*
X94176786Y-108706247D01*
X94176786Y-108706247D02*
X94176786Y-108563390D01*
X94176786Y-108563390D02*
X94224405Y-108372914D01*
X94224405Y-108372914D02*
X94272024Y-108277676D01*
X94272024Y-108277676D02*
X94367262Y-108182438D01*
X94367262Y-108182438D02*
X94510119Y-108134819D01*
X94510119Y-108134819D02*
X94605357Y-108134819D01*
X94605357Y-108134819D02*
X94748214Y-108182438D01*
X94748214Y-108182438D02*
X94795833Y-108230057D01*
X95652976Y-108134819D02*
X95462500Y-108134819D01*
X95462500Y-108134819D02*
X95367262Y-108182438D01*
X95367262Y-108182438D02*
X95319643Y-108230057D01*
X95319643Y-108230057D02*
X95224405Y-108372914D01*
X95224405Y-108372914D02*
X95176786Y-108563390D01*
X95176786Y-108563390D02*
X95176786Y-108944342D01*
X95176786Y-108944342D02*
X95224405Y-109039580D01*
X95224405Y-109039580D02*
X95272024Y-109087200D01*
X95272024Y-109087200D02*
X95367262Y-109134819D01*
X95367262Y-109134819D02*
X95557738Y-109134819D01*
X95557738Y-109134819D02*
X95652976Y-109087200D01*
X95652976Y-109087200D02*
X95700595Y-109039580D01*
X95700595Y-109039580D02*
X95748214Y-108944342D01*
X95748214Y-108944342D02*
X95748214Y-108706247D01*
X95748214Y-108706247D02*
X95700595Y-108611009D01*
X95700595Y-108611009D02*
X95652976Y-108563390D01*
X95652976Y-108563390D02*
X95557738Y-108515771D01*
X95557738Y-108515771D02*
X95367262Y-108515771D01*
X95367262Y-108515771D02*
X95272024Y-108563390D01*
X95272024Y-108563390D02*
X95224405Y-108611009D01*
X95224405Y-108611009D02*
X95176786Y-108706247D01*
X104363095Y-34169819D02*
X104363095Y-34979342D01*
X104363095Y-34979342D02*
X104410714Y-35074580D01*
X104410714Y-35074580D02*
X104458333Y-35122200D01*
X104458333Y-35122200D02*
X104553571Y-35169819D01*
X104553571Y-35169819D02*
X104744047Y-35169819D01*
X104744047Y-35169819D02*
X104839285Y-35122200D01*
X104839285Y-35122200D02*
X104886904Y-35074580D01*
X104886904Y-35074580D02*
X104934523Y-34979342D01*
X104934523Y-34979342D02*
X104934523Y-34169819D01*
X105363095Y-34265057D02*
X105410714Y-34217438D01*
X105410714Y-34217438D02*
X105505952Y-34169819D01*
X105505952Y-34169819D02*
X105744047Y-34169819D01*
X105744047Y-34169819D02*
X105839285Y-34217438D01*
X105839285Y-34217438D02*
X105886904Y-34265057D01*
X105886904Y-34265057D02*
X105934523Y-34360295D01*
X105934523Y-34360295D02*
X105934523Y-34455533D01*
X105934523Y-34455533D02*
X105886904Y-34598390D01*
X105886904Y-34598390D02*
X105315476Y-35169819D01*
X105315476Y-35169819D02*
X105934523Y-35169819D01*
X112669333Y-73881080D02*
X112621714Y-73928700D01*
X112621714Y-73928700D02*
X112478857Y-73976319D01*
X112478857Y-73976319D02*
X112383619Y-73976319D01*
X112383619Y-73976319D02*
X112240762Y-73928700D01*
X112240762Y-73928700D02*
X112145524Y-73833461D01*
X112145524Y-73833461D02*
X112097905Y-73738223D01*
X112097905Y-73738223D02*
X112050286Y-73547747D01*
X112050286Y-73547747D02*
X112050286Y-73404890D01*
X112050286Y-73404890D02*
X112097905Y-73214414D01*
X112097905Y-73214414D02*
X112145524Y-73119176D01*
X112145524Y-73119176D02*
X112240762Y-73023938D01*
X112240762Y-73023938D02*
X112383619Y-72976319D01*
X112383619Y-72976319D02*
X112478857Y-72976319D01*
X112478857Y-72976319D02*
X112621714Y-73023938D01*
X112621714Y-73023938D02*
X112669333Y-73071557D01*
X113621714Y-73976319D02*
X113050286Y-73976319D01*
X113336000Y-73976319D02*
X113336000Y-72976319D01*
X113336000Y-72976319D02*
X113240762Y-73119176D01*
X113240762Y-73119176D02*
X113145524Y-73214414D01*
X113145524Y-73214414D02*
X113050286Y-73262033D01*
X109833333Y-76954819D02*
X109500000Y-76478628D01*
X109261905Y-76954819D02*
X109261905Y-75954819D01*
X109261905Y-75954819D02*
X109642857Y-75954819D01*
X109642857Y-75954819D02*
X109738095Y-76002438D01*
X109738095Y-76002438D02*
X109785714Y-76050057D01*
X109785714Y-76050057D02*
X109833333Y-76145295D01*
X109833333Y-76145295D02*
X109833333Y-76288152D01*
X109833333Y-76288152D02*
X109785714Y-76383390D01*
X109785714Y-76383390D02*
X109738095Y-76431009D01*
X109738095Y-76431009D02*
X109642857Y-76478628D01*
X109642857Y-76478628D02*
X109261905Y-76478628D01*
X110690476Y-75954819D02*
X110500000Y-75954819D01*
X110500000Y-75954819D02*
X110404762Y-76002438D01*
X110404762Y-76002438D02*
X110357143Y-76050057D01*
X110357143Y-76050057D02*
X110261905Y-76192914D01*
X110261905Y-76192914D02*
X110214286Y-76383390D01*
X110214286Y-76383390D02*
X110214286Y-76764342D01*
X110214286Y-76764342D02*
X110261905Y-76859580D01*
X110261905Y-76859580D02*
X110309524Y-76907200D01*
X110309524Y-76907200D02*
X110404762Y-76954819D01*
X110404762Y-76954819D02*
X110595238Y-76954819D01*
X110595238Y-76954819D02*
X110690476Y-76907200D01*
X110690476Y-76907200D02*
X110738095Y-76859580D01*
X110738095Y-76859580D02*
X110785714Y-76764342D01*
X110785714Y-76764342D02*
X110785714Y-76526247D01*
X110785714Y-76526247D02*
X110738095Y-76431009D01*
X110738095Y-76431009D02*
X110690476Y-76383390D01*
X110690476Y-76383390D02*
X110595238Y-76335771D01*
X110595238Y-76335771D02*
X110404762Y-76335771D01*
X110404762Y-76335771D02*
X110309524Y-76383390D01*
X110309524Y-76383390D02*
X110261905Y-76431009D01*
X110261905Y-76431009D02*
X110214286Y-76526247D01*
X104443095Y-50964819D02*
X104443095Y-51774342D01*
X104443095Y-51774342D02*
X104490714Y-51869580D01*
X104490714Y-51869580D02*
X104538333Y-51917200D01*
X104538333Y-51917200D02*
X104633571Y-51964819D01*
X104633571Y-51964819D02*
X104824047Y-51964819D01*
X104824047Y-51964819D02*
X104919285Y-51917200D01*
X104919285Y-51917200D02*
X104966904Y-51869580D01*
X104966904Y-51869580D02*
X105014523Y-51774342D01*
X105014523Y-51774342D02*
X105014523Y-50964819D01*
X105395476Y-50964819D02*
X106014523Y-50964819D01*
X106014523Y-50964819D02*
X105681190Y-51345771D01*
X105681190Y-51345771D02*
X105824047Y-51345771D01*
X105824047Y-51345771D02*
X105919285Y-51393390D01*
X105919285Y-51393390D02*
X105966904Y-51441009D01*
X105966904Y-51441009D02*
X106014523Y-51536247D01*
X106014523Y-51536247D02*
X106014523Y-51774342D01*
X106014523Y-51774342D02*
X105966904Y-51869580D01*
X105966904Y-51869580D02*
X105919285Y-51917200D01*
X105919285Y-51917200D02*
X105824047Y-51964819D01*
X105824047Y-51964819D02*
X105538333Y-51964819D01*
X105538333Y-51964819D02*
X105443095Y-51917200D01*
X105443095Y-51917200D02*
X105395476Y-51869580D01*
X104968333Y-57974580D02*
X104920714Y-58022200D01*
X104920714Y-58022200D02*
X104777857Y-58069819D01*
X104777857Y-58069819D02*
X104682619Y-58069819D01*
X104682619Y-58069819D02*
X104539762Y-58022200D01*
X104539762Y-58022200D02*
X104444524Y-57926961D01*
X104444524Y-57926961D02*
X104396905Y-57831723D01*
X104396905Y-57831723D02*
X104349286Y-57641247D01*
X104349286Y-57641247D02*
X104349286Y-57498390D01*
X104349286Y-57498390D02*
X104396905Y-57307914D01*
X104396905Y-57307914D02*
X104444524Y-57212676D01*
X104444524Y-57212676D02*
X104539762Y-57117438D01*
X104539762Y-57117438D02*
X104682619Y-57069819D01*
X104682619Y-57069819D02*
X104777857Y-57069819D01*
X104777857Y-57069819D02*
X104920714Y-57117438D01*
X104920714Y-57117438D02*
X104968333Y-57165057D01*
X105825476Y-57403152D02*
X105825476Y-58069819D01*
X105587381Y-57022200D02*
X105349286Y-57736485D01*
X105349286Y-57736485D02*
X105968333Y-57736485D01*
X116920761Y-82034057D02*
X116825523Y-81986438D01*
X116825523Y-81986438D02*
X116730285Y-81891200D01*
X116730285Y-81891200D02*
X116587428Y-81748342D01*
X116587428Y-81748342D02*
X116492190Y-81700723D01*
X116492190Y-81700723D02*
X116396952Y-81700723D01*
X116444571Y-81938819D02*
X116349333Y-81891200D01*
X116349333Y-81891200D02*
X116254095Y-81795961D01*
X116254095Y-81795961D02*
X116206476Y-81605485D01*
X116206476Y-81605485D02*
X116206476Y-81272152D01*
X116206476Y-81272152D02*
X116254095Y-81081676D01*
X116254095Y-81081676D02*
X116349333Y-80986438D01*
X116349333Y-80986438D02*
X116444571Y-80938819D01*
X116444571Y-80938819D02*
X116635047Y-80938819D01*
X116635047Y-80938819D02*
X116730285Y-80986438D01*
X116730285Y-80986438D02*
X116825523Y-81081676D01*
X116825523Y-81081676D02*
X116873142Y-81272152D01*
X116873142Y-81272152D02*
X116873142Y-81605485D01*
X116873142Y-81605485D02*
X116825523Y-81795961D01*
X116825523Y-81795961D02*
X116730285Y-81891200D01*
X116730285Y-81891200D02*
X116635047Y-81938819D01*
X116635047Y-81938819D02*
X116444571Y-81938819D01*
X117825523Y-81938819D02*
X117254095Y-81938819D01*
X117539809Y-81938819D02*
X117539809Y-80938819D01*
X117539809Y-80938819D02*
X117444571Y-81081676D01*
X117444571Y-81081676D02*
X117349333Y-81176914D01*
X117349333Y-81176914D02*
X117254095Y-81224533D01*
X91238095Y-102817319D02*
X91238095Y-103626842D01*
X91238095Y-103626842D02*
X91285714Y-103722080D01*
X91285714Y-103722080D02*
X91333333Y-103769700D01*
X91333333Y-103769700D02*
X91428571Y-103817319D01*
X91428571Y-103817319D02*
X91619047Y-103817319D01*
X91619047Y-103817319D02*
X91714285Y-103769700D01*
X91714285Y-103769700D02*
X91761904Y-103722080D01*
X91761904Y-103722080D02*
X91809523Y-103626842D01*
X91809523Y-103626842D02*
X91809523Y-102817319D01*
X92714285Y-103150652D02*
X92714285Y-103817319D01*
X92476190Y-102769700D02*
X92238095Y-103483985D01*
X92238095Y-103483985D02*
X92857142Y-103483985D01*
X107333333Y-73881080D02*
X107285714Y-73928700D01*
X107285714Y-73928700D02*
X107142857Y-73976319D01*
X107142857Y-73976319D02*
X107047619Y-73976319D01*
X107047619Y-73976319D02*
X106904762Y-73928700D01*
X106904762Y-73928700D02*
X106809524Y-73833461D01*
X106809524Y-73833461D02*
X106761905Y-73738223D01*
X106761905Y-73738223D02*
X106714286Y-73547747D01*
X106714286Y-73547747D02*
X106714286Y-73404890D01*
X106714286Y-73404890D02*
X106761905Y-73214414D01*
X106761905Y-73214414D02*
X106809524Y-73119176D01*
X106809524Y-73119176D02*
X106904762Y-73023938D01*
X106904762Y-73023938D02*
X107047619Y-72976319D01*
X107047619Y-72976319D02*
X107142857Y-72976319D01*
X107142857Y-72976319D02*
X107285714Y-73023938D01*
X107285714Y-73023938D02*
X107333333Y-73071557D01*
X108238095Y-72976319D02*
X107761905Y-72976319D01*
X107761905Y-72976319D02*
X107714286Y-73452509D01*
X107714286Y-73452509D02*
X107761905Y-73404890D01*
X107761905Y-73404890D02*
X107857143Y-73357271D01*
X107857143Y-73357271D02*
X108095238Y-73357271D01*
X108095238Y-73357271D02*
X108190476Y-73404890D01*
X108190476Y-73404890D02*
X108238095Y-73452509D01*
X108238095Y-73452509D02*
X108285714Y-73547747D01*
X108285714Y-73547747D02*
X108285714Y-73785842D01*
X108285714Y-73785842D02*
X108238095Y-73881080D01*
X108238095Y-73881080D02*
X108190476Y-73928700D01*
X108190476Y-73928700D02*
X108095238Y-73976319D01*
X108095238Y-73976319D02*
X107857143Y-73976319D01*
X107857143Y-73976319D02*
X107761905Y-73928700D01*
X107761905Y-73928700D02*
X107714286Y-73881080D01*
X108333333Y-55454819D02*
X108000000Y-54978628D01*
X107761905Y-55454819D02*
X107761905Y-54454819D01*
X107761905Y-54454819D02*
X108142857Y-54454819D01*
X108142857Y-54454819D02*
X108238095Y-54502438D01*
X108238095Y-54502438D02*
X108285714Y-54550057D01*
X108285714Y-54550057D02*
X108333333Y-54645295D01*
X108333333Y-54645295D02*
X108333333Y-54788152D01*
X108333333Y-54788152D02*
X108285714Y-54883390D01*
X108285714Y-54883390D02*
X108238095Y-54931009D01*
X108238095Y-54931009D02*
X108142857Y-54978628D01*
X108142857Y-54978628D02*
X107761905Y-54978628D01*
X109190476Y-54788152D02*
X109190476Y-55454819D01*
X108952381Y-54407200D02*
X108714286Y-55121485D01*
X108714286Y-55121485D02*
X109333333Y-55121485D01*
X115738095Y-67954819D02*
X115738095Y-68764342D01*
X115738095Y-68764342D02*
X115785714Y-68859580D01*
X115785714Y-68859580D02*
X115833333Y-68907200D01*
X115833333Y-68907200D02*
X115928571Y-68954819D01*
X115928571Y-68954819D02*
X116119047Y-68954819D01*
X116119047Y-68954819D02*
X116214285Y-68907200D01*
X116214285Y-68907200D02*
X116261904Y-68859580D01*
X116261904Y-68859580D02*
X116309523Y-68764342D01*
X116309523Y-68764342D02*
X116309523Y-67954819D01*
X117309523Y-68954819D02*
X116738095Y-68954819D01*
X117023809Y-68954819D02*
X117023809Y-67954819D01*
X117023809Y-67954819D02*
X116928571Y-68097676D01*
X116928571Y-68097676D02*
X116833333Y-68192914D01*
X116833333Y-68192914D02*
X116738095Y-68240533D01*
X104968333Y-41179580D02*
X104920714Y-41227200D01*
X104920714Y-41227200D02*
X104777857Y-41274819D01*
X104777857Y-41274819D02*
X104682619Y-41274819D01*
X104682619Y-41274819D02*
X104539762Y-41227200D01*
X104539762Y-41227200D02*
X104444524Y-41131961D01*
X104444524Y-41131961D02*
X104396905Y-41036723D01*
X104396905Y-41036723D02*
X104349286Y-40846247D01*
X104349286Y-40846247D02*
X104349286Y-40703390D01*
X104349286Y-40703390D02*
X104396905Y-40512914D01*
X104396905Y-40512914D02*
X104444524Y-40417676D01*
X104444524Y-40417676D02*
X104539762Y-40322438D01*
X104539762Y-40322438D02*
X104682619Y-40274819D01*
X104682619Y-40274819D02*
X104777857Y-40274819D01*
X104777857Y-40274819D02*
X104920714Y-40322438D01*
X104920714Y-40322438D02*
X104968333Y-40370057D01*
X105301667Y-40274819D02*
X105920714Y-40274819D01*
X105920714Y-40274819D02*
X105587381Y-40655771D01*
X105587381Y-40655771D02*
X105730238Y-40655771D01*
X105730238Y-40655771D02*
X105825476Y-40703390D01*
X105825476Y-40703390D02*
X105873095Y-40751009D01*
X105873095Y-40751009D02*
X105920714Y-40846247D01*
X105920714Y-40846247D02*
X105920714Y-41084342D01*
X105920714Y-41084342D02*
X105873095Y-41179580D01*
X105873095Y-41179580D02*
X105825476Y-41227200D01*
X105825476Y-41227200D02*
X105730238Y-41274819D01*
X105730238Y-41274819D02*
X105444524Y-41274819D01*
X105444524Y-41274819D02*
X105349286Y-41227200D01*
X105349286Y-41227200D02*
X105301667Y-41179580D01*
X115171666Y-96309819D02*
X115171666Y-97024104D01*
X115171666Y-97024104D02*
X115124047Y-97166961D01*
X115124047Y-97166961D02*
X115028809Y-97262200D01*
X115028809Y-97262200D02*
X114885952Y-97309819D01*
X114885952Y-97309819D02*
X114790714Y-97309819D01*
X116171666Y-97309819D02*
X115600238Y-97309819D01*
X115885952Y-97309819D02*
X115885952Y-96309819D01*
X115885952Y-96309819D02*
X115790714Y-96452676D01*
X115790714Y-96452676D02*
X115695476Y-96547914D01*
X115695476Y-96547914D02*
X115600238Y-96595533D01*
X104261905Y-103104819D02*
X104261905Y-102104819D01*
X104261905Y-102104819D02*
X104500000Y-102104819D01*
X104500000Y-102104819D02*
X104642857Y-102152438D01*
X104642857Y-102152438D02*
X104738095Y-102247676D01*
X104738095Y-102247676D02*
X104785714Y-102342914D01*
X104785714Y-102342914D02*
X104833333Y-102533390D01*
X104833333Y-102533390D02*
X104833333Y-102676247D01*
X104833333Y-102676247D02*
X104785714Y-102866723D01*
X104785714Y-102866723D02*
X104738095Y-102961961D01*
X104738095Y-102961961D02*
X104642857Y-103057200D01*
X104642857Y-103057200D02*
X104500000Y-103104819D01*
X104500000Y-103104819D02*
X104261905Y-103104819D01*
X105785714Y-103104819D02*
X105214286Y-103104819D01*
X105500000Y-103104819D02*
X105500000Y-102104819D01*
X105500000Y-102104819D02*
X105404762Y-102247676D01*
X105404762Y-102247676D02*
X105309524Y-102342914D01*
X105309524Y-102342914D02*
X105214286Y-102390533D01*
D12*
%TO.C,C10*%
X88265000Y-77223752D02*
X88265000Y-76701248D01*
X89735000Y-77223752D02*
X89735000Y-76701248D01*
%TO.C,C9*%
X88701248Y-90765000D02*
X89223752Y-90765000D01*
X88701248Y-92235000D02*
X89223752Y-92235000D01*
D13*
%TO.C,REF\u002A\u002A*%
X133391388Y-115437645D02*
X133448865Y-115455206D01*
X133485872Y-115477395D01*
X133497927Y-115494942D01*
X133494609Y-115515742D01*
X133473079Y-115548419D01*
X133454874Y-115571562D01*
X133417344Y-115613402D01*
X133389148Y-115631005D01*
X133365111Y-115629856D01*
X133293808Y-115611710D01*
X133241442Y-115612534D01*
X133198918Y-115633098D01*
X133184642Y-115645134D01*
X133138947Y-115687483D01*
X133138947Y-116240526D01*
X132955131Y-116240526D01*
X132955131Y-115438421D01*
X133047039Y-115438421D01*
X133102219Y-115440603D01*
X133130688Y-115448351D01*
X133138943Y-115463468D01*
X133138947Y-115463916D01*
X133142845Y-115479749D01*
X133160474Y-115477684D01*
X133184901Y-115466261D01*
X133235350Y-115445005D01*
X133276316Y-115432216D01*
X133329028Y-115428938D01*
X133391388Y-115437645D01*
G36*
X133391388Y-115437645D02*
G01*
X133448865Y-115455206D01*
X133485872Y-115477395D01*
X133497927Y-115494942D01*
X133494609Y-115515742D01*
X133473079Y-115548419D01*
X133454874Y-115571562D01*
X133417344Y-115613402D01*
X133389148Y-115631005D01*
X133365111Y-115629856D01*
X133293808Y-115611710D01*
X133241442Y-115612534D01*
X133198918Y-115633098D01*
X133184642Y-115645134D01*
X133138947Y-115687483D01*
X133138947Y-116240526D01*
X132955131Y-116240526D01*
X132955131Y-115438421D01*
X133047039Y-115438421D01*
X133102219Y-115440603D01*
X133130688Y-115448351D01*
X133138943Y-115463468D01*
X133138947Y-115463916D01*
X133142845Y-115479749D01*
X133160474Y-115477684D01*
X133184901Y-115466261D01*
X133235350Y-115445005D01*
X133276316Y-115432216D01*
X133329028Y-115428938D01*
X133391388Y-115437645D01*
G37*
X133173167Y-116691447D02*
X133237408Y-116704112D01*
X133273980Y-116722864D01*
X133312453Y-116754017D01*
X133257717Y-116823127D01*
X133223969Y-116864979D01*
X133201053Y-116885398D01*
X133178279Y-116888517D01*
X133144956Y-116878472D01*
X133129314Y-116872789D01*
X133065542Y-116864404D01*
X133007140Y-116882378D01*
X132964264Y-116922982D01*
X132957299Y-116935929D01*
X132949713Y-116970224D01*
X132943859Y-117033427D01*
X132940011Y-117121060D01*
X132938443Y-117228640D01*
X132938421Y-117243944D01*
X132938421Y-117510526D01*
X132754605Y-117510526D01*
X132754605Y-116691710D01*
X132846513Y-116691710D01*
X132899507Y-116693094D01*
X132927115Y-116699252D01*
X132937324Y-116713194D01*
X132938421Y-116726344D01*
X132938421Y-116760978D01*
X132982450Y-116726344D01*
X133032937Y-116702716D01*
X133100760Y-116691033D01*
X133173167Y-116691447D01*
G36*
X133173167Y-116691447D02*
G01*
X133237408Y-116704112D01*
X133273980Y-116722864D01*
X133312453Y-116754017D01*
X133257717Y-116823127D01*
X133223969Y-116864979D01*
X133201053Y-116885398D01*
X133178279Y-116888517D01*
X133144956Y-116878472D01*
X133129314Y-116872789D01*
X133065542Y-116864404D01*
X133007140Y-116882378D01*
X132964264Y-116922982D01*
X132957299Y-116935929D01*
X132949713Y-116970224D01*
X132943859Y-117033427D01*
X132940011Y-117121060D01*
X132938443Y-117228640D01*
X132938421Y-117243944D01*
X132938421Y-117510526D01*
X132754605Y-117510526D01*
X132754605Y-116691710D01*
X132846513Y-116691710D01*
X132899507Y-116693094D01*
X132927115Y-116699252D01*
X132937324Y-116713194D01*
X132938421Y-116726344D01*
X132938421Y-116760978D01*
X132982450Y-116726344D01*
X133032937Y-116702716D01*
X133100760Y-116691033D01*
X133173167Y-116691447D01*
G37*
X129679881Y-116693486D02*
X129704888Y-116700982D01*
X129712950Y-116717451D01*
X129713289Y-116724886D01*
X129714736Y-116745594D01*
X129724698Y-116748845D01*
X129751612Y-116734648D01*
X129767598Y-116724948D01*
X129818033Y-116704175D01*
X129878272Y-116693904D01*
X129941434Y-116693114D01*
X130000637Y-116700786D01*
X130049002Y-116715898D01*
X130079646Y-116737432D01*
X130085689Y-116764366D01*
X130082639Y-116771660D01*
X130060406Y-116801937D01*
X130025930Y-116839175D01*
X130019694Y-116845195D01*
X129986833Y-116872875D01*
X129958480Y-116881818D01*
X129918827Y-116875576D01*
X129902942Y-116871429D01*
X129853509Y-116861467D01*
X129818752Y-116865947D01*
X129789400Y-116881746D01*
X129762513Y-116902949D01*
X129742710Y-116929614D01*
X129728948Y-116966827D01*
X129720184Y-117019673D01*
X129715374Y-117093237D01*
X129713474Y-117192605D01*
X129713289Y-117252601D01*
X129713289Y-117510526D01*
X129546184Y-117510526D01*
X129546184Y-116691710D01*
X129629736Y-116691710D01*
X129679881Y-116693486D01*
G36*
X129679881Y-116693486D02*
G01*
X129704888Y-116700982D01*
X129712950Y-116717451D01*
X129713289Y-116724886D01*
X129714736Y-116745594D01*
X129724698Y-116748845D01*
X129751612Y-116734648D01*
X129767598Y-116724948D01*
X129818033Y-116704175D01*
X129878272Y-116693904D01*
X129941434Y-116693114D01*
X130000637Y-116700786D01*
X130049002Y-116715898D01*
X130079646Y-116737432D01*
X130085689Y-116764366D01*
X130082639Y-116771660D01*
X130060406Y-116801937D01*
X130025930Y-116839175D01*
X130019694Y-116845195D01*
X129986833Y-116872875D01*
X129958480Y-116881818D01*
X129918827Y-116875576D01*
X129902942Y-116871429D01*
X129853509Y-116861467D01*
X129818752Y-116865947D01*
X129789400Y-116881746D01*
X129762513Y-116902949D01*
X129742710Y-116929614D01*
X129728948Y-116966827D01*
X129720184Y-117019673D01*
X129715374Y-117093237D01*
X129713474Y-117192605D01*
X129713289Y-117252601D01*
X129713289Y-117510526D01*
X129546184Y-117510526D01*
X129546184Y-116691710D01*
X129629736Y-116691710D01*
X129679881Y-116693486D01*
G37*
X132320131Y-115698533D02*
X132321710Y-115821089D01*
X132327481Y-115914179D01*
X132338991Y-115981651D01*
X132357790Y-116027355D01*
X132385426Y-116055139D01*
X132423448Y-116068854D01*
X132470526Y-116072358D01*
X132519832Y-116068432D01*
X132557283Y-116054089D01*
X132584428Y-116025478D01*
X132602815Y-115978751D01*
X132613993Y-115910058D01*
X132619511Y-115815550D01*
X132620921Y-115698533D01*
X132620921Y-115438421D01*
X132804736Y-115438421D01*
X132804736Y-116240526D01*
X132712828Y-116240526D01*
X132657422Y-116238281D01*
X132628891Y-116230396D01*
X132620921Y-116215428D01*
X132616120Y-116202097D01*
X132597014Y-116204917D01*
X132558504Y-116223783D01*
X132470239Y-116252887D01*
X132376623Y-116250825D01*
X132286921Y-116219221D01*
X132244204Y-116194257D01*
X132211621Y-116167226D01*
X132187817Y-116133405D01*
X132171439Y-116088068D01*
X132161131Y-116026489D01*
X132155541Y-115943943D01*
X132153312Y-115835705D01*
X132153026Y-115752004D01*
X132153026Y-115438421D01*
X132320131Y-115438421D01*
X132320131Y-115698533D01*
G36*
X132320131Y-115698533D02*
G01*
X132321710Y-115821089D01*
X132327481Y-115914179D01*
X132338991Y-115981651D01*
X132357790Y-116027355D01*
X132385426Y-116055139D01*
X132423448Y-116068854D01*
X132470526Y-116072358D01*
X132519832Y-116068432D01*
X132557283Y-116054089D01*
X132584428Y-116025478D01*
X132602815Y-115978751D01*
X132613993Y-115910058D01*
X132619511Y-115815550D01*
X132620921Y-115698533D01*
X132620921Y-115438421D01*
X132804736Y-115438421D01*
X132804736Y-116240526D01*
X132712828Y-116240526D01*
X132657422Y-116238281D01*
X132628891Y-116230396D01*
X132620921Y-116215428D01*
X132616120Y-116202097D01*
X132597014Y-116204917D01*
X132558504Y-116223783D01*
X132470239Y-116252887D01*
X132376623Y-116250825D01*
X132286921Y-116219221D01*
X132244204Y-116194257D01*
X132211621Y-116167226D01*
X132187817Y-116133405D01*
X132171439Y-116088068D01*
X132161131Y-116026489D01*
X132155541Y-115943943D01*
X132153312Y-115835705D01*
X132153026Y-115752004D01*
X132153026Y-115438421D01*
X132320131Y-115438421D01*
X132320131Y-115698533D01*
G37*
X129997957Y-115452226D02*
X130039546Y-115472090D01*
X130079825Y-115500784D01*
X130110510Y-115533809D01*
X130132861Y-115575931D01*
X130148136Y-115631915D01*
X130157592Y-115706528D01*
X130162487Y-115804535D01*
X130164081Y-115930702D01*
X130164106Y-115943914D01*
X130164473Y-116240526D01*
X129980657Y-116240526D01*
X129980657Y-115967081D01*
X129980527Y-115865777D01*
X129979621Y-115792353D01*
X129977173Y-115741271D01*
X129972414Y-115706990D01*
X129964574Y-115683971D01*
X129952885Y-115666673D01*
X129936602Y-115649581D01*
X129879634Y-115612857D01*
X129817445Y-115606042D01*
X129758199Y-115629261D01*
X129737595Y-115646543D01*
X129722470Y-115662791D01*
X129711610Y-115680191D01*
X129704310Y-115704212D01*
X129699863Y-115740322D01*
X129697564Y-115793988D01*
X129696704Y-115870680D01*
X129696578Y-115964043D01*
X129696578Y-116240526D01*
X129512763Y-116240526D01*
X129512763Y-115438421D01*
X129604671Y-115438421D01*
X129659851Y-115440603D01*
X129688320Y-115448351D01*
X129696575Y-115463468D01*
X129696578Y-115463916D01*
X129700408Y-115478720D01*
X129717301Y-115477040D01*
X129750888Y-115460773D01*
X129827063Y-115436840D01*
X129914200Y-115434178D01*
X129997957Y-115452226D01*
G36*
X129997957Y-115452226D02*
G01*
X130039546Y-115472090D01*
X130079825Y-115500784D01*
X130110510Y-115533809D01*
X130132861Y-115575931D01*
X130148136Y-115631915D01*
X130157592Y-115706528D01*
X130162487Y-115804535D01*
X130164081Y-115930702D01*
X130164106Y-115943914D01*
X130164473Y-116240526D01*
X129980657Y-116240526D01*
X129980657Y-115967081D01*
X129980527Y-115865777D01*
X129979621Y-115792353D01*
X129977173Y-115741271D01*
X129972414Y-115706990D01*
X129964574Y-115683971D01*
X129952885Y-115666673D01*
X129936602Y-115649581D01*
X129879634Y-115612857D01*
X129817445Y-115606042D01*
X129758199Y-115629261D01*
X129737595Y-115646543D01*
X129722470Y-115662791D01*
X129711610Y-115680191D01*
X129704310Y-115704212D01*
X129699863Y-115740322D01*
X129697564Y-115793988D01*
X129696704Y-115870680D01*
X129696578Y-115964043D01*
X129696578Y-116240526D01*
X129512763Y-116240526D01*
X129512763Y-115438421D01*
X129604671Y-115438421D01*
X129659851Y-115440603D01*
X129688320Y-115448351D01*
X129696575Y-115463468D01*
X129696578Y-115463916D01*
X129700408Y-115478720D01*
X129717301Y-115477040D01*
X129750888Y-115460773D01*
X129827063Y-115436840D01*
X129914200Y-115434178D01*
X129997957Y-115452226D01*
G37*
X133946576Y-115445419D02*
X134043395Y-115486549D01*
X134073890Y-115506571D01*
X134112865Y-115537340D01*
X134137331Y-115561533D01*
X134141578Y-115569413D01*
X134129584Y-115586899D01*
X134098887Y-115616570D01*
X134074312Y-115637279D01*
X134007046Y-115691336D01*
X133953930Y-115646642D01*
X133912884Y-115617789D01*
X133872863Y-115607829D01*
X133827059Y-115610261D01*
X133754324Y-115628345D01*
X133704256Y-115665881D01*
X133673829Y-115726562D01*
X133660017Y-115814081D01*
X133660013Y-115814136D01*
X133661208Y-115911958D01*
X133679772Y-115983730D01*
X133716804Y-116032595D01*
X133742050Y-116049143D01*
X133809097Y-116069749D01*
X133880709Y-116069762D01*
X133943015Y-116049768D01*
X133957763Y-116040000D01*
X133994750Y-116015047D01*
X134023668Y-116010958D01*
X134054856Y-116029530D01*
X134089336Y-116062887D01*
X134143912Y-116119196D01*
X134083318Y-116169142D01*
X133989698Y-116225513D01*
X133884125Y-116253293D01*
X133773798Y-116251282D01*
X133701343Y-116232862D01*
X133616656Y-116187310D01*
X133548927Y-116115650D01*
X133518157Y-116065066D01*
X133493236Y-115992488D01*
X133480766Y-115900569D01*
X133480670Y-115800948D01*
X133492870Y-115705267D01*
X133517290Y-115625169D01*
X133521136Y-115616956D01*
X133578093Y-115536413D01*
X133655209Y-115477771D01*
X133746390Y-115442247D01*
X133845543Y-115431057D01*
X133946576Y-115445419D01*
G36*
X133946576Y-115445419D02*
G01*
X134043395Y-115486549D01*
X134073890Y-115506571D01*
X134112865Y-115537340D01*
X134137331Y-115561533D01*
X134141578Y-115569413D01*
X134129584Y-115586899D01*
X134098887Y-115616570D01*
X134074312Y-115637279D01*
X134007046Y-115691336D01*
X133953930Y-115646642D01*
X133912884Y-115617789D01*
X133872863Y-115607829D01*
X133827059Y-115610261D01*
X133754324Y-115628345D01*
X133704256Y-115665881D01*
X133673829Y-115726562D01*
X133660017Y-115814081D01*
X133660013Y-115814136D01*
X133661208Y-115911958D01*
X133679772Y-115983730D01*
X133716804Y-116032595D01*
X133742050Y-116049143D01*
X133809097Y-116069749D01*
X133880709Y-116069762D01*
X133943015Y-116049768D01*
X133957763Y-116040000D01*
X133994750Y-116015047D01*
X134023668Y-116010958D01*
X134054856Y-116029530D01*
X134089336Y-116062887D01*
X134143912Y-116119196D01*
X134083318Y-116169142D01*
X133989698Y-116225513D01*
X133884125Y-116253293D01*
X133773798Y-116251282D01*
X133701343Y-116232862D01*
X133616656Y-116187310D01*
X133548927Y-116115650D01*
X133518157Y-116065066D01*
X133493236Y-115992488D01*
X133480766Y-115900569D01*
X133480670Y-115800948D01*
X133492870Y-115705267D01*
X133517290Y-115625169D01*
X133521136Y-115616956D01*
X133578093Y-115536413D01*
X133655209Y-115477771D01*
X133746390Y-115442247D01*
X133845543Y-115431057D01*
X133946576Y-115445419D01*
G37*
X131811669Y-115448310D02*
X131896192Y-115494340D01*
X131962321Y-115567006D01*
X131993478Y-115626106D01*
X132006855Y-115678305D01*
X132015522Y-115752719D01*
X132019237Y-115838442D01*
X132017754Y-115924569D01*
X132010831Y-116000193D01*
X132002745Y-116040584D01*
X131975465Y-116095840D01*
X131928220Y-116154530D01*
X131871282Y-116205852D01*
X131814924Y-116239005D01*
X131813550Y-116239531D01*
X131743616Y-116254018D01*
X131660737Y-116254377D01*
X131581977Y-116241188D01*
X131551566Y-116230617D01*
X131473239Y-116186201D01*
X131417143Y-116128007D01*
X131380286Y-116050965D01*
X131359680Y-115950001D01*
X131355018Y-115897116D01*
X131355613Y-115830663D01*
X131534736Y-115830663D01*
X131540770Y-115927630D01*
X131558138Y-116001523D01*
X131585740Y-116048736D01*
X131605404Y-116062237D01*
X131655787Y-116071651D01*
X131715673Y-116068864D01*
X131767449Y-116055316D01*
X131781027Y-116047862D01*
X131816849Y-116004451D01*
X131840493Y-115938014D01*
X131850558Y-115857161D01*
X131845642Y-115770502D01*
X131834655Y-115718349D01*
X131803109Y-115657951D01*
X131753311Y-115620197D01*
X131693337Y-115607143D01*
X131631264Y-115620849D01*
X131583582Y-115654372D01*
X131558525Y-115682031D01*
X131543900Y-115709294D01*
X131536929Y-115746190D01*
X131534833Y-115802750D01*
X131534736Y-115830663D01*
X131355613Y-115830663D01*
X131356282Y-115755994D01*
X131379265Y-115640271D01*
X131423972Y-115549941D01*
X131490405Y-115485000D01*
X131578565Y-115445445D01*
X131597495Y-115440858D01*
X131711266Y-115430090D01*
X131811669Y-115448310D01*
G36*
X131811669Y-115448310D02*
G01*
X131896192Y-115494340D01*
X131962321Y-115567006D01*
X131993478Y-115626106D01*
X132006855Y-115678305D01*
X132015522Y-115752719D01*
X132019237Y-115838442D01*
X132017754Y-115924569D01*
X132010831Y-116000193D01*
X132002745Y-116040584D01*
X131975465Y-116095840D01*
X131928220Y-116154530D01*
X131871282Y-116205852D01*
X131814924Y-116239005D01*
X131813550Y-116239531D01*
X131743616Y-116254018D01*
X131660737Y-116254377D01*
X131581977Y-116241188D01*
X131551566Y-116230617D01*
X131473239Y-116186201D01*
X131417143Y-116128007D01*
X131380286Y-116050965D01*
X131359680Y-115950001D01*
X131355018Y-115897116D01*
X131355613Y-115830663D01*
X131534736Y-115830663D01*
X131540770Y-115927630D01*
X131558138Y-116001523D01*
X131585740Y-116048736D01*
X131605404Y-116062237D01*
X131655787Y-116071651D01*
X131715673Y-116068864D01*
X131767449Y-116055316D01*
X131781027Y-116047862D01*
X131816849Y-116004451D01*
X131840493Y-115938014D01*
X131850558Y-115857161D01*
X131845642Y-115770502D01*
X131834655Y-115718349D01*
X131803109Y-115657951D01*
X131753311Y-115620197D01*
X131693337Y-115607143D01*
X131631264Y-115620849D01*
X131583582Y-115654372D01*
X131558525Y-115682031D01*
X131543900Y-115709294D01*
X131536929Y-115746190D01*
X131534833Y-115802750D01*
X131534736Y-115830663D01*
X131355613Y-115830663D01*
X131356282Y-115755994D01*
X131379265Y-115640271D01*
X131423972Y-115549941D01*
X131490405Y-115485000D01*
X131578565Y-115445445D01*
X131597495Y-115440858D01*
X131711266Y-115430090D01*
X131811669Y-115448310D01*
G37*
X131374130Y-116695104D02*
X131440220Y-116700066D01*
X131526626Y-116959079D01*
X131613031Y-117218092D01*
X131640124Y-117126184D01*
X131656428Y-117069384D01*
X131677875Y-116992625D01*
X131701035Y-116908251D01*
X131713280Y-116862993D01*
X131759344Y-116691710D01*
X131949387Y-116691710D01*
X131892582Y-116871349D01*
X131864607Y-116959704D01*
X131830813Y-117066281D01*
X131795520Y-117177454D01*
X131764013Y-117276579D01*
X131692250Y-117502171D01*
X131537286Y-117512253D01*
X131495270Y-117373528D01*
X131469359Y-117287351D01*
X131441083Y-117192347D01*
X131416369Y-117108441D01*
X131415394Y-117105102D01*
X131396935Y-117048248D01*
X131380649Y-117009456D01*
X131369242Y-116994787D01*
X131366898Y-116996483D01*
X131358671Y-117019225D01*
X131343038Y-117067940D01*
X131321904Y-117136502D01*
X131297170Y-117218785D01*
X131283787Y-117264046D01*
X131211311Y-117510526D01*
X131057495Y-117510526D01*
X130934531Y-117122006D01*
X130899988Y-117013022D01*
X130868521Y-116914048D01*
X130841616Y-116829736D01*
X130820759Y-116764734D01*
X130807438Y-116723692D01*
X130803388Y-116711701D01*
X130806594Y-116699423D01*
X130831765Y-116694046D01*
X130884146Y-116694584D01*
X130892345Y-116694990D01*
X130989482Y-116700066D01*
X131053100Y-116934013D01*
X131076484Y-117019333D01*
X131097381Y-117094335D01*
X131113951Y-117152507D01*
X131124354Y-117187337D01*
X131126276Y-117193016D01*
X131134241Y-117186486D01*
X131150304Y-117152654D01*
X131172621Y-117096127D01*
X131199345Y-117021510D01*
X131221937Y-116954107D01*
X131308041Y-116690143D01*
X131374130Y-116695104D01*
G36*
X131374130Y-116695104D02*
G01*
X131440220Y-116700066D01*
X131526626Y-116959079D01*
X131613031Y-117218092D01*
X131640124Y-117126184D01*
X131656428Y-117069384D01*
X131677875Y-116992625D01*
X131701035Y-116908251D01*
X131713280Y-116862993D01*
X131759344Y-116691710D01*
X131949387Y-116691710D01*
X131892582Y-116871349D01*
X131864607Y-116959704D01*
X131830813Y-117066281D01*
X131795520Y-117177454D01*
X131764013Y-117276579D01*
X131692250Y-117502171D01*
X131537286Y-117512253D01*
X131495270Y-117373528D01*
X131469359Y-117287351D01*
X131441083Y-117192347D01*
X131416369Y-117108441D01*
X131415394Y-117105102D01*
X131396935Y-117048248D01*
X131380649Y-117009456D01*
X131369242Y-116994787D01*
X131366898Y-116996483D01*
X131358671Y-117019225D01*
X131343038Y-117067940D01*
X131321904Y-117136502D01*
X131297170Y-117218785D01*
X131283787Y-117264046D01*
X131211311Y-117510526D01*
X131057495Y-117510526D01*
X130934531Y-117122006D01*
X130899988Y-117013022D01*
X130868521Y-116914048D01*
X130841616Y-116829736D01*
X130820759Y-116764734D01*
X130807438Y-116723692D01*
X130803388Y-116711701D01*
X130806594Y-116699423D01*
X130831765Y-116694046D01*
X130884146Y-116694584D01*
X130892345Y-116694990D01*
X130989482Y-116700066D01*
X131053100Y-116934013D01*
X131076484Y-117019333D01*
X131097381Y-117094335D01*
X131113951Y-117152507D01*
X131124354Y-117187337D01*
X131126276Y-117193016D01*
X131134241Y-117186486D01*
X131150304Y-117152654D01*
X131172621Y-117096127D01*
X131199345Y-117021510D01*
X131221937Y-116954107D01*
X131308041Y-116690143D01*
X131374130Y-116695104D01*
G37*
X127626784Y-115447104D02*
X127714205Y-115485754D01*
X127780570Y-115550290D01*
X127825976Y-115640812D01*
X127850518Y-115757418D01*
X127852277Y-115775624D01*
X127853656Y-115903984D01*
X127835784Y-116016496D01*
X127799750Y-116107688D01*
X127780455Y-116137022D01*
X127713245Y-116199106D01*
X127627650Y-116239316D01*
X127531890Y-116256003D01*
X127434187Y-116247517D01*
X127359917Y-116221380D01*
X127296047Y-116177335D01*
X127243846Y-116119587D01*
X127242943Y-116118236D01*
X127221744Y-116082593D01*
X127207967Y-116046752D01*
X127199624Y-116001519D01*
X127194727Y-115937701D01*
X127192569Y-115885368D01*
X127191671Y-115837910D01*
X127358743Y-115837910D01*
X127360376Y-115885154D01*
X127366304Y-115948046D01*
X127376761Y-115988407D01*
X127395619Y-116017122D01*
X127413281Y-116033896D01*
X127475894Y-116069016D01*
X127541408Y-116073710D01*
X127602421Y-116048440D01*
X127632928Y-116020124D01*
X127654911Y-115991589D01*
X127667769Y-115964284D01*
X127673412Y-115928750D01*
X127673751Y-115875524D01*
X127672012Y-115826506D01*
X127668271Y-115756482D01*
X127662341Y-115711064D01*
X127651653Y-115681440D01*
X127633639Y-115658797D01*
X127619363Y-115645855D01*
X127559651Y-115611860D01*
X127495234Y-115610165D01*
X127441219Y-115630301D01*
X127395140Y-115672352D01*
X127367689Y-115741428D01*
X127358743Y-115837910D01*
X127191671Y-115837910D01*
X127190599Y-115781299D01*
X127193964Y-115703468D01*
X127204045Y-115644930D01*
X127222226Y-115598737D01*
X127249890Y-115557942D01*
X127260146Y-115545828D01*
X127324278Y-115485474D01*
X127393066Y-115450220D01*
X127477189Y-115435450D01*
X127518209Y-115434243D01*
X127626784Y-115447104D01*
G36*
X127626784Y-115447104D02*
G01*
X127714205Y-115485754D01*
X127780570Y-115550290D01*
X127825976Y-115640812D01*
X127850518Y-115757418D01*
X127852277Y-115775624D01*
X127853656Y-115903984D01*
X127835784Y-116016496D01*
X127799750Y-116107688D01*
X127780455Y-116137022D01*
X127713245Y-116199106D01*
X127627650Y-116239316D01*
X127531890Y-116256003D01*
X127434187Y-116247517D01*
X127359917Y-116221380D01*
X127296047Y-116177335D01*
X127243846Y-116119587D01*
X127242943Y-116118236D01*
X127221744Y-116082593D01*
X127207967Y-116046752D01*
X127199624Y-116001519D01*
X127194727Y-115937701D01*
X127192569Y-115885368D01*
X127191671Y-115837910D01*
X127358743Y-115837910D01*
X127360376Y-115885154D01*
X127366304Y-115948046D01*
X127376761Y-115988407D01*
X127395619Y-116017122D01*
X127413281Y-116033896D01*
X127475894Y-116069016D01*
X127541408Y-116073710D01*
X127602421Y-116048440D01*
X127632928Y-116020124D01*
X127654911Y-115991589D01*
X127667769Y-115964284D01*
X127673412Y-115928750D01*
X127673751Y-115875524D01*
X127672012Y-115826506D01*
X127668271Y-115756482D01*
X127662341Y-115711064D01*
X127651653Y-115681440D01*
X127633639Y-115658797D01*
X127619363Y-115645855D01*
X127559651Y-115611860D01*
X127495234Y-115610165D01*
X127441219Y-115630301D01*
X127395140Y-115672352D01*
X127367689Y-115741428D01*
X127358743Y-115837910D01*
X127191671Y-115837910D01*
X127190599Y-115781299D01*
X127193964Y-115703468D01*
X127204045Y-115644930D01*
X127222226Y-115598737D01*
X127249890Y-115557942D01*
X127260146Y-115545828D01*
X127324278Y-115485474D01*
X127393066Y-115450220D01*
X127477189Y-115435450D01*
X127518209Y-115434243D01*
X127626784Y-115447104D01*
G37*
X130732631Y-117510526D02*
X130640723Y-117510526D01*
X130587377Y-117508962D01*
X130559593Y-117502485D01*
X130549590Y-117488418D01*
X130548815Y-117478906D01*
X130547128Y-117459832D01*
X130536490Y-117456174D01*
X130508535Y-117467932D01*
X130486795Y-117478906D01*
X130403332Y-117504911D01*
X130312604Y-117506416D01*
X130238842Y-117487021D01*
X130170154Y-117440165D01*
X130117794Y-117371004D01*
X130089122Y-117289427D01*
X130088392Y-117284866D01*
X130084132Y-117235101D01*
X130082014Y-117163659D01*
X130082184Y-117109626D01*
X130264720Y-117109626D01*
X130268949Y-117181441D01*
X130278568Y-117240634D01*
X130291590Y-117274060D01*
X130340856Y-117319740D01*
X130399350Y-117336115D01*
X130459671Y-117322873D01*
X130511217Y-117283373D01*
X130530738Y-117256807D01*
X130542152Y-117225106D01*
X130547498Y-117178832D01*
X130548815Y-117109328D01*
X130546458Y-117040499D01*
X130540233Y-116980026D01*
X130531408Y-116939556D01*
X130529937Y-116935929D01*
X130494347Y-116892802D01*
X130442400Y-116869124D01*
X130384278Y-116865301D01*
X130330160Y-116881738D01*
X130290226Y-116918840D01*
X130286083Y-116926222D01*
X130273116Y-116971239D01*
X130266052Y-117035967D01*
X130264720Y-117109626D01*
X130082184Y-117109626D01*
X130082271Y-117082230D01*
X130083472Y-117038405D01*
X130091645Y-116929988D01*
X130108630Y-116848588D01*
X130136887Y-116788412D01*
X130178872Y-116743666D01*
X130219632Y-116717400D01*
X130276581Y-116698935D01*
X130347411Y-116692602D01*
X130419941Y-116697760D01*
X130481986Y-116713769D01*
X130514768Y-116732920D01*
X130548815Y-116763732D01*
X130548815Y-116374210D01*
X130732631Y-116374210D01*
X130732631Y-117510526D01*
G36*
X130732631Y-117510526D02*
G01*
X130640723Y-117510526D01*
X130587377Y-117508962D01*
X130559593Y-117502485D01*
X130549590Y-117488418D01*
X130548815Y-117478906D01*
X130547128Y-117459832D01*
X130536490Y-117456174D01*
X130508535Y-117467932D01*
X130486795Y-117478906D01*
X130403332Y-117504911D01*
X130312604Y-117506416D01*
X130238842Y-117487021D01*
X130170154Y-117440165D01*
X130117794Y-117371004D01*
X130089122Y-117289427D01*
X130088392Y-117284866D01*
X130084132Y-117235101D01*
X130082014Y-117163659D01*
X130082184Y-117109626D01*
X130264720Y-117109626D01*
X130268949Y-117181441D01*
X130278568Y-117240634D01*
X130291590Y-117274060D01*
X130340856Y-117319740D01*
X130399350Y-117336115D01*
X130459671Y-117322873D01*
X130511217Y-117283373D01*
X130530738Y-117256807D01*
X130542152Y-117225106D01*
X130547498Y-117178832D01*
X130548815Y-117109328D01*
X130546458Y-117040499D01*
X130540233Y-116980026D01*
X130531408Y-116939556D01*
X130529937Y-116935929D01*
X130494347Y-116892802D01*
X130442400Y-116869124D01*
X130384278Y-116865301D01*
X130330160Y-116881738D01*
X130290226Y-116918840D01*
X130286083Y-116926222D01*
X130273116Y-116971239D01*
X130266052Y-117035967D01*
X130264720Y-117109626D01*
X130082184Y-117109626D01*
X130082271Y-117082230D01*
X130083472Y-117038405D01*
X130091645Y-116929988D01*
X130108630Y-116848588D01*
X130136887Y-116788412D01*
X130178872Y-116743666D01*
X130219632Y-116717400D01*
X130276581Y-116698935D01*
X130347411Y-116692602D01*
X130419941Y-116697760D01*
X130481986Y-116713769D01*
X130514768Y-116732920D01*
X130548815Y-116763732D01*
X130548815Y-116374210D01*
X130732631Y-116374210D01*
X130732631Y-117510526D01*
G37*
X134558784Y-115435554D02*
X134601574Y-115445949D01*
X134683609Y-115484013D01*
X134753757Y-115542149D01*
X134802305Y-115611852D01*
X134808975Y-115627502D01*
X134818124Y-115668496D01*
X134824529Y-115729138D01*
X134826710Y-115790430D01*
X134826710Y-115906316D01*
X134584407Y-115906316D01*
X134484471Y-115906693D01*
X134414069Y-115908987D01*
X134369313Y-115914938D01*
X134346315Y-115926285D01*
X134341189Y-115944771D01*
X134350048Y-115972136D01*
X134365917Y-116004155D01*
X134410184Y-116057592D01*
X134471699Y-116084215D01*
X134546885Y-116083347D01*
X134632053Y-116054371D01*
X134705659Y-116018611D01*
X134766734Y-116066904D01*
X134827810Y-116115197D01*
X134770351Y-116168285D01*
X134693641Y-116218445D01*
X134599302Y-116248688D01*
X134497827Y-116257151D01*
X134399711Y-116241974D01*
X134383881Y-116236824D01*
X134297647Y-116191791D01*
X134233501Y-116124652D01*
X134190091Y-116033405D01*
X134166064Y-115916044D01*
X134165784Y-115913529D01*
X134163633Y-115785627D01*
X134172329Y-115739997D01*
X134342105Y-115739997D01*
X134357697Y-115747013D01*
X134400029Y-115752388D01*
X134462434Y-115755457D01*
X134501981Y-115755921D01*
X134575728Y-115755630D01*
X134621840Y-115753783D01*
X134646100Y-115748912D01*
X134654294Y-115739555D01*
X134652206Y-115724245D01*
X134650455Y-115718322D01*
X134620560Y-115662668D01*
X134573542Y-115617815D01*
X134532049Y-115598105D01*
X134476926Y-115599295D01*
X134421068Y-115623875D01*
X134374212Y-115664570D01*
X134346094Y-115714108D01*
X134342105Y-115739997D01*
X134172329Y-115739997D01*
X134185074Y-115673133D01*
X134227611Y-115578727D01*
X134288747Y-115505088D01*
X134365985Y-115454893D01*
X134456830Y-115430822D01*
X134558784Y-115435554D01*
G36*
X134558784Y-115435554D02*
G01*
X134601574Y-115445949D01*
X134683609Y-115484013D01*
X134753757Y-115542149D01*
X134802305Y-115611852D01*
X134808975Y-115627502D01*
X134818124Y-115668496D01*
X134824529Y-115729138D01*
X134826710Y-115790430D01*
X134826710Y-115906316D01*
X134584407Y-115906316D01*
X134484471Y-115906693D01*
X134414069Y-115908987D01*
X134369313Y-115914938D01*
X134346315Y-115926285D01*
X134341189Y-115944771D01*
X134350048Y-115972136D01*
X134365917Y-116004155D01*
X134410184Y-116057592D01*
X134471699Y-116084215D01*
X134546885Y-116083347D01*
X134632053Y-116054371D01*
X134705659Y-116018611D01*
X134766734Y-116066904D01*
X134827810Y-116115197D01*
X134770351Y-116168285D01*
X134693641Y-116218445D01*
X134599302Y-116248688D01*
X134497827Y-116257151D01*
X134399711Y-116241974D01*
X134383881Y-116236824D01*
X134297647Y-116191791D01*
X134233501Y-116124652D01*
X134190091Y-116033405D01*
X134166064Y-115916044D01*
X134165784Y-115913529D01*
X134163633Y-115785627D01*
X134172329Y-115739997D01*
X134342105Y-115739997D01*
X134357697Y-115747013D01*
X134400029Y-115752388D01*
X134462434Y-115755457D01*
X134501981Y-115755921D01*
X134575728Y-115755630D01*
X134621840Y-115753783D01*
X134646100Y-115748912D01*
X134654294Y-115739555D01*
X134652206Y-115724245D01*
X134650455Y-115718322D01*
X134620560Y-115662668D01*
X134573542Y-115617815D01*
X134532049Y-115598105D01*
X134476926Y-115599295D01*
X134421068Y-115623875D01*
X134374212Y-115664570D01*
X134346094Y-115714108D01*
X134342105Y-115739997D01*
X134172329Y-115739997D01*
X134185074Y-115673133D01*
X134227611Y-115578727D01*
X134288747Y-115505088D01*
X134365985Y-115454893D01*
X134456830Y-115430822D01*
X134558784Y-115435554D01*
G37*
X131018628Y-115435547D02*
X131081908Y-115447548D01*
X131147557Y-115472648D01*
X131154572Y-115475848D01*
X131204356Y-115502026D01*
X131238834Y-115526353D01*
X131249978Y-115541937D01*
X131239366Y-115567353D01*
X131213588Y-115604853D01*
X131202146Y-115618852D01*
X131154992Y-115673954D01*
X131094201Y-115638086D01*
X131036347Y-115614192D01*
X130969500Y-115601420D01*
X130905394Y-115600613D01*
X130855764Y-115612615D01*
X130843854Y-115620105D01*
X130821172Y-115654450D01*
X130818416Y-115694013D01*
X130835388Y-115724920D01*
X130845427Y-115730913D01*
X130875510Y-115738357D01*
X130928389Y-115747106D01*
X130993575Y-115755467D01*
X131005600Y-115756778D01*
X131110297Y-115774888D01*
X131186232Y-115805651D01*
X131236592Y-115851907D01*
X131264564Y-115916497D01*
X131273278Y-115995387D01*
X131261240Y-116085065D01*
X131222151Y-116155486D01*
X131155855Y-116206777D01*
X131062194Y-116239067D01*
X130958223Y-116251807D01*
X130873438Y-116251654D01*
X130804665Y-116240083D01*
X130757697Y-116224109D01*
X130698350Y-116196275D01*
X130643506Y-116163973D01*
X130624013Y-116149755D01*
X130573881Y-116108835D01*
X130694803Y-115986477D01*
X130763543Y-116031967D01*
X130832488Y-116066133D01*
X130906111Y-116084004D01*
X130976883Y-116085889D01*
X131037274Y-116072101D01*
X131079757Y-116042949D01*
X131093474Y-116018352D01*
X131091417Y-115978904D01*
X131057330Y-115948737D01*
X130991308Y-115927906D01*
X130918974Y-115918279D01*
X130807652Y-115899910D01*
X130724952Y-115865254D01*
X130669765Y-115813297D01*
X130640988Y-115743023D01*
X130637001Y-115659707D01*
X130656693Y-115572681D01*
X130701589Y-115506902D01*
X130772091Y-115462068D01*
X130868601Y-115437879D01*
X130940100Y-115433137D01*
X131018628Y-115435547D01*
G36*
X131018628Y-115435547D02*
G01*
X131081908Y-115447548D01*
X131147557Y-115472648D01*
X131154572Y-115475848D01*
X131204356Y-115502026D01*
X131238834Y-115526353D01*
X131249978Y-115541937D01*
X131239366Y-115567353D01*
X131213588Y-115604853D01*
X131202146Y-115618852D01*
X131154992Y-115673954D01*
X131094201Y-115638086D01*
X131036347Y-115614192D01*
X130969500Y-115601420D01*
X130905394Y-115600613D01*
X130855764Y-115612615D01*
X130843854Y-115620105D01*
X130821172Y-115654450D01*
X130818416Y-115694013D01*
X130835388Y-115724920D01*
X130845427Y-115730913D01*
X130875510Y-115738357D01*
X130928389Y-115747106D01*
X130993575Y-115755467D01*
X131005600Y-115756778D01*
X131110297Y-115774888D01*
X131186232Y-115805651D01*
X131236592Y-115851907D01*
X131264564Y-115916497D01*
X131273278Y-115995387D01*
X131261240Y-116085065D01*
X131222151Y-116155486D01*
X131155855Y-116206777D01*
X131062194Y-116239067D01*
X130958223Y-116251807D01*
X130873438Y-116251654D01*
X130804665Y-116240083D01*
X130757697Y-116224109D01*
X130698350Y-116196275D01*
X130643506Y-116163973D01*
X130624013Y-116149755D01*
X130573881Y-116108835D01*
X130694803Y-115986477D01*
X130763543Y-116031967D01*
X130832488Y-116066133D01*
X130906111Y-116084004D01*
X130976883Y-116085889D01*
X131037274Y-116072101D01*
X131079757Y-116042949D01*
X131093474Y-116018352D01*
X131091417Y-115978904D01*
X131057330Y-115948737D01*
X130991308Y-115927906D01*
X130918974Y-115918279D01*
X130807652Y-115899910D01*
X130724952Y-115865254D01*
X130669765Y-115813297D01*
X130640988Y-115743023D01*
X130637001Y-115659707D01*
X130656693Y-115572681D01*
X130701589Y-115506902D01*
X130772091Y-115462068D01*
X130868601Y-115437879D01*
X130940100Y-115433137D01*
X131018628Y-115435547D01*
G37*
X133701193Y-116696078D02*
X133781068Y-116716845D01*
X133847962Y-116759705D01*
X133880351Y-116791723D01*
X133933445Y-116867413D01*
X133963873Y-116955216D01*
X133974327Y-117063150D01*
X133974380Y-117071875D01*
X133974473Y-117159605D01*
X133469534Y-117159605D01*
X133480298Y-117205559D01*
X133499732Y-117247178D01*
X133533745Y-117290544D01*
X133540860Y-117297467D01*
X133602003Y-117334935D01*
X133671729Y-117341289D01*
X133751987Y-117316638D01*
X133765592Y-117310000D01*
X133807319Y-117289819D01*
X133835268Y-117278321D01*
X133840145Y-117277258D01*
X133857168Y-117287583D01*
X133889633Y-117312845D01*
X133906114Y-117326650D01*
X133940264Y-117358361D01*
X133951478Y-117379299D01*
X133943695Y-117398560D01*
X133939535Y-117403827D01*
X133911357Y-117426878D01*
X133864862Y-117454892D01*
X133832434Y-117471246D01*
X133740385Y-117500059D01*
X133638476Y-117509395D01*
X133541963Y-117498332D01*
X133514934Y-117490412D01*
X133431276Y-117445581D01*
X133369266Y-117376598D01*
X133328545Y-117282794D01*
X133308755Y-117163498D01*
X133306582Y-117101118D01*
X133312926Y-117010298D01*
X133473157Y-117010298D01*
X133488655Y-117017012D01*
X133530312Y-117022280D01*
X133590876Y-117025389D01*
X133631907Y-117025921D01*
X133705711Y-117025408D01*
X133752293Y-117023006D01*
X133777848Y-117017422D01*
X133788569Y-117007361D01*
X133790657Y-116992763D01*
X133776331Y-116947796D01*
X133740262Y-116903353D01*
X133692815Y-116869242D01*
X133645349Y-116855288D01*
X133580879Y-116867666D01*
X133525070Y-116903452D01*
X133486374Y-116955033D01*
X133473157Y-117010298D01*
X133312926Y-117010298D01*
X133315821Y-116968866D01*
X133344336Y-116863498D01*
X133392729Y-116784178D01*
X133461604Y-116730071D01*
X133551565Y-116700343D01*
X133600300Y-116694618D01*
X133701193Y-116696078D01*
G36*
X133701193Y-116696078D02*
G01*
X133781068Y-116716845D01*
X133847962Y-116759705D01*
X133880351Y-116791723D01*
X133933445Y-116867413D01*
X133963873Y-116955216D01*
X133974327Y-117063150D01*
X133974380Y-117071875D01*
X133974473Y-117159605D01*
X133469534Y-117159605D01*
X133480298Y-117205559D01*
X133499732Y-117247178D01*
X133533745Y-117290544D01*
X133540860Y-117297467D01*
X133602003Y-117334935D01*
X133671729Y-117341289D01*
X133751987Y-117316638D01*
X133765592Y-117310000D01*
X133807319Y-117289819D01*
X133835268Y-117278321D01*
X133840145Y-117277258D01*
X133857168Y-117287583D01*
X133889633Y-117312845D01*
X133906114Y-117326650D01*
X133940264Y-117358361D01*
X133951478Y-117379299D01*
X133943695Y-117398560D01*
X133939535Y-117403827D01*
X133911357Y-117426878D01*
X133864862Y-117454892D01*
X133832434Y-117471246D01*
X133740385Y-117500059D01*
X133638476Y-117509395D01*
X133541963Y-117498332D01*
X133514934Y-117490412D01*
X133431276Y-117445581D01*
X133369266Y-117376598D01*
X133328545Y-117282794D01*
X133308755Y-117163498D01*
X133306582Y-117101118D01*
X133312926Y-117010298D01*
X133473157Y-117010298D01*
X133488655Y-117017012D01*
X133530312Y-117022280D01*
X133590876Y-117025389D01*
X133631907Y-117025921D01*
X133705711Y-117025408D01*
X133752293Y-117023006D01*
X133777848Y-117017422D01*
X133788569Y-117007361D01*
X133790657Y-116992763D01*
X133776331Y-116947796D01*
X133740262Y-116903353D01*
X133692815Y-116869242D01*
X133645349Y-116855288D01*
X133580879Y-116867666D01*
X133525070Y-116903452D01*
X133486374Y-116955033D01*
X133473157Y-117010298D01*
X133312926Y-117010298D01*
X133315821Y-116968866D01*
X133344336Y-116863498D01*
X133392729Y-116784178D01*
X133461604Y-116730071D01*
X133551565Y-116700343D01*
X133600300Y-116694618D01*
X133701193Y-116696078D01*
G37*
X129197018Y-115457027D02*
X129213670Y-115464866D01*
X129271305Y-115507086D01*
X129325805Y-115568700D01*
X129366499Y-115636543D01*
X129378074Y-115667734D01*
X129388634Y-115723449D01*
X129394931Y-115790781D01*
X129395696Y-115818585D01*
X129395789Y-115906316D01*
X128890850Y-115906316D01*
X128901613Y-115952270D01*
X128928033Y-116006620D01*
X128974222Y-116053591D01*
X129029172Y-116083848D01*
X129064189Y-116090131D01*
X129111677Y-116082506D01*
X129168335Y-116063383D01*
X129187582Y-116054584D01*
X129258759Y-116019036D01*
X129319502Y-116065367D01*
X129354552Y-116096703D01*
X129373202Y-116122567D01*
X129374147Y-116130158D01*
X129357485Y-116148556D01*
X129320970Y-116176515D01*
X129287828Y-116198327D01*
X129198393Y-116237537D01*
X129098129Y-116255285D01*
X128998754Y-116250670D01*
X128919539Y-116226551D01*
X128837880Y-116174884D01*
X128779849Y-116106856D01*
X128743546Y-116018843D01*
X128727072Y-115907216D01*
X128725611Y-115856138D01*
X128731457Y-115739091D01*
X128732175Y-115735686D01*
X128899489Y-115735686D01*
X128904097Y-115746662D01*
X128923036Y-115752715D01*
X128962098Y-115755310D01*
X129027077Y-115755910D01*
X129052097Y-115755921D01*
X129128221Y-115755014D01*
X129176496Y-115751720D01*
X129202460Y-115745181D01*
X129211648Y-115734537D01*
X129211973Y-115731119D01*
X129201487Y-115703956D01*
X129175242Y-115665903D01*
X129163959Y-115652579D01*
X129122072Y-115614896D01*
X129078409Y-115600080D01*
X129054885Y-115598842D01*
X128991243Y-115614329D01*
X128937873Y-115655930D01*
X128904019Y-115716353D01*
X128903419Y-115718322D01*
X128899489Y-115735686D01*
X128732175Y-115735686D01*
X128750899Y-115646928D01*
X128785922Y-115573190D01*
X128828756Y-115520848D01*
X128907948Y-115464092D01*
X129001040Y-115433762D01*
X129100055Y-115431021D01*
X129197018Y-115457027D01*
G36*
X129197018Y-115457027D02*
G01*
X129213670Y-115464866D01*
X129271305Y-115507086D01*
X129325805Y-115568700D01*
X129366499Y-115636543D01*
X129378074Y-115667734D01*
X129388634Y-115723449D01*
X129394931Y-115790781D01*
X129395696Y-115818585D01*
X129395789Y-115906316D01*
X128890850Y-115906316D01*
X128901613Y-115952270D01*
X128928033Y-116006620D01*
X128974222Y-116053591D01*
X129029172Y-116083848D01*
X129064189Y-116090131D01*
X129111677Y-116082506D01*
X129168335Y-116063383D01*
X129187582Y-116054584D01*
X129258759Y-116019036D01*
X129319502Y-116065367D01*
X129354552Y-116096703D01*
X129373202Y-116122567D01*
X129374147Y-116130158D01*
X129357485Y-116148556D01*
X129320970Y-116176515D01*
X129287828Y-116198327D01*
X129198393Y-116237537D01*
X129098129Y-116255285D01*
X128998754Y-116250670D01*
X128919539Y-116226551D01*
X128837880Y-116174884D01*
X128779849Y-116106856D01*
X128743546Y-116018843D01*
X128727072Y-115907216D01*
X128725611Y-115856138D01*
X128731457Y-115739091D01*
X128732175Y-115735686D01*
X128899489Y-115735686D01*
X128904097Y-115746662D01*
X128923036Y-115752715D01*
X128962098Y-115755310D01*
X129027077Y-115755910D01*
X129052097Y-115755921D01*
X129128221Y-115755014D01*
X129176496Y-115751720D01*
X129202460Y-115745181D01*
X129211648Y-115734537D01*
X129211973Y-115731119D01*
X129201487Y-115703956D01*
X129175242Y-115665903D01*
X129163959Y-115652579D01*
X129122072Y-115614896D01*
X129078409Y-115600080D01*
X129054885Y-115598842D01*
X128991243Y-115614329D01*
X128937873Y-115655930D01*
X128904019Y-115716353D01*
X128903419Y-115718322D01*
X128899489Y-115735686D01*
X128732175Y-115735686D01*
X128750899Y-115646928D01*
X128785922Y-115573190D01*
X128828756Y-115520848D01*
X128907948Y-115464092D01*
X129001040Y-115433762D01*
X129100055Y-115431021D01*
X129197018Y-115457027D01*
G37*
X132379992Y-116696673D02*
X132450427Y-116713780D01*
X132470787Y-116722844D01*
X132510253Y-116746583D01*
X132540541Y-116773321D01*
X132562952Y-116807699D01*
X132578786Y-116854360D01*
X132589343Y-116917946D01*
X132595924Y-117003099D01*
X132599828Y-117114462D01*
X132601310Y-117188849D01*
X132606765Y-117510526D01*
X132513580Y-117510526D01*
X132457047Y-117508156D01*
X132427922Y-117500055D01*
X132420394Y-117486451D01*
X132416420Y-117471741D01*
X132398652Y-117474554D01*
X132374440Y-117486348D01*
X132313828Y-117504427D01*
X132235929Y-117509299D01*
X132153995Y-117501330D01*
X132081281Y-117480889D01*
X132074759Y-117478051D01*
X132008302Y-117431365D01*
X131964491Y-117366464D01*
X131944332Y-117290600D01*
X131945872Y-117263344D01*
X132110345Y-117263344D01*
X132124837Y-117300024D01*
X132167805Y-117326309D01*
X132237129Y-117340417D01*
X132274177Y-117342290D01*
X132335919Y-117337494D01*
X132376960Y-117318858D01*
X132386973Y-117310000D01*
X132414100Y-117261806D01*
X132420394Y-117218092D01*
X132420394Y-117159605D01*
X132338930Y-117159605D01*
X132244234Y-117164432D01*
X132177813Y-117179613D01*
X132135846Y-117206200D01*
X132126449Y-117218052D01*
X132110345Y-117263344D01*
X131945872Y-117263344D01*
X131948829Y-117211026D01*
X131978985Y-117134995D01*
X132020131Y-117083612D01*
X132045052Y-117061397D01*
X132069448Y-117046798D01*
X132101191Y-117037897D01*
X132148152Y-117032775D01*
X132218204Y-117029515D01*
X132245990Y-117028577D01*
X132420394Y-117022879D01*
X132420138Y-116970091D01*
X132413384Y-116914603D01*
X132388964Y-116881052D01*
X132339630Y-116859618D01*
X132338306Y-116859236D01*
X132268360Y-116850808D01*
X132199914Y-116861816D01*
X132149047Y-116888585D01*
X132128637Y-116901803D01*
X132106654Y-116899974D01*
X132072826Y-116880824D01*
X132052961Y-116867308D01*
X132014106Y-116838432D01*
X131990038Y-116816786D01*
X131986176Y-116810589D01*
X132002079Y-116778519D01*
X132049065Y-116740219D01*
X132069473Y-116727297D01*
X132128143Y-116705041D01*
X132207212Y-116692432D01*
X132295041Y-116689600D01*
X132379992Y-116696673D01*
G36*
X132379992Y-116696673D02*
G01*
X132450427Y-116713780D01*
X132470787Y-116722844D01*
X132510253Y-116746583D01*
X132540541Y-116773321D01*
X132562952Y-116807699D01*
X132578786Y-116854360D01*
X132589343Y-116917946D01*
X132595924Y-117003099D01*
X132599828Y-117114462D01*
X132601310Y-117188849D01*
X132606765Y-117510526D01*
X132513580Y-117510526D01*
X132457047Y-117508156D01*
X132427922Y-117500055D01*
X132420394Y-117486451D01*
X132416420Y-117471741D01*
X132398652Y-117474554D01*
X132374440Y-117486348D01*
X132313828Y-117504427D01*
X132235929Y-117509299D01*
X132153995Y-117501330D01*
X132081281Y-117480889D01*
X132074759Y-117478051D01*
X132008302Y-117431365D01*
X131964491Y-117366464D01*
X131944332Y-117290600D01*
X131945872Y-117263344D01*
X132110345Y-117263344D01*
X132124837Y-117300024D01*
X132167805Y-117326309D01*
X132237129Y-117340417D01*
X132274177Y-117342290D01*
X132335919Y-117337494D01*
X132376960Y-117318858D01*
X132386973Y-117310000D01*
X132414100Y-117261806D01*
X132420394Y-117218092D01*
X132420394Y-117159605D01*
X132338930Y-117159605D01*
X132244234Y-117164432D01*
X132177813Y-117179613D01*
X132135846Y-117206200D01*
X132126449Y-117218052D01*
X132110345Y-117263344D01*
X131945872Y-117263344D01*
X131948829Y-117211026D01*
X131978985Y-117134995D01*
X132020131Y-117083612D01*
X132045052Y-117061397D01*
X132069448Y-117046798D01*
X132101191Y-117037897D01*
X132148152Y-117032775D01*
X132218204Y-117029515D01*
X132245990Y-117028577D01*
X132420394Y-117022879D01*
X132420138Y-116970091D01*
X132413384Y-116914603D01*
X132388964Y-116881052D01*
X132339630Y-116859618D01*
X132338306Y-116859236D01*
X132268360Y-116850808D01*
X132199914Y-116861816D01*
X132149047Y-116888585D01*
X132128637Y-116901803D01*
X132106654Y-116899974D01*
X132072826Y-116880824D01*
X132052961Y-116867308D01*
X132014106Y-116838432D01*
X131990038Y-116816786D01*
X131986176Y-116810589D01*
X132002079Y-116778519D01*
X132049065Y-116740219D01*
X132069473Y-116727297D01*
X132128143Y-116705041D01*
X132207212Y-116692432D01*
X132295041Y-116689600D01*
X132379992Y-116696673D01*
G37*
X129160457Y-116698184D02*
X129239070Y-116719160D01*
X129298916Y-116757180D01*
X129341147Y-116806978D01*
X129354275Y-116828230D01*
X129363968Y-116850492D01*
X129370744Y-116878970D01*
X129375123Y-116918871D01*
X129377624Y-116975401D01*
X129378768Y-117053767D01*
X129379072Y-117159176D01*
X129379078Y-117187142D01*
X129379078Y-117510526D01*
X129298868Y-117510526D01*
X129247706Y-117506943D01*
X129209877Y-117497866D01*
X129200399Y-117492268D01*
X129174488Y-117482606D01*
X129148024Y-117492268D01*
X129104452Y-117504330D01*
X129041160Y-117509185D01*
X128971010Y-117507078D01*
X128906860Y-117498256D01*
X128869407Y-117486937D01*
X128796933Y-117440412D01*
X128751640Y-117375846D01*
X128731278Y-117290000D01*
X128731088Y-117287796D01*
X128732875Y-117249713D01*
X128894473Y-117249713D01*
X128908601Y-117293030D01*
X128931612Y-117317408D01*
X128977804Y-117335845D01*
X129038775Y-117343205D01*
X129100949Y-117339583D01*
X129150751Y-117325074D01*
X129164703Y-117315765D01*
X129189085Y-117272753D01*
X129195263Y-117223857D01*
X129195263Y-117159605D01*
X129102818Y-117159605D01*
X129014995Y-117166366D01*
X128948418Y-117185520D01*
X128907002Y-117215376D01*
X128894473Y-117249713D01*
X128732875Y-117249713D01*
X128735490Y-117194004D01*
X128766424Y-117119847D01*
X128824581Y-117063767D01*
X128832620Y-117058665D01*
X128867163Y-117042055D01*
X128909918Y-117031996D01*
X128969686Y-117027107D01*
X129040690Y-117025983D01*
X129195263Y-117025921D01*
X129195263Y-116961125D01*
X129188706Y-116910850D01*
X129171975Y-116877169D01*
X129170016Y-116875376D01*
X129132783Y-116860642D01*
X129076580Y-116854931D01*
X129014467Y-116857737D01*
X128959510Y-116868556D01*
X128926899Y-116884782D01*
X128909228Y-116897780D01*
X128890569Y-116900262D01*
X128864819Y-116889613D01*
X128825873Y-116863218D01*
X128767630Y-116818465D01*
X128762284Y-116814273D01*
X128765023Y-116798760D01*
X128787876Y-116772960D01*
X128822609Y-116744289D01*
X128860990Y-116720166D01*
X128873048Y-116714470D01*
X128917034Y-116703103D01*
X128981487Y-116694995D01*
X129053497Y-116691743D01*
X129056864Y-116691736D01*
X129160457Y-116698184D01*
G36*
X129160457Y-116698184D02*
G01*
X129239070Y-116719160D01*
X129298916Y-116757180D01*
X129341147Y-116806978D01*
X129354275Y-116828230D01*
X129363968Y-116850492D01*
X129370744Y-116878970D01*
X129375123Y-116918871D01*
X129377624Y-116975401D01*
X129378768Y-117053767D01*
X129379072Y-117159176D01*
X129379078Y-117187142D01*
X129379078Y-117510526D01*
X129298868Y-117510526D01*
X129247706Y-117506943D01*
X129209877Y-117497866D01*
X129200399Y-117492268D01*
X129174488Y-117482606D01*
X129148024Y-117492268D01*
X129104452Y-117504330D01*
X129041160Y-117509185D01*
X128971010Y-117507078D01*
X128906860Y-117498256D01*
X128869407Y-117486937D01*
X128796933Y-117440412D01*
X128751640Y-117375846D01*
X128731278Y-117290000D01*
X128731088Y-117287796D01*
X128732875Y-117249713D01*
X128894473Y-117249713D01*
X128908601Y-117293030D01*
X128931612Y-117317408D01*
X128977804Y-117335845D01*
X129038775Y-117343205D01*
X129100949Y-117339583D01*
X129150751Y-117325074D01*
X129164703Y-117315765D01*
X129189085Y-117272753D01*
X129195263Y-117223857D01*
X129195263Y-117159605D01*
X129102818Y-117159605D01*
X129014995Y-117166366D01*
X128948418Y-117185520D01*
X128907002Y-117215376D01*
X128894473Y-117249713D01*
X128732875Y-117249713D01*
X128735490Y-117194004D01*
X128766424Y-117119847D01*
X128824581Y-117063767D01*
X128832620Y-117058665D01*
X128867163Y-117042055D01*
X128909918Y-117031996D01*
X128969686Y-117027107D01*
X129040690Y-117025983D01*
X129195263Y-117025921D01*
X129195263Y-116961125D01*
X129188706Y-116910850D01*
X129171975Y-116877169D01*
X129170016Y-116875376D01*
X129132783Y-116860642D01*
X129076580Y-116854931D01*
X129014467Y-116857737D01*
X128959510Y-116868556D01*
X128926899Y-116884782D01*
X128909228Y-116897780D01*
X128890569Y-116900262D01*
X128864819Y-116889613D01*
X128825873Y-116863218D01*
X128767630Y-116818465D01*
X128762284Y-116814273D01*
X128765023Y-116798760D01*
X128787876Y-116772960D01*
X128822609Y-116744289D01*
X128860990Y-116720166D01*
X128873048Y-116714470D01*
X128917034Y-116703103D01*
X128981487Y-116694995D01*
X129053497Y-116691743D01*
X129056864Y-116691736D01*
X129160457Y-116698184D01*
G37*
X128463360Y-115452468D02*
X128498592Y-115469874D01*
X128542040Y-115500206D01*
X128573706Y-115533283D01*
X128595394Y-115574817D01*
X128608903Y-115630522D01*
X128616038Y-115706111D01*
X128618600Y-115807296D01*
X128618750Y-115850797D01*
X128618312Y-115946135D01*
X128616496Y-116014271D01*
X128612545Y-116061418D01*
X128605702Y-116093790D01*
X128595211Y-116117600D01*
X128584296Y-116133843D01*
X128514619Y-116202952D01*
X128432566Y-116244521D01*
X128344050Y-116257023D01*
X128254981Y-116238934D01*
X128226763Y-116226142D01*
X128159210Y-116190931D01*
X128159210Y-116742700D01*
X128208512Y-116717205D01*
X128273473Y-116697480D01*
X128353320Y-116692427D01*
X128433052Y-116701756D01*
X128493265Y-116722714D01*
X128543208Y-116762627D01*
X128585881Y-116819741D01*
X128589090Y-116825605D01*
X128602622Y-116853227D01*
X128612505Y-116881068D01*
X128619309Y-116914794D01*
X128623601Y-116960071D01*
X128625951Y-117022562D01*
X128626928Y-117107935D01*
X128627105Y-117204010D01*
X128627105Y-117510526D01*
X128443289Y-117510526D01*
X128443289Y-116945339D01*
X128391875Y-116902077D01*
X128338466Y-116867472D01*
X128287888Y-116861180D01*
X128237030Y-116877372D01*
X128209925Y-116893227D01*
X128189751Y-116915810D01*
X128175403Y-116949940D01*
X128165776Y-117000434D01*
X128159763Y-117072111D01*
X128156260Y-117169788D01*
X128155026Y-117234802D01*
X128150855Y-117502171D01*
X128063125Y-117507222D01*
X127975394Y-117512273D01*
X127975394Y-115853101D01*
X128159210Y-115853101D01*
X128163896Y-115945600D01*
X128179688Y-116009809D01*
X128209183Y-116049759D01*
X128254980Y-116069480D01*
X128301250Y-116073421D01*
X128353628Y-116068892D01*
X128388390Y-116051069D01*
X128410128Y-116027519D01*
X128427240Y-116002189D01*
X128437427Y-115973969D01*
X128441960Y-115934431D01*
X128442109Y-115875142D01*
X128440584Y-115825498D01*
X128437081Y-115750710D01*
X128431867Y-115701611D01*
X128423087Y-115670467D01*
X128408886Y-115649545D01*
X128395484Y-115637452D01*
X128339487Y-115611081D01*
X128273211Y-115606822D01*
X128235156Y-115615906D01*
X128197477Y-115648196D01*
X128172519Y-115711006D01*
X128160422Y-115803894D01*
X128159210Y-115853101D01*
X127975394Y-115853101D01*
X127975394Y-115438421D01*
X128067302Y-115438421D01*
X128122483Y-115440603D01*
X128150952Y-115448351D01*
X128159206Y-115463468D01*
X128159210Y-115463916D01*
X128163040Y-115478720D01*
X128179933Y-115477039D01*
X128213519Y-115460772D01*
X128291778Y-115435887D01*
X128379827Y-115433271D01*
X128463360Y-115452468D01*
G36*
X128463360Y-115452468D02*
G01*
X128498592Y-115469874D01*
X128542040Y-115500206D01*
X128573706Y-115533283D01*
X128595394Y-115574817D01*
X128608903Y-115630522D01*
X128616038Y-115706111D01*
X128618600Y-115807296D01*
X128618750Y-115850797D01*
X128618312Y-115946135D01*
X128616496Y-116014271D01*
X128612545Y-116061418D01*
X128605702Y-116093790D01*
X128595211Y-116117600D01*
X128584296Y-116133843D01*
X128514619Y-116202952D01*
X128432566Y-116244521D01*
X128344050Y-116257023D01*
X128254981Y-116238934D01*
X128226763Y-116226142D01*
X128159210Y-116190931D01*
X128159210Y-116742700D01*
X128208512Y-116717205D01*
X128273473Y-116697480D01*
X128353320Y-116692427D01*
X128433052Y-116701756D01*
X128493265Y-116722714D01*
X128543208Y-116762627D01*
X128585881Y-116819741D01*
X128589090Y-116825605D01*
X128602622Y-116853227D01*
X128612505Y-116881068D01*
X128619309Y-116914794D01*
X128623601Y-116960071D01*
X128625951Y-117022562D01*
X128626928Y-117107935D01*
X128627105Y-117204010D01*
X128627105Y-117510526D01*
X128443289Y-117510526D01*
X128443289Y-116945339D01*
X128391875Y-116902077D01*
X128338466Y-116867472D01*
X128287888Y-116861180D01*
X128237030Y-116877372D01*
X128209925Y-116893227D01*
X128189751Y-116915810D01*
X128175403Y-116949940D01*
X128165776Y-117000434D01*
X128159763Y-117072111D01*
X128156260Y-117169788D01*
X128155026Y-117234802D01*
X128150855Y-117502171D01*
X128063125Y-117507222D01*
X127975394Y-117512273D01*
X127975394Y-115853101D01*
X128159210Y-115853101D01*
X128163896Y-115945600D01*
X128179688Y-116009809D01*
X128209183Y-116049759D01*
X128254980Y-116069480D01*
X128301250Y-116073421D01*
X128353628Y-116068892D01*
X128388390Y-116051069D01*
X128410128Y-116027519D01*
X128427240Y-116002189D01*
X128437427Y-115973969D01*
X128441960Y-115934431D01*
X128442109Y-115875142D01*
X128440584Y-115825498D01*
X128437081Y-115750710D01*
X128431867Y-115701611D01*
X128423087Y-115670467D01*
X128408886Y-115649545D01*
X128395484Y-115637452D01*
X128339487Y-115611081D01*
X128273211Y-115606822D01*
X128235156Y-115615906D01*
X128197477Y-115648196D01*
X128172519Y-115711006D01*
X128160422Y-115803894D01*
X128159210Y-115853101D01*
X127975394Y-115853101D01*
X127975394Y-115438421D01*
X128067302Y-115438421D01*
X128122483Y-115440603D01*
X128150952Y-115448351D01*
X128159206Y-115463468D01*
X128159210Y-115463916D01*
X128163040Y-115478720D01*
X128179933Y-115477039D01*
X128213519Y-115460772D01*
X128291778Y-115435887D01*
X128379827Y-115433271D01*
X128463360Y-115452468D01*
G37*
X131500964Y-109898576D02*
X131576513Y-110299322D01*
X132134041Y-110529154D01*
X132468465Y-110301748D01*
X132562122Y-110238431D01*
X132646782Y-110181896D01*
X132718495Y-110134727D01*
X132773311Y-110099502D01*
X132807280Y-110078805D01*
X132816530Y-110074342D01*
X132833195Y-110085820D01*
X132868806Y-110117551D01*
X132919371Y-110165483D01*
X132980900Y-110225562D01*
X133049399Y-110293733D01*
X133120879Y-110365945D01*
X133191347Y-110438142D01*
X133256811Y-110506273D01*
X133313280Y-110566283D01*
X133356763Y-110614119D01*
X133383268Y-110645727D01*
X133389605Y-110656305D01*
X133380486Y-110675806D01*
X133354920Y-110718531D01*
X133315597Y-110780298D01*
X133265203Y-110856931D01*
X133206427Y-110944248D01*
X133172368Y-110994052D01*
X133110289Y-111084993D01*
X133055126Y-111167059D01*
X133009554Y-111236163D01*
X132976250Y-111288222D01*
X132957890Y-111319150D01*
X132955131Y-111325650D01*
X132961385Y-111344121D01*
X132978434Y-111387172D01*
X133003703Y-111448749D01*
X133034622Y-111522799D01*
X133068618Y-111603270D01*
X133103118Y-111684107D01*
X133135551Y-111759258D01*
X133163343Y-111822671D01*
X133183923Y-111868293D01*
X133194719Y-111890069D01*
X133195356Y-111890926D01*
X133212307Y-111895084D01*
X133257451Y-111904361D01*
X133326110Y-111917844D01*
X133413602Y-111934621D01*
X133515250Y-111953781D01*
X133574556Y-111964830D01*
X133683172Y-111985510D01*
X133781277Y-112005189D01*
X133863909Y-112022789D01*
X133926104Y-112037233D01*
X133962899Y-112047446D01*
X133970296Y-112050686D01*
X133977540Y-112072617D01*
X133983385Y-112122147D01*
X133987835Y-112193485D01*
X133990893Y-112280839D01*
X133992565Y-112378417D01*
X133992853Y-112480426D01*
X133991761Y-112581075D01*
X133989294Y-112674572D01*
X133985456Y-112755125D01*
X133980250Y-112816942D01*
X133973681Y-112854230D01*
X133969741Y-112861993D01*
X133946188Y-112871298D01*
X133896282Y-112884600D01*
X133826623Y-112900337D01*
X133743813Y-112916946D01*
X133714905Y-112922319D01*
X133575531Y-112947848D01*
X133465436Y-112968408D01*
X133380982Y-112984815D01*
X133318530Y-112997887D01*
X133274444Y-113008441D01*
X133245085Y-113017294D01*
X133226815Y-113025263D01*
X133215998Y-113033165D01*
X133214485Y-113034727D01*
X133199377Y-113059886D01*
X133176329Y-113108850D01*
X133147644Y-113175621D01*
X133115622Y-113254205D01*
X133082565Y-113338607D01*
X133050773Y-113422830D01*
X133022549Y-113500879D01*
X133000193Y-113566759D01*
X132986007Y-113614473D01*
X132982293Y-113638027D01*
X132982602Y-113638852D01*
X132995189Y-113658104D01*
X133023744Y-113700463D01*
X133065267Y-113761521D01*
X133116756Y-113836868D01*
X133175211Y-113922096D01*
X133191858Y-113946315D01*
X133251215Y-114034123D01*
X133303447Y-114114238D01*
X133345708Y-114182062D01*
X133375153Y-114232993D01*
X133388937Y-114262431D01*
X133389605Y-114266048D01*
X133378024Y-114285057D01*
X133346024Y-114322714D01*
X133297718Y-114374973D01*
X133237220Y-114437786D01*
X133168644Y-114507106D01*
X133096104Y-114578885D01*
X133023712Y-114649077D01*
X132955584Y-114713635D01*
X132895832Y-114768510D01*
X132848571Y-114809656D01*
X132817913Y-114833026D01*
X132809432Y-114836842D01*
X132789691Y-114827855D01*
X132749274Y-114803616D01*
X132694763Y-114768209D01*
X132652823Y-114739711D01*
X132576829Y-114687418D01*
X132486834Y-114625845D01*
X132396564Y-114564370D01*
X132348032Y-114531469D01*
X132183762Y-114420359D01*
X132045869Y-114494916D01*
X131983049Y-114527578D01*
X131929629Y-114552966D01*
X131893484Y-114567446D01*
X131884284Y-114569460D01*
X131873221Y-114554584D01*
X131851394Y-114512547D01*
X131820434Y-114447227D01*
X131781970Y-114362500D01*
X131737632Y-114262245D01*
X131689047Y-114150339D01*
X131637846Y-114030659D01*
X131585659Y-113907084D01*
X131534113Y-113783491D01*
X131484840Y-113663757D01*
X131439467Y-113551759D01*
X131399625Y-113451377D01*
X131366942Y-113366486D01*
X131343049Y-113300965D01*
X131329574Y-113258690D01*
X131327406Y-113244172D01*
X131344583Y-113225653D01*
X131382190Y-113195590D01*
X131432366Y-113160232D01*
X131436578Y-113157434D01*
X131566264Y-113053625D01*
X131670834Y-112932515D01*
X131749381Y-112797976D01*
X131800999Y-112653882D01*
X131824782Y-112504105D01*
X131819823Y-112352517D01*
X131785217Y-112202992D01*
X131720057Y-112059400D01*
X131700886Y-112027984D01*
X131601174Y-111901125D01*
X131483377Y-111799255D01*
X131351571Y-111722904D01*
X131209833Y-111672602D01*
X131062242Y-111648879D01*
X130912873Y-111652265D01*
X130765803Y-111683288D01*
X130625111Y-111742480D01*
X130494873Y-111830369D01*
X130454586Y-111866042D01*
X130352055Y-111977706D01*
X130277341Y-112095257D01*
X130226090Y-112227020D01*
X130197546Y-112357507D01*
X130190500Y-112504216D01*
X130213996Y-112651653D01*
X130265649Y-112794834D01*
X130343071Y-112928777D01*
X130443875Y-113048498D01*
X130565676Y-113149014D01*
X130581684Y-113159609D01*
X130632398Y-113194306D01*
X130670950Y-113224370D01*
X130689381Y-113243565D01*
X130689649Y-113244172D01*
X130685692Y-113264936D01*
X130670007Y-113312062D01*
X130644222Y-113381673D01*
X130609969Y-113469893D01*
X130568877Y-113572844D01*
X130522576Y-113686650D01*
X130472696Y-113807435D01*
X130420867Y-113931321D01*
X130368719Y-114054432D01*
X130317882Y-114172891D01*
X130269987Y-114282823D01*
X130226662Y-114380349D01*
X130189538Y-114461593D01*
X130160244Y-114522679D01*
X130140412Y-114559730D01*
X130132426Y-114569460D01*
X130108021Y-114561883D01*
X130062358Y-114541560D01*
X130003310Y-114512125D01*
X129970840Y-114494916D01*
X129832947Y-114420359D01*
X129668677Y-114531469D01*
X129584821Y-114588390D01*
X129493013Y-114651030D01*
X129406980Y-114710011D01*
X129363887Y-114739711D01*
X129303277Y-114780410D01*
X129251955Y-114812663D01*
X129216615Y-114832384D01*
X129205137Y-114836554D01*
X129188430Y-114825307D01*
X129151454Y-114793911D01*
X129097795Y-114745624D01*
X129031038Y-114683708D01*
X128954766Y-114611421D01*
X128906527Y-114565008D01*
X128822133Y-114482087D01*
X128749197Y-114407920D01*
X128690669Y-114345680D01*
X128649497Y-114298541D01*
X128628628Y-114269673D01*
X128626626Y-114263815D01*
X128635917Y-114241532D01*
X128661591Y-114196477D01*
X128700800Y-114133211D01*
X128750697Y-114056295D01*
X128808433Y-113970292D01*
X128824851Y-113946315D01*
X128884677Y-113859170D01*
X128938350Y-113780710D01*
X128982870Y-113715345D01*
X129015235Y-113667484D01*
X129032445Y-113641535D01*
X129034107Y-113638852D01*
X129031621Y-113618172D01*
X129018423Y-113572704D01*
X128996814Y-113508444D01*
X128969096Y-113431387D01*
X128937570Y-113347529D01*
X128904537Y-113262866D01*
X128872299Y-113183392D01*
X128843157Y-113115104D01*
X128819412Y-113063997D01*
X128803365Y-113036067D01*
X128802225Y-113034727D01*
X128792412Y-113026745D01*
X128775839Y-113018851D01*
X128748868Y-113010229D01*
X128707861Y-113000062D01*
X128649180Y-112987531D01*
X128569187Y-112971821D01*
X128464245Y-112952113D01*
X128330715Y-112927592D01*
X128301804Y-112922319D01*
X128216118Y-112905764D01*
X128141418Y-112889569D01*
X128084306Y-112875296D01*
X128051383Y-112864508D01*
X128046969Y-112861993D01*
X128039694Y-112839696D01*
X128033781Y-112789869D01*
X128029234Y-112718304D01*
X128026055Y-112630793D01*
X128024251Y-112533128D01*
X128023823Y-112431101D01*
X128024777Y-112330503D01*
X128027116Y-112237127D01*
X128030844Y-112156765D01*
X128035966Y-112095209D01*
X128042484Y-112058250D01*
X128046414Y-112050686D01*
X128068292Y-112043056D01*
X128118109Y-112030642D01*
X128190903Y-112014522D01*
X128281711Y-111995773D01*
X128385569Y-111975471D01*
X128442154Y-111964830D01*
X128549514Y-111944760D01*
X128645254Y-111926580D01*
X128724694Y-111911199D01*
X128783154Y-111899531D01*
X128815955Y-111892488D01*
X128821354Y-111890926D01*
X128830478Y-111873322D01*
X128849765Y-111830918D01*
X128876645Y-111769772D01*
X128908546Y-111695943D01*
X128942898Y-111615489D01*
X128977129Y-111534468D01*
X129008669Y-111458937D01*
X129034946Y-111394955D01*
X129053389Y-111348580D01*
X129061429Y-111325869D01*
X129061578Y-111324876D01*
X129052465Y-111306961D01*
X129026914Y-111265733D01*
X128987612Y-111205291D01*
X128937243Y-111129731D01*
X128878494Y-111043152D01*
X128844342Y-110993421D01*
X128782110Y-110902236D01*
X128726836Y-110819449D01*
X128681218Y-110749249D01*
X128647952Y-110695824D01*
X128629736Y-110663361D01*
X128627105Y-110656083D01*
X128638414Y-110639145D01*
X128669681Y-110602978D01*
X128716910Y-110551635D01*
X128776108Y-110489167D01*
X128843281Y-110419626D01*
X128914434Y-110347065D01*
X128985574Y-110275535D01*
X129052707Y-110209087D01*
X129111839Y-110151774D01*
X129158975Y-110107647D01*
X129190123Y-110080759D01*
X129200543Y-110074342D01*
X129217509Y-110083365D01*
X129258089Y-110108715D01*
X129318337Y-110147810D01*
X129394307Y-110198071D01*
X129482054Y-110256917D01*
X129548244Y-110301748D01*
X129882668Y-110529154D01*
X130161433Y-110414238D01*
X130440197Y-110299322D01*
X130515746Y-109898576D01*
X130591294Y-109497829D01*
X131425415Y-109497829D01*
X131500964Y-109898576D01*
G36*
X131500964Y-109898576D02*
G01*
X131576513Y-110299322D01*
X132134041Y-110529154D01*
X132468465Y-110301748D01*
X132562122Y-110238431D01*
X132646782Y-110181896D01*
X132718495Y-110134727D01*
X132773311Y-110099502D01*
X132807280Y-110078805D01*
X132816530Y-110074342D01*
X132833195Y-110085820D01*
X132868806Y-110117551D01*
X132919371Y-110165483D01*
X132980900Y-110225562D01*
X133049399Y-110293733D01*
X133120879Y-110365945D01*
X133191347Y-110438142D01*
X133256811Y-110506273D01*
X133313280Y-110566283D01*
X133356763Y-110614119D01*
X133383268Y-110645727D01*
X133389605Y-110656305D01*
X133380486Y-110675806D01*
X133354920Y-110718531D01*
X133315597Y-110780298D01*
X133265203Y-110856931D01*
X133206427Y-110944248D01*
X133172368Y-110994052D01*
X133110289Y-111084993D01*
X133055126Y-111167059D01*
X133009554Y-111236163D01*
X132976250Y-111288222D01*
X132957890Y-111319150D01*
X132955131Y-111325650D01*
X132961385Y-111344121D01*
X132978434Y-111387172D01*
X133003703Y-111448749D01*
X133034622Y-111522799D01*
X133068618Y-111603270D01*
X133103118Y-111684107D01*
X133135551Y-111759258D01*
X133163343Y-111822671D01*
X133183923Y-111868293D01*
X133194719Y-111890069D01*
X133195356Y-111890926D01*
X133212307Y-111895084D01*
X133257451Y-111904361D01*
X133326110Y-111917844D01*
X133413602Y-111934621D01*
X133515250Y-111953781D01*
X133574556Y-111964830D01*
X133683172Y-111985510D01*
X133781277Y-112005189D01*
X133863909Y-112022789D01*
X133926104Y-112037233D01*
X133962899Y-112047446D01*
X133970296Y-112050686D01*
X133977540Y-112072617D01*
X133983385Y-112122147D01*
X133987835Y-112193485D01*
X133990893Y-112280839D01*
X133992565Y-112378417D01*
X133992853Y-112480426D01*
X133991761Y-112581075D01*
X133989294Y-112674572D01*
X133985456Y-112755125D01*
X133980250Y-112816942D01*
X133973681Y-112854230D01*
X133969741Y-112861993D01*
X133946188Y-112871298D01*
X133896282Y-112884600D01*
X133826623Y-112900337D01*
X133743813Y-112916946D01*
X133714905Y-112922319D01*
X133575531Y-112947848D01*
X133465436Y-112968408D01*
X133380982Y-112984815D01*
X133318530Y-112997887D01*
X133274444Y-113008441D01*
X133245085Y-113017294D01*
X133226815Y-113025263D01*
X133215998Y-113033165D01*
X133214485Y-113034727D01*
X133199377Y-113059886D01*
X133176329Y-113108850D01*
X133147644Y-113175621D01*
X133115622Y-113254205D01*
X133082565Y-113338607D01*
X133050773Y-113422830D01*
X133022549Y-113500879D01*
X133000193Y-113566759D01*
X132986007Y-113614473D01*
X132982293Y-113638027D01*
X132982602Y-113638852D01*
X132995189Y-113658104D01*
X133023744Y-113700463D01*
X133065267Y-113761521D01*
X133116756Y-113836868D01*
X133175211Y-113922096D01*
X133191858Y-113946315D01*
X133251215Y-114034123D01*
X133303447Y-114114238D01*
X133345708Y-114182062D01*
X133375153Y-114232993D01*
X133388937Y-114262431D01*
X133389605Y-114266048D01*
X133378024Y-114285057D01*
X133346024Y-114322714D01*
X133297718Y-114374973D01*
X133237220Y-114437786D01*
X133168644Y-114507106D01*
X133096104Y-114578885D01*
X133023712Y-114649077D01*
X132955584Y-114713635D01*
X132895832Y-114768510D01*
X132848571Y-114809656D01*
X132817913Y-114833026D01*
X132809432Y-114836842D01*
X132789691Y-114827855D01*
X132749274Y-114803616D01*
X132694763Y-114768209D01*
X132652823Y-114739711D01*
X132576829Y-114687418D01*
X132486834Y-114625845D01*
X132396564Y-114564370D01*
X132348032Y-114531469D01*
X132183762Y-114420359D01*
X132045869Y-114494916D01*
X131983049Y-114527578D01*
X131929629Y-114552966D01*
X131893484Y-114567446D01*
X131884284Y-114569460D01*
X131873221Y-114554584D01*
X131851394Y-114512547D01*
X131820434Y-114447227D01*
X131781970Y-114362500D01*
X131737632Y-114262245D01*
X131689047Y-114150339D01*
X131637846Y-114030659D01*
X131585659Y-113907084D01*
X131534113Y-113783491D01*
X131484840Y-113663757D01*
X131439467Y-113551759D01*
X131399625Y-113451377D01*
X131366942Y-113366486D01*
X131343049Y-113300965D01*
X131329574Y-113258690D01*
X131327406Y-113244172D01*
X131344583Y-113225653D01*
X131382190Y-113195590D01*
X131432366Y-113160232D01*
X131436578Y-113157434D01*
X131566264Y-113053625D01*
X131670834Y-112932515D01*
X131749381Y-112797976D01*
X131800999Y-112653882D01*
X131824782Y-112504105D01*
X131819823Y-112352517D01*
X131785217Y-112202992D01*
X131720057Y-112059400D01*
X131700886Y-112027984D01*
X131601174Y-111901125D01*
X131483377Y-111799255D01*
X131351571Y-111722904D01*
X131209833Y-111672602D01*
X131062242Y-111648879D01*
X130912873Y-111652265D01*
X130765803Y-111683288D01*
X130625111Y-111742480D01*
X130494873Y-111830369D01*
X130454586Y-111866042D01*
X130352055Y-111977706D01*
X130277341Y-112095257D01*
X130226090Y-112227020D01*
X130197546Y-112357507D01*
X130190500Y-112504216D01*
X130213996Y-112651653D01*
X130265649Y-112794834D01*
X130343071Y-112928777D01*
X130443875Y-113048498D01*
X130565676Y-113149014D01*
X130581684Y-113159609D01*
X130632398Y-113194306D01*
X130670950Y-113224370D01*
X130689381Y-113243565D01*
X130689649Y-113244172D01*
X130685692Y-113264936D01*
X130670007Y-113312062D01*
X130644222Y-113381673D01*
X130609969Y-113469893D01*
X130568877Y-113572844D01*
X130522576Y-113686650D01*
X130472696Y-113807435D01*
X130420867Y-113931321D01*
X130368719Y-114054432D01*
X130317882Y-114172891D01*
X130269987Y-114282823D01*
X130226662Y-114380349D01*
X130189538Y-114461593D01*
X130160244Y-114522679D01*
X130140412Y-114559730D01*
X130132426Y-114569460D01*
X130108021Y-114561883D01*
X130062358Y-114541560D01*
X130003310Y-114512125D01*
X129970840Y-114494916D01*
X129832947Y-114420359D01*
X129668677Y-114531469D01*
X129584821Y-114588390D01*
X129493013Y-114651030D01*
X129406980Y-114710011D01*
X129363887Y-114739711D01*
X129303277Y-114780410D01*
X129251955Y-114812663D01*
X129216615Y-114832384D01*
X129205137Y-114836554D01*
X129188430Y-114825307D01*
X129151454Y-114793911D01*
X129097795Y-114745624D01*
X129031038Y-114683708D01*
X128954766Y-114611421D01*
X128906527Y-114565008D01*
X128822133Y-114482087D01*
X128749197Y-114407920D01*
X128690669Y-114345680D01*
X128649497Y-114298541D01*
X128628628Y-114269673D01*
X128626626Y-114263815D01*
X128635917Y-114241532D01*
X128661591Y-114196477D01*
X128700800Y-114133211D01*
X128750697Y-114056295D01*
X128808433Y-113970292D01*
X128824851Y-113946315D01*
X128884677Y-113859170D01*
X128938350Y-113780710D01*
X128982870Y-113715345D01*
X129015235Y-113667484D01*
X129032445Y-113641535D01*
X129034107Y-113638852D01*
X129031621Y-113618172D01*
X129018423Y-113572704D01*
X128996814Y-113508444D01*
X128969096Y-113431387D01*
X128937570Y-113347529D01*
X128904537Y-113262866D01*
X128872299Y-113183392D01*
X128843157Y-113115104D01*
X128819412Y-113063997D01*
X128803365Y-113036067D01*
X128802225Y-113034727D01*
X128792412Y-113026745D01*
X128775839Y-113018851D01*
X128748868Y-113010229D01*
X128707861Y-113000062D01*
X128649180Y-112987531D01*
X128569187Y-112971821D01*
X128464245Y-112952113D01*
X128330715Y-112927592D01*
X128301804Y-112922319D01*
X128216118Y-112905764D01*
X128141418Y-112889569D01*
X128084306Y-112875296D01*
X128051383Y-112864508D01*
X128046969Y-112861993D01*
X128039694Y-112839696D01*
X128033781Y-112789869D01*
X128029234Y-112718304D01*
X128026055Y-112630793D01*
X128024251Y-112533128D01*
X128023823Y-112431101D01*
X128024777Y-112330503D01*
X128027116Y-112237127D01*
X128030844Y-112156765D01*
X128035966Y-112095209D01*
X128042484Y-112058250D01*
X128046414Y-112050686D01*
X128068292Y-112043056D01*
X128118109Y-112030642D01*
X128190903Y-112014522D01*
X128281711Y-111995773D01*
X128385569Y-111975471D01*
X128442154Y-111964830D01*
X128549514Y-111944760D01*
X128645254Y-111926580D01*
X128724694Y-111911199D01*
X128783154Y-111899531D01*
X128815955Y-111892488D01*
X128821354Y-111890926D01*
X128830478Y-111873322D01*
X128849765Y-111830918D01*
X128876645Y-111769772D01*
X128908546Y-111695943D01*
X128942898Y-111615489D01*
X128977129Y-111534468D01*
X129008669Y-111458937D01*
X129034946Y-111394955D01*
X129053389Y-111348580D01*
X129061429Y-111325869D01*
X129061578Y-111324876D01*
X129052465Y-111306961D01*
X129026914Y-111265733D01*
X128987612Y-111205291D01*
X128937243Y-111129731D01*
X128878494Y-111043152D01*
X128844342Y-110993421D01*
X128782110Y-110902236D01*
X128726836Y-110819449D01*
X128681218Y-110749249D01*
X128647952Y-110695824D01*
X128629736Y-110663361D01*
X128627105Y-110656083D01*
X128638414Y-110639145D01*
X128669681Y-110602978D01*
X128716910Y-110551635D01*
X128776108Y-110489167D01*
X128843281Y-110419626D01*
X128914434Y-110347065D01*
X128985574Y-110275535D01*
X129052707Y-110209087D01*
X129111839Y-110151774D01*
X129158975Y-110107647D01*
X129190123Y-110080759D01*
X129200543Y-110074342D01*
X129217509Y-110083365D01*
X129258089Y-110108715D01*
X129318337Y-110147810D01*
X129394307Y-110198071D01*
X129482054Y-110256917D01*
X129548244Y-110301748D01*
X129882668Y-110529154D01*
X130161433Y-110414238D01*
X130440197Y-110299322D01*
X130515746Y-109898576D01*
X130591294Y-109497829D01*
X131425415Y-109497829D01*
X131500964Y-109898576D01*
G37*
D12*
%TO.C,EN_RAND*%
X104125000Y-85500000D02*
X101325000Y-85500000D01*
X104125000Y-83500000D02*
X104125000Y-85500000D01*
X101325000Y-85500000D02*
X101325000Y-83500000D01*
X101325000Y-83500000D02*
X104125000Y-83500000D01*
%TO.C,TP3*%
X106700000Y-75000000D02*
G75*
G02*
X104300000Y-75000000I-1200000J0D01*
G01*
X104300000Y-75000000D02*
G75*
G02*
X106700000Y-75000000I1200000J0D01*
G01*
%TO.C,R1*%
X113288936Y-81249000D02*
X113743064Y-81249000D01*
X113288936Y-82719000D02*
X113743064Y-82719000D01*
%TO.C,C8*%
X92740000Y-97490000D02*
X92740000Y-100510000D01*
X92740000Y-100510000D02*
X97125000Y-100510000D01*
X97125000Y-97490000D02*
X92740000Y-97490000D01*
D10*
%TO.C,U5*%
X84375000Y-80625000D02*
X84375000Y-80950000D01*
X84375000Y-80625000D02*
X84700000Y-80625000D01*
X84375000Y-87875000D02*
X84375000Y-87550000D01*
X84375000Y-87875000D02*
X84700000Y-87875000D01*
X91625000Y-80625000D02*
X91400000Y-80625000D01*
X91625000Y-80625000D02*
X91625000Y-80950000D01*
X91625000Y-87875000D02*
X91300000Y-87875000D01*
X91625000Y-87875000D02*
X91625000Y-87550000D01*
D12*
X91810000Y-80200000D02*
X91340000Y-79860000D01*
X91810000Y-79520000D01*
X91810000Y-80200000D01*
G36*
X91810000Y-80200000D02*
G01*
X91340000Y-79860000D01*
X91810000Y-79520000D01*
X91810000Y-80200000D01*
G37*
%TO.C,TP4*%
X91200000Y-99000000D02*
G75*
G02*
X88800000Y-99000000I-1200000J0D01*
G01*
X88800000Y-99000000D02*
G75*
G02*
X91200000Y-99000000I1200000J0D01*
G01*
%TO.C,R2*%
X121765000Y-63227064D02*
X121765000Y-62772936D01*
X123235000Y-63227064D02*
X123235000Y-62772936D01*
%TO.C,R5*%
X107281000Y-78711064D02*
X107281000Y-78256936D01*
X108751000Y-78711064D02*
X108751000Y-78256936D01*
%TO.C,C7*%
X100798752Y-98265000D02*
X100276248Y-98265000D01*
X100798752Y-99735000D02*
X100276248Y-99735000D01*
%TO.C,C2*%
X112277252Y-64249000D02*
X111754748Y-64249000D01*
X112277252Y-65719000D02*
X111754748Y-65719000D01*
%TO.C,R3*%
X121765000Y-78227064D02*
X121765000Y-77772936D01*
X123235000Y-78227064D02*
X123235000Y-77772936D01*
%TO.C,SW2*%
X127350000Y-67350000D02*
X139650000Y-67350000D01*
X127350000Y-69470000D02*
X127350000Y-67350000D01*
X127350000Y-74470000D02*
X127350000Y-72530000D01*
X127350000Y-79650000D02*
X127350000Y-77530000D01*
X139650000Y-67350000D02*
X139650000Y-69470000D01*
X139650000Y-72530000D02*
X139650000Y-74470000D01*
X139650000Y-77530000D02*
X139650000Y-79650000D01*
X139650000Y-79650000D02*
X127350000Y-79650000D01*
X137979050Y-73460000D02*
G75*
G02*
X128820950Y-73460000I-4579050J0D01*
G01*
X128820950Y-73460000D02*
G75*
G02*
X137979050Y-73460000I4579050J0D01*
G01*
%TO.C,SW3*%
X114750000Y-55500000D02*
X114750000Y-57000000D01*
X116000000Y-59500000D02*
X120500000Y-59500000D01*
X120500000Y-53000000D02*
X116000000Y-53000000D01*
X121750000Y-57000000D02*
X121750000Y-55500000D01*
%TO.C,C6*%
X95223752Y-106265000D02*
X94701248Y-106265000D01*
X95223752Y-107735000D02*
X94701248Y-107735000D01*
%TO.C,U2*%
X83685000Y-32065000D02*
X83685000Y-37365000D01*
X83685000Y-37365000D02*
X104125000Y-37365000D01*
X104125000Y-32065000D02*
X83685000Y-32065000D01*
X104125000Y-33715000D02*
X104125000Y-32065000D01*
X104125000Y-37365000D02*
X104125000Y-35715000D01*
X104125000Y-35715000D02*
G75*
G02*
X104125000Y-33715000I0J1000000D01*
G01*
%TO.C,C1*%
X113781000Y-73782752D02*
X113781000Y-73260248D01*
X115251000Y-73782752D02*
X115251000Y-73260248D01*
%TO.C,AFF1*%
X114592500Y-45595000D02*
X114592500Y-34165000D01*
X115702500Y-49515000D02*
X127302500Y-49515000D01*
X116002500Y-44880000D02*
X123002500Y-44880000D01*
X117002500Y-39880000D02*
X116002500Y-44880000D01*
X118002500Y-34880000D02*
X117002500Y-39880000D01*
X118002500Y-34880000D02*
X125002500Y-34880000D01*
X123002500Y-44880000D02*
X124002500Y-39880000D01*
X124002500Y-39880000D02*
X117002500Y-39880000D01*
X125002500Y-34880000D02*
X124002500Y-39880000D01*
X127302500Y-30245000D02*
X114702500Y-30245000D01*
X127412500Y-45595000D02*
X127412500Y-34165000D01*
X125449714Y-44880000D02*
G75*
G02*
X124555286Y-44880000I-447214J0D01*
G01*
X124555286Y-44880000D02*
G75*
G02*
X125449714Y-44880000I447214J0D01*
G01*
%TO.C,SW1*%
X127350000Y-52350000D02*
X139650000Y-52350000D01*
X127350000Y-54470000D02*
X127350000Y-52350000D01*
X127350000Y-59470000D02*
X127350000Y-57530000D01*
X127350000Y-64650000D02*
X127350000Y-62530000D01*
X139650000Y-52350000D02*
X139650000Y-54470000D01*
X139650000Y-57530000D02*
X139650000Y-59470000D01*
X139650000Y-62530000D02*
X139650000Y-64650000D01*
X139650000Y-64650000D02*
X127350000Y-64650000D01*
X137979050Y-58460000D02*
G75*
G02*
X128820950Y-58460000I-4579050J0D01*
G01*
X128820950Y-58460000D02*
G75*
G02*
X137979050Y-58460000I4579050J0D01*
G01*
%TO.C,R6*%
X110781000Y-78256936D02*
X110781000Y-78711064D01*
X112251000Y-78256936D02*
X112251000Y-78711064D01*
%TO.C,SW4*%
X112950000Y-111650000D02*
X112950000Y-110650000D01*
X113250000Y-102650000D02*
X116950000Y-102650000D01*
X113250000Y-103530000D02*
X113250000Y-102650000D01*
X113250000Y-106030000D02*
X113250000Y-105470000D01*
X113250000Y-108500000D02*
X113250000Y-107970000D01*
X113250000Y-111350000D02*
X113250000Y-110500000D01*
X113950000Y-111650000D02*
X112950000Y-111650000D01*
X116950000Y-102650000D02*
X116950000Y-103520000D01*
X116950000Y-105480000D02*
X116950000Y-106030000D01*
X116950000Y-107970000D02*
X116950000Y-108530000D01*
X116950000Y-110470000D02*
X116950000Y-111350000D01*
X116950000Y-111350000D02*
X113250000Y-111350000D01*
%TO.C,U3*%
X83765000Y-48860000D02*
X83765000Y-54160000D01*
X83765000Y-54160000D02*
X104205000Y-54160000D01*
X104205000Y-48860000D02*
X83765000Y-48860000D01*
X104205000Y-50510000D02*
X104205000Y-48860000D01*
X104205000Y-54160000D02*
X104205000Y-52510000D01*
X104205000Y-52510000D02*
G75*
G02*
X104205000Y-50510000I0J1000000D01*
G01*
%TO.C,C4*%
X102358752Y-57085000D02*
X101836248Y-57085000D01*
X102358752Y-58555000D02*
X101836248Y-58555000D01*
%TO.C,Q1*%
X113946000Y-80334000D02*
X117546000Y-80334000D01*
X113907522Y-80322478D02*
G75*
G02*
X115746000Y-75883999I1838478J1838478D01*
G01*
X115746000Y-75884000D02*
G75*
G02*
X117584478Y-80322478I0J-2600000D01*
G01*
%TO.C,TP1*%
X119200000Y-73000000D02*
G75*
G02*
X116800000Y-73000000I-1200000J0D01*
G01*
X116800000Y-73000000D02*
G75*
G02*
X119200000Y-73000000I1200000J0D01*
G01*
%TO.C,TP5*%
X90200000Y-105500000D02*
G75*
G02*
X87800000Y-105500000I-1200000J0D01*
G01*
X87800000Y-105500000D02*
G75*
G02*
X90200000Y-105500000I1200000J0D01*
G01*
%TO.C,U4*%
X93440000Y-103362500D02*
X93440000Y-102562500D01*
X93440000Y-103362500D02*
X93440000Y-104162500D01*
X96560000Y-103362500D02*
X96560000Y-102562500D01*
X96560000Y-103362500D02*
X96560000Y-104162500D01*
X93490000Y-104662500D02*
X93160000Y-104902500D01*
X93160000Y-104422500D01*
X93490000Y-104662500D01*
G36*
X93490000Y-104662500D02*
G01*
X93160000Y-104902500D01*
X93160000Y-104422500D01*
X93490000Y-104662500D01*
G37*
%TO.C,C5*%
X108781000Y-73260248D02*
X108781000Y-73782752D01*
X110251000Y-73260248D02*
X110251000Y-73782752D01*
%TO.C,AFF2*%
X129012500Y-45595000D02*
X129012500Y-34165000D01*
X130122500Y-49515000D02*
X141722500Y-49515000D01*
X130422500Y-44880000D02*
X137422500Y-44880000D01*
X131422500Y-39880000D02*
X130422500Y-44880000D01*
X132422500Y-34880000D02*
X131422500Y-39880000D01*
X132422500Y-34880000D02*
X139422500Y-34880000D01*
X137422500Y-44880000D02*
X138422500Y-39880000D01*
X138422500Y-39880000D02*
X131422500Y-39880000D01*
X139422500Y-34880000D02*
X138422500Y-39880000D01*
X141722500Y-30245000D02*
X129122500Y-30245000D01*
X141832500Y-45595000D02*
X141832500Y-34165000D01*
X139869714Y-44880000D02*
G75*
G02*
X138975286Y-44880000I-447214J0D01*
G01*
X138975286Y-44880000D02*
G75*
G02*
X139869714Y-44880000I447214J0D01*
G01*
%TO.C,R4*%
X109765000Y-54772936D02*
X109765000Y-55227064D01*
X111235000Y-54772936D02*
X111235000Y-55227064D01*
%TO.C,TP2*%
X116716000Y-64484000D02*
G75*
G02*
X114316000Y-64484000I-1200000J0D01*
G01*
X114316000Y-64484000D02*
G75*
G02*
X116716000Y-64484000I1200000J0D01*
G01*
D14*
%TO.C,U1*%
X112801500Y-68817261D02*
X112801500Y-68070739D01*
X113265298Y-66920000D02*
X113734704Y-66920000D01*
X113734704Y-69968000D02*
X113265298Y-69968000D01*
X114198500Y-68070740D02*
X114198500Y-68436260D01*
X114947800Y-71238000D02*
G75*
G02*
X114693800Y-71238000I-127000J0D01*
G01*
X114693800Y-71238000D02*
G75*
G02*
X114947800Y-71238000I127000J0D01*
G01*
D12*
%TO.C,C3*%
X102358752Y-40085000D02*
X101836248Y-40085000D01*
X102358752Y-41555000D02*
X101836248Y-41555000D01*
%TO.C,J1*%
X112905000Y-95855000D02*
X112905000Y-88115000D01*
X115505000Y-93255000D02*
X115505000Y-95855000D01*
X115505000Y-95855000D02*
X112905000Y-95855000D01*
X118105000Y-88115000D02*
X112905000Y-88115000D01*
X118105000Y-93255000D02*
X115505000Y-93255000D01*
X118105000Y-93255000D02*
X118105000Y-88115000D01*
X118105000Y-94525000D02*
X118105000Y-95855000D01*
X118105000Y-95855000D02*
X116775000Y-95855000D01*
%TO.C,D1*%
X102990000Y-103650000D02*
X102990000Y-105350000D01*
X102990000Y-103650000D02*
X106250000Y-103650000D01*
X102990000Y-105350000D02*
X106250000Y-105350000D01*
%TD*%
M02*
