%TF.GenerationSoftware,KiCad,Pcbnew,8.0.8*%
%TF.CreationDate,2025-01-23T19:06:30+01:00*%
%TF.ProjectId,Digitaler_Wuerfel,44696769-7461-46c6-9572-5f5775657266,rev?*%
%TF.SameCoordinates,Original*%
%TF.FileFunction,Soldermask,Top*%
%TF.FilePolarity,Negative*%
%FSLAX46Y46*%
G04 Gerber Fmt 4.6, Leading zero omitted, Abs format (unit mm)*
G04 Created by KiCad (PCBNEW 8.0.8) date 2025-01-23 19:06:30*
%MOMM*%
%LPD*%
G01*
G04 APERTURE LIST*
G04 Aperture macros list*
%AMRoundRect*
0 Rectangle with rounded corners*
0 $1 Rounding radius*
0 $2 $3 $4 $5 $6 $7 $8 $9 X,Y pos of 4 corners*
0 Add a 4 corners polygon primitive as box body*
4,1,4,$2,$3,$4,$5,$6,$7,$8,$9,$2,$3,0*
0 Add four circle primitives for the rounded corners*
1,1,$1+$1,$2,$3*
1,1,$1+$1,$4,$5*
1,1,$1+$1,$6,$7*
1,1,$1+$1,$8,$9*
0 Add four rect primitives between the rounded corners*
20,1,$1+$1,$2,$3,$4,$5,0*
20,1,$1+$1,$4,$5,$6,$7,0*
20,1,$1+$1,$6,$7,$8,$9,0*
20,1,$1+$1,$8,$9,$2,$3,0*%
%AMFreePoly0*
4,1,6,1.000000,0.000000,0.500000,-0.750000,-0.500000,-0.750000,-0.500000,0.750000,0.500000,0.750000,1.000000,0.000000,1.000000,0.000000,$1*%
%AMFreePoly1*
4,1,6,0.500000,-0.750000,-0.650000,-0.750000,-0.150000,0.000000,-0.650000,0.750000,0.500000,0.750000,0.500000,-0.750000,0.500000,-0.750000,$1*%
G04 Aperture macros list end*
%ADD10RoundRect,0.250000X0.475000X-0.337500X0.475000X0.337500X-0.475000X0.337500X-0.475000X-0.337500X0*%
%ADD11RoundRect,0.250000X-0.337500X-0.475000X0.337500X-0.475000X0.337500X0.475000X-0.337500X0.475000X0*%
%ADD12C,3.200000*%
%ADD13C,0.800000*%
%ADD14C,6.400000*%
%ADD15FreePoly0,180.000000*%
%ADD16FreePoly1,180.000000*%
%ADD17C,2.000000*%
%ADD18RoundRect,0.250000X-0.350000X-0.450000X0.350000X-0.450000X0.350000X0.450000X-0.350000X0.450000X0*%
%ADD19RoundRect,0.250001X-0.499999X-0.924999X0.499999X-0.924999X0.499999X0.924999X-0.499999X0.924999X0*%
%ADD20R,0.550000X1.600000*%
%ADD21R,1.600000X0.550000*%
%ADD22RoundRect,0.250000X0.450000X-0.350000X0.450000X0.350000X-0.450000X0.350000X-0.450000X-0.350000X0*%
%ADD23RoundRect,0.250000X0.337500X0.475000X-0.337500X0.475000X-0.337500X-0.475000X0.337500X-0.475000X0*%
%ADD24O,3.000000X2.500000*%
%ADD25R,1.600000X1.600000*%
%ADD26O,1.600000X1.600000*%
%ADD27R,1.524000X2.524000*%
%ADD28O,1.524000X2.524000*%
%ADD29RoundRect,0.250000X-0.450000X0.350000X-0.450000X-0.350000X0.450000X-0.350000X0.450000X0.350000X0*%
%ADD30C,1.600000*%
%ADD31R,1.050000X1.500000*%
%ADD32O,1.050000X1.500000*%
%ADD33RoundRect,0.150000X0.150000X-0.512500X0.150000X0.512500X-0.150000X0.512500X-0.150000X-0.512500X0*%
%ADD34RoundRect,0.250000X-0.475000X0.337500X-0.475000X-0.337500X0.475000X-0.337500X0.475000X0.337500X0*%
%ADD35R,1.320800X0.889000*%
%ADD36R,1.320800X0.508000*%
%ADD37R,1.700000X1.700000*%
%ADD38O,1.700000X1.700000*%
%ADD39RoundRect,0.250000X-0.250000X-0.250000X0.250000X-0.250000X0.250000X0.250000X-0.250000X0.250000X0*%
%ADD40C,2.600000*%
%ADD41R,3.000000X3.000000*%
%ADD42C,3.000000*%
G04 APERTURE END LIST*
D10*
%TO.C,C10*%
X89000000Y-78000000D03*
X89000000Y-75925000D03*
%TD*%
D11*
%TO.C,C9*%
X87925000Y-91500000D03*
X90000000Y-91500000D03*
%TD*%
D12*
%TO.C,REF\u002A\u002A*%
X143500000Y-26500000D03*
%TD*%
%TO.C,REF\u002A\u002A*%
X75300000Y-114000000D03*
%TD*%
D13*
%TO.C,REF\u002A\u002A*%
X141100000Y-114000000D03*
X141802944Y-112302944D03*
X141802944Y-115697056D03*
X143500000Y-111600000D03*
D14*
X143500000Y-114000000D03*
D13*
X143500000Y-116400000D03*
X145197056Y-112302944D03*
X145197056Y-115697056D03*
X145900000Y-114000000D03*
%TD*%
D15*
%TO.C,EN_RAND*%
X103450000Y-84500000D03*
D16*
X102000000Y-84500000D03*
%TD*%
D17*
%TO.C,TP3*%
X105500000Y-75000000D03*
%TD*%
D18*
%TO.C,R1*%
X112516000Y-81984000D03*
X114516000Y-81984000D03*
%TD*%
D19*
%TO.C,C8*%
X93750000Y-99000000D03*
X97000000Y-99000000D03*
%TD*%
D20*
%TO.C,U5*%
X90800000Y-80000000D03*
X90000000Y-80000000D03*
X89200000Y-80000000D03*
X88400000Y-80000000D03*
X87600000Y-80000000D03*
X86800000Y-80000000D03*
X86000000Y-80000000D03*
X85200000Y-80000000D03*
D21*
X83750000Y-81450000D03*
X83750000Y-82250000D03*
X83750000Y-83050000D03*
X83750000Y-83850000D03*
X83750000Y-84650000D03*
X83750000Y-85450000D03*
X83750000Y-86250000D03*
X83750000Y-87050000D03*
D20*
X85200000Y-88500000D03*
X86000000Y-88500000D03*
X86800000Y-88500000D03*
X87600000Y-88500000D03*
X88400000Y-88500000D03*
X89200000Y-88500000D03*
X90000000Y-88500000D03*
X90800000Y-88500000D03*
D21*
X92250000Y-87050000D03*
X92250000Y-86250000D03*
X92250000Y-85450000D03*
X92250000Y-84650000D03*
X92250000Y-83850000D03*
X92250000Y-83050000D03*
X92250000Y-82250000D03*
X92250000Y-81450000D03*
%TD*%
D17*
%TO.C,TP4*%
X90000000Y-99000000D03*
%TD*%
D22*
%TO.C,R2*%
X122500000Y-64000000D03*
X122500000Y-62000000D03*
%TD*%
%TO.C,R5*%
X108016000Y-79484000D03*
X108016000Y-77484000D03*
%TD*%
D23*
%TO.C,C7*%
X101575000Y-99000000D03*
X99500000Y-99000000D03*
%TD*%
%TO.C,C2*%
X113053500Y-64984000D03*
X110978500Y-64984000D03*
%TD*%
D22*
%TO.C,R3*%
X122500000Y-79000000D03*
X122500000Y-77000000D03*
%TD*%
D24*
%TO.C,SW2*%
X139750000Y-76000000D03*
X127250000Y-76000000D03*
X139750000Y-71000000D03*
X127250000Y-71000000D03*
%TD*%
D17*
%TO.C,SW3*%
X115000000Y-54000000D03*
X121500000Y-54000000D03*
X115000000Y-58500000D03*
X121500000Y-58500000D03*
%TD*%
D23*
%TO.C,C6*%
X96000000Y-107000000D03*
X93925000Y-107000000D03*
%TD*%
D25*
%TO.C,U2*%
X102795000Y-30905000D03*
D26*
X100255000Y-30905000D03*
X97715000Y-30905000D03*
X95175000Y-30905000D03*
X92635000Y-30905000D03*
X90095000Y-30905000D03*
X87555000Y-30905000D03*
X85015000Y-30905000D03*
X85015000Y-38525000D03*
X87555000Y-38525000D03*
X90095000Y-38525000D03*
X92635000Y-38525000D03*
X95175000Y-38525000D03*
X97715000Y-38525000D03*
X100255000Y-38525000D03*
X102795000Y-38525000D03*
%TD*%
D10*
%TO.C,C1*%
X114516000Y-74559000D03*
X114516000Y-72484000D03*
%TD*%
D27*
%TO.C,AFF1*%
X115922500Y-47500000D03*
D28*
X118462500Y-47500000D03*
X121002500Y-47500000D03*
X123542500Y-47500000D03*
X126082500Y-47500000D03*
X126082500Y-32260000D03*
X123542500Y-32260000D03*
X121002500Y-32260000D03*
X118462500Y-32260000D03*
X115922500Y-32260000D03*
%TD*%
D24*
%TO.C,SW1*%
X139750000Y-61000000D03*
X127250000Y-61000000D03*
X139750000Y-56000000D03*
X127250000Y-56000000D03*
%TD*%
D29*
%TO.C,R6*%
X111516000Y-77484000D03*
X111516000Y-79484000D03*
%TD*%
D25*
%TO.C,SW4*%
X113500000Y-109500000D03*
D30*
X113500000Y-107000000D03*
X113500000Y-104500000D03*
X116700000Y-109500000D03*
X116700000Y-107000000D03*
X116700000Y-104500000D03*
%TD*%
D25*
%TO.C,U3*%
X102875000Y-47700000D03*
D26*
X100335000Y-47700000D03*
X97795000Y-47700000D03*
X95255000Y-47700000D03*
X92715000Y-47700000D03*
X90175000Y-47700000D03*
X87635000Y-47700000D03*
X85095000Y-47700000D03*
X85095000Y-55320000D03*
X87635000Y-55320000D03*
X90175000Y-55320000D03*
X92715000Y-55320000D03*
X95255000Y-55320000D03*
X97795000Y-55320000D03*
X100335000Y-55320000D03*
X102875000Y-55320000D03*
%TD*%
D23*
%TO.C,C4*%
X103135000Y-57820000D03*
X101060000Y-57820000D03*
%TD*%
D31*
%TO.C,Q1*%
X114476000Y-78484000D03*
D32*
X115746000Y-78484000D03*
X117016000Y-78484000D03*
%TD*%
D17*
%TO.C,TP1*%
X118000000Y-73000000D03*
%TD*%
%TO.C,TP5*%
X89000000Y-105500000D03*
%TD*%
D33*
%TO.C,U4*%
X94050000Y-104500000D03*
X95000000Y-104500000D03*
X95950000Y-104500000D03*
X95950000Y-102225000D03*
X94050000Y-102225000D03*
%TD*%
D34*
%TO.C,C5*%
X109516000Y-72484000D03*
X109516000Y-74559000D03*
%TD*%
D27*
%TO.C,AFF2*%
X130342500Y-47500000D03*
D28*
X132882500Y-47500000D03*
X135422500Y-47500000D03*
X137962500Y-47500000D03*
X140502500Y-47500000D03*
X140502500Y-32260000D03*
X137962500Y-32260000D03*
X135422500Y-32260000D03*
X132882500Y-32260000D03*
X130342500Y-32260000D03*
%TD*%
D29*
%TO.C,R4*%
X110500000Y-54000000D03*
X110500000Y-56000000D03*
%TD*%
D17*
%TO.C,TP2*%
X115516000Y-64484000D03*
%TD*%
D35*
%TO.C,U1*%
X114516000Y-69213500D03*
D36*
X114516000Y-67484000D03*
X112484000Y-67483999D03*
X112484000Y-69404001D03*
%TD*%
D23*
%TO.C,C3*%
X103135000Y-40820000D03*
X101060000Y-40820000D03*
%TD*%
D37*
%TO.C,J1*%
X116775000Y-94525000D03*
D38*
X114235000Y-94525000D03*
X116775000Y-91985000D03*
X114235000Y-91985000D03*
X116775000Y-89445000D03*
X114235000Y-89445000D03*
%TD*%
D39*
%TO.C,D1*%
X103750000Y-104500000D03*
X106250000Y-104500000D03*
%TD*%
D40*
%TO.C,BT1*%
X85750000Y-70600000D03*
X107950000Y-85350000D03*
X85750000Y-98600000D03*
D41*
X103200000Y-109500000D03*
D42*
X90500000Y-109500000D03*
%TD*%
D40*
%TO.C,J2*%
X131000000Y-89000000D03*
D37*
X128460000Y-83000000D03*
D38*
X131000000Y-83000000D03*
X133540000Y-83000000D03*
%TD*%
M02*
